<svg xmlns="http://www.w3.org/2000/svg" width="24" height="24" fill="currentColor" viewBox="0 0 24 24">
  <path fill="#000" fill-rule="evenodd" d="M7.258 7.493c-.37-1.16-2.012-1.16-2.382 0L2.038 16.4a.75.75 0 0 0 1.429.455l.623-1.957h3.954l.624 1.957a.75.75 0 0 0 1.429-.455L7.258 7.493Zm.308 5.904-1.499-4.7-1.498 4.7h2.997Zm7.298-5.87a.75.75 0 0 1 .75-.75h5.383a1 1 0 0 1 .819 1.573l-5.054 7.212h4.434a.75.75 0 0 1 0 1.5h-5.395a1 1 0 0 1-.819-1.574l5.054-7.212h-4.422a.75.75 0 0 1-.75-.75Zm-1.108 5.223h-2.3a.75.75 0 1 1 0-1.5h2.3a.75.75 0 1 1 0 1.5Z" clip-rule="evenodd"/>
</svg>
