<svg xmlns="http://www.w3.org/2000/svg" width="16" height="16" fill="currentColor" viewBox="0 0 16 16">
  <path fill="#000" fill-rule="evenodd" d="M4.48 4.47c-.293-.957-1.649-.957-1.942 0L.403 11.44a.625.625 0 0 0 1.195.365l.475-1.55h2.871l.475 1.55a.625.625 0 1 0 1.195-.366L4.48 4.47Zm.105 4.613L3.51 5.568 2.432 9.083h2.153ZM10.11 4.54c0-.345.28-.625.625-.625h4.07a.82.82 0 0 1 .68 1.278l-3.798 5.64h3.271a.625.625 0 1 1 0 1.25H10.88a.82.82 0 0 1-.68-1.28l3.797-5.638h-3.262a.625.625 0 0 1-.625-.625Zm-.78 4.065H7.59a.625.625 0 0 1 0-1.25h1.74a.625.625 0 1 1 0 1.25Z" clip-rule="evenodd"/>
</svg>
