<svg xmlns="http://www.w3.org/2000/svg" width="16" height="16" fill="currentColor" viewBox="0 0 16 16">
  <path fill="#000" fill-rule="evenodd" d="M15.5 8a7.5 7.5 0 1 1-15 0 7.5 7.5 0 0 1 15 0Zm-3.803 4.898A6.11 6.11 0 0 1 8 14.136a6.11 6.11 0 0 1-3.634-1.191c.504-1.61 1.821-3.062 3.684-3.062 1.842 0 3.138 1.423 3.647 3.015Zm.984-.93c-.49-1.15-1.35-2.251-2.562-2.856a3.303 3.303 0 1 0-4.203.03c-1.205.623-2.062 1.735-2.544 2.888a6.136 6.136 0 1 1 9.31-.062ZM8 4.525a2.053 2.053 0 1 0 0 4.106 2.053 2.053 0 0 0 0-4.106Z" clip-rule="evenodd"/>
</svg>
