<svg xmlns="http://www.w3.org/2000/svg" width="24" height="24" fill="currentColor" viewBox="0 0 24 24">
  <path fill="#1F2328" fill-rule="evenodd" d="M12 21a9 9 0 1 0 0-18 9 9 0 0 0 0 18Zm5.653-4.07a7.5 7.5 0 1 0-11.3.006c.624-1.354 1.66-2.627 3.085-3.346a4.109 4.109 0 1 1 5.134-.008c1.427.716 2.46 1.991 3.08 3.347Zm-1.171 1.084c-.692-1.891-2.264-3.523-4.456-3.528h-.036c-2.187.013-3.769 1.645-4.467 3.532A7.467 7.467 0 0 0 12 19.5c1.68 0 3.231-.552 4.482-1.486Zm-4.46-5.028a2.609 2.609 0 1 0-.034 0h.034Z" clip-rule="evenodd"/>
</svg>
