<svg xmlns="http://www.w3.org/2000/svg" width="20" height="20" fill="currentColor" viewBox="0 0 20 20">
  <path fill-rule="evenodd" d="M14.042 15.407A6.72 6.72 0 0 1 10 16.75a6.72 6.72 0 0 1-3.974-1.293c.494-1.803 1.94-3.49 4.027-3.49 2.066 0 3.489 1.654 3.989 3.44Zm1.007-.927c-.506-1.32-1.47-2.612-2.864-3.285a3.482 3.482 0 1 0-4.33.032c-1.388.693-2.347 1.996-2.845 3.319a6.75 6.75 0 1 1 10.04-.066ZM18 10a8 8 0 1 1-16 0 8 8 0 0 1 16 0Zm-8-3.747a2.232 2.232 0 1 0 0 4.463 2.232 2.232 0 0 0 0-4.463Z" clip-rule="evenodd"/>
  <circle cx="14.166" cy="5.833" r="5"/>
  <path d="M16.01 4.481c0 .247-.05.46-.153.641-.102.18-.242.328-.417.443a1.86 1.86 0 0 1-.586.253v.022c.43.054.755.185.977.395.225.21.337.491.337.843 0 .312-.077.592-.23.838-.152.247-.386.44-.704.583-.317.141-.726.212-1.226.212-.296 0-.572-.024-.828-.073a3.266 3.266 0 0 1-.718-.216v-.964a3.248 3.248 0 0 0 1.425.356c.405 0 .688-.07.85-.209.163-.142.245-.34.245-.593a.618.618 0 0 0-.114-.377c-.075-.103-.207-.181-.395-.235-.186-.054-.446-.08-.78-.08h-.407v-.868h.414c.33 0 .58-.03.75-.092.174-.063.291-.149.352-.256a.733.733 0 0 0 .096-.374.58.58 0 0 0-.176-.447c-.117-.107-.313-.16-.586-.16-.171 0-.327.021-.469.065-.14.042-.265.093-.377.154a3.452 3.452 0 0 0-.297.172l-.523-.78c.21-.151.455-.277.736-.377.283-.1.62-.15 1.01-.15.552 0 .99.11 1.311.333.323.222.484.536.484.941Z"/>
</svg>
