<svg xmlns="http://www.w3.org/2000/svg" width="24" height="24" fill="currentColor" viewBox="0 0 24 24">
  <path fill="#000" fill-rule="evenodd" d="M15.891 12.82a2.68 2.68 0 0 0-2.682 2.68 2.68 2.68 0 0 0 2.682 2.678 2.68 2.68 0 0 0 2.682-2.679 2.68 2.68 0 0 0-2.682-2.679Zm-1.177 2.68a1.176 1.176 0 1 1 2.352 0 1.176 1.176 0 0 1-2.352 0Z" clip-rule="evenodd"/>
  <path fill="#000" fill-rule="evenodd" d="M8.808 2.03A4.295 4.295 0 0 0 4.51 6.322c0 1.403.675 2.65 1.717 3.432-.787.416-1.468 1.006-2.034 1.69-1.11 1.339-1.819 3.073-2.105 4.718-.237 1.363.905 2.376 2.113 2.376h5.844l.472.815c.295.51.906.746 1.468.567l.92-.294.815.473.205.944c.125.576.636.987 1.226.987h1.42c.59 0 1.1-.411 1.226-.987l.205-.944.816-.473.919.294a1.255 1.255 0 0 0 1.469-.568l.679-1.176a1.252 1.252 0 0 0-.243-1.554l-.715-.648.003-.942.715-.65a1.252 1.252 0 0 0 .244-1.553l-.683-1.183a1.255 1.255 0 0 0-1.47-.567l-.918.293-.816-.473-.205-.943a1.254 1.254 0 0 0-1.226-.987h-1.42c-.59 0-1.1.41-1.226.987l-.205.944-.498.288A6.587 6.587 0 0 0 11.4 9.746a4.284 4.284 0 0 0 1.705-3.424A4.295 4.295 0 0 0 8.808 2.03ZM6.016 6.322a2.79 2.79 0 0 1 2.792-2.789A2.79 2.79 0 0 1 11.6 6.322 2.79 2.79 0 0 1 8.808 9.11a2.79 2.79 0 0 1-2.792-2.788Zm4.063 10.3a1.25 1.25 0 0 0-.3.412H4.201c-.456 0-.677-.342-.63-.615.25-1.432.865-2.911 1.781-4.017.91-1.097 2.078-1.788 3.472-1.788a4.02 4.02 0 0 1 2.112.596 1.25 1.25 0 0 0-.42.435l-.683 1.184a1.252 1.252 0 0 0 .242 1.554l.716.65.002.941-.714.648Zm5.274-6.15-.185.855c-.075.344-.292.64-.597.817l-1.007.585a1.256 1.256 0 0 1-1.012.11l-.833-.267-.481.834.648.588c.26.236.41.572.41.924l.003 1.164c0 .354-.148.692-.41.93l-.648.587.478.827.833-.266a1.256 1.256 0 0 1 1.012.11l1.007.584c.305.177.522.474.597.818l.185.854h1.016l.186-.854c.075-.345.29-.641.596-.818l1.007-.584a1.256 1.256 0 0 1 1.012-.11l.833.266.477-.827-.647-.587a1.252 1.252 0 0 1-.411-.93l.002-1.164a1.25 1.25 0 0 1 .411-.924l.649-.589-.481-.833-.832.266a1.256 1.256 0 0 1-1.013-.11l-1.007-.584a1.253 1.253 0 0 1-.596-.817l-.186-.855h-1.016Z" clip-rule="evenodd"/>
</svg>
