<svg xmlns="http://www.w3.org/2000/svg" width="16" height="16" fill="currentColor" viewBox="0 0 16 16">
  <path fill="#000" fill-rule="evenodd" d="M10.595 8.244a2.127 2.127 0 1 0 0 4.255 2.127 2.127 0 0 0 0-4.255Zm-.877 2.127a.877.877 0 1 1 1.754 0 .877.877 0 0 1-1.754 0Z" clip-rule="evenodd"/>
  <path fill="#000" fill-rule="evenodd" d="M5.579.499A3.247 3.247 0 0 0 3.55 6.281c-.642.362-1.183.88-1.617 1.47C1.1 8.878.615 10.317.506 11.616c-.056.675.496 1.178 1.104 1.178h4.42l.443.767c.182.316.56.462.908.35l.883-.282.605.351.198.908a.775.775 0 0 0 .758.611h1.492c.365 0 .68-.254.758-.61l.197-.909.605-.351.883.283a.776.776 0 0 0 .909-.352l.722-1.252a.776.776 0 0 0-.15-.962l-.687-.623.002-.7.687-.625a.776.776 0 0 0 .15-.961L14.67 7.18a.776.776 0 0 0-.909-.35l-.883.282-.605-.351-.197-.908a.776.776 0 0 0-.758-.611H9.825a.776.776 0 0 0-.758.61l-.198.909-.333.193a4.752 4.752 0 0 0-.92-.68A3.247 3.247 0 0 0 5.579.5ZM3.582 3.746a1.997 1.997 0 1 1 3.994 0 1.997 1.997 0 0 1-3.994 0ZM5.9 11.347a.774.774 0 0 0-.157.198H1.77c.12-1.045.525-2.178 1.17-3.052.677-.918 1.574-1.5 2.652-1.5.32 0 .622.05.907.146a.787.787 0 0 0-.025.041l-.726 1.258a.776.776 0 0 0 .15.961l.688.625.001.7-.686.623Zm4.307-4.855-.16.738a.776.776 0 0 1-.37.507l-.967.562a.776.776 0 0 1-.626.068l-.72-.23-.343.594.56.509a.776.776 0 0 1 .253.572l.003 1.12a.776.776 0 0 1-.254.575l-.56.508.341.59.72-.23a.776.776 0 0 1 .626.068l.968.562c.188.11.322.293.368.506l.161.739h.728l.16-.739a.776.776 0 0 1 .369-.506l.968-.562a.776.776 0 0 1 .626-.068l.719.23.34-.59-.56-.508a.776.776 0 0 1-.253-.576l.002-1.119c0-.218.093-.426.254-.572l.56-.509-.343-.595-.72.23a.776.776 0 0 1-.625-.067l-.968-.562a.775.775 0 0 1-.369-.507l-.16-.738h-.728Z" clip-rule="evenodd"/>
</svg>
