<svg xmlns="http://www.w3.org/2000/svg" width="24" height="24" fill="currentColor" viewBox="0 0 24 24">
  <path fill="#000" fill-rule="evenodd" d="M3 6.748a2.75 2.75 0 0 1 2.75-2.75h12.5A2.75 2.75 0 0 1 21 6.748v8.508a2.75 2.75 0 0 1-2.75 2.75h-6.164a.25.25 0 0 0-.15.05l-4.334 3.245a1 1 0 0 1-1.6-.8v-2.495H5.75A2.75 2.75 0 0 1 3 15.256V6.748Zm2.75-1.25c-.69 0-1.25.56-1.25 1.25v8.508c0 .69.56 1.25 1.25 1.25h.503c.69 0 1.25.56 1.25 1.25v1.745l3.534-2.646a1.75 1.75 0 0 1 1.049-.349h6.164c.69 0 1.25-.56 1.25-1.25V6.748c0-.69-.56-1.25-1.25-1.25H5.75Zm6.25 1.5a.75.75 0 0 1 .75.75v2.5h2.5a.75.75 0 0 1 0 1.5h-2.5v2.5a.75.75 0 1 1-1.5 0v-2.5h-2.5a.75.75 0 1 1 0-1.5h2.5v-2.5a.75.75 0 0 1 .75-.75Z" clip-rule="evenodd"/>
</svg>
