<svg xmlns="http://www.w3.org/2000/svg" width="24" height="24" fill="currentColor" viewBox="0 0 24 24">
  <path fill="#000" fill-rule="evenodd" d="m17.61 11.653.832-2.08a.838.838 0 0 1 .467-.467l2.08-.832c.85-.34.85-1.544 0-1.884l-2.08-.832a.838.838 0 0 1-.467-.467l-.832-2.08c-.34-.85-1.544-.85-1.884 0l-.832 2.08a.838.838 0 0 1-.467.467l-2.08.832c-.85.34-.85 1.544 0 1.884l2.08.832a.838.838 0 0 1 .467.467l.832 2.08c.34.85 1.544.85 1.884 0Zm-.942-1.684-.381-.953a2.339 2.339 0 0 0-1.303-1.303l-.953-.381.953-.381a2.339 2.339 0 0 0 1.303-1.303l.381-.953.381.953a2.338 2.338 0 0 0 1.303 1.303l.953.381-.953.381a2.339 2.339 0 0 0-1.303 1.303l-.381.953ZM2.373 17.876a3.75 3.75 0 0 0 3.75 3.75h10.881a3.75 3.75 0 0 0 3.75-3.75v-5.731a.75.75 0 0 0-1.5 0v5.731a2.25 2.25 0 0 1-2.25 2.25H6.123a2.25 2.25 0 0 1-2.25-2.25V7.577a2.25 2.25 0 0 1 2.25-2.25h5.15a.75.75 0 0 0 0-1.5h-5.15a3.75 3.75 0 0 0-3.75 3.75v10.3Zm11.275-6.007a.75.75 0 0 0-1.5 0v1.72a.75.75 0 1 0 1.5 0v-1.72Zm-6.765-.736a.75.75 0 0 1 .75.75v1.82a.75.75 0 0 1-1.5 0v-1.82a.75.75 0 0 1 .75-.75Zm1.744 5.152a.75.75 0 0 0-1.061 1.06 3.326 3.326 0 0 0 4.7 0 .75.75 0 1 0-1.06-1.06 1.827 1.827 0 0 1-2.58 0Z" clip-rule="evenodd"/>
</svg>
