<svg xmlns="http://www.w3.org/2000/svg" width="16" height="16" fill="currentColor" viewBox="0 0 16 16">
  <path fill="#000" fill-rule="evenodd" d="m12.484 7.606.645-1.611a.375.375 0 0 1 .208-.209l1.612-.644c.733-.294.733-1.332 0-1.625l-1.612-.645a.375.375 0 0 1-.208-.209l-.645-1.611c-.293-.733-1.332-.733-1.625 0l-.644 1.611a.375.375 0 0 1-.21.21l-1.61.644c-.734.293-.734 1.331 0 1.625l1.61.644a.378.378 0 0 1 .21.209l.644 1.611c.293.734 1.332.734 1.625 0Zm-.812-1.334-.297-.741a1.625 1.625 0 0 0-.905-.906l-.74-.296.74-.296c.413-.165.74-.493.905-.905l.297-.741.296.74c.165.413.492.74.905.906l.741.296-.74.296c-.414.166-.74.493-.906.906l-.296.74Zm-11.17 6.6a2.625 2.625 0 0 0 2.625 2.626h9.142a2.625 2.625 0 0 0 2.625-2.625V8.075a.625.625 0 1 0-1.25 0v4.798c0 .76-.616 1.375-1.375 1.375H3.127c-.76 0-1.375-.616-1.375-1.375V4.184c0-.76.616-1.375 1.375-1.375h4.344a.625.625 0 0 0 0-1.25H3.127A2.625 2.625 0 0 0 .502 4.184v8.689Zm8.859-5.011a.625.625 0 1 0-1.25 0v1.337a.625.625 0 1 0 1.25 0V7.861Zm-5.308-.615c.346 0 .625.28.625.625v1.416a.625.625 0 1 1-1.25 0V7.87c0-.345.28-.625.625-.625ZM5.44 11.27a.625.625 0 1 0-.883.884 2.63 2.63 0 0 0 3.717 0 .625.625 0 0 0-.884-.884 1.38 1.38 0 0 1-1.95 0Z" clip-rule="evenodd"/>
</svg>
