<svg xmlns="http://www.w3.org/2000/svg" width="16" height="16" fill="currentColor" viewBox="0 0 16 16">
  <path fill="#000" fill-rule="evenodd" d="M1.749 5.291v2.746c0 .431.35.78.78.78h2.43V4.51H2.53a.781.781 0 0 0-.78.781Zm4.46-.798v4.331a6.249 6.249 0 0 1 2.463.628l3.053 1.492a.078.078 0 0 0 .113-.07v-8.42a.078.078 0 0 0-.113-.07L8.867 3.78a7.186 7.186 0 0 1-2.657.713ZM.5 5.29v2.746a2.03 2.03 0 0 0 1.722 2.007c.254 1.537.82 2.922 1.582 4.278.195.347.56.553.949.553h2.331a.861.861 0 0 0 .757-1.271c-.672-1.242-1.241-2.475-1.517-3.52a5 5 0 0 1 1.8.491l3.054 1.492a1.328 1.328 0 0 0 1.91-1.193V9.471a2.84 2.84 0 0 0 0-5.616V2.454a1.328 1.328 0 0 0-1.91-1.193l-2.86 1.396a5.936 5.936 0 0 1-2.606.603H2.53c-1.122 0-2.031.91-2.031 2.031Zm12.588-.16v3.064a1.59 1.59 0 0 0 0-3.064Zm-8.241 8.494c-.648-1.166-1.116-2.317-1.351-3.557h1.538c.245 1.117.79 2.366 1.404 3.557H4.846Z" clip-rule="evenodd"/>
</svg>
