<svg xmlns="http://www.w3.org/2000/svg" width="24" height="24" fill="currentColor" viewBox="0 0 24 24">
  <path fill="#000" fill-rule="evenodd" d="M17.866 13.422a5.153 5.153 0 1 0-8.503-1.923c.155.44.071.965-.294 1.33L4.64 17.26l.273 1.828 1.829.272.78-.779-.09-.089a1.25 1.25 0 0 1 0-1.767l.945-.945a1.25 1.25 0 0 1 1.768 0l.089.088.937-.937a1.28 1.28 0 0 1 1.33-.293 5.154 5.154 0 0 0 5.365-1.215Zm1.06-8.348a6.653 6.653 0 0 1-6.798 11.02l-1.01 1.01a1.25 1.25 0 0 1-1.768 0l-.089-.088-.591.591.089.09a1.25 1.25 0 0 1 0 1.767l-1.046 1.045c-.28.28-.676.411-1.068.352l-2.136-.318a1.25 1.25 0 0 1-1.052-1.052l-.319-2.136a1.25 1.25 0 0 1 .353-1.068l4.414-4.415a6.653 6.653 0 0 1 11.021-6.798Zm-4.085 5.257a.828.828 0 1 1-1.172-1.172.828.828 0 0 1 1.172 1.172Zm-2.232 1.06A2.328 2.328 0 1 0 15.902 8.1a2.328 2.328 0 0 0-3.293 3.293Z" clip-rule="evenodd"/>
</svg>
