<svg xmlns="http://www.w3.org/2000/svg" width="16" height="16" fill="currentColor" viewBox="0 0 16 16">
  <path fill="#000" fill-rule="evenodd" d="M12.48 9.05a3.91 3.91 0 1 0-6.405-1.332.78.78 0 0 1-.173.835l-3.497 3.496.2 1.345 1.345.2.578-.577-.275-.318a.775.775 0 0 1 .038-1.055l1.056-1.056a.775.775 0 0 1 1.134.04l.203.234.763-.764a.778.778 0 0 1 .835-.173 3.912 3.912 0 0 0 4.198-.874Zm.883-6.414a5.16 5.16 0 0 1-5.244 8.558l-.913.913a.775.775 0 0 1-1.134-.041l-.202-.234-.383.383.275.319a.775.775 0 0 1-.037 1.055l-1.06 1.06a.775.775 0 0 1-.662.218l-1.93-.288a.775.775 0 0 1-.652-.652l-.288-1.93a.775.775 0 0 1 .219-.662L4.806 7.88a5.16 5.16 0 0 1 8.558-5.244Zm-3.207 4.039a.588.588 0 1 1-.831-.831.588.588 0 0 1 .831.831Zm-1.715.884a1.838 1.838 0 1 0 2.599-2.6 1.838 1.838 0 0 0-2.6 2.6Z" clip-rule="evenodd"/>
</svg>
