<svg xmlns="http://www.w3.org/2000/svg" width="16" height="16" fill="currentColor" viewBox="0 0 16 16">
  <path fill="#000" fill-rule="evenodd" d="M3.089.498a.625.625 0 0 0 0 1.25h.616v1.606L.739 9.121c-.727 1.414.3 3.097 1.89 3.097h3.543v.854c0 .451.207.835.488 1.132.279.293.652.53 1.065.714.828.37 1.928.583 3.11.583s2.283-.213 3.11-.583c.414-.184.787-.42 1.065-.714.281-.297.489-.68.489-1.132V8.19h-.003c.002-.031.003-.062.003-.094 0-.902-.78-1.511-1.55-1.86-.83-.374-1.93-.59-3.113-.59-.06 0-.118.001-.176.003L9.454 3.35V1.748h.572a.625.625 0 1 0 0-1.25H3.09Zm6.223 5.273-.98-1.866a1.125 1.125 0 0 1-.128-.523V1.748h-3.25v1.637c0 .178-.042.355-.124.514L1.85 9.692a.875.875 0 0 0 .779 1.276h3.543V8.19h.003a1.54 1.54 0 0 1-.003-.094c0-.902.78-1.511 1.55-1.86a6.556 6.556 0 0 1 1.59-.465ZM8.238 7.376c-.691.312-.816.614-.816.72 0 .106.125.408.816.72.632.286 1.55.48 2.598.48 1.047 0 1.965-.194 2.598-.48.69-.312.815-.614.815-.72 0-.106-.124-.408-.815-.72-.633-.286-1.55-.48-2.598-.48-1.048 0-1.966.194-2.598.48Zm5.71 2.58c.101-.046.202-.096.3-.15v.766c0 .047-.018.138-.145.273-.131.138-.35.29-.667.432-.633.283-1.552.474-2.6.474-1.049 0-1.968-.19-2.601-.474-.318-.142-.536-.294-.667-.432-.125-.132-.145-.222-.146-.27v-.77c.1.055.2.105.3.15.83.375 1.93.59 3.114.59 1.183 0 2.284-.215 3.113-.59Zm.3 2.314a4.46 4.46 0 0 1-.302.149c-.828.37-1.929.582-3.11.582-1.183 0-2.283-.213-3.111-.582a4.491 4.491 0 0 1-.303-.15v.803c0 .047.019.138.146.272.13.138.35.291.667.433.633.283 1.552.474 2.6.474 1.049 0 1.968-.191 2.601-.474.318-.142.536-.295.667-.433.127-.134.146-.225.146-.272v-.802Z" clip-rule="evenodd"/>
</svg>
