<svg xmlns="http://www.w3.org/2000/svg" width="24" height="24" fill="currentColor" viewBox="0 0 24 24">
  <path fill="#000" fill-rule="evenodd" d="M5.386 2.002a.752.752 0 1 0 0 1.503h.91v2.078a.76.76 0 0 1-.082.344L2.309 13.52c-.943 1.834.388 4.016 2.45 4.016h4.913v1.294c0 .577.265 1.07.631 1.457.363.383.852.694 1.4.938 1.096.49 2.558.774 4.133.774 1.575 0 3.037-.284 4.133-.774.548-.244 1.037-.555 1.4-.938.366-.386.63-.88.63-1.457v-6.6l.001-.07c0-1.154-1-1.95-2.027-2.414-1.098-.495-2.56-.782-4.136-.782a11.5 11.5 0 0 0-.323.004l-1.598-3.044a.752.752 0 0 1-.086-.349v-2.07h.853a.752.752 0 1 0 0-1.504H5.386Zm8.507 7.114-1.308-2.492a2.254 2.254 0 0 1-.258-1.048v-2.07H7.8v2.077c0 .358-.085.712-.25 1.031l-3.904 7.593a1.253 1.253 0 0 0 1.114 1.826h4.912V12.23h.002a1.98 1.98 0 0 1-.001-.07c0-1.154 1-1.95 2.027-2.414.628-.283 1.374-.498 2.193-.63Zm-1.574 2.001c-.931.42-1.143.847-1.143 1.044 0 .197.212.623 1.143 1.044.861.389 2.104.649 3.517.649 1.414 0 2.656-.26 3.518-.65.93-.42 1.143-.847 1.143-1.043 0-.197-.212-.623-1.143-1.044-.862-.389-2.104-.65-3.518-.65-1.413 0-2.655.261-3.517.65Zm7.654 3.457a5.6 5.6 0 0 0 .524-.27v1.12c0 .09-.038.232-.22.424-.185.196-.489.406-.92.599-.863.385-2.107.642-3.52.642-1.415 0-2.659-.257-3.521-.642-.432-.193-.736-.403-.921-.6-.179-.188-.218-.328-.22-.42v-1.123c.171.1.348.19.525.27 1.097.496 2.56.783 4.136.783s3.04-.287 4.137-.782Zm.524 2.978a5.702 5.702 0 0 1-.527.267c-1.097.49-2.559.774-4.134.774-1.575 0-3.037-.284-4.133-.774a5.714 5.714 0 0 1-.527-.267v1.278c0 .09.037.232.219.424.185.195.489.406.92.599.863.385 2.107.642 3.521.642 1.414 0 2.658-.257 3.52-.642.432-.193.736-.404.921-.6.182-.19.22-.333.22-.423v-1.278Z" clip-rule="evenodd"/>
</svg>
