<svg xmlns="http://www.w3.org/2000/svg" width="24" height="24" fill="currentColor" viewBox="0 0 24 24">
  <path fill="#000" fill-rule="evenodd" d="M9.785 4.59a4.071 4.071 0 0 1 5.56-1.484 4.062 4.062 0 0 1 1.493 5.55l-4.702 8.135a2.41 2.41 0 0 1-4.174-2.407l4.702-8.134a.748.748 0 0 1 1.295.747L9.257 15.13a.914.914 0 0 0 1.583.913l4.703-8.134a2.576 2.576 0 0 0-4.462-2.573L6.379 13.47a4.227 4.227 0 0 0 1.554 5.778 4.237 4.237 0 0 0 5.786-1.545l4.702-8.134a.748.748 0 0 1 1.295.747l-4.702 8.134c-1.58 2.736-5.085 3.671-7.828 2.09a5.72 5.72 0 0 1-2.103-7.817L9.785 4.59Z" clip-rule="evenodd"/>
</svg>
