<svg xmlns="http://www.w3.org/2000/svg" width="16" height="16" fill="currentColor" viewBox="0 0 16 16">
  <path fill="#000" d="M6.018 2.307C6.996.724 9.116.157 10.753 1.04c1.637.883 2.172 2.882 1.194 4.465l-3.878 6.277a2.143 2.143 0 0 1-2.806.75 1.86 1.86 0 0 1-.708-2.646l3.926-6.355a.67.67 0 0 1 .878-.235.582.582 0 0 1 .221.828L5.654 10.48a.696.696 0 0 0 .265.99.802.802 0 0 0 1.05-.28l3.879-6.278a1.974 1.974 0 0 0-.752-2.809 2.274 2.274 0 0 0-2.978.797l-3.83 6.2c-1.013 1.64-.46 3.712 1.237 4.627 1.697.915 3.894.328 4.907-1.312l3.878-6.277a.67.67 0 0 1 .878-.235.582.582 0 0 1 .221.828l-3.878 6.277c-1.375 2.227-4.358 3.025-6.662 1.782-2.304-1.243-3.056-4.056-1.68-6.284l3.83-6.2Z"/>
</svg>
