<svg xmlns="http://www.w3.org/2000/svg" width="16" height="16" fill="currentColor" viewBox="0 0 16 16">
  <path fill="#000" fill-rule="evenodd" d="M3 1.126c-1.036 0-1.875.84-1.875 1.875v2.855a.625.625 0 1 0 1.25 0V3.001c0-.345.28-.625.625-.625h2.848a.625.625 0 0 0 0-1.25H3Zm7.145 0a.625.625 0 1 0 0 1.25H13c.345 0 .625.28.625.625v2.855a.625.625 0 1 0 1.25 0V3.001c0-1.036-.84-1.875-1.875-1.875h-2.855Zm-7.77 9.024a.625.625 0 1 0-1.25 0V13c0 1.035.839 1.875 1.875 1.875h2.848a.625.625 0 0 0 0-1.25H3A.625.625 0 0 1 2.375 13v-2.85Zm12.5 0a.625.625 0 0 0-1.25 0V13c0 .345-.28.625-.625.625h-2.855a.625.625 0 1 0 0 1.25H13c1.036 0 1.875-.84 1.875-1.875v-2.85ZM10.012 8a2.012 2.012 0 1 1-4.024 0 2.012 2.012 0 0 1 4.024 0Zm1.25 0a3.262 3.262 0 1 1-6.524 0 3.262 3.262 0 0 1 6.524 0Z" clip-rule="evenodd"/>
</svg>
