<svg xmlns="http://www.w3.org/2000/svg" width="24" height="24" fill="currentColor" viewBox="0 0 24 24">
  <path fill="#000" fill-rule="evenodd" d="M3.412 10.225c-1.048-.419-1.048-1.902 0-2.32l2.146-.86a2 2 0 0 0 1.114-1.113l.859-2.147c.419-1.047 1.902-1.047 2.32 0l.86 2.147a2 2 0 0 0 1.113 1.114l2.146.858c1.048.42 1.048 1.902 0 2.321l-2.146.859a2 2 0 0 0-1.114 1.114l-.858 2.146c-.42 1.048-1.902 1.048-2.322 0l-.858-2.146a2 2 0 0 0-1.114-1.114l.557-1.393a3.5 3.5 0 0 1 1.95 1.95l.626 1.566.626-1.566a3.5 3.5 0 0 1 1.95-1.95l1.566-.626-1.566-.627a3.5 3.5 0 0 1-1.95-1.95l-.626-1.565-.626 1.566a3.5 3.5 0 0 1-1.95 1.95l-1.566.626 1.566.626-.557 1.393-2.146-.859Zm15.279 8.51-.592 1.48c-.42 1.047-1.902 1.047-2.321 0l-.592-1.48a.75.75 0 0 0-.418-.418l-1.48-.592c-1.048-.42-1.048-1.902 0-2.321l1.48-.592a.75.75 0 0 0 .418-.418l.592-1.48c.419-1.048 1.902-1.048 2.32 0l.593 1.48a.75.75 0 0 0 .418.418l1.48.592c1.047.419 1.047 1.902 0 2.32l-1.48.593a.75.75 0 0 0-.418.418Zm-2.113-.557.36.9.36-.9a2.25 2.25 0 0 1 1.254-1.254l.9-.36-.9-.36a2.25 2.25 0 0 1-1.254-1.253l-.36-.9-.36.9a2.25 2.25 0 0 1-1.253 1.253l-.9.36.9.36a2.25 2.25 0 0 1 1.253 1.254Z" clip-rule="evenodd"/>
</svg>
