<svg xmlns="http://www.w3.org/2000/svg" width="24" height="24" fill="currentColor" viewBox="0 0 24 24">
  <path fill="#000" fill-rule="evenodd" d="M6.129 3.375a2.75 2.75 0 0 0-2.75 2.75v3.172a.75.75 0 1 0 1.5 0V6.125c0-.69.56-1.25 1.25-1.25h3.164a.75.75 0 0 0 0-1.5H6.129Zm8.578 0a.75.75 0 0 0 0 1.5h3.172c.69 0 1.25.56 1.25 1.25v3.172a.75.75 0 0 0 1.5 0V6.125a2.75 2.75 0 0 0-2.75-2.75h-3.172ZM4.879 14.707a.75.75 0 0 0-1.5 0v3.165a2.75 2.75 0 0 0 2.75 2.75h3.164a.75.75 0 1 0 0-1.5H6.129c-.69 0-1.25-.56-1.25-1.25v-3.165Zm15.75 0a.75.75 0 0 0-1.5 0v3.165c0 .69-.56 1.25-1.25 1.25h-3.172a.75.75 0 0 0 0 1.5h3.172a2.75 2.75 0 0 0 2.75-2.75v-3.165ZM14.499 12a2.5 2.5 0 1 1-5 0 2.5 2.5 0 0 1 5 0Zm1.5 0a4 4 0 1 1-8 0 4 4 0 0 1 8 0Z" clip-rule="evenodd"/>
</svg>
