<svg xmlns="http://www.w3.org/2000/svg" width="24" height="24" fill="currentColor" viewBox="0 0 24 24">
  <path fill="#000" fill-rule="evenodd" d="M12.217 2.585a.75.75 0 0 1 1.061 0l1.77 1.769c.488.489.488 1.28 0 1.77l-1.77 1.769a.75.75 0 0 1-1.061-1.062l.782-.783a8.503 8.503 0 0 0-8.648 12.159.75.75 0 0 1-1.35.657c-1.813-3.728-1.173-8.35 1.924-11.447A9.983 9.983 0 0 1 13.12 4.55l-.904-.905a.75.75 0 0 1 0-1.061ZM16.6 6.39a.75.75 0 0 1 1.044-.19c.495.341.966.732 1.405 1.172.933.933 1.644 2.01 2.134 3.159a10.01 10.01 0 0 1 .813 3.945v.058A10.002 10.002 0 0 1 21 18.843a.75.75 0 0 1-1.352-.654 8.5 8.5 0 0 0 .846-3.661v-.011c0-1.12-.219-2.248-.654-3.304a8.474 8.474 0 0 0-1.835-2.735.752.752 0 0 1-.105-.13 8.61 8.61 0 0 0-1.11-.913.75.75 0 0 1-.191-1.045Zm-3.039 4.021c-.65-1.276-2.473-1.276-3.122 0l-.984 1.935-2.144.338c-1.415.223-1.979 1.957-.965 2.97l1.536 1.533-.341 2.143c-.225 1.415 1.25 2.487 2.526 1.836L12 20.179l1.933.987c1.276.65 2.751-.421 2.526-1.836l-.341-2.143 1.536-1.534c1.013-1.012.45-2.746-.965-2.97l-2.144-.337-.984-1.935Zm-1.784.681a.25.25 0 0 1 .446 0l1.042 2.048c.181.358.524.606.92.669l2.27.358a.25.25 0 0 1 .138.424l-1.626 1.624a1.251 1.251 0 0 0-.352 1.082l.361 2.27a.25.25 0 0 1-.36.261l-2.047-1.044a1.252 1.252 0 0 0-1.138 0l-2.047 1.044a.25.25 0 0 1-.36-.262l.36-2.27a1.251 1.251 0 0 0-.351-1.081L7.407 14.59a.25.25 0 0 1 .138-.424l2.27-.358c.396-.063.738-.311.92-.669l1.042-2.048Z" clip-rule="evenodd"/>
</svg>
