<svg xmlns="http://www.w3.org/2000/svg" width="16" height="16" fill="currentColor" viewBox="0 0 16 16">
  <path fill="#000" fill-rule="evenodd" d="m5.874 7.689-.41 1.022-.408-1.022a2.805 2.805 0 0 0-1.563-1.563L2.47 5.717l1.023-.409a2.805 2.805 0 0 0 1.563-1.563l.409-1.022.409 1.022c.285.713.85 1.278 1.562 1.563l1.023.409-1.023.409a2.805 2.805 0 0 0-1.562 1.563Zm1.16.464L6.367 9.82c-.326.815-1.479.815-1.805 0l-.667-1.668a1.555 1.555 0 0 0-.866-.866L1.36 6.619c-.814-.326-.814-1.478 0-1.804l1.669-.668c.395-.158.708-.47.866-.866l.667-1.668c.326-.815 1.479-.815 1.805 0l.667 1.668c.158.395.471.708.866.866l1.669.668c.814.326.814 1.478 0 1.804L7.9 7.287a1.555 1.555 0 0 0-.866.866Zm6.103 5.034-.474 1.183c-.335.838-1.52.838-1.855 0l-.473-1.183a.544.544 0 0 0-.304-.303l-1.183-.473c-.837-.335-.837-1.52 0-1.856l1.183-.473a.545.545 0 0 0 .304-.303l.473-1.183c.335-.838 1.52-.838 1.855 0l.473 1.183a.545.545 0 0 0 .304.303l1.183.473c.837.335.837 1.52 0 1.856l-1.183.473a.544.544 0 0 0-.303.303Zm-1.642-.464.24.6.24-.6a1.794 1.794 0 0 1 1-1l.601-.24-.6-.24a1.794 1.794 0 0 1-1-1l-.24-.6-.24.6a1.794 1.794 0 0 1-1 1l-.601.24.6.24c.457.183.818.544 1 1Z" clip-rule="evenodd"/>
</svg>
