<svg xmlns="http://www.w3.org/2000/svg" width="24" height="24" fill="currentColor" viewBox="0 0 24 24">
  <path fill="#000" fill-rule="evenodd" d="M8.508 5.499c0-.966.784-1.75 1.75-1.75h3.484c.967 0 1.75.784 1.75 1.75v2.607h3.758c.966 0 1.75.784 1.75 1.75v8.645a1.75 1.75 0 0 1-1.75 1.75H4.75A1.75 1.75 0 0 1 3 18.501v-5.08c0-.967.784-1.75 1.75-1.75h3.758V5.499Zm5.484 2.607v10.645h-3.984V5.499a.25.25 0 0 1 .25-.25h3.484a.25.25 0 0 1 .25.25v2.607Zm1.5 10.645h3.758a.25.25 0 0 0 .25-.25V9.856a.25.25 0 0 0-.25-.25h-3.758v9.145ZM4.75 13.171a.25.25 0 0 0-.25.25v5.08c0 .138.112.25.25.25h3.758v-5.58H4.75Z" clip-rule="evenodd"/>
</svg>
