<svg xmlns="http://www.w3.org/2000/svg" width="16" height="16" fill="currentColor" viewBox="0 0 16 16">
  <path fill="#000" fill-rule="evenodd" d="M5.256 2.624c0-.621.504-1.125 1.125-1.125h3.237c.622 0 1.125.504 1.125 1.125v2.288h3.131c.622 0 1.125.504 1.125 1.125v7.339c0 .621-.503 1.125-1.125 1.125H5.256V14.5h-3.13a1.125 1.125 0 0 1-1.125-1.125V8.828c0-.62.504-1.125 1.125-1.125h3.13V2.624Zm0 10.626V8.953H2.251v4.297h3.005Zm4.237 0H6.507V2.75h2.986v10.5Zm1.25 0V6.163h3.006v7.089h-3.005Z" clip-rule="evenodd"/>
</svg>
