<svg xmlns="http://www.w3.org/2000/svg" width="24" height="24" fill="currentColor" viewBox="0 0 24 24">
  <path fill="#000" fill-rule="evenodd" d="M4.672 3.471a.75.75 0 1 1 1.061 1.06L4.686 5.58h14.628l-1.047-1.047a.75.75 0 1 1 1.061-1.06L21.655 5.8a.75.75 0 0 1 0 1.06l-2.327 2.328a.75.75 0 0 1-1.06-1.06l1.046-1.048H4.686l1.047 1.048a.75.75 0 0 1-1.06 1.06L2.344 6.86a.75.75 0 0 1 0-1.061L4.672 3.47ZM7.806 19a1.75 1.75 0 0 1-1.75 1.75H4.253A1.75 1.75 0 0 1 2.503 19v-6.504a.75.75 0 0 1 1.5 0V19c0 .138.112.25.25.25h1.803a.25.25 0 0 0 .25-.25v-6.504a.75.75 0 0 1 1.5 0V19Zm5.094 1.75A1.75 1.75 0 0 0 14.65 19v-6.504a.75.75 0 0 0-1.5 0V19a.25.25 0 0 1-.25.25h-1.803a.25.25 0 0 1-.25-.25v-6.504a.75.75 0 0 0-1.5 0V19c0 .966.784 1.75 1.75 1.75H12.9Zm6.845 0a1.75 1.75 0 0 0 1.75-1.75v-6.504a.75.75 0 0 0-1.5 0V19a.25.25 0 0 1-.25.25h-1.803a.25.25 0 0 1-.25-.25v-6.504a.75.75 0 1 0-1.5 0V19c0 .966.783 1.75 1.75 1.75h1.803Z" clip-rule="evenodd"/>
</svg>
