<svg xmlns="http://www.w3.org/2000/svg" width="16" height="16" fill="currentColor" viewBox="0 0 16 16">
  <path fill="#000" fill-rule="evenodd" d="M3.321 1.319a.625.625 0 0 0-.884 0L.685 3.072a.625.625 0 0 0 0 .884L2.437 5.71a.625.625 0 1 0 .884-.884l-.686-.687h10.73l-.685.687a.625.625 0 0 0 .883.883l1.754-1.753a.625.625 0 0 0 0-.884L13.563 1.32a.625.625 0 0 0-.883.884l.686.686H2.635l.686-.686a.625.625 0 0 0 0-.884Zm1.532 12.67a.875.875 0 0 1-.875.876H1.59a.875.875 0 0 1-.875-.875V8.239a.625.625 0 0 1 1.25 0v5.376h1.637V8.239a.625.625 0 1 1 1.25 0v5.75Zm4.341.876a.875.875 0 0 0 .875-.875V8.239a.625.625 0 1 0-1.25 0v5.376H7.182V8.239a.625.625 0 1 0-1.25 0v5.75c0 .484.392.876.875.876h2.387Zm5.217 0a.875.875 0 0 0 .875-.875V8.239a.625.625 0 1 0-1.25 0v5.376h-1.637V8.239a.625.625 0 1 0-1.25 0v5.75c0 .484.392.876.875.876h2.387Z" clip-rule="evenodd"/>
</svg>
