<svg xmlns="http://www.w3.org/2000/svg" width="16" height="16" fill="currentColor" viewBox="0 0 16 16">
  <path fill="#000" fill-rule="evenodd" d="M4.664 1.487a.625.625 0 1 1 1.158-.47l.875 2.156a4.973 4.973 0 0 1 2.569-.01l.87-2.146a.625.625 0 1 1 1.159.47l-.87 2.144a4.976 4.976 0 0 1 2.366 3.01h.108a.875.875 0 0 0 .8-.524l.647-1.474a.625.625 0 0 1 1.145.502l-.646 1.474a2.125 2.125 0 0 1-1.86 1.27l.06.691c.01.108.017.215.021.323h1.935a.625.625 0 0 1 0 1.25h-1.987l-.061.687c-.01.11-.023.219-.04.326a2.125 2.125 0 0 1 1.932 1.272l.647 1.474a.625.625 0 1 1-1.145.502l-.646-1.474a.875.875 0 0 0-.802-.524h-.352a4.973 4.973 0 0 1-9.093 0h-.353a.875.875 0 0 0-.802.524l-.646 1.474a.625.625 0 0 1-1.145-.502l.647-1.474a2.125 2.125 0 0 1 1.933-1.272 5.029 5.029 0 0 1-.04-.326l-.06-.687H.998a.625.625 0 0 1 0-1.25h1.937c.004-.108.011-.215.02-.323l.062-.691a2.125 2.125 0 0 1-1.862-1.27L.508 5.145a.625.625 0 0 1 1.145-.502L2.3 6.117c.14.318.454.524.8.524h.11A4.976 4.976 0 0 1 5.54 3.65l-.877-2.164Zm.012 4.81a3.722 3.722 0 0 1 6.668.04.638.638 0 0 0-.041.037c-.382.371-1.297.924-3.266.924-1.97 0-2.884-.553-3.266-.924a.628.628 0 0 0-.095-.076ZM4.298 7.6l-.005.046-.092 1.045a5.5 5.5 0 0 0 0 .994l.092 1.046a3.722 3.722 0 0 0 7.415 0l.092-1.046a5.5 5.5 0 0 0 0-.994l-.092-1.043c-.646.436-1.619.8-3.046.884v2.23a.625.625 0 0 1-1.25 0v-2.23c-1.478-.086-2.47-.474-3.114-.932Z" clip-rule="evenodd"/>
</svg>
