<svg xmlns="http://www.w3.org/2000/svg" width="24" height="24" fill="currentColor" viewBox="0 0 24 24">
  <path fill="#000" fill-rule="evenodd" d="M15.747 2.946a.75.75 0 0 1 .367.996l-1.077 2.332a6.248 6.248 0 0 1 2.995 3.837h.092a1.25 1.25 0 0 0 1.146-.75l.79-1.813a.75.75 0 0 1 1.376.6l-.792 1.813a2.75 2.75 0 0 1-2.386 1.647l.02.23c.034.383.054.767.062 1.15H21a.75.75 0 0 1 0 1.5h-2.7a8.753 8.753 0 0 1-.022.283l-.057.655a6.309 6.309 0 0 1-.054.439 2.75 2.75 0 0 1 2.478 1.65l.79 1.813a.75.75 0 0 1-1.374.6l-.791-1.814a1.25 1.25 0 0 0-1.146-.75h-.394a6.246 6.246 0 0 1-11.458 0h-.396a1.25 1.25 0 0 0-1.145.75l-.792 1.814a.75.75 0 0 1-1.375-.6l.792-1.813a2.75 2.75 0 0 1 2.48-1.65 6.309 6.309 0 0 1-.055-.44l-.057-.654a16.865 16.865 0 0 1-.023-.283H3a.75.75 0 0 1 0-1.5h2.663c.007-.383.027-.767.06-1.15l.021-.23a2.75 2.75 0 0 1-2.388-1.647l-.792-1.813a.75.75 0 1 1 1.375-.6l.792 1.813c.198.456.648.75 1.145.75h.094a6.249 6.249 0 0 1 2.952-3.812L7.833 3.942a.75.75 0 0 1 1.362-.63l1.112 2.408a6.243 6.243 0 0 1 3.34-.013l1.105-2.394a.75.75 0 0 1 .995-.367ZM7.74 9.647a4.745 4.745 0 0 1 8.547.046.755.755 0 0 0-.082.07c-.493.481-1.66 1.186-4.157 1.186-2.496 0-3.663-.705-4.156-1.186a.75.75 0 0 0-.152-.116Zm-.453 1.563-.01.106-.058.654a15.25 15.25 0 0 0 0 2.67l.058.654a4.744 4.744 0 0 0 9.45 0l.058-.654c.078-.888.078-1.782 0-2.67l-.057-.654-.004-.043c-.815.57-2.064 1.053-3.925 1.156v2.876a.75.75 0 0 1-1.5 0v-2.876c-1.928-.107-3.2-.622-4.012-1.219Z" clip-rule="evenodd"/>
</svg>
