<svg xmlns="http://www.w3.org/2000/svg" width="16" height="16" fill="currentColor" viewBox="0 0 16 16">
  <path fill="#000" fill-rule="evenodd" d="M5.224 2.629v-1.01a.62.62 0 1 0-1.24 0v1.01H2.86A1.859 1.859 0 0 0 1 4.487v8.655C1 14.169 1.832 15 2.859 15H13.14A1.859 1.859 0 0 0 15 13.14V4.488a1.859 1.859 0 0 0-1.859-1.858h-1.143V1.62a.62.62 0 1 0-1.24 0v1.01H5.224ZM2.859 3.868a.62.62 0 0 0-.62.62v1.247h11.522V4.487a.62.62 0 0 0-.62-.62H2.86Zm-.62 9.274V6.975h11.522v6.167a.62.62 0 0 1-.62.62H2.86a.62.62 0 0 1-.62-.62Zm5.182-4.818a.62.62 0 0 0 0 1.239h.538V11.8a.62.62 0 0 0 1.24 0V9.096a.772.772 0 0 0-.773-.772H7.421Z" clip-rule="evenodd"/>
</svg>
