<svg xmlns="http://www.w3.org/2000/svg" width="24" height="24" fill="currentColor" viewBox="0 0 24 24">
  <path fill="#000" d="M11.258 12.045a.75.75 0 0 0 0 1.502h.747v3.006a.75.75 0 1 0 1.5 0v-3.256c0-.691-.56-1.252-1.25-1.252h-.997Z"/>
  <path fill="#000" fill-rule="evenodd" d="M8.362 5.078V3.766a.75.75 0 1 0-1.501 0v1.312H5.754a2.753 2.753 0 0 0-2.752 2.754v9.929a2.753 2.753 0 0 0 2.752 2.754H18.25a2.753 2.753 0 0 0 2.752-2.754V7.83a2.753 2.753 0 0 0-2.752-2.753h-1.13V3.766a.75.75 0 1 0-1.5 0v1.312H8.361ZM5.754 6.58c-.691 0-1.251.56-1.251 1.252v1.213h14.998V7.832a1.25 1.25 0 0 0-1.25-1.252H5.753ZM4.503 17.76v-7.213h14.998v7.214c0 .691-.56 1.252-1.25 1.252H5.753c-.691 0-1.251-.56-1.251-1.252Z" clip-rule="evenodd"/>
</svg>
