<svg xmlns="http://www.w3.org/2000/svg" width="24" height="24" fill="currentColor" viewBox="0 0 24 24">
  <path fill="#000" fill-rule="evenodd" d="M13.485 3.982a1.75 1.75 0 0 0-3.008 0L7.664 8.714c-.693 1.166.148 2.644 1.505 2.644h5.624c1.357 0 2.198-1.478 1.505-2.644l-2.813-4.732Zm-1.719.766a.25.25 0 0 1 .43 0l2.812 4.732a.25.25 0 0 1-.215.378H9.17a.25.25 0 0 1-.215-.378l2.812-4.732Zm-.764 10.098a2.25 2.25 0 0 0-2.25-2.25h-3.5a2.25 2.25 0 0 0-2.25 2.25v3.498a2.25 2.25 0 0 0 2.25 2.25h3.5a2.25 2.25 0 0 0 2.25-2.25v-3.498Zm-2.25-.75a.75.75 0 0 1 .75.75v3.498a.75.75 0 0 1-.75.75h-3.5a.75.75 0 0 1-.75-.75v-3.498a.75.75 0 0 1 .75-.75h3.5Zm10.746 2.529a2.749 2.749 0 1 1-5.497 0 2.749 2.749 0 0 1 5.497 0Zm1.5 0a4.249 4.249 0 1 1-8.497 0 4.249 4.249 0 0 1 8.497 0Z" clip-rule="evenodd"/>
</svg>
