<svg xmlns="http://www.w3.org/2000/svg" width="16" height="16" fill="currentColor" viewBox="0 0 16 16">
  <path fill="#000" fill-rule="evenodd" d="M8.99 1.55a1.125 1.125 0 0 0-1.935 0L4.489 5.866c-.446.75.095 1.7.967 1.7h5.132c.872 0 1.413-.95.967-1.7L8.99 1.55Zm-.968.819 2.346 3.948H5.676L8.022 2.37Zm-.712 7.84c0-.897-.727-1.625-1.625-1.625H2.626c-.897 0-1.625.728-1.625 1.625v3.058c0 .898.728 1.625 1.625 1.625h3.06c.897 0 1.624-.727 1.624-1.625V10.21Zm-1.625-.375c.207 0 .375.168.375.375v3.058a.375.375 0 0 1-.375.375H2.626a.375.375 0 0 1-.375-.375V10.21c0-.207.168-.375.375-.375h3.06Zm8.065 1.897a2.02 2.02 0 1 1-4.039 0 2.02 2.02 0 0 1 4.039 0Zm1.25 0a3.27 3.27 0 1 1-6.539 0 3.27 3.27 0 0 1 6.539 0Z" clip-rule="evenodd"/>
</svg>
