<svg xmlns="http://www.w3.org/2000/svg" width="16" height="16" fill="currentColor" viewBox="0 0 16 16">
  <path fill="#000" fill-rule="evenodd" d="M2.419 2.294a.625.625 0 0 0-1.25 0v10.25c0 1.035.84 1.874 1.875 1.874h11.252a.625.625 0 1 0 0-1.25H3.044a.625.625 0 0 1-.625-.625V2.294Zm12.034 2.023a.625.625 0 1 0-1.209-.32l-.12.471c-.156.618-.341 1.353-.606 2.032-.166.426-.352.797-.559 1.078-.208.282-.407.433-.589.494a.944.944 0 0 1-.755-.039c-.272-.133-.62-.438-1.004-1.085-.45-.757-.936-1.288-1.491-1.573-.583-.299-1.165-.288-1.702-.11-.495.166-.882.524-1.182.912-.303.392-.553.863-.76 1.333-.381.864-.653 1.812-.83 2.435l-.046.156a.625.625 0 0 0 1.202.346l.043-.151c.181-.632.43-1.5.774-2.282.186-.421.389-.792.606-1.073.221-.286.421-.434.588-.49.276-.091.503-.083.736.036.26.134.597.442.987 1.1.455.766.961 1.29 1.53 1.569a2.191 2.191 0 0 0 1.7.102c.513-.171.904-.537 1.2-.939.297-.404.53-.886.717-1.365.296-.761.507-1.6.663-2.22.039-.154.074-.294.107-.417Z" clip-rule="evenodd"/>
</svg>
