<svg xmlns="http://www.w3.org/2000/svg" width="24" height="24" fill="currentColor" viewBox="0 0 24 24">
  <path fill="#000" fill-rule="evenodd" d="M4.75 4.623a.75.75 0 1 0-1.5 0v12.754A2.75 2.75 0 0 0 6 20.127h14a.75.75 0 0 0 0-1.5H6c-.69 0-1.25-.56-1.25-1.25V4.623Zm15.323 2.603a.75.75 0 0 0-1.45-.384l-.098.376c-.213.82-.48 1.848-.865 2.78-.221.539-.47 1.01-.744 1.37-.276.36-.545.564-.798.648-.37.123-.674.123-.977-.02-.33-.155-.761-.528-1.26-1.366-.575-.97-1.198-1.626-1.91-1.96-.74-.349-1.464-.3-2.116-.082-.615.205-1.103.645-1.485 1.13-.385.488-.704 1.076-.97 1.666-.5 1.113-.851 2.338-1.08 3.135l-.039.135a.75.75 0 1 0 1.442.415l.034-.119c.232-.808.558-1.94 1.012-2.951.238-.53.499-.997.78-1.354.284-.36.549-.557.78-.634.389-.13.7-.128 1.003.015.332.157.762.531 1.26 1.37.577.972 1.202 1.624 1.91 1.958.734.346 1.452.298 2.09.085.637-.212 1.133-.66 1.516-1.16.384-.504.69-1.106.939-1.708.428-1.037.723-2.179.934-2.99l.092-.355Z" clip-rule="evenodd"/>
</svg>
