<svg xmlns="http://www.w3.org/2000/svg" width="16" height="16" fill="currentColor" viewBox="0 0 16 16">
  <path fill="#000" d="M11.003 4.507A4.368 4.368 0 1 0 4.416 9.77a.625.625 0 0 1-.739 1.009 5.618 5.618 0 1 1 8.473-6.772.625.625 0 1 1-1.147.499Z"/>
  <path fill="#000" d="M3.884 5.282a3.31 3.31 0 0 1 6.1-.473.625.625 0 1 1-1.115.564A2.06 2.06 0 1 0 5.682 7.86a.625.625 0 0 1-.818.945 3.31 3.31 0 0 1-.98-3.523Z"/>
  <path fill="#000" fill-rule="evenodd" d="M14.167 10.702c.863.644.424 2.015-.653 2.037l-2.171.043a.386.386 0 0 0-.323.186l-1.123 1.858c-.557.922-1.964.617-2.09-.452l-.708-6.029C6.958 7.14 8.326 6.35 9.3 7.075l4.868 3.627Zm-1.027.794L8.552 8.077a.133.133 0 0 0-.211.123l.667 5.681.942-1.56c.29-.48.807-.778 1.368-.789l1.822-.036Z" clip-rule="evenodd"/>
</svg>
