<svg xmlns="http://www.w3.org/2000/svg" width="24" height="24" fill="currentColor" viewBox="0 0 24 24">
  <path fill="#000" fill-rule="evenodd" d="M16.196 7.26a6.035 6.035 0 1 0-9.1 7.274.75.75 0 1 1-.886 1.209A7.535 7.535 0 1 1 17.572 6.66a.75.75 0 1 1-1.376.598Zm-4.652-.446a2.99 2.99 0 0 1 1.75 1.497.75.75 0 1 0 1.338-.678 4.499 4.499 0 1 0-6.96 5.433.75.75 0 1 0 .982-1.133 3 3 0 0 1 2.89-5.12Zm7.34 10.348a.5.5 0 0 0 .288-.9l-6.044-4.505a.75.75 0 0 0-1.193.689l.879 7.486a.5.5 0 0 0 .925.2l.97-1.605a2.75 2.75 0 0 1 2.299-1.328l1.875-.037Zm1.185-2.103c1.527 1.138.749 3.565-1.156 3.603l-1.875.037a1.25 1.25 0 0 0-1.046.603l-.97 1.606c-.985 1.63-3.476 1.091-3.698-.8l-.879-7.487c-.23-1.96 1.997-3.246 3.58-2.067l6.044 4.505Z" clip-rule="evenodd"/>
</svg>
