<svg xmlns="http://www.w3.org/2000/svg" width="24" height="24" fill="currentColor" viewBox="0 0 24 24">
  <path fill="#000" fill-rule="evenodd" d="M6.125 20.606a2.75 2.75 0 0 1-2.75-2.75V6.117a2.75 2.75 0 0 1 2.75-2.75h11.75a2.75 2.75 0 0 1 2.75 2.75v11.74a2.75 2.75 0 0 1-2.75 2.75h-2.239a.754.754 0 0 1-.268 0H6.124Zm10.127-1.5h1.623c.69 0 1.25-.56 1.25-1.25V6.117c0-.69-.56-1.25-1.25-1.25h-1.623v14.24Zm-1.5-14.239v14.24H6.125c-.69 0-1.25-.56-1.25-1.25V6.116c0-.69.56-1.25 1.25-1.25h8.627ZM8.003 8.795a.75.75 0 0 1 1.058-.08l2.708 2.323a1.25 1.25 0 0 1 0 1.897L9.06 15.26a.75.75 0 1 1-.977-1.138l2.487-2.134-2.487-2.134a.75.75 0 0 1-.08-1.058Z" clip-rule="evenodd"/>
</svg>
