<svg xmlns="http://www.w3.org/2000/svg" width="24" height="24" fill="currentColor" viewBox="0 0 24 24">
  <path fill="#000" fill-rule="evenodd" d="M5.97 9.441a5.75 5.75 0 0 1 5.651-4.692h.458a5.75 5.75 0 0 1 5.747 5.566l.03.978.462.033a3.968 3.968 0 0 1-.287 7.925H6.501a4.5 4.5 0 0 1-.893-8.912l.2-.04.161-.858Zm5.651-3.192a4.25 4.25 0 0 0-4.178 3.468l-.208 1.116a1.11 1.11 0 0 1-.871.884l-.458.092a3 3 0 0 0 .596 5.942h11.53a2.468 2.468 0 0 0 .177-4.929l-.827-.06a1.093 1.093 0 0 1-1.013-1.054l-.043-1.345A4.25 4.25 0 0 0 12.08 6.25h-.458Z" clip-rule="evenodd"/>
</svg>
