<svg xmlns="http://www.w3.org/2000/svg" width="16" height="16" fill="currentColor" viewBox="0 0 16 16">
  <path fill="#000" fill-rule="evenodd" d="M3.446 6.174A4.507 4.507 0 0 1 7.878 2.5c2.422 0 4.43 1.922 4.506 4.35l.019.598.298.022a3.019 3.019 0 0 1-.22 6.03H3.924a3.424 3.424 0 0 1-.687-6.778l.112-.023.097-.525Zm4.432-2.502a3.336 3.336 0 0 0-3.28 2.716l-.136.734a.856.856 0 0 1-.67.682l-.32.066a2.252 2.252 0 0 0 .452 4.458h8.557a1.847 1.847 0 0 0 .135-3.69l-.595-.043a.842.842 0 0 1-.78-.813l-.028-.895c-.056-1.789-1.54-3.215-3.335-3.215Z" clip-rule="evenodd"/>
</svg>
