<svg xmlns="http://www.w3.org/2000/svg" width="24" height="24" fill="currentColor" viewBox="0 0 24 24">
  <path fill="#000" fill-rule="evenodd" d="M5.504 3.776a2.75 2.75 0 0 0-2.75 2.75v10.948a2.75 2.75 0 0 0 2.75 2.75h13a2.75 2.75 0 0 0 2.75-2.75V6.526a2.75 2.75 0 0 0-2.75-2.75h-13Zm-1.25 2.75c0-.69.56-1.25 1.25-1.25h13c.69 0 1.25.56 1.25 1.25v10.948c0 .69-.56 1.25-1.25 1.25h-13c-.69 0-1.25-.56-1.25-1.25V6.526Zm9.603 1.443a.75.75 0 0 0-1.449-.389l-2.266 8.46a.75.75 0 0 0 1.449.388l2.266-8.46Zm1.082 1.315a.75.75 0 0 1 1.06 0l2.186 2.186a.75.75 0 0 1 0 1.06l-2.186 2.186a.75.75 0 1 1-1.06-1.06L16.593 12l-1.656-1.655a.75.75 0 0 1 0-1.061Zm-6.94 0a.75.75 0 1 1 1.061 1.06L7.405 12l1.655 1.655A.75.75 0 1 1 8 14.715L5.813 12.53a.75.75 0 0 1 0-1.06l2.185-2.186Z" clip-rule="evenodd"/>
</svg>
