<svg xmlns="http://www.w3.org/2000/svg" width="16" height="16" fill="currentColor" viewBox="0 0 16 16">
  <path fill="#000" fill-rule="evenodd" d="M2.627 1.627c-1.035 0-1.875.84-1.875 1.875v8.996c0 1.036.84 1.876 1.875 1.876h10.746c1.035 0 1.875-.84 1.875-1.876V3.502c0-1.036-.84-1.875-1.875-1.875H2.627Zm-.625 1.875c0-.345.28-.625.625-.625h10.746c.345 0 .625.28.625.625v8.996c0 .346-.28.626-.625.626H2.627a.625.625 0 0 1-.625-.626V3.502Zm7.482 1.365a.625.625 0 0 0-1.207-.323l-1.768 6.595a.625.625 0 1 0 1.208.324l1.767-6.596Zm.775.987a.625.625 0 0 1 .884 0l1.704 1.704a.625.625 0 0 1 0 .884l-1.704 1.704a.625.625 0 1 1-.884-.884L11.521 8 10.26 6.738a.625.625 0 0 1 0-.884Zm-5.41 0a.625.625 0 0 1 .884.884L4.471 8l1.262 1.262a.625.625 0 1 1-.884.884L3.145 8.442a.625.625 0 0 1 0-.884L4.85 5.854Z" clip-rule="evenodd"/>
</svg>
