<svg xmlns="http://www.w3.org/2000/svg" width="16" height="16" fill="currentColor" viewBox="0 0 16 16">
  <path fill="#000" fill-rule="evenodd" d="M1.197 8.294a1.82 1.82 0 0 0 1.683 2.063c.028.424.205.84.53 1.164a1.81 1.81 0 0 0 1.166.53c.029.425.206.84.53 1.165.323.324.738.5 1.162.53a1.824 1.824 0 0 0 3.109 1.164l5.008-5.01a4.658 4.658 0 0 0 0-6.587l-1.6-1.6a3.948 3.948 0 0 0-5.072-.431 3.852 3.852 0 0 0-4.973.403L1.375 3.051a3.843 3.843 0 0 0-.178 5.243Zm.67-1.198 3.55-3.552a.626.626 0 0 1 .947.072l2.14 1.956a.714.714 0 1 0 .96-1.057L7.205 2.478a2.6 2.6 0 0 0-3.58.092L2.26 3.936a2.592 2.592 0 0 0-.394 3.16ZM5.87 4.86 2.6 8.132a.572.572 0 1 0 .81.81l2.283-2.283a.626.626 0 1 1 .885.885L4.294 9.827a.572.572 0 0 0 .81.81l2.283-2.284a.626.626 0 0 1 .887.886L5.99 11.522a.572.572 0 0 0 .773.843l.033-.034 2.283-2.284a.626.626 0 0 1 .888.001.626.626 0 0 1 0 .885l-2.283 2.283a1.861 1.861 0 0 1-.036.035.572.572 0 0 0 .843.774l5.009-5.01a3.407 3.407 0 0 0 0-4.817l-1.6-1.6a2.697 2.697 0 0 0-3.203-.459l1.604 1.447a1.965 1.965 0 1 1-2.643 2.91L5.871 4.86Z" clip-rule="evenodd"/>
</svg>
