<svg xmlns="http://www.w3.org/2000/svg" width="24" height="24" fill="currentColor" viewBox="0 0 24 24">
  <path fill="#000" fill-rule="evenodd" d="M9.252 20.75A2.75 2.75 0 0 1 6.502 18V6a2.75 2.75 0 0 1 2.75-2.75h5.496A2.75 2.75 0 0 1 17.498 6v12a2.75 2.75 0 0 1-2.75 2.75H9.252ZM8.002 18c0 .691.56 1.25 1.25 1.25h5.496c.69 0 1.25-.559 1.25-1.25v-2.627H8.002v2.628Zm0-4.127h7.996v-3.746H8.002v3.746Zm0-5.246h7.996V6c0-.69-.56-1.25-1.25-1.25H9.252c-.69 0-1.25.56-1.25 1.25v2.627ZM5.3 9.365a.75.75 0 0 0-.75-.75h-.674a1.5 1.5 0 0 0-1.5 1.5v3.747a1.5 1.5 0 0 0 1.5 1.5h.674a.75.75 0 0 0 0-1.5h-.674v-3.747h.674a.75.75 0 0 0 .75-.75Zm13.4 0a.75.75 0 0 1 .75-.75h.673a1.5 1.5 0 0 1 1.5 1.5v3.747a1.5 1.5 0 0 1-1.5 1.5h-.673a.75.75 0 0 1 0-1.5h.673v-3.747h-.673a.75.75 0 0 1-.75-.75Z" clip-rule="evenodd"/>
</svg>
