<svg xmlns="http://www.w3.org/2000/svg" width="16" height="16" fill="currentColor" viewBox="0 0 16 16">
  <path fill="#000" fill-rule="evenodd" d="M5.644 15a1.875 1.875 0 0 1-1.875-1.875V2.876c0-1.036.84-1.875 1.875-1.875h4.713c1.035 0 1.875.84 1.875 1.875v10.249c0 1.035-.84 1.875-1.875 1.875H5.644Zm-.625-1.875c0 .345.28.625.625.625h4.713c.345 0 .625-.28.625-.625v-2.41H5.019v2.41Zm0-3.66h5.963v-2.93H5.019v2.93Zm0-4.18h5.963V2.877a.625.625 0 0 0-.625-.625H5.644a.625.625 0 0 0-.625.625v2.41Zm-2.167.616a.625.625 0 0 0-.625-.625h-.853a.875.875 0 0 0-.875.875v3.68c0 .484.391.875.875.875h.853a.625.625 0 1 0 0-1.25h-.478v-2.93h.478c.345 0 .625-.28.625-.625Zm10.297 0c0-.345.28-.625.625-.625h.853c.483 0 .875.391.875.875v3.68a.875.875 0 0 1-.875.875h-.853a.625.625 0 1 1 0-1.25h.478v-2.93h-.478a.625.625 0 0 1-.625-.625Z" clip-rule="evenodd"/>
</svg>
