<svg xmlns="http://www.w3.org/2000/svg" width="16" height="16" fill="currentColor" viewBox="0 0 16 16">
  <path fill="#000" fill-rule="evenodd" d="M6.206 12.726a.775.775 0 0 1-.774.775H3.025a.775.775 0 0 1-.775-.775V3.274c0-.428.347-.775.775-.775h2.407c.428 0 .774.347.774.775v.596a4.503 4.503 0 0 0 0 8.26v.596Zm1.25-.257v.257a2.025 2.025 0 0 1-2.024 2.025H3.025A2.025 2.025 0 0 1 1 12.726V3.274c0-1.119.907-2.025 2.025-2.025h2.407c1.118 0 2.024.906 2.024 2.025v.257a4.547 4.547 0 0 1 1.088 0v-.257c0-1.119.906-2.025 2.024-2.025h2.407c1.118 0 2.025.906 2.025 2.025v9.452a2.025 2.025 0 0 1-2.025 2.025H10.57a2.025 2.025 0 0 1-2.025-2.025v-.257a4.56 4.56 0 0 1-1.088 0Zm2.338-.338v.595c0 .428.347.775.774.775h2.407a.775.775 0 0 0 .775-.775V3.274a.775.775 0 0 0-.775-.775H10.57a.775.775 0 0 0-.775.775v.596a4.503 4.503 0 0 1 0 8.26ZM4.748 8a3.252 3.252 0 1 1 6.504 0 3.252 3.252 0 0 1-6.504 0Zm3.876-1.853a.625.625 0 1 0-1.25 0v1.227H6.148a.625.625 0 0 0 0 1.25h1.226v1.228a.625.625 0 0 0 1.25 0V8.624h1.228a.625.625 0 0 0 0-1.25H8.624V6.147Z" clip-rule="evenodd"/>
</svg>
