<svg xmlns="http://www.w3.org/2000/svg" width="24" height="24" fill="currentColor" viewBox="0 0 24 24">
  <path fill="#000" fill-rule="evenodd" d="M9.737 18c0 .69-.56 1.25-1.25 1.25H5.748c-.69 0-1.25-.56-1.25-1.25V6c0-.69.56-1.25 1.25-1.25h2.74c.69 0 1.25.56 1.25 1.25v.576a5.878 5.878 0 0 0 0 10.849V18Zm1.5-.173V18a2.75 2.75 0 0 1-2.75 2.75H5.748A2.75 2.75 0 0 1 2.998 18V6a2.75 2.75 0 0 1 2.75-2.75h2.74A2.75 2.75 0 0 1 11.237 6v.173a5.93 5.93 0 0 1 1.526 0V6a2.75 2.75 0 0 1 2.75-2.75h2.739A2.75 2.75 0 0 1 21.003 6v12a2.75 2.75 0 0 1-2.75 2.75h-2.74a2.75 2.75 0 0 1-2.75-2.75v-.173a5.931 5.931 0 0 1-1.526 0Zm3.027-.402V18c0 .69.56 1.25 1.25 1.25h2.739c.69 0 1.25-.56 1.25-1.25V6c0-.69-.56-1.25-1.25-1.25h-2.74c-.69 0-1.25.56-1.25 1.25v.576a5.878 5.878 0 0 1 0 10.849ZM7.624 12a4.376 4.376 0 1 1 8.753 0 4.376 4.376 0 0 1-8.753 0Zm5.126-2.45a.75.75 0 0 0-1.5 0v1.699H9.551a.75.75 0 0 0 0 1.5h1.7v1.7a.75.75 0 0 0 1.5 0v-1.7h1.699a.75.75 0 0 0 0-1.5h-1.7V9.551Z" clip-rule="evenodd"/>
</svg>
