<svg xmlns="http://www.w3.org/2000/svg" width="16" height="16" fill="currentColor" viewBox="0 0 16 16">
  <path fill="#000" fill-rule="evenodd" d="M3.632 10.493c0 1.035.84 1.875 1.875 1.875h5.612v.884c0 .345-.28.625-.625.625H2.75a.625.625 0 0 1-.625-.625v-7.74c0-.345.28-.625.625-.625h.882v5.606Zm1.25-5.606v5.606c0 .345.28.625.625.625h5.612V5.512a.625.625 0 0 0-.625-.625H4.882Zm7.487 6.23V5.513c0-1.035-.84-1.875-1.875-1.875H4.882V2.75c0-.345.28-.625.625-.625h7.743c.345 0 .625.28.625.625v7.744c0 .345-.28.625-.625.625h-.88Zm0 1.25h.881a1.874 1.874 0 0 0 1.875-1.874V2.749c0-1.036-.84-1.875-1.875-1.875H5.507c-1.036 0-1.875.84-1.875 1.875v.888H2.75c-1.036 0-1.875.84-1.875 1.875v7.74c0 1.035.84 1.875 1.875 1.875h7.744c1.036 0 1.875-.84 1.875-1.875v-.884ZM5.8 8.002c0-.346.28-.625.625-.625h.95v-.953a.625.625 0 0 1 1.25 0v.953h.953a.625.625 0 0 1 0 1.25h-.952v.95a.625.625 0 0 1-1.25 0v-.95h-.951A.625.625 0 0 1 5.799 8Z" clip-rule="evenodd"/>
</svg>
