<svg xmlns="http://www.w3.org/2000/svg" width="24" height="24" fill="currentColor" viewBox="0 0 24 24">
  <path fill="#000" fill-rule="evenodd" d="M6.499 14.75a2.75 2.75 0 0 0 2.75 2.75H16v.752c0 .69-.56 1.25-1.25 1.25h-9c-.69 0-1.25-.56-1.25-1.25V9.256c0-.69.56-1.25 1.25-1.25h.749v6.743Zm1.5-6.744v6.743c0 .69.56 1.25 1.25 1.25H16V9.256c0-.69-.56-1.25-1.25-1.25H8Zm9.503 7.993V9.256a2.75 2.75 0 0 0-2.75-2.75H7.998v-.757c0-.69.56-1.25 1.25-1.25h9c.69 0 1.25.56 1.25 1.25v9c0 .69-.56 1.25-1.25 1.25h-.747Zm0 1.5h.748A2.75 2.75 0 0 0 21 14.75v-9A2.75 2.75 0 0 0 18.25 3H9.249a2.75 2.75 0 0 0-2.75 2.75v.757H5.75A2.75 2.75 0 0 0 3 9.256v8.996a2.75 2.75 0 0 0 2.75 2.75h9.002a2.75 2.75 0 0 0 2.75-2.75V17.5ZM9.248 12a.75.75 0 0 1 .75-.75h1.25V10a.75.75 0 0 1 1.5 0v1.25H14a.75.75 0 0 1 0 1.5h-1.252v1.252a.75.75 0 0 1-1.5 0V12.75H10a.75.75 0 0 1-.75-.75Z" clip-rule="evenodd"/>
</svg>
