<svg xmlns="http://www.w3.org/2000/svg" width="16" height="16" fill="currentColor" viewBox="0 0 16 16">
  <path fill="#000" d="M8.749 5.53a.625.625 0 0 0 0-1.25H7.235a.625.625 0 1 0 0 1.25H8.75Z"/>
  <path fill="#000" fill-rule="evenodd" d="M1.698 3.875C1.698 2.839 2.538 2 3.573 2h8.854c1.036 0 1.875.84 1.875 1.875v6.392h.545c.43 0 .778.348.778.777v.831A2.125 2.125 0 0 1 13.5 14h-11a2.125 2.125 0 0 1-2.125-2.125v-.83c0-.43.348-.778.778-.778h.545V3.875Zm0 7.643v-.001h-.073v.358c0 .483.392.875.875.875h11a.875.875 0 0 0 .875-.875v-.358h-.073v.001H1.698Zm11.354-7.643v6.392H2.948V3.875c0-.345.28-.625.625-.625h8.854c.345 0 .625.28.625.625Z" clip-rule="evenodd"/>
</svg>
