<svg xmlns="http://www.w3.org/2000/svg" width="24" height="24" fill="currentColor" viewBox="0 0 24 24">
  <path fill="#000" fill-rule="evenodd" d="M3.749 7a2.75 2.75 0 0 1 2.75-2.75h11.003A2.75 2.75 0 0 1 20.252 7v8.247h.498c.69 0 1.25.56 1.25 1.25v.501a2.751 2.751 0 0 1-2.75 2.751H4.75A2.751 2.751 0 0 1 2 17v-.502c0-.69.56-1.25 1.25-1.25h.499V7Zm0 9.748H3.5v.25c0 .69.56 1.25 1.25 1.25h14.498a1.25 1.25 0 0 0 1.251-1.25v-.25H3.749ZM18.752 7v8.247H5.249V7c0-.69.56-1.25 1.25-1.25h11.003c.69 0 1.25.56 1.25 1.25Zm-5.761 1.779a.75.75 0 0 0 0-1.5h-2a.75.75 0 0 0 0 1.5h2Z" clip-rule="evenodd"/>
</svg>
