<svg xmlns="http://www.w3.org/2000/svg" width="16" height="16" fill="currentColor" viewBox="0 0 16 16">
  <path fill="#000" d="M9.846 7.33a.625.625 0 0 1-.884 0L5.956 4.324a.625.625 0 0 1 0-.884L8.962.434a.625.625 0 0 1 .884.884L7.907 3.257h6.467a.625.625 0 1 1 0 1.25H7.906l1.94 1.94a.625.625 0 0 1 0 .883ZM6.152 8.67a.625.625 0 0 1 .884 0l3.006 3.007a.625.625 0 0 1 0 .883l-3.006 3.006a.625.625 0 0 1-.884-.884l1.94-1.939H1.624a.625.625 0 1 1 0-1.25H8.09L6.152 9.555a.625.625 0 0 1 0-.884Z"/>
</svg>
