<svg xmlns="http://www.w3.org/2000/svg" width="24" height="24" fill="currentColor" viewBox="0 0 24 24">
  <path fill="#000" d="M14.385 11.266a.754.754 0 0 1-1.06 0L10.03 7.992a.742.742 0 0 1 0-1.054l3.294-3.273a.753.753 0 0 1 1.061 0 .742.742 0 0 1 0 1.054L12.372 6.72H19.5c.414 0 .75.334.75.745a.748.748 0 0 1-.75.746h-7.128l2.013 2a.742.742 0 0 1 0 1.055Zm-3.709 1.362a.754.754 0 0 0-1.061 0 .742.742 0 0 0 0 1.054l2.013 2.001H4.5a.748.748 0 0 0-.75.745c0 .412.336.746.75.746h7.128l-2.013 2a.742.742 0 0 0 0 1.055.753.753 0 0 0 1.06 0l3.295-3.274a.742.742 0 0 0 0-1.054l-3.294-3.273Z"/>
</svg>
