<svg xmlns="http://www.w3.org/2000/svg" width="24" height="24" fill="currentColor" viewBox="0 0 24 24">
  <path fill="#000" fill-rule="evenodd" d="M3.002 7.248a4.249 4.249 0 1 1 8.498.001 4.249 4.249 0 0 1-8.498-.001ZM7.25 4.5a2.749 2.749 0 1 0 0 5.497 2.749 2.749 0 0 0 0-5.497Zm11.616 1.493v2.443l.84-.84a.75.75 0 1 1 1.061 1.06l-2.121 2.121a.75.75 0 0 1-1.06 0l-2.122-2.121a.75.75 0 0 1 1.06-1.06l.842.84V5.994c0-.69-.56-1.25-1.25-1.25H13.75a.75.75 0 0 1 0-1.5h2.367a2.75 2.75 0 0 1 2.75 2.75ZM5.14 15.551l-.84.84a.75.75 0 1 1-1.062-1.06L5.36 13.21a.75.75 0 0 1 1.06 0l2.122 2.121a.75.75 0 0 1-1.06 1.06l-.842-.84v2.442c0 .69.56 1.25 1.25 1.25h2.367a.75.75 0 0 1 0 1.5H7.89a2.75 2.75 0 0 1-2.75-2.75v-2.442ZM16.75 12.5a4.25 4.25 0 1 0 0 8.5 4.25 4.25 0 0 0 0-8.5ZM14 16.75a2.75 2.75 0 1 1 5.5.001 2.75 2.75 0 0 1-5.5 0Z" clip-rule="evenodd"/>
</svg>
