<svg xmlns="http://www.w3.org/2000/svg" width="16" height="16" fill="currentColor" viewBox="0 0 16 16">
  <path fill="#000" fill-rule="evenodd" d="M1.124 4.398a3.277 3.277 0 1 1 6.553.001 3.277 3.277 0 0 1-6.553 0Zm3.277-2.026a2.027 2.027 0 1 0 0 4.053 2.027 2.027 0 0 0 0-4.053Z" clip-rule="evenodd"/>
  <path fill="#000" d="M13.26 3.182v1.98l.541-.54a.625.625 0 0 1 .884.883l-1.608 1.608a.625.625 0 0 1-.884 0l-1.607-1.608a.625.625 0 0 1 .884-.883l.54.54v-1.98a.625.625 0 0 0-.624-.625h-2.06a.625.625 0 1 1 0-1.25h2.06c1.035 0 1.875.84 1.875 1.875ZM2.744 10.828l-.54.54a.625.625 0 1 1-.884-.883l1.607-1.608a.625.625 0 0 1 .884 0l1.608 1.608a.625.625 0 0 1-.884.884l-.54-.54v1.978c0 .346.279.625.624.625h2.06a.625.625 0 1 1 0 1.25h-2.06a1.875 1.875 0 0 1-1.875-1.875v-1.979Z"/>
  <path fill="#000" fill-rule="evenodd" d="M11.599 8.323a3.277 3.277 0 1 0 0 6.554 3.277 3.277 0 0 0 0-6.554ZM9.57 11.6a2.027 2.027 0 1 1 4.055 0 2.027 2.027 0 0 1-4.055 0Z" clip-rule="evenodd"/>
</svg>
