<svg xmlns="http://www.w3.org/2000/svg" width="24" height="24" fill="currentColor" viewBox="0 0 24 24">
  <path fill="#000" fill-rule="evenodd" d="M8.194 6.696v-.823c0-.69.56-1.25 1.25-1.25h8.68c.69 0 1.25.56 1.25 1.25v8.681c0 .69-.56 1.25-1.25 1.25h-.819V9.446a2.75 2.75 0 0 0-2.75-2.75h-6.36Zm-1.5 0v-.823a2.75 2.75 0 0 1 2.75-2.75h8.68a2.75 2.75 0 0 1 2.75 2.75v8.681a2.75 2.75 0 0 1-2.75 2.75h-.819v.823a2.75 2.75 0 0 1-2.75 2.75h-8.68a2.75 2.75 0 0 1-2.75-2.75v-8.68a2.75 2.75 0 0 1 2.75-2.75h.82Zm-.819 12.68a1.25 1.25 0 0 1-1.25-1.25v-8.68c0-.69.56-1.25 1.25-1.25h8.68c.69 0 1.25.56 1.25 1.25v8.68c0 .691-.56 1.25-1.25 1.25h-8.68Z" clip-rule="evenodd"/>
</svg>
