<svg xmlns="http://www.w3.org/2000/svg" width="16" height="16" fill="currentColor" viewBox="0 0 16 16">
  <path fill="#000" fill-rule="evenodd" d="M5.12 3.867v-.865c0-.345.28-.625.625-.625h7.256c.345 0 .625.28.625.625v7.256c0 .345-.28.625-.625.625h-.872v-5.14a1.875 1.875 0 0 0-1.875-1.876H5.12Zm-1.25 0v-.865c0-1.036.84-1.875 1.875-1.875h7.256c1.035 0 1.875.84 1.875 1.875v7.256c0 1.035-.84 1.875-1.875 1.875h-.872v.865a1.874 1.874 0 0 1-1.875 1.875H3a1.875 1.875 0 0 1-1.875-1.875V5.742c0-1.035.84-1.875 1.875-1.875h.871ZM3 13.623a.625.625 0 0 1-.625-.625V5.742c0-.345.28-.625.625-.625h7.255c.346 0 .625.28.625.625v7.256c0 .345-.28.625-.625.625H3Z" clip-rule="evenodd"/>
</svg>
