<svg xmlns="http://www.w3.org/2000/svg" width="24" height="24" fill="currentColor" viewBox="0 0 24 24">
  <path fill="#000" fill-rule="evenodd" d="M3.375 17.876a2.75 2.75 0 0 0 2.75 2.75h11.75a2.75 2.75 0 0 0 2.75-2.75V6.124a2.75 2.75 0 0 0-2.75-2.75H6.125a2.75 2.75 0 0 0-2.75 2.75v11.752Zm2.75 1.25c-.69 0-1.25-.56-1.25-1.25V6.124c0-.69.56-1.25 1.25-1.25h11.75c.69 0 1.25.56 1.25 1.25v11.752c0 .69-.56 1.25-1.25 1.25H6.125ZM12.75 7.001a.75.75 0 0 0-1.5 0v.457a4.009 4.009 0 0 0-1.507.558c-.674.433-1.18 1.115-1.237 2.013-.04.658.135 1.399.79 1.95.58.49 1.436.74 2.56.769a.8.8 0 0 0 .059.002c1.078 0 1.592.224 1.823.418.197.167.278.388.258.71-.02.331-.195.617-.55.845-.368.236-.907.388-1.531.388-1.043 0-1.67-.472-1.997-1.11a.75.75 0 0 0-1.335.684c.504.985 1.42 1.693 2.667 1.878v.436a.75.75 0 0 0 1.5 0v-.456a4.01 4.01 0 0 0 1.507-.558c.674-.433 1.18-1.116 1.236-2.013.041-.658-.134-1.399-.788-1.95-.582-.49-1.438-.74-2.562-.77a.747.747 0 0 0-.058-.001c-1.078 0-1.592-.224-1.823-.419-.197-.166-.279-.388-.258-.71.02-.33.195-.616.55-.844.368-.236.907-.388 1.531-.388 1.043 0 1.67.472 1.997 1.11a.75.75 0 0 0 1.335-.685c-.505-.984-1.42-1.692-2.667-1.877V7Z" clip-rule="evenodd"/>
</svg>
