<svg xmlns="http://www.w3.org/2000/svg" width="16" height="16" fill="currentColor" viewBox="0 0 16 16">
  <path fill="#000" fill-rule="evenodd" d="M8 .628c.973 0 1.656.45 2.175 1.099.463.58.826 1.356 1.186 2.129l.055.118c.78 1.672 1.696 3.56 3.797 4.915a.625.625 0 0 1-.677 1.05c-2.43-1.566-3.47-3.759-4.253-5.437l-.014-.03c-.397-.85-.703-1.505-1.07-1.964-.34-.425-.69-.63-1.199-.63-.509 0-.859.205-1.199.63-.367.46-.673 1.114-1.07 1.963l-.014.031C4.934 6.18 3.894 8.372 1.465 9.94a.625.625 0 1 1-.678-1.05c2.101-1.355 3.017-3.243 3.798-4.915l.055-.118c.36-.773.722-1.55 1.185-2.13C6.345 1.079 7.028.629 8 .629ZM7.182 12.22a.775.775 0 0 1 0 1.096L5.31 15.189a.625.625 0 1 1-.884-.884l.91-.91H1.131a.625.625 0 0 1 0-1.25h4.207l-.91-.91a.625.625 0 0 1 .884-.884l1.87 1.87Zm1.63 0 1.872-1.871a.625.625 0 1 1 .884.884l-.911.91h4.213a.625.625 0 1 1 0 1.25h-4.213l.911.912a.625.625 0 0 1-.884.884l-1.872-1.872a.775.775 0 0 1 0-1.096Z" clip-rule="evenodd"/>
</svg>
