<svg xmlns="http://www.w3.org/2000/svg" width="24" height="24" fill="currentColor" viewBox="0 0 24 24">
  <path fill="#000" fill-rule="evenodd" d="M10 9.013a2.25 2.25 0 0 1-2.25 2.25H5.248a2.25 2.25 0 0 1-2.25-2.25v-3.26a2.25 2.25 0 0 1 2.25-2.25H7.75A2.25 2.25 0 0 1 10 5.752v3.26Zm-2.25.75a.75.75 0 0 0 .75-.75v-3.26a.75.75 0 0 0-.75-.75H5.248a.75.75 0 0 0-.75.75v3.26c0 .414.336.75.75.75H7.75Zm-2.502 2.974a2.25 2.25 0 0 0-2.25 2.25v3.26a2.25 2.25 0 0 0 2.25 2.25h5.013a2.25 2.25 0 0 0 2.25-2.25v-3.26a2.25 2.25 0 0 0-2.25-2.25H5.248Zm-.75 2.25a.75.75 0 0 1 .75-.75h5.013a.75.75 0 0 1 .75.75v3.26a.75.75 0 0 1-.75.75H5.248a.75.75 0 0 1-.75-.75v-3.26Zm11.763-2.25a2.25 2.25 0 0 0-2.25 2.25v3.26a2.25 2.25 0 0 0 2.25 2.25h2.49a2.25 2.25 0 0 0 2.25-2.25v-3.26a2.25 2.25 0 0 0-2.25-2.25h-2.49Zm-.75 2.25a.75.75 0 0 1 .75-.75h2.49a.75.75 0 0 1 .75.75v3.26a.75.75 0 0 1-.75.75h-2.49a.75.75 0 0 1-.75-.75v-3.26Zm3.24-3.724a2.25 2.25 0 0 0 2.25-2.25v-3.26a2.25 2.25 0 0 0-2.25-2.25h-5a2.25 2.25 0 0 0-2.25 2.25v3.26a2.25 2.25 0 0 0 2.25 2.25h5Zm.75-2.25a.75.75 0 0 1-.75.75h-5a.75.75 0 0 1-.75-.75v-3.26a.75.75 0 0 1 .75-.75h5a.75.75 0 0 1 .75.75v3.26Z" clip-rule="evenodd"/>
</svg>
