<svg xmlns="http://www.w3.org/2000/svg" width="16" height="16" fill="currentColor" viewBox="0 0 16 16">
  <path fill="#000" fill-rule="evenodd" d="M6.5 5.848c0 .898-.728 1.625-1.625 1.625H2.624A1.625 1.625 0 0 1 .999 5.848V3c0-.897.727-1.625 1.625-1.625h2.25C5.772 1.375 6.5 2.103 6.5 3v2.85Zm-1.625.375a.375.375 0 0 0 .375-.375V3a.375.375 0 0 0-.375-.375H2.624A.375.375 0 0 0 2.249 3v2.85c0 .206.167.374.375.374h2.25ZM2.624 8.527c-.898 0-1.625.728-1.625 1.625v2.85c0 .897.727 1.624 1.625 1.624h4.192c.897 0 1.625-.727 1.625-1.625v-2.849c0-.897-.728-1.625-1.625-1.625H2.624Zm-.375 1.625c0-.207.168-.375.375-.375h4.192c.207 0 .375.168.375.375v2.85a.375.375 0 0 1-.375.374H2.624a.375.375 0 0 1-.375-.375v-2.849Zm8.884-1.625c-.897 0-1.625.728-1.625 1.625v2.85c0 .897.728 1.624 1.625 1.624h2.243c.897 0 1.625-.727 1.625-1.625v-2.849c0-.897-.728-1.625-1.625-1.625h-2.243Zm-.375 1.625c0-.207.168-.375.375-.375h2.243c.207 0 .375.168.375.375v2.85a.375.375 0 0 1-.375.374h-2.243a.375.375 0 0 1-.375-.375v-2.849Zm2.618-2.679c.897 0 1.625-.727 1.625-1.625V3c0-.897-.728-1.625-1.625-1.625H9.194c-.897 0-1.625.728-1.625 1.625v2.85c0 .897.728 1.624 1.625 1.624h4.182Zm.375-1.625a.375.375 0 0 1-.375.375H9.194a.375.375 0 0 1-.375-.375V3c0-.207.168-.375.375-.375h4.182c.207 0 .375.168.375.375v2.85Z" clip-rule="evenodd"/>
</svg>
