<svg xmlns="http://www.w3.org/2000/svg" width="16" height="16" fill="currentColor" viewBox="0 0 16 16">
  <path fill="#000" fill-rule="evenodd" d="M2.003 7.714V4.575A1.286 1.286 0 0 1 2 4.493C2 2.978 4.686 1.75 8 1.75s6 1.228 6 2.743v6.704c0 1.068-.929 1.83-1.942 2.287-1.07.484-2.505.767-4.057.767-1.552 0-2.987-.283-4.057-.767-1.013-.458-1.941-1.219-1.941-2.287V7.714Zm10.747-3.21v-.01h.001a.174.174 0 0 0-.013-.043.691.691 0 0 0-.126-.177c-.158-.171-.443-.381-.889-.585C10.835 3.283 9.52 3 8 3s-2.835.284-3.723.69c-.446.204-.73.414-.889.585a.69.69 0 0 0-.126.177.177.177 0 0 0-.013.042l.002.001v.015a.69.69 0 0 0 .137.205c.158.17.443.38.889.584.888.406 2.203.69 3.723.69s2.835-.284 3.723-.69c.446-.204.73-.414.889-.585a.69.69 0 0 0 .126-.177.174.174 0 0 0 .012-.033ZM8 7.236c1.933 0 3.653-.418 4.75-1.068v1.534c0 .274-.274.728-1.206 1.15-.875.395-2.127.656-3.543.656-1.416 0-2.668-.261-3.543-.656-.926-.42-1.203-.87-1.207-1.145V6.171C4.35 6.819 6.068 7.237 8 7.237ZM3.251 9.615v1.582c0 .274.275.728 1.207 1.15.875.395 2.127.655 3.543.655 1.416 0 2.668-.26 3.543-.656.932-.421 1.207-.875 1.207-1.149V9.615a5.238 5.238 0 0 1-.693.375c-1.07.484-2.505.768-4.057.768-1.552 0-2.987-.284-4.057-.768a5.232 5.232 0 0 1-.693-.375Z" clip-rule="evenodd"/>
</svg>
