<svg xmlns="http://www.w3.org/2000/svg" width="24" height="24" fill="currentColor" viewBox="0 0 24 24">
  <path fill="#000" fill-rule="evenodd" d="M9.465 7.036a2.535 2.535 0 1 1 5.07 0 2.535 2.535 0 0 1-5.07 0ZM12 3.001a4.035 4.035 0 0 0-.75 8v2.256l-6.001 5.16v-1.168a.75.75 0 0 0-1.5 0v3c0 .414.336.75.75.75h3a.75.75 0 0 0 0-1.5H6.291L12 14.589l5.709 4.91h-1.208a.75.75 0 0 0 0 1.5h3a.75.75 0 0 0 .75-.75v-3a.75.75 0 0 0-1.5 0v1.168l-6.001-5.16v-2.255A4.037 4.037 0 0 0 12 3Z" clip-rule="evenodd"/>
</svg>
