<svg xmlns="http://www.w3.org/2000/svg" width="16" height="16" fill="currentColor" viewBox="0 0 16 16">
  <path fill="#000" fill-rule="evenodd" d="M6.106 4.142a1.893 1.893 0 1 1 3.787 0 1.893 1.893 0 0 1-3.787 0ZM8 1a3.143 3.143 0 0 0-.625 6.225v1.77l-4.5 3.87v-.88a.625.625 0 1 0-1.25 0v2.392c0 .345.28.625.625.625h2.392a.625.625 0 1 0 0-1.25H3.76L8 10.105l4.24 3.646h-.883a.625.625 0 1 0 0 1.25h2.393c.345 0 .625-.28.625-.625v-2.394a.625.625 0 0 0-1.25 0v.881l-4.5-3.87v-1.77A3.144 3.144 0 0 0 8 1Z" clip-rule="evenodd"/>
</svg>
