<svg xmlns="http://www.w3.org/2000/svg" width="16" height="16" fill="currentColor" viewBox="0 0 16 16">
  <path fill="#000" fill-rule="evenodd" d="M5.633.502a.625.625 0 1 0 0 1.25h4.734a.625.625 0 1 0 0-1.25H5.633ZM1.637 3.036a.637.637 0 0 0 0 1.275h.4l.608 9.176a2.155 2.155 0 0 0 2.15 2.012h6.41c1.134 0 2.074-.88 2.15-2.012l.606-9.176h.402a.637.637 0 1 0 0-1.275H1.637ZM12.71 4.311H3.29l.602 9.093a.905.905 0 0 0 .903.845h6.41c.476 0 .87-.37.902-.845l.602-9.093ZM6.444 6.884c.345 0 .625.28.625.625v3.527a.625.625 0 0 1-1.25 0V7.509c0-.345.28-.625.625-.625Zm3.112 0c.345 0 .625.28.625.625v3.527a.625.625 0 0 1-1.25 0V7.509c0-.345.28-.625.625-.625Z" clip-rule="evenodd"/>
</svg>
