<svg xmlns="http://www.w3.org/2000/svg" width="24" height="24" fill="currentColor" viewBox="0 0 24 24">
  <path fill="#000" d="M8.75 4.25a.75.75 0 1 1 0-1.5h6.502a.75.75 0 0 1 0 1.5H8.75Zm1.249 5.747a.75.75 0 0 1 .75.75v5.497a.75.75 0 0 1-1.5 0v-5.497a.75.75 0 0 1 .75-.75Zm4.004 0a.75.75 0 0 1 .75.75v5.497a.75.75 0 0 1-1.5 0v-5.497a.75.75 0 0 1 .75-.75Z"/>
  <path fill="#000" fill-rule="evenodd" d="M4.002 5.561a.75.75 0 1 0 0 1.5h.537l.792 11.625a2.75 2.75 0 0 0 2.744 2.563h7.851a2.75 2.75 0 0 0 2.744-2.563l.792-11.625h.537a.75.75 0 0 0 0-1.5H4.002Zm13.956 1.5H6.043l.784 11.523a1.25 1.25 0 0 0 1.248 1.165h7.851a1.25 1.25 0 0 0 1.248-1.165l.784-11.523Z" clip-rule="evenodd"/>
</svg>
