<svg xmlns="http://www.w3.org/2000/svg" width="24" height="24" fill="currentColor" viewBox="0 0 24 24">
  <path fill="#000" fill-rule="evenodd" d="M3.503 6.248a2.75 2.75 0 0 1 2.75-2.75h11.503a2.75 2.75 0 0 1 2.75 2.75v7.935a2.75 2.75 0 0 1-.81 1.95l-3.584 3.565a2.75 2.75 0 0 1-1.94.8h-7.92a2.75 2.75 0 0 1-2.75-2.75v-11.5Zm2.75-1.25c-.69 0-1.25.56-1.25 1.25v11.5c0 .69.56 1.25 1.25 1.25h7.25v-3.249a2.25 2.25 0 0 1 2.25-2.25h3.253V6.248c0-.69-.56-1.25-1.25-1.25H6.253Zm8.801 13.636a1.263 1.263 0 0 1-.05.048v-2.933a.75.75 0 0 1 .75-.75h2.948c-.02.024-.042.047-.065.07l-3.583 3.565Zm.198-7.133a.75.75 0 1 0 0-1.5H7.75a.75.75 0 0 0 0 1.5h7.503Zm.75-3.752a.75.75 0 0 1-.75.75H7.75a.75.75 0 1 1 0-1.5h7.503a.75.75 0 0 1 .75.75Zm-4.765 6.747a.75.75 0 0 0 0-1.5H7.75a.75.75 0 0 0 0 1.5h3.488Z" clip-rule="evenodd"/>
</svg>
