<svg xmlns="http://www.w3.org/2000/svg" width="16" height="16" fill="currentColor" viewBox="0 0 16 16">
  <path fill="#000" fill-rule="evenodd" d="M1.375 3.002c0-.898.728-1.625 1.625-1.625h10c.897 0 1.625.727 1.625 1.625v6.917c0 .432-.172.847-.479 1.152l-3.095 3.08a1.625 1.625 0 0 1-1.146.472H3a1.625 1.625 0 0 1-1.625-1.625V3.002ZM3 2.627a.375.375 0 0 0-.375.375v9.996c0 .207.168.375.375.375h6.115v-2.631c0-.898.728-1.625 1.625-1.625h2.634V3.002a.375.375 0 0 0-.375-.375H3Zm10.08 7.74-2.715 2.701v-2.326c0-.207.168-.375.375-.375h2.34ZM10.514 7.66a.625.625 0 1 0 0-1.25H4.706a.625.625 0 0 0 0 1.25h5.808Zm.625-2.95c0 .346-.28.625-.625.625H4.706a.625.625 0 0 1 0-1.25h5.808c.345 0 .625.28.625.625ZM7.406 9.978a.625.625 0 1 0 0-1.25h-2.7a.625.625 0 0 0 0 1.25h2.7Z" clip-rule="evenodd"/>
</svg>
