<svg xmlns="http://www.w3.org/2000/svg" width="24" height="24" fill="currentColor" viewBox="0 0 24 24">
  <path fill="#000" d="M13.294 7.174a.75.75 0 0 1 .53.919l-2.2 8.21a.75.75 0 0 1-1.449-.388l2.2-8.21a.75.75 0 0 1 .919-.53ZM9.162 9.348a.75.75 0 0 1 0 1.061L7.572 12l1.59 1.591a.75.75 0 0 1-1.06 1.06l-2.122-2.12a.75.75 0 0 1 0-1.061l2.122-2.122a.75.75 0 0 1 1.06 0Zm5.675 0a.75.75 0 0 1 1.06 0l2.122 2.122a.75.75 0 0 1 0 1.06l-2.121 2.122a.75.75 0 0 1-1.061-1.061L16.427 12l-1.59-1.591a.75.75 0 0 1 0-1.06Z"/>
  <path fill="#000" fill-rule="evenodd" d="M3.004 6.748a2.75 2.75 0 0 1 2.75-2.75h12.5a2.75 2.75 0 0 1 2.75 2.75v10.504a2.75 2.75 0 0 1-2.75 2.75h-12.5a2.75 2.75 0 0 1-2.75-2.75V6.748Zm2.75-1.25c-.69 0-1.25.56-1.25 1.25v10.504c0 .69.56 1.25 1.25 1.25h12.5c.69 0 1.25-.56 1.25-1.25V6.748c0-.69-.56-1.25-1.25-1.25h-12.5Z" clip-rule="evenodd"/>
</svg>
