<svg xmlns="http://www.w3.org/2000/svg" width="16" height="16" fill="currentColor" viewBox="0 0 16 16">
  <path fill="#000" fill-rule="evenodd" d="M2.403 6.783a.628.628 0 0 1 .13-.013h2.539l1.246-2.886c.292-.68 1.279-.601 1.462.115l1.31 5.124.825-1.889a.775.775 0 0 1 .71-.464h2.555a5.413 5.413 0 0 0-10.777.013ZM13.156 8.02h-2.22l-1.254 2.87c-.295.675-1.278.596-1.46-.119L6.913 5.657l-.818 1.895a.775.775 0 0 1-.712.468H2.532a.629.629 0 0 1-.106-.01 5.414 5.414 0 0 0 10.73.01ZM1.125 7.294a6.667 6.667 0 1 1 11.326 4.768l2.24 2.24a.627.627 0 0 1-.886.887l-2.335-2.334A6.667 6.667 0 0 1 1.125 7.294Z" clip-rule="evenodd"/>
</svg>
