<svg xmlns="http://www.w3.org/2000/svg" width="24" height="24" fill="currentColor" viewBox="0 0 24 24">
  <path fill="#000" fill-rule="evenodd" d="M4.791 10.512h2.866l1.463-3.39c.378-.875 1.65-.775 1.887.149l1.58 6.178.956-2.188a1.25 1.25 0 0 1 1.145-.75h3.02a6.5 6.5 0 0 0-12.917 0Zm12.914 1.5h-2.853l-1.473 3.37c-.381.872-1.65.77-1.885-.152L9.917 9.062l-.948 2.195a1.25 1.25 0 0 1-1.147.755H4.794a6.5 6.5 0 0 0 12.911 0ZM3.25 11.25a8 8 0 1 1 13.683 5.629l2.843 2.842a.75.75 0 1 1-1.061 1.061l-2.937-2.937A8 8 0 0 1 3.25 11.25Z" clip-rule="evenodd"/>
</svg>
