<svg xmlns="http://www.w3.org/2000/svg" width="24" height="24" fill="currentColor" viewBox="0 0 24 24">
  <path fill="#000" fill-rule="evenodd" d="M2.25 6.52A2.75 2.75 0 0 1 5 3.77h10.764a2.75 2.75 0 0 1 2.75 2.75v2.7h.986a2.25 2.25 0 0 1 2.25 2.25v4.73a2.25 2.25 0 0 1-2.072 2.244v1.07a1 1 0 0 1-1.603.797l-2.394-1.81a.25.25 0 0 0-.15-.05h-3.31a2.25 2.25 0 0 1-2.25-2.25v-.456l-3.074 2.083A1 1 0 0 1 5.338 17v-1.565H5a2.75 2.75 0 0 1-2.75-2.75V6.52Zm16.265 6.165V10.72h.985a.75.75 0 0 1 .75.75v4.73a.75.75 0 0 1-.75.75h-.322a1 1 0 0 0-1 1v.559l-1.592-1.204a1.75 1.75 0 0 0-1.056-.354h-3.31a.75.75 0 0 1-.75-.75v-.766h4.294a2.75 2.75 0 0 0 2.75-2.75ZM5 5.27c-.69 0-1.25.56-1.25 1.25v6.166c0 .69.56 1.25 1.25 1.25h.586c.69 0 1.25.56 1.25 1.25v.872l2.878-1.95a1 1 0 0 1 .56-.172h5.49c.69 0 1.25-.56 1.25-1.25V6.52c0-.69-.56-1.25-1.25-1.25H5Zm1.378 3.525a1 1 0 1 0 0 2 1 1 0 0 0 0-2Zm7.008 1a1 1 0 1 1 2 0 1 1 0 0 1-2 0Zm-3.004-1a1 1 0 1 0 0 2 1 1 0 0 0 0-2Z" clip-rule="evenodd"/>
</svg>
