<svg xmlns="http://www.w3.org/2000/svg" width="16" height="16" fill="currentColor" viewBox="0 0 16 16">
  <path fill="#000" fill-rule="evenodd" d="M.499 3.376c0-1.036.84-1.875 1.875-1.875h8.78c1.036 0 1.875.84 1.875 1.875v2.356h.847c.897 0 1.625.728 1.625 1.625v3.9c0 .883-.705 1.602-1.583 1.624v.841a.775.775 0 0 1-1.242.619l-1.932-1.46H8.022a1.625 1.625 0 0 1-1.625-1.625v-.455l-2.33 1.58a.775.775 0 0 1-1.21-.642v-1.221h-.483A1.875 1.875 0 0 1 .499 8.643V3.376Zm12.53 5.267v-1.66h.847c.207 0 .375.167.375.374v3.9a.375.375 0 0 1-.375.374h-.433a.775.775 0 0 0-.775.775v.362l-1.204-.91a1.125 1.125 0 0 0-.678-.226H8.022a.375.375 0 0 1-.375-.376v-.738h3.507c1.036 0 1.875-.84 1.875-1.875ZM2.374 2.75a.625.625 0 0 0-.625.625v5.267c0 .345.28.625.625.625h.858c.483 0 .875.392.875.875v.7L6.235 9.4a.775.775 0 0 1 .434-.133h4.485c.345 0 .625-.28.625-.625V3.376a.625.625 0 0 0-.625-.625h-8.78Zm1.331 2.642a.765.765 0 1 0 0 1.53.765.765 0 0 0 0-1.53Zm5.354.765a.765.765 0 1 1 1.53 0 .765.765 0 0 1-1.53 0Zm-2.295-.765a.765.765 0 1 0 0 1.53.765.765 0 0 0 0-1.53Z" clip-rule="evenodd"/>
</svg>
