<svg xmlns="http://www.w3.org/2000/svg" width="16" height="16" fill="currentColor" viewBox="0 0 16 16">
  <path fill="#000" d="M9.465 1.724c-.424-.234-.91-.35-1.465-.35-.554-.001-1.04.116-1.465.35a3.026 3.026 0 0 0-1.012.937c-.499.71-.82 1.664-1.133 2.599l-.018.054c-.663 1.972-1.403 4.14-3.598 5.63a.625.625 0 1 0 .702 1.034c2.56-1.74 3.411-4.274 4.063-6.216l.017-.05c.339-1.01.607-1.79.99-2.333.18-.258.374-.44.592-.56.216-.12.49-.197.862-.197s.646.077.862.196c.218.12.412.303.593.561.382.544.65 1.324.99 2.332l.016.05c.652 1.943 1.504 4.478 4.063 6.217a.625.625 0 0 0 .703-1.034c-2.195-1.49-2.936-3.658-3.598-5.63l-.018-.054c-.314-.935-.635-1.889-1.134-2.599a3.026 3.026 0 0 0-1.012-.937Zm-8.34 11.654a.625.625 0 1 0 0 1.25h13.75a.625.625 0 0 0 0-1.25H1.125Z"/>
</svg>
