<svg xmlns="http://www.w3.org/2000/svg" width="24" height="24" fill="currentColor" viewBox="0 0 24 24">
  <path fill="#000" fill-rule="evenodd" d="M13.14 5.383c-.288-.159-.651-.26-1.14-.26-.489 0-.852.101-1.14.26-.291.16-.546.401-.784.74-.499.71-.848 1.724-1.284 3.023l-.021.061c-.842 2.506-1.936 5.76-5.225 7.993a.75.75 0 1 1-.842-1.24c2.85-1.936 3.811-4.75 4.666-7.292l.022-.065c.406-1.21.817-2.434 1.457-3.343.336-.479.752-.896 1.287-1.191.538-.297 1.157-.446 1.864-.446.707 0 1.326.15 1.864.446.535.295.95.712 1.287 1.191.64.91 1.051 2.134 1.457 3.343l.022.065c.855 2.542 1.816 5.356 4.666 7.291a.75.75 0 0 1-.842 1.241c-3.289-2.232-4.383-5.487-5.225-7.993l-.02-.061c-.437-1.299-.786-2.314-1.285-3.023-.238-.339-.493-.58-.784-.74ZM3.125 18.877a.75.75 0 0 0 0 1.5h17.75a.75.75 0 0 0 0-1.5H3.125Z" clip-rule="evenodd"/>
</svg>
