<svg xmlns="http://www.w3.org/2000/svg" width="16" height="16" fill="currentColor" viewBox="0 0 16 16">
  <path fill="#000" fill-rule="evenodd" d="M3.125 2.749c0-.345.28-.625.625-.625h4.52v2.822c0 .898.727 1.625 1.625 1.625h2.98v6.68c0 .345-.28.625-.626.625h-8.5a.625.625 0 0 1-.624-.625V2.749Zm9.38 2.572L9.52 2.442v2.504c0 .208.168.375.376.375h2.61ZM3.75.874c-1.036 0-1.875.84-1.875 1.875v10.502c0 1.036.839 1.875 1.875 1.875h8.5c1.035 0 1.874-.84 1.874-1.875V5.943c0-.51-.206-.996-.573-1.35L10.24 1.4A1.875 1.875 0 0 0 8.937.874H3.75Zm.98 10.594c0-.345.28-.625.624-.625h3.012a.625.625 0 1 1 0 1.25H5.354a.625.625 0 0 1-.625-.625Zm.624-3.088a.625.625 0 1 0 0 1.25h4.958a.625.625 0 1 0 0-1.25H5.354Z" clip-rule="evenodd"/>
</svg>
