<svg xmlns="http://www.w3.org/2000/svg" width="16" height="16" fill="currentColor" viewBox="0 0 16 16">
  <path fill="#000" fill-rule="evenodd" d="M9.535 1.836v2.556a3.924 3.924 0 0 1 2.033 1.904h2.576a6.351 6.351 0 0 0-4.61-4.46Zm-1.25-.464c0-.518.46-.949 1.005-.86 3.104.51 5.57 2.917 6.19 5.997a.867.867 0 0 1-.854 1.037H11.33a.888.888 0 0 1-.817-.55 2.671 2.671 0 0 0-1.617-1.508.888.888 0 0 1-.611-.84V1.372Zm-2.106.581a6.366 6.366 0 0 0-4.427 6.08 6.366 6.366 0 0 0 4.427 6.079V11.47a3.93 3.93 0 0 1-2.014-3.438 3.93 3.93 0 0 1 2.014-3.438V1.953Zm.19-1.347a.867.867 0 0 1 1.06.849v3.363a.887.887 0 0 1-.505.797 2.68 2.68 0 0 0-1.51 2.417 2.68 2.68 0 0 0 1.51 2.418c.29.14.505.438.505.797v3.363a.867.867 0 0 1-1.06.848C3.006 14.681.502 11.65.502 8.032S3.006 1.384 6.37.606Zm5.199 9.098a3.924 3.924 0 0 1-2.034 1.904v2.556a6.35 6.35 0 0 0 4.61-4.46h-2.576Zm-.238-1.25h3.296c.53 0 .966.48.854 1.036-.62 3.08-3.085 5.489-6.19 5.997a.867.867 0 0 1-1.006-.859v-3.276c0-.404.27-.726.612-.84a2.671 2.671 0 0 0 1.617-1.508c.13-.313.44-.55.817-.55Z" clip-rule="evenodd"/>
</svg>
