<svg xmlns="http://www.w3.org/2000/svg" width="16" height="16" fill="currentColor" viewBox="0 0 16 16">
  <path fill="#000" fill-rule="evenodd" d="M8 .75c.345 0 .625.28.625.625v7.666l2.98-2.94a.635.635 0 0 1 .89 0 .615.615 0 0 1 0 .878l-3.338 3.293c-.64.63-1.675.63-2.314 0L3.505 6.98a.615.615 0 0 1 0-.878.635.635 0 0 1 .89 0l2.98 2.94V1.375c0-.345.28-.625.625-.625ZM3.126 13.501a.625.625 0 0 1-.625-.625V8.973a.625.625 0 0 0-1.25 0v3.903c0 1.036.84 1.875 1.875 1.875h9.748c1.035 0 1.875-.84 1.875-1.875V8.973a.625.625 0 1 0-1.25 0v3.903c0 .345-.28.625-.625.625H3.126Z" clip-rule="evenodd"/>
</svg>
