<svg xmlns="http://www.w3.org/2000/svg" width="24" height="24" fill="currentColor" viewBox="0 0 24 24">
  <path fill="#000" fill-rule="evenodd" d="M12.75 13.244V3.5a.75.75 0 0 0-1.5 0v9.744L7.436 9.43a.75.75 0 0 0-1.06 1.06l4.05 4.052c.87.869 2.278.869 3.148 0l4.05-4.052a.75.75 0 0 0-1.06-1.06l-3.814 3.814Zm-7.625 4.288c0 .672.545 1.217 1.217 1.217h11.316c.672 0 1.217-.545 1.217-1.217v-4.537a.75.75 0 0 1 1.5 0v4.537c0 1.5-1.217 2.717-2.717 2.717H6.342a2.717 2.717 0 0 1-2.717-2.717v-4.537a.75.75 0 0 1 1.5 0v4.537Z" clip-rule="evenodd"/>
</svg>
