<svg xmlns="http://www.w3.org/2000/svg" width="24" height="24" fill="currentColor" viewBox="0 0 24 24">
  <path fill="#000" d="M13.585 3.78a2.249 2.249 0 0 0-3.18 0L8.528 5.658a.75.75 0 0 0 1.06 1.06l1.658-1.657v6.306H4.942l1.78-1.78a.75.75 0 0 0-1.06-1.061L3.78 10.407a2.25 2.25 0 0 0 0 3.18l1.876 1.877a.75.75 0 1 0 1.06-1.06l-1.538-1.538h6.068v6.066L9.585 17.27a.75.75 0 1 0-1.06 1.06l1.881 1.882a2.25 2.25 0 0 0 3.181 0l1.877-1.876a.75.75 0 0 0-1.06-1.06l-1.658 1.657v-6.069h6.067l-1.543 1.543a.75.75 0 0 0 1.06 1.06l1.882-1.882a2.25 2.25 0 0 0 0-3.18l-1.876-1.877a.75.75 0 1 0-1.06 1.06l1.776 1.777h-6.306V5.062l1.661 1.661a.75.75 0 0 0 1.06-1.06L13.585 3.78Z"/>
</svg>
