<svg xmlns="http://www.w3.org/2000/svg" width="16" height="16" fill="currentColor" viewBox="0 0 16 16">
  <path fill="#000" d="M7.124 3.125a1.625 1.625 0 1 0-3.25 0 1.625 1.625 0 0 0 3.25 0Zm0 4.883a1.625 1.625 0 1 0-3.25 0 1.625 1.625 0 0 0 3.25 0ZM5.499 11.25a1.625 1.625 0 1 1 0 3.25 1.625 1.625 0 0 1 0-3.25Zm6.627-3.242a1.625 1.625 0 1 0-3.25 0 1.625 1.625 0 0 0 3.25 0ZM10.501 1.5a1.625 1.625 0 1 1 0 3.25 1.625 1.625 0 0 1 0-3.25Zm1.625 11.375a1.625 1.625 0 1 0-3.25 0 1.625 1.625 0 0 0 3.25 0Z"/>
</svg>
