<svg xmlns="http://www.w3.org/2000/svg" width="16" height="16" fill="currentColor" viewBox="0 0 16 16">
  <path fill="#000" fill-rule="evenodd" d="M5.07 1.249c-1.209 0-2.188.98-2.188 2.188v.996A3.165 3.165 0 0 1 .789 7.411a.625.625 0 0 0 0 1.178 3.165 3.165 0 0 1 2.093 2.977v.997c0 1.208.98 2.187 2.187 2.187h.368c.122 0 .244-.01.365-.03l.298-.05a.625.625 0 0 0-.209-1.233l-.298.05a.942.942 0 0 1-.156.013H5.07a.938.938 0 0 1-.937-.937v-.997c0-1.434-.694-2.75-1.813-3.566a4.415 4.415 0 0 0 1.813-3.567v-.996c0-.518.42-.938.937-.938h.368c.052 0 .105.004.156.013l.298.05A.625.625 0 1 0 6.1 1.33l-.298-.05a2.23 2.23 0 0 0-.365-.031H5.07Zm8.048 2.188c0-1.209-.98-2.188-2.188-2.188h-.367c-.122 0-.245.01-.365.03L9.9 1.33a.625.625 0 1 0 .208 1.233l.298-.05a.938.938 0 0 1 .157-.014h.367c.518 0 .938.42.938.938v.996c0 1.434.693 2.75 1.813 3.566a4.415 4.415 0 0 0-1.813 3.567v.996c0 .518-.42.938-.938.938h-.367a.942.942 0 0 1-.157-.013l-.298-.05a.625.625 0 1 0-.208 1.232l.298.05c.12.02.243.03.365.03h.367a2.187 2.187 0 0 0 2.188-2.187v-.996c0-1.335.838-2.526 2.093-2.978a.625.625 0 0 0 0-1.177 3.165 3.165 0 0 1-2.093-2.978v-.996Z" clip-rule="evenodd"/>
</svg>
