<svg xmlns="http://www.w3.org/2000/svg" width="24" height="24" fill="currentColor" viewBox="0 0 24 24">
  <path fill="#000" d="M8.384 3.752a2.75 2.75 0 0 0-2.75 2.75v1.071A3.943 3.943 0 0 1 3 11.293a.75.75 0 0 0 0 1.415 3.943 3.943 0 0 1 2.633 3.719v1.071a2.75 2.75 0 0 0 2.75 2.75h.413c.15 0 .3-.012.449-.037l.372-.061a.75.75 0 1 0-.245-1.48L9 18.732a1.259 1.259 0 0 1-.204.016h-.413c-.69 0-1.25-.56-1.25-1.25v-1.071A5.444 5.444 0 0 0 4.859 12a5.444 5.444 0 0 0 2.275-4.427V6.502c0-.69.56-1.25 1.25-1.25h.413c.068 0 .136.005.204.017l.372.061a.75.75 0 1 0 .245-1.48l-.372-.061a2.75 2.75 0 0 0-.45-.037h-.412Zm9.983 2.75a2.75 2.75 0 0 0-2.75-2.75h-.413c-.15 0-.301.012-.45.037l-.371.061a.75.75 0 1 0 .245 1.48L15 5.27a1.25 1.25 0 0 1 .204-.017h.413c.69 0 1.25.56 1.25 1.25v1.071c0 1.787.872 3.423 2.275 4.427a5.444 5.444 0 0 0-2.275 4.427v1.071c0 .69-.56 1.25-1.25 1.25h-.413c-.069 0-.137-.005-.204-.016l-.372-.062a.75.75 0 1 0-.245 1.48l.372.061c.148.025.298.037.449.037h.413a2.75 2.75 0 0 0 2.75-2.75v-1.071a3.943 3.943 0 0 1 2.632-3.72.75.75 0 0 0 0-1.415 3.943 3.943 0 0 1-2.632-3.719V6.502Z"/>
</svg>
