<svg xmlns="http://www.w3.org/2000/svg" width="24" height="24" fill="currentColor" viewBox="0 0 24 24">
  <path fill="#000" fill-rule="evenodd" d="m14.141 6.92 1.055-1.055a1.25 1.25 0 0 1 1.768 0l1.172 1.171a1.25 1.25 0 0 1 0 1.768L17.08 9.859l-2.94-2.94Zm-1.06 1.06-6.892 6.892a.25.25 0 0 0-.069.13l-.616 3.201a.25.25 0 0 0 .293.293L9 17.88a.25.25 0 0 0 .13-.069l6.89-6.892-2.938-2.939Zm1.055-3.176L5.128 13.81a1.75 1.75 0 0 0-.48.907L4.03 17.92a1.75 1.75 0 0 0 2.05 2.05l3.201-.617a1.75 1.75 0 0 0 .907-.481l9.007-9.007a2.75 2.75 0 0 0 0-3.89l-1.171-1.171a2.75 2.75 0 0 0-3.89 0Z" clip-rule="evenodd"/>
</svg>
