<svg xmlns="http://www.w3.org/2000/svg" width="16" height="16" fill="currentColor" viewBox="0 0 16 16">
  <path fill="#000" fill-rule="evenodd" d="M13.256 2.124H2.739c-1.03 0-1.865.835-1.864 1.865l.005 8.023c0 1.03.835 1.864 1.864 1.864h10.517c1.03 0 1.865-.836 1.864-1.866l-.005-8.023a1.864 1.864 0 0 0-1.864-1.863ZM2.739 3.367h10.517a.62.62 0 0 1 .621.62v.786L8.355 8.606a.621.621 0 0 1-.708 0L2.118 4.77v-.78c0-.344.278-.622.621-.622Zm-.62 2.917.004 5.728c0 .343.278.62.621.62h10.517a.621.621 0 0 0 .621-.621l-.003-5.726-4.816 3.342a1.864 1.864 0 0 1-2.126 0L2.12 6.284Z" clip-rule="evenodd"/>
</svg>
