<svg xmlns="http://www.w3.org/2000/svg" width="24" height="24" fill="currentColor" viewBox="0 0 24 24">
  <path fill="#000" fill-rule="evenodd" d="M18.243 4.65H5.751a2.755 2.755 0 0 0-2.75 2.76l.005 9.232a2.755 2.755 0 0 0 2.75 2.758H18.25A2.755 2.755 0 0 0 21 16.639l-.006-9.231a2.755 2.755 0 0 0-2.75-2.758ZM5.751 6.155h12.492c.69 0 1.25.561 1.25 1.253v.595l-6.78 4.722a1.247 1.247 0 0 1-1.426 0L4.501 8v-.59c0-.693.56-1.255 1.25-1.255ZM4.502 9.833l.004 6.808c0 .693.56 1.254 1.25 1.254H18.25c.69 0 1.25-.562 1.25-1.255l-.004-6.806-5.928 4.127a2.742 2.742 0 0 1-3.135 0l-5.93-4.128Z" clip-rule="evenodd"/>
</svg>
