<svg xmlns="http://www.w3.org/2000/svg" width="24" height="24" fill="currentColor" viewBox="0 0 24 24">
  <path fill="#000" fill-rule="evenodd" d="M7.766 3.999a2.25 2.25 0 0 0-1.83.943L3.55 8.28a2.278 2.278 0 0 0 .087 2.762l6.623 8.129a2.245 2.245 0 0 0 3.487 0l6.618-8.13a2.278 2.278 0 0 0 .087-2.76l-2.384-3.337a2.25 2.25 0 0 0-1.83-.945H7.766Zm5.438 1.512 1.214 3.393H9.582l1.214-3.393h2.408Zm1.226 4.905H9.57L12 16.972l2.43-6.556Zm-.819 6.535 2.4-6.473a2.01 2.01 0 0 0 .022-.062h2.898l-5.32 6.535Zm2.404-8.047L14.8 5.511h1.438a.75.75 0 0 1 .61.314l2.199 3.08h-3.032ZM9.199 5.511 7.985 8.904h-3.03l2.202-3.079a.75.75 0 0 1 .61-.314h1.432Zm-1.21 4.968a2.243 2.243 0 0 1-.022-.063H5.07l5.314 6.522-2.395-6.46Z" clip-rule="evenodd"/>
</svg>
