<svg xmlns="http://www.w3.org/2000/svg" width="16" height="16" fill="currentColor" viewBox="0 0 16 16">
  <path fill="#000" fill-rule="evenodd" d="M8.129 2.976c0 1.092.885 1.977 1.977 1.977H12.4a1.977 1.977 0 1 0 0-3.954h-2.293A1.977 1.977 0 0 0 8.13 2.976Zm1.977.727a.727.727 0 1 1 0-1.454H12.4a.727.727 0 1 1 0 1.454h-2.293ZM8.13 8c0 1.092.885 1.977 1.977 1.977H12.4a1.977 1.977 0 1 0 0-3.955h-2.293A1.977 1.977 0 0 0 8.13 8Zm1.977.727a.727.727 0 1 1 0-1.455H12.4a.727.727 0 1 1 0 1.455h-2.293Zm0 6.273a1.977 1.977 0 1 1 0-3.954H12.4a1.977 1.977 0 1 1 0 3.954h-2.293Zm-.727-1.977c0 .402.325.727.727.727H12.4a.727.727 0 0 0 0-1.454h-2.293a.727.727 0 0 0-.727.727ZM2.249 2.352a.625.625 0 0 0 0 1.25h4.042a.625.625 0 1 0 0-1.25H2.249Zm-.625 5.647c0-.345.28-.625.625-.625h4.042a.625.625 0 1 1 0 1.25H2.249A.625.625 0 0 1 1.624 8Zm.625 4.4a.625.625 0 1 0 0 1.25h4.042a.625.625 0 1 0 0-1.25H2.249Z" clip-rule="evenodd"/>
</svg>
