<svg xmlns="http://www.w3.org/2000/svg" width="24" height="24" fill="currentColor" viewBox="0 0 24 24">
  <path fill="#000" fill-rule="evenodd" d="M12.139 5.498a2.5 2.5 0 0 0 2.5 2.5h3.111a2.5 2.5 0 0 0 0-5h-3.111a2.5 2.5 0 0 0-2.5 2.5Zm2.5 1a1 1 0 1 1 0-2h3.111a1 1 0 1 1 0 2h-3.111ZM12.139 12a2.5 2.5 0 0 0 2.5 2.5h3.111a2.5 2.5 0 0 0 0-5h-3.111a2.5 2.5 0 0 0-2.5 2.5Zm2.5 1a1 1 0 1 1 0-2h3.111a1 1 0 1 1 0 2h-3.111Zm0 8.002a2.5 2.5 0 0 1 0-5h3.111a2.5 2.5 0 0 1 0 5h-3.111Zm-1-2.5a1 1 0 0 0 1 1h3.111a1 1 0 1 0 0-2h-3.111a1 1 0 0 0-1 1ZM4.5 4.748a.75.75 0 0 0 0 1.5h5.271a.75.75 0 0 0 0-1.5H4.5ZM3.75 12a.75.75 0 0 1 .75-.75h5.271a.75.75 0 0 1 0 1.5H4.5a.75.75 0 0 1-.75-.75Zm.75 5.752a.75.75 0 0 0 0 1.5h5.271a.75.75 0 0 0 0-1.5H4.5Z" clip-rule="evenodd"/>
</svg>
