<svg xmlns="http://www.w3.org/2000/svg" width="24" height="24" fill="currentColor" viewBox="0 0 24 24">
  <path fill="#000" fill-rule="evenodd" d="m15.253 4.646 4.1 4.101a.5.5 0 0 1 .147.354v5.798a.5.5 0 0 1-.146.354l-4.101 4.1a.5.5 0 0 1-.354.147H9.101a.5.5 0 0 1-.354-.146l-4.1-4.101a.5.5 0 0 1-.147-.354V9.101a.5.5 0 0 1 .146-.354l4.101-4.1A.5.5 0 0 1 9.1 4.5h5.798a.5.5 0 0 1 .354.146ZM14.899 3a2 2 0 0 1 1.415.586l4.1 4.1A2 2 0 0 1 21 9.101v5.798a2 2 0 0 1-.586 1.415l-4.1 4.1a2 2 0 0 1-1.415.586H9.101a2 2 0 0 1-1.415-.586l-4.1-4.1A2 2 0 0 1 3 14.899V9.101a2 2 0 0 1 .586-1.415l4.1-4.1A2 2 0 0 1 9.101 3h5.798ZM12.75 8.257a.75.75 0 0 0-1.5 0v4.486a.75.75 0 0 0 1.5 0V8.257ZM12 14.743a.875.875 0 1 0 0 1.75.875.875 0 0 0 0-1.75Z" clip-rule="evenodd"/>
</svg>
