<svg xmlns="http://www.w3.org/2000/svg" width="16" height="16" fill="currentColor" viewBox="0 0 16 16">
  <path fill="#000" fill-rule="evenodd" d="m10.766 1.817 3.417 3.417a.495.495 0 0 1 .145.35v4.832a.495.495 0 0 1-.145.35l-3.417 3.417a.495.495 0 0 1-.35.145H5.584a.495.495 0 0 1-.35-.145l-3.417-3.417a.495.495 0 0 1-.145-.35V5.584c0-.131.052-.257.145-.35l3.417-3.417a.495.495 0 0 1 .35-.145h4.832c.131 0 .257.052.35.145ZM10.416.5c.442 0 .866.176 1.179.488l3.417 3.417c.312.313.488.737.488 1.179v4.832c0 .442-.176.866-.488 1.179l-3.417 3.417a1.667 1.667 0 0 1-1.179.488H5.584a1.67 1.67 0 0 1-1.179-.488L.988 11.595A1.667 1.667 0 0 1 .5 10.416V5.584c0-.442.176-.866.488-1.179L4.405.988A1.667 1.667 0 0 1 5.584.5h4.832ZM8 3.917c.346 0 .625.28.625.625v4.005a.625.625 0 0 1-1.25 0V4.542c0-.345.28-.625.625-.625Zm-.999 7.167a1 1 0 1 1 1.999 0 1 1 0 0 1-1.999 0Z" clip-rule="evenodd"/>
</svg>
