<svg xmlns="http://www.w3.org/2000/svg" width="24" height="24" fill="currentColor" viewBox="0 0 24 24">
  <path fill="#000" fill-rule="evenodd" d="M8.36 5.311v-1.31a.75.75 0 0 0-1.501 0v1.31H5.752A2.752 2.752 0 0 0 3 8.063v9.935a2.752 2.752 0 0 0 2.752 2.752h12.496A2.752 2.752 0 0 0 21 17.998V8.063a2.752 2.752 0 0 0-2.752-2.752h-1.13v-1.31a.75.75 0 1 0-1.5 0v1.31H8.36ZM5.752 6.812c-.69 0-1.251.56-1.251 1.251v1.212h14.998V8.063c0-.69-.56-1.25-1.25-1.25H5.751ZM4.5 17.998v-7.222h14.998v7.222c0 .69-.56 1.25-1.25 1.25H5.751c-.69 0-1.251-.56-1.251-1.25Zm3.345-5.726c-.968 0-1.752.784-1.752 1.751v2.123c0 .967.784 1.751 1.752 1.751h2.122c.967 0 1.752-.784 1.752-1.751v-2.123c0-.967-.785-1.751-1.752-1.751H7.846Zm-.25 1.751a.25.25 0 0 1 .25-.25h2.122a.25.25 0 0 1 .25.25v2.123a.25.25 0 0 1-.25.25H7.846a.25.25 0 0 1-.25-.25v-2.123Z" clip-rule="evenodd"/>
</svg>
