<svg xmlns="http://www.w3.org/2000/svg" width="16" height="16" fill="currentColor" viewBox="0 0 16 16">
  <path fill="#000" fill-rule="evenodd" d="M4.417 1.924v-.8a.625.625 0 1 0-1.25-.001v.8h-.793c-1.036 0-1.875.84-1.875 1.876v6.978c0 1.035.84 1.875 1.875 1.875h4.379a4.537 4.537 0 1 0 6.41-5.654v-3.2c0-1.035-.84-1.874-1.876-1.874h-.81v-.8a.625.625 0 0 0-1.25-.001v.8h-4.81Zm7.495 4.607v-.615H1.75v4.86c0 .346.28.626.625.626H6.45a4.535 4.535 0 0 1 5.462-4.871Zm0-2.732v.867H1.75v-.867c0-.346.28-.625.625-.625h8.913c.345 0 .625.28.625.625Zm-.947 10.454a3.27 3.27 0 0 0 1.578-.404c-.301-.621-.853-1.084-1.552-1.084-.706 0-1.267.473-1.57 1.103.46.245.986.384 1.544.384ZM12.569 12c.398.274.714.64.95 1.035a3.285 3.285 0 1 0-5.08.031 3.31 3.31 0 0 1 .942-1.045A2.064 2.064 0 1 1 12.569 12Zm-2.417-1.301a.814.814 0 1 1 1.628 0 .814.814 0 0 1-1.628 0Z" clip-rule="evenodd"/>
</svg>
