<svg xmlns="http://www.w3.org/2000/svg" width="16" height="16" fill="currentColor" viewBox="0 0 16 16">
  <path fill="#000" fill-rule="evenodd" d="M.625 2.377c0-.345.28-.625.625-.625h6.777a.625.625 0 0 1 0 1.25H1.25a.625.625 0 0 1-.625-.625Zm.625 3.09a.625.625 0 0 1 0-1.25h3.804a.625.625 0 0 1 0 1.25H1.25Zm0 1.214a.625.625 0 0 0 0 1.25h2.887a.625.625 0 1 0 0-1.25H1.25Zm9.029-1.554a3.115 3.115 0 1 0 0 6.23 3.115 3.115 0 0 0 0-6.23ZM5.913 8.242a4.365 4.365 0 1 1 7.44 3.1l1.84 1.838a.625.625 0 1 1-.884.884l-1.972-1.971a4.365 4.365 0 0 1-6.424-3.85Z" clip-rule="evenodd"/>
</svg>
