<svg xmlns="http://www.w3.org/2000/svg" width="16" height="16" fill="currentColor" viewBox="0 0 16 16">
  <path fill="#000" fill-rule="evenodd" d="M5.14 2.845v-1.03a.564.564 0 1 0-1.13 0v1.03H2.815A1.814 1.814 0 0 0 1 4.66v8.274c0 1.002.812 1.815 1.814 1.815h10.372A1.814 1.814 0 0 0 15 12.934V4.66a1.814 1.814 0 0 0-1.814-1.815h-1.214v-1.03a.564.564 0 0 0-1.129 0v1.03H5.14Zm-2.326 1.13a.686.686 0 0 0-.685.685v1.253H13.87V4.66a.686.686 0 0 0-.685-.686H2.814Zm-.685 8.96V7.041H13.87v5.892a.686.686 0 0 1-.685.686H2.814a.686.686 0 0 1-.685-.686Zm2.242-4.81A.875.875 0 0 0 3.496 9v2.604c0 .483.391.875.875.875h2.603a.875.875 0 0 0 .875-.875V9a.875.875 0 0 0-.875-.875H4.371Zm.375 3.104V9.375h1.853v1.854H4.746Z" clip-rule="evenodd"/>
</svg>
