<svg xmlns="http://www.w3.org/2000/svg" width="16" height="16" fill="currentColor" viewBox="0 0 16 16">
  <path fill="#000" d="M11.432 6.198a1.625 1.625 0 0 1-1.625-1.625v-2.7a.625.625 0 0 1 1.25 0v2.7c0 .207.168.375.375.375h2.693a.625.625 0 1 1 0 1.25h-2.693Zm-5.239 5.229c0-.898-.728-1.625-1.625-1.625H1.875a.625.625 0 0 0 0 1.25h2.693c.207 0 .375.168.375.375v2.7a.625.625 0 0 0 1.25 0v-2.7Zm3.614 0c0-.898.728-1.625 1.625-1.625h2.693a.625.625 0 1 1 0 1.25h-2.693a.375.375 0 0 0-.375.375v2.7a.625.625 0 0 1-1.25 0v-2.7ZM6.193 4.573c0 .897-.727 1.625-1.625 1.625H1.875a.625.625 0 1 1 0-1.25h2.693a.375.375 0 0 0 .375-.375v-2.7a.625.625 0 1 1 1.25 0v2.7Z"/>
</svg>
