<svg xmlns="http://www.w3.org/2000/svg" width="24" height="24" fill="currentColor" viewBox="0 0 24 24">
  <path fill="#000" d="M16.628 9.631a2.25 2.25 0 0 1-2.25-2.25V4.126a.75.75 0 0 1 1.5 0v3.255c0 .414.335.75.75.75h3.248a.75.75 0 0 1 0 1.5h-3.248ZM9.623 16.62a2.25 2.25 0 0 0-2.25-2.25H4.124a.75.75 0 0 0 0 1.5h3.249a.75.75 0 0 1 .75.75v3.254a.75.75 0 0 0 1.5 0v-3.255Zm4.754 0a2.25 2.25 0 0 1 2.25-2.25h3.25a.75.75 0 0 1 0 1.5h-3.25a.75.75 0 0 0-.75.75v3.254a.75.75 0 0 1-1.5 0v-3.255ZM9.623 7.381a2.25 2.25 0 0 1-2.25 2.25H4.125a.75.75 0 1 1 0-1.5h3.248a.75.75 0 0 0 .75-.75V4.126a.75.75 0 0 1 1.5 0v3.255Z"/>
</svg>
