<svg xmlns="http://www.w3.org/2000/svg" width="16" height="16" fill="currentColor" viewBox="0 0 16 16">
  <path fill="#000" d="M2.625 1.251a.625.625 0 1 0 0 1.25h10.75a.625.625 0 1 0 0-1.25H2.625Zm4.757 2.426a.875.875 0 0 1 1.238 0L10.642 5.7a.625.625 0 0 1-.884.884l-1.13-1.13v5.116l1.13-1.13a.625.625 0 0 1 .884.883l-2.024 2.024a.875.875 0 0 1-1.237 0l-2.023-2.022a.625.625 0 1 1 .884-.884l1.136 1.135V5.45L6.242 6.585A.625.625 0 1 1 5.36 5.7l2.023-2.024ZM2 14.124c0-.345.28-.625.625-.625h10.75a.625.625 0 1 1 0 1.25H2.625A.625.625 0 0 1 2 14.124Z"/>
</svg>
