<svg xmlns="http://www.w3.org/2000/svg" width="24" height="24" fill="currentColor" viewBox="0 0 24 24">
  <path fill="#000" d="M4.627 3.005a.75.75 0 0 0 0 1.5h14.746a.75.75 0 1 0 0-1.5H4.627Zm6.137 3.508a1.75 1.75 0 0 1 2.474 0l2.264 2.263a.75.75 0 0 1-1.061 1.061l-1.688-1.688v7.7l1.687-1.688a.75.75 0 0 1 1.061 1.061l-2.264 2.265a1.75 1.75 0 0 1-2.475 0l-2.264-2.263a.75.75 0 0 1 1.061-1.061l1.694 1.694V8.145L9.56 9.838a.75.75 0 1 1-1.061-1.06l2.264-2.265Zm-6.887 13.74a.75.75 0 0 1 .75-.75h14.746a.75.75 0 1 1 0 1.5H4.627a.75.75 0 0 1-.75-.75Z"/>
</svg>
