<svg xmlns="http://www.w3.org/2000/svg" width="16" height="16" fill="currentColor" viewBox="0 0 16 16">
  <path fill="#000" fill-rule="evenodd" d="M4.416 1.875a.623.623 0 0 0 0 1.246h.591v1.722a.374.374 0 0 1-.04.167l-1.86 3.723-.01.008.004.004-1.118 2.237c-.723 1.444.328 3.144 1.943 3.144h8.148c1.615 0 2.665-1.7 1.943-3.144l-1.515-3.031.007-.009-.018-.014-1.458-2.918a.374.374 0 0 1-.04-.167V3.121h.547a.623.623 0 1 0 0-1.246H4.416Zm6.605 5.899L9.918 5.567a1.62 1.62 0 0 1-.17-.724V3.121H6.252v1.722c0 .251-.058.5-.17.724L5.07 7.592a4.663 4.663 0 0 1 3.402.203c1.029.468 1.712.375 2.109.225a1.63 1.63 0 0 0 .44-.246ZM4.1 9.533l-1.003 2.006a.927.927 0 0 0 .829 1.34h8.148a.927.927 0 0 0 .829-1.34l-1.318-2.637c-.154.1-.342.2-.566.285-.729.274-1.756.337-3.063-.258A3.422 3.422 0 0 0 5.41 8.79a3.99 3.99 0 0 0-.992.489 1.74 1.74 0 0 0-.048.034l-.008.007-.263.212Z" clip-rule="evenodd"/>
</svg>
