<svg xmlns="http://www.w3.org/2000/svg" width="16" height="16" fill="currentColor" viewBox="0 0 16 16">
  <path fill="#000" fill-rule="evenodd" d="M1.375 12.75c0 1.036.84 1.876 1.875 1.876h9.5c1.035 0 1.874-.84 1.874-1.875v-2.466a.625.625 0 0 0-1.25 0v2.466c0 .345-.28.625-.625.625H3.25a.625.625 0 0 1-.625-.625V3.248c0-.345.28-.625.625-.625h2.464a.625.625 0 1 0 0-1.25H3.25c-1.036 0-1.875.84-1.875 1.875v9.502ZM7.95 2c0-.346.28-.626.625-.626H13c.897 0 1.625.728 1.625 1.625v4.425a.625.625 0 1 1-1.25 0V3.508L8.25 8.632a.625.625 0 0 1-.884-.884l5.124-5.124H8.575A.625.625 0 0 1 7.95 2Z" clip-rule="evenodd"/>
</svg>
