<svg xmlns="http://www.w3.org/2000/svg" width="24" height="24" fill="currentColor" viewBox="0 0 24 24">
  <path fill="#000" d="M3.5 17.751a2.75 2.75 0 0 0 2.75 2.75h11.5a2.75 2.75 0 0 0 2.75-2.75v-2.799a.75.75 0 0 0-1.5 0v2.8c0 .69-.56 1.25-1.25 1.25H6.25c-.69 0-1.25-.56-1.25-1.25V6.248c0-.69.56-1.25 1.25-1.25h2.798a.75.75 0 1 0 0-1.5H6.25a2.75 2.75 0 0 0-2.75 2.75V17.75Z"/>
  <path fill="#000" d="M11.992 4.249a.75.75 0 0 1 .75-.75h5.508a2.25 2.25 0 0 1 2.25 2.25v5.507a.75.75 0 0 1-1.5 0V6.06l-6.717 6.716a.75.75 0 1 1-1.06-1.06L17.939 5h-5.197a.75.75 0 0 1-.75-.75Z"/>
</svg>
