<svg xmlns="http://www.w3.org/2000/svg" width="16" height="16" fill="currentColor" viewBox="0 0 16 16">
  <path fill="#000" fill-rule="evenodd" d="M7.995 2.627c-2.409 0-4.27 1.033-5.522 2.182A8.106 8.106 0 0 0 1.04 6.533c-.164.27-.294.53-.385.765A2.02 2.02 0 0 0 .5 8c0 .231.07.478.156.702.091.236.222.496.386.766.33.54.811 1.15 1.437 1.723 1.254 1.149 3.118 2.181 5.526 2.181 2.409 0 4.27-1.033 5.522-2.182a8.107 8.107 0 0 0 1.433-1.723c.164-.27.294-.53.385-.766A2.02 2.02 0 0 0 15.5 8c0-.232-.07-.479-.156-.703a4.908 4.908 0 0 0-.386-.765 8.135 8.135 0 0 0-1.437-1.723c-1.254-1.15-3.118-2.182-5.526-2.182ZM1.75 8c0-.003.001-.024.011-.066a1.46 1.46 0 0 1 .06-.186c.06-.154.154-.347.287-.567a6.86 6.86 0 0 1 1.21-1.451c.447-.41.98-.8 1.595-1.115a3.696 3.696 0 1 0 6.176.006 7.264 7.264 0 0 1 1.588 1.109c.54.494.946 1.012 1.214 1.452.134.22.229.413.288.566.03.077.049.139.06.186.01.042.011.063.011.066a.43.43 0 0 1-.011.066 1.36 1.36 0 0 1-.06.185 3.68 3.68 0 0 1-.287.567c-.267.44-.672.957-1.21 1.452-1.075.987-2.648 1.853-4.677 1.853-2.029 0-3.604-.866-4.682-1.853A6.877 6.877 0 0 1 2.11 8.818a3.672 3.672 0 0 1-.288-.567 1.458 1.458 0 0 1-.06-.185A.346.346 0 0 1 1.751 8Zm3.803-1.351a2.446 2.446 0 1 1 4.893 0 2.446 2.446 0 0 1-4.893 0Z" clip-rule="evenodd"/>
</svg>
