<svg xmlns="http://www.w3.org/2000/svg" width="24" height="24" fill="currentColor" viewBox="0 0 24 24">
  <path fill="#000" fill-rule="evenodd" d="M4.75 8.161c1.655-1.35 4.098-2.537 7.242-2.537 3.143 0 5.59 1.187 7.249 2.536.828.674 1.468 1.393 1.906 2.04.22.322.395.635.518.924.117.274.21.581.21.876h-1.498 1.5c0 .294-.094.601-.21.875a5.561 5.561 0 0 1-.516.924 9.757 9.757 0 0 1-1.901 2.04c-1.656 1.35-4.1 2.537-7.243 2.537-3.143 0-5.59-1.187-7.249-2.536a9.78 9.78 0 0 1-1.906-2.04 5.564 5.564 0 0 1-.518-.924c-.117-.274-.21-.581-.21-.876h1.498-1.5c0-.294.094-.601.21-.875a5.51 5.51 0 0 1 .516-.924 9.757 9.757 0 0 1 1.901-2.04ZM20.375 12a.45.45 0 0 1-.013.072 1.566 1.566 0 0 1-.076.216c-.078.182-.201.41-.378.67a8.263 8.263 0 0 1-1.607 1.718c-1.431 1.167-3.548 2.2-6.295 2.2s-4.867-1.033-6.302-2.2a8.286 8.286 0 0 1-1.613-1.718 4.088 4.088 0 0 1-.378-.67 1.562 1.562 0 0 1-.077-.217c-.011-.045-.013-.068-.014-.072V12a.38.38 0 0 1 .013-.072c.014-.054.038-.126.077-.216.077-.182.2-.41.377-.67.352-.52.89-1.133 1.607-1.718a9.732 9.732 0 0 1 2.409-1.44 4.827 4.827 0 1 0 7.794.008 9.77 9.77 0 0 1 2.394 1.432 8.288 8.288 0 0 1 1.613 1.718c.177.26.3.489.378.67.039.09.063.163.077.217a.491.491 0 0 1 .014.072V12ZM8.673 10.737a3.327 3.327 0 1 1 6.654 0 3.327 3.327 0 0 1-6.654 0Z" clip-rule="evenodd"/>
</svg>
