<svg xmlns="http://www.w3.org/2000/svg" width="16" height="16" fill="currentColor" viewBox="0 0 16 16">
  <path fill="#000" fill-rule="evenodd" d="M7.217 1.367a.878.878 0 0 1 1.566 0l1.84 3.618 4.01.632a.878.878 0 0 1 .484 1.489l-2.873 2.868.638 4.009a.878.878 0 0 1-1.266.92L8 13.057l-3.616 1.846a.878.878 0 0 1-1.266-.92l.638-4.009L.884 7.106a.878.878 0 0 1 .483-1.489l4.01-.632 1.84-3.618ZM8 2.587 6.406 5.722a.878.878 0 0 1-.646.469l-3.474.548 2.489 2.484c.199.2.29.482.246.76l-.552 3.472L7.6 11.857a.878.878 0 0 1 .798 0l3.132 1.598-.552-3.472a.878.878 0 0 1 .246-.76l2.489-2.484-3.474-.548a.878.878 0 0 1-.646-.47L8 2.588Z" clip-rule="evenodd"/>
</svg>
