<svg xmlns="http://www.w3.org/2000/svg" width="24" height="24" fill="currentColor" viewBox="0 0 24 24">
  <path fill="#000" fill-rule="evenodd" d="M10.416 3.578c.646-1.273 2.463-1.273 3.11 0l2.017 3.97a.25.25 0 0 0 .183.134l4.395.693c1.41.223 1.97 1.953.961 2.962l-3.148 3.147a.25.25 0 0 0-.07.216l.699 4.399c.224 1.41-1.246 2.48-2.516 1.83l-3.963-2.025a.249.249 0 0 0-.227 0l-3.962 2.025c-1.271.65-2.74-.42-2.517-1.83l.7-4.4a.25.25 0 0 0-.07-.215l-3.149-3.147c-1.01-1.01-.448-2.74.962-2.962l4.394-.693a.25.25 0 0 0 .184-.134l2.017-3.97Zm1.777.68a.25.25 0 0 0-.444 0l-2.017 3.97a1.75 1.75 0 0 1-1.284.933l-4.395.693a.25.25 0 0 0-.137.423l3.148 3.148c.396.395.578.957.49 1.51l-.699 4.399a.25.25 0 0 0 .36.261l3.963-2.025a1.743 1.743 0 0 1 1.586 0l3.963 2.025a.25.25 0 0 0 .359-.261l-.7-4.399a1.748 1.748 0 0 1 .491-1.51l3.148-3.148a.25.25 0 0 0-.137-.423l-4.395-.693a1.745 1.745 0 0 1-1.283-.934l-2.017-3.97Z" clip-rule="evenodd"/>
</svg>
