<svg xmlns="http://www.w3.org/2000/svg" width="24" height="24" fill="currentColor" viewBox="0 0 24 24">
  <path fill="#000" fill-rule="evenodd" d="M6.763 5.161a2.75 2.75 0 0 1 2.743-2.758h3.775c.721 0 1.414.286 1.928.796l4.206 4.177c.522.518.816 1.225.816 1.962v6.57a2.75 2.75 0 0 1-2.744 2.758h-.29v.23a2.75 2.75 0 0 1-2.743 2.757h-7.98a2.75 2.75 0 0 1-2.744-2.758V8.148A2.75 2.75 0 0 1 6.474 5.39h.29v-.229Zm10.724 12h-.29v-4.836c0-.737-.293-1.444-.815-1.962l-4.206-4.177a2.736 2.736 0 0 0-1.928-.796H8.26v-.229a1.25 1.25 0 0 1 1.246-1.253h3.775c.328 0 .643.13.876.361l4.206 4.177c.238.236.371.557.371.892v6.57a1.25 1.25 0 0 1-1.247 1.254ZM6.474 6.896a1.25 1.25 0 0 0-1.247 1.253v10.747a1.25 1.25 0 0 0 1.247 1.254h7.98a1.25 1.25 0 0 0 1.247-1.254V12.57h-3.515a2.25 2.25 0 0 1-2.244-2.257V6.895H6.474Zm4.964.673v2.745a.75.75 0 0 0 .748.752h2.774l-3.522-3.497Z" clip-rule="evenodd"/>
</svg>
