<svg xmlns="http://www.w3.org/2000/svg" width="16" height="16" fill="currentColor" viewBox="0 0 16 16">
  <path fill="#000" fill-rule="evenodd" d="M6.053.503c-1.2 0-2.174.973-2.174 2.174v.26h-.206c-1.2 0-2.174.974-2.174 2.174v8.213c0 1.2.973 2.174 2.174 2.174h6.284c1.2 0 2.174-.973 2.174-2.174v-.26h.196c1.2 0 2.174-.974 2.174-2.174V5.878c0-.587-.238-1.15-.66-1.558L10.55 1.118A2.174 2.174 0 0 0 9.033.503h-2.98Zm6.078 11.31h.196c.51 0 .924-.413.924-.923V5.878a.924.924 0 0 0-.28-.662L9.677 2.014a.924.924 0 0 0-.644-.261h-2.98a.924.924 0 0 0-.924.924v.26h1.53c.566 0 1.109.22 1.515.615l3.297 3.202c.422.409.66.972.66 1.56v3.5ZM3.673 4.188a.924.924 0 0 0-.924.924v8.213c0 .51.414.924.924.924h6.284c.51 0 .924-.414.924-.924V8.537H7.99a1.625 1.625 0 0 1-1.624-1.625V4.187H3.673Zm3.944.566 2.61 2.534H7.991a.375.375 0 0 1-.375-.375v-2.16Z" clip-rule="evenodd"/>
</svg>
