<svg xmlns="http://www.w3.org/2000/svg" width="16" height="16" fill="currentColor" viewBox="0 0 16 16">
  <path fill="#000" fill-rule="evenodd" d="M7.86 1.31c-.317.335-.713.787-.784 1.323-.051.389.081.733.299.96v.947H5.436c-1.035 0-1.875.84-1.875 1.875v2.401h-.123c-1.036 0-1.876.84-1.876 1.875v2.812a.625.625 0 0 0 .063 1.247h12.75a.625.625 0 0 0 .061-1.247v-2.812c0-1.035-.84-1.875-1.875-1.875h-.121v-2.4c0-1.036-.84-1.876-1.875-1.876h-1.94v-.947c.217-.228.349-.572.298-.96-.071-.536-.471-.99-.784-1.322a.193.193 0 0 0-.28 0Zm5.326 12.19H2.813v-2.809c0-.345.28-.625.624-.625h9.124c.345 0 .625.28.625.625v2.81ZM7.968 5.79a.627.627 0 0 0 .063 0h2.534c.345 0 .625.28.625.625v2.401H4.81v-2.4c0-.346.28-.626.625-.626h2.532Z" clip-rule="evenodd"/>
</svg>
