<svg xmlns="http://www.w3.org/2000/svg" width="24" height="24" fill="currentColor" viewBox="0 0 24 24">
  <path fill="#000" fill-rule="evenodd" d="M11.817 2.955c-.435.455-.987 1.073-1.085 1.807-.079.59.157 1.103.518 1.406v1.284H8.765a2.75 2.75 0 0 0-2.75 2.75v3.058a2.75 2.75 0 0 0-2.744 2.75v3.613H3.25a.75.75 0 0 0 0 1.5h17.503a.75.75 0 0 0 0-1.5h-.024V16.01a2.75 2.75 0 0 0-2.743-2.75v-3.058a2.75 2.75 0 0 0-2.75-2.75H12.75V6.167c.36-.303.595-.816.516-1.405-.097-.733-.655-1.354-1.085-1.806a.251.251 0 0 0-.364-.001Zm7.41 16.668H4.772V16.01c0-.69.56-1.25 1.25-1.25h11.957c.69 0 1.25.56 1.25 1.25v3.613ZM11.955 8.952a.761.761 0 0 0 .091 0h3.19c.69 0 1.25.56 1.25 1.25v3.058h-8.97v-3.058c0-.69.56-1.25 1.25-1.25h3.189Z" clip-rule="evenodd"/>
</svg>
