<svg xmlns="http://www.w3.org/2000/svg" width="24" height="24" fill="currentColor" viewBox="0 0 24 24">
  <path fill="#000" fill-rule="evenodd" d="M4.375 3.872v16.256a.75.75 0 0 0 1.5 0v-5.23c1.903.514 4.273.474 6.4-.341 1.624-.623 3.757-.885 5.644-.268.772.252 1.706-.274 1.706-1.207V5.65c0-.48-.28-.946-.763-1.141-2.402-.972-5.062-.669-7.124.122-1.984.76-4.162.716-5.864.168v-.927a.75.75 0 0 0-1.499 0Zm1.5 2.488v6.974c1.64.547 3.876.586 5.863-.176 1.786-.685 4.164-1.018 6.388-.373V5.83c-1.912-.709-4.086-.478-5.85.2-2.146.822-4.471.844-6.402.33Z" clip-rule="evenodd"/>
</svg>
