<svg xmlns="http://www.w3.org/2000/svg" width="16" height="16" fill="currentColor" viewBox="0 0 16 16">
  <path fill="#000" fill-rule="evenodd" d="M2.001 1.5a.625.625 0 0 1 1.25 0v.678a7.05 7.05 0 0 0 4.53-.14c1.662-.636 3.825-.87 5.755-.028a.773.773 0 0 1 .463.708v6.403c0 .573-.58.919-1.073.721-1.535-.617-3.34-.424-4.698.095a8.377 8.377 0 0 1-4.977.28V14.5a.625.625 0 1 1-1.25 0v-13Zm1.25 7.416c1.271.415 2.997.441 4.53-.146 1.385-.53 3.233-.794 4.968-.306V3.04c-1.477-.537-3.154-.359-4.52.165a8.318 8.318 0 0 1-4.978.272v5.438Z" clip-rule="evenodd"/>
</svg>
