<svg xmlns="http://www.w3.org/2000/svg" width="24" height="24" fill="currentColor" viewBox="0 0 24 24">
  <path fill="#000" fill-rule="evenodd" d="m9.115 8.054 2.876-3.66V9.26c0 .967.784 1.75 1.751 1.75l4.506-.003a.25.25 0 0 1 .197.405l-2.628 3.345-6.702-6.702Zm-2.002.12L3.72 4.779a.75.75 0 1 1 1.06-1.06l3.268 3.267 3.205-4.079c.735-.936 2.239-.416 2.239.774V9.26c0 .138.112.25.25.25l4.506-.003c1.461-.001 2.28 1.682 1.378 2.831l-2.74 3.487 3.396 3.397a.75.75 0 1 1-1.06 1.06l-3.27-3.269-3.204 4.08c-.736.936-2.24.416-2.24-.774V14.74a.25.25 0 0 0-.25-.25H5.752c-1.46 0-2.278-1.683-1.376-2.831l2.738-3.485Zm7.77 7.77-2.875 3.66V14.74a1.75 1.75 0 0 0-1.75-1.75H5.75a.25.25 0 0 1-.197-.405L8.18 9.242l6.703 6.702Z" clip-rule="evenodd"/>
</svg>
