<svg xmlns="http://www.w3.org/2000/svg" width="16" height="16" fill="currentColor" viewBox="0 0 16 16">
  <path fill="#000" fill-rule="evenodd" d="M7.954 2.18 2.89 8.62a.064.064 0 0 0-.016.035c0 .01 0 .024.008.039a.076.076 0 0 0 .026.03c.006.004.016.01.038.01h4.018c.602 0 1.09.488 1.089 1.09l-.004 3.993 5.06-6.437a.065.065 0 0 0 .017-.035.077.077 0 0 0-.008-.04.077.077 0 0 0-.026-.03.064.064 0 0 0-.038-.009l-4.004.003a1.09 1.09 0 0 1-1.09-1.087L7.954 2.18ZM7.26 1.042C7.897.23 9.202.68 9.203 1.713L9.21 6.02l3.843-.003c1.103 0 1.72 1.27 1.04 2.137l-5.35 6.803c-.639.813-1.945.36-1.944-.673l.004-4.3H2.946c-1.103 0-1.72-1.27-1.038-2.136l5.35-6.805Z" clip-rule="evenodd"/>
</svg>
