<svg xmlns="http://www.w3.org/2000/svg" width="16" height="16" fill="currentColor" viewBox="0 0 16 16">
  <path fill="#000" fill-rule="evenodd" d="m5.8 4.92 2.154-2.74.006 4.002a1.09 1.09 0 0 0 1.09 1.087l4.004-.003c.022 0 .032.005.038.01a.077.077 0 0 1 .026.03.077.077 0 0 1 .008.039.065.065 0 0 1-.016.035l-2.134 2.714L5.8 4.92Zm-1.666.096L.932 1.814a.623.623 0 0 1 .881-.881L4.91 4.03l2.35-2.987C7.897.23 9.202.68 9.203 1.714L9.21 6.02l3.843-.003c1.103 0 1.72 1.27 1.04 2.137l-2.227 2.831 3.202 3.202a.623.623 0 1 1-.881.88l-3.096-3.095-2.348 2.985c-.639.813-1.945.36-1.944-.674l.004-4.298H2.946c-1.103 0-1.72-1.27-1.038-2.137l2.226-2.832Zm6.066 6.066-2.15 2.736.003-3.994a1.09 1.09 0 0 0-1.089-1.09H2.946a.064.064 0 0 1-.038-.009.076.076 0 0 1-.026-.03.076.076 0 0 1-.008-.039c0-.007.003-.019.016-.036l2.135-2.714 5.175 5.176Z" clip-rule="evenodd"/>
</svg>
