<svg xmlns="http://www.w3.org/2000/svg" width="16" height="16" fill="currentColor" viewBox="0 0 16 16">
  <path fill="#000" fill-rule="evenodd" d="M1 2.496c0-.345.28-.625.625-.625h1.09c.427 0 .774.347.774.775v3.615a.625.625 0 1 1-1.25 0v-3.14h-.614A.625.625 0 0 1 1 2.496Zm5.077 1.176c0-.345.28-.625.625-.625h7.673a.625.625 0 1 1 0 1.25H6.702a.625.625 0 0 1-.625-.625Zm0 4.32c0-.345.28-.624.625-.624h7.673a.625.625 0 1 1 0 1.25H6.702a.625.625 0 0 1-.625-.625Zm.625 3.706a.625.625 0 1 0 0 1.25h7.673a.625.625 0 1 0 0-1.25H6.702Zm-3.58-2.19c-.88-.358-1.74.105-2.05.701a.625.625 0 0 0 1.108.578.34.34 0 0 1 .164-.125.397.397 0 0 1 .306.004.297.297 0 0 1 .157.192.267.267 0 0 1-.001.14.525.525 0 0 1-.133.217c-.05.053-.138.13-.288.262-.137.12-.306.27-.472.435-.307.307-.716.778-.81 1.351-.085.524.355.865.746.865h1.63a.625.625 0 1 0 0-1.25h-.762a8.607 8.607 0 0 1 .492-.46l.03-.028c.119-.103.253-.22.348-.322.431-.463.56-1.018.43-1.522a1.544 1.544 0 0 0-.895-1.038Z" clip-rule="evenodd"/>
</svg>
