<svg xmlns="http://www.w3.org/2000/svg" width="24" height="24" fill="currentColor" viewBox="0 0 24 24">
  <path fill="#000" fill-rule="evenodd" d="M8.492 6.313a2.75 2.75 0 0 1 2.744-2.563h.13a2.75 2.75 0 0 1 2.628 1.938l.183.59a.75.75 0 0 1-1.433.444l-.183-.591a1.25 1.25 0 0 0-1.194-.881h-.131a1.25 1.25 0 0 0-1.247 1.165l-.184 2.688h1.747a.75.75 0 0 1 0 1.5H9.703l-.483 7.084a2.75 2.75 0 0 1-2.744 2.563h-.045a2.75 2.75 0 0 1-2.525-1.66l-.342-.793a.75.75 0 0 1 1.377-.594l.342.793a1.25 1.25 0 0 0 1.148.754h.045a1.25 1.25 0 0 0 1.247-1.165l.477-6.982H6.16a.75.75 0 0 1 0-1.5h2.142l.19-2.79Zm5.571 7.231a.75.75 0 0 0-1.352-.093l-.137.244a.75.75 0 1 1-1.308-.734l.138-.245c.929-1.653 3.362-1.486 4.055.28l.556 1.415 2.314-2.52a.75.75 0 0 1 1.06-.05.75.75 0 0 1 .04 1.06l-2.806 3.056.894 2.279a.75.75 0 0 0 1.34.115l.25-.412a.75.75 0 1 1 1.282.778l-.25.412c-.967 1.592-3.337 1.388-4.018-.345l-.627-1.597-2.556 2.783a.75.75 0 0 1-1.06.05.75.75 0 0 1-.04-1.06l3.048-3.32-.823-2.096Z" clip-rule="evenodd"/>
</svg>
