<svg xmlns="http://www.w3.org/2000/svg" width="24" height="24" fill="currentColor" viewBox="0 0 24 24">
  <path fill="#000" fill-rule="evenodd" d="M3.127 5a.75.75 0 0 1 .75-.75H5.19a1 1 0 0 1 1 1v4.5a.75.75 0 1 1-1.5 0v-4h-.813a.75.75 0 0 1-.75-.75ZM9.37 6.42a.75.75 0 0 1 .75-.75h10.003a.75.75 0 0 1 0 1.5H10.12a.75.75 0 0 1-.75-.75Zm0 5.571a.75.75 0 0 1 .75-.75h10.003a.75.75 0 0 1 0 1.5H10.12a.75.75 0 0 1-.75-.75Zm.75 4.835a.75.75 0 1 0 0 1.5h10.003a.75.75 0 0 0 0-1.5H10.12Zm-4.368-2.828c-1.09-.445-2.155.129-2.539.866a.75.75 0 0 0 1.33.693.463.463 0 0 1 .228-.175.54.54 0 0 1 .414.005.413.413 0 0 1 .221.269c.025.096.03.262-.179.485-.065.07-.18.17-.37.338a12.25 12.25 0 0 0-.602.555c-.389.39-.903.989-1.004 1.714-.084.602.417 1.003.882 1.003h2.082a.75.75 0 0 0 0-1.5H5.166a6.9 6.9 0 0 1 .151-.159c.17-.17.352-.331.527-.485l.042-.037c.15-.13.318-.278.437-.405.536-.575.695-1.263.534-1.885a1.91 1.91 0 0 0-1.106-1.282Z" clip-rule="evenodd"/>
</svg>
