<svg xmlns="http://www.w3.org/2000/svg" width="16" height="16" fill="currentColor" viewBox="0 0 16 16">
  <path fill="#000" fill-rule="evenodd" d="M3.127 2.377c0-.345.28-.625.625-.625h4.046a3.334 3.334 0 0 1 2.493 5.546 3.542 3.542 0 0 1-.959 6.95h-5.58a.625.625 0 0 1-.617-.724.63.63 0 0 1-.008-.097v-5.62a.657.657 0 0 1 0-.03v-5.4Zm1.25.625v4.165h3.51a2.084 2.084 0 0 0-.09-4.165h-3.42Zm0 5.417v4.579h4.955a2.29 2.29 0 0 0 0-4.58h-1.42a3.386 3.386 0 0 1-.114.001h-3.42Z" clip-rule="evenodd"/>
</svg>
