<svg xmlns="http://www.w3.org/2000/svg" width="16" height="16" fill="currentColor" viewBox="0 0 16 16">
  <path fill="#000" d="M5.28 3.866a2.143 2.143 0 0 1 2.138-1.992h.113c.931 0 1.756.602 2.04 1.49l.132.41a.625.625 0 1 1-1.19.38l-.132-.41a.893.893 0 0 0-.85-.62h-.113a.893.893 0 0 0-.89.83l-.13 1.84H7.66a.625.625 0 1 1 0 1.25H6.31l-.358 5.074a2.143 2.143 0 0 1-2.137 1.992h-.05a2.143 2.143 0 0 1-1.957-1.268l-.253-.567a.625.625 0 1 1 1.141-.51l.253.567a.893.893 0 0 0 .816.528h.05a.893.893 0 0 0 .89-.83l.352-4.985H3.573a.625.625 0 1 1 0-1.25h1.572l.136-1.93Z"/>
  <path fill="#000" d="M9.512 9.175a.513.513 0 0 0-.92-.065l-.112.194a.625.625 0 1 1-1.08-.629l.112-.194c.737-1.266 2.606-1.134 3.158.223l.393.966 1.702-1.791a.625.625 0 0 1 .884-.025c.25.238.258.633.02.884l-2.091 2.2.659 1.619a.513.513 0 0 0 .91.08l.2-.318a.625.625 0 1 1 1.058.665l-.2.318c-.765 1.216-2.585 1.056-3.127-.275l-.445-1.096-1.887 1.984a.625.625 0 0 1-.883.025.625.625 0 0 1-.02-.884l2.274-2.392-.605-1.49Z"/>
</svg>
