<svg xmlns="http://www.w3.org/2000/svg" width="16" height="16" fill="currentColor" viewBox="0 0 16 16">
  <path fill="#000" fill-rule="evenodd" d="M3.807 1.304a1.9 1.9 0 0 1 2.687 0l.73.73 6.698 6.699a.766.766 0 0 1-.523 1.306l-.988.024a.156.156 0 0 0-.106.045l-4.19 4.19a2.031 2.031 0 0 1-2.873 0L1.095 10.15a2.031 2.031 0 0 1 0-2.872l3-3-.288-.287a1.9 1.9 0 0 1 0-2.687Zm1.171 2.09.92-.919-.288-.287a.65.65 0 1 0-.919.92l.287.286Zm1.803-.035L5.421 4.72 3.93 6.21c1.088.026 2.235.48 3.13 1.548.67.799 1.297 1.353 1.975 1.608.644.243 1.42.245 2.473-.248a.628.628 0 0 1 .065-.026c.196-.146.427-.24.67-.269L6.782 3.36ZM1.98 8.162l.02-.02a.63.63 0 0 0 .045-.039c.863-.81 2.787-1.059 4.06.459.71.846 1.506 1.604 2.492 1.974.406.153.829.235 1.273.24l-2.638 2.638a.781.781 0 0 1-1.105 0L1.98 9.267a.781.781 0 0 1 0-1.105Zm12.4 2.953c.405.708 1.019 1.852 1.102 2.486.124.936-.403 1.652-1.268 1.652-.866 0-1.393-.716-1.27-1.652.094-.708.699-1.795 1.101-2.487a.193.193 0 0 1 .336 0Z" clip-rule="evenodd"/>
</svg>
