<svg xmlns="http://www.w3.org/2000/svg" width="24" height="24" fill="currentColor" viewBox="0 0 24 24">
  <path fill="#000" fill-rule="evenodd" d="M6.472 3.206a2.412 2.412 0 0 1 3.41 0l.951.95 8.622 8.622c.622.622.196 1.686-.683 1.707l-1.14.027a.25.25 0 0 0-.17.073l-5.348 5.348a2.75 2.75 0 0 1-3.89 0l-5.17-5.17a2.75 2.75 0 0 1 0-3.889l3.838-3.837-.42-.42a2.412 2.412 0 0 1 0-3.41Zm1.48 2.77 1.29-1.29-.42-.42a.912.912 0 1 0-1.29 1.29l.42.42Zm2.35-.229-1.819 1.82-2.05 2.05c1.446-.006 2.989.57 4.185 1.997.876 1.043 1.7 1.776 2.6 2.115.86.323 1.89.323 3.274-.325a.755.755 0 0 1 .087-.035 1.75 1.75 0 0 1 .99-.355l-7.266-7.267Zm-6.187 7.956a1.25 1.25 0 0 1-.062-1.7.74.74 0 0 0 .03-.028c1.15-1.08 3.7-1.406 5.386.603.924 1.1 1.953 2.078 3.221 2.555.57.214 1.166.32 1.796.307l-3.433 3.433a1.25 1.25 0 0 1-1.768 0l-5.17-5.17ZM20.288 16.1c.527.923 1.33 2.42 1.44 3.247.162 1.22-.526 2.153-1.654 2.153-1.127 0-1.815-.933-1.653-2.153.122-.924.914-2.346 1.438-3.248a.248.248 0 0 1 .43.001Z" clip-rule="evenodd"/>
</svg>
