<svg xmlns="http://www.w3.org/2000/svg" width="24" height="24" fill="currentColor" viewBox="0 0 24 24">
  <path fill="#000" d="M18.003 3.748a2.25 2.25 0 0 1 2.25 2.25v3.028a.75.75 0 0 1-1.5 0V5.998a.75.75 0 0 0-.75-.75h-3.02a.75.75 0 1 1 0-1.5h3.02ZM6.004 3.75A2.25 2.25 0 0 0 3.754 6v3.019a.75.75 0 1 0 1.5 0v-3.02a.75.75 0 0 1 .75-.75h3.028a.75.75 0 1 0 0-1.5H6.004Zm12 16.497a2.25 2.25 0 0 0 2.25-2.25v-3.02a.75.75 0 0 0-1.5 0v3.02a.75.75 0 0 1-.75.75h-3.028a.75.75 0 1 0 0 1.5h3.028ZM3.755 17.998a2.25 2.25 0 0 0 2.25 2.25h3.02a.75.75 0 1 0 0-1.5h-3.02a.75.75 0 0 1-.75-.75V14.97a.75.75 0 0 0-1.5 0v3.028Z"/>
</svg>
