<svg xmlns="http://www.w3.org/2000/svg" width="16" height="16" fill="currentColor" viewBox="0 0 16 16">
  <path fill="#000" d="M12.876 1.498c.898 0 1.625.728 1.625 1.625v2.548a.625.625 0 1 1-1.25 0V3.123a.375.375 0 0 0-.375-.375h-2.541a.625.625 0 1 1 0-1.25h2.541Zm-9.753.001c-.897 0-1.625.728-1.625 1.625v2.541a.625.625 0 0 0 1.25 0V3.124c0-.207.168-.375.375-.375h2.548a.625.625 0 0 0 0-1.25H3.123ZM12.877 14.5c.898 0 1.625-.727 1.625-1.624v-2.542a.625.625 0 0 0-1.25 0v2.542a.375.375 0 0 1-.375.375H10.33a.625.625 0 1 0 0 1.25h2.548ZM1.499 12.877c0 .898.727 1.625 1.625 1.625h2.54a.625.625 0 0 0 0-1.25h-2.54a.375.375 0 0 1-.375-.375V10.33a.625.625 0 1 0-1.25 0v2.548Z"/>
</svg>
