<svg xmlns="http://www.w3.org/2000/svg" width="24" height="24" fill="currentColor" viewBox="0 0 24 24">
  <path fill="#000" fill-rule="evenodd" d="M6.008 5.504a.501.501 0 0 0-.405.795l4.554 6.324c.223.31.343.683.343 1.066v5.556a.25.25 0 0 0 .352.228l2.495-1.115a.25.25 0 0 0 .149-.229v-4.444c0-.383.12-.757.345-1.067l4.564-6.319A.501.501 0 0 0 18 5.504H6.008ZM4.387 7.18C3.432 5.853 4.377 4 6.008 4H18c1.633 0 2.578 1.855 1.62 3.18l-4.565 6.32a.317.317 0 0 0-.06.185v4.444c0 .693-.406 1.32-1.037 1.603l-2.495 1.115A1.75 1.75 0 0 1 9 19.245v-5.556a.317.317 0 0 0-.06-.185L4.388 7.179Z" clip-rule="evenodd"/>
</svg>
