<svg xmlns="http://www.w3.org/2000/svg" width="16" height="16" fill="currentColor" viewBox="0 0 16 16">
  <path fill="#000" fill-rule="evenodd" d="M1.125 13.001c0 1.036.839 1.875 1.875 1.875h10c1.036 0 1.875-.84 1.875-1.875V2.998c0-1.035-.84-1.875-1.875-1.875H3c-1.036 0-1.875.84-1.875 1.875v10.003ZM3 13.626a.625.625 0 0 1-.625-.625V8.623h2.828a.875.875 0 0 0 .816-.56l.846-2.19 1.403 5.71c.205.832 1.358.906 1.666.107l1.184-3.067h2.507v4.378c0 .345-.28.625-.625.625H3Zm10.625-6.253V2.998A.625.625 0 0 0 13 2.373H3a.625.625 0 0 0-.625.625v4.375h2.57L6.13 4.31c.308-.799 1.461-.725 1.666.106l1.403 5.711.846-2.194a.875.875 0 0 1 .817-.56h2.764Z" clip-rule="evenodd"/>
</svg>
