<svg xmlns="http://www.w3.org/2000/svg" width="24" height="24" fill="currentColor" viewBox="0 0 24 24">
  <path fill="#000" fill-rule="evenodd" d="M3.375 17.876a2.75 2.75 0 0 0 2.75 2.75h11.75a2.75 2.75 0 0 0 2.75-2.75V6.123a2.75 2.75 0 0 0-2.75-2.75H6.125a2.75 2.75 0 0 0-2.75 2.75v11.753Zm2.75 1.25c-.69 0-1.25-.56-1.25-1.25V12.75h3.473a1.25 1.25 0 0 0 1.183-.848l1.051-3.095 1.64 7.59c.267 1.24 1.997 1.339 2.405.138l1.283-3.785h3.215v5.125c0 .69-.56 1.25-1.25 1.25H6.125Zm13-7.875V6.123c0-.69-.56-1.25-1.25-1.25H6.125c-.69 0-1.25.56-1.25 1.25v5.128h3.294l1.283-3.78c.408-1.201 2.138-1.102 2.406.137l1.638 7.59 1.051-3.099a1.25 1.25 0 0 1 1.184-.848h3.394Z" clip-rule="evenodd"/>
</svg>
