<svg xmlns="http://www.w3.org/2000/svg" width="24" height="24" fill="currentColor" viewBox="0 0 24 24">
  <path fill="#000" fill-rule="evenodd" d="M4.894 3.834a.747.747 0 0 0-1.06 0 .757.757 0 0 0 0 1.067l2.302 2.314c-.51.303-.973.631-1.387.97a9.788 9.788 0 0 0-1.901 2.05 5.6 5.6 0 0 0-.516.93c-.116.275-.21.583-.21.88h1.5-1.499c0 .296.094.605.211.88.123.29.298.605.518.93a9.809 9.809 0 0 0 1.906 2.049c1.66 1.357 4.106 2.55 7.25 2.55 1.686 0 3.17-.343 4.44-.872l2.796 2.81a.747.747 0 0 0 1.061 0 .757.757 0 0 0 0-1.066l-2.44-2.453c.51-.303.972-.631 1.385-.97a9.783 9.783 0 0 0 1.901-2.05 5.62 5.62 0 0 0 .516-.929c.116-.275.21-.584.21-.88h-1.5 1.499c0-.296-.094-.605-.211-.88a5.602 5.602 0 0 0-.518-.93 9.81 9.81 0 0 0-1.906-2.05c-1.66-1.356-4.106-2.55-7.25-2.55-1.685 0-3.17.344-4.44.872L4.894 3.834Zm-1.27 8.21h-.002c0-.005.003-.028.014-.072.014-.054.038-.127.077-.218.077-.182.2-.411.377-.673a8.29 8.29 0 0 1 1.607-1.727c.447-.366.96-.72 1.54-1.032l.391.393a4.855 4.855 0 0 0-.455 2.06c0 2.679 2.161 4.851 4.827 4.851.732 0 1.426-.164 2.048-.457l1.237 1.243c-.966.33-2.06.534-3.278.534-2.747 0-4.867-1.039-6.302-2.212a8.312 8.312 0 0 1-1.613-1.727 4.11 4.11 0 0 1-.378-.673 1.571 1.571 0 0 1-.077-.218.465.465 0 0 1-.014-.072Zm11.686 2.261 1.453 1.461a9.7 9.7 0 0 0 1.539-1.032 8.29 8.29 0 0 0 1.607-1.726c.177-.262.3-.492.378-.674a1.58 1.58 0 0 0 .076-.218.483.483 0 0 0 .014-.072h-.001v.001a.457.457 0 0 0-.014-.072 1.573 1.573 0 0 0-.077-.218 4.122 4.122 0 0 0-.378-.674 8.316 8.316 0 0 0-1.613-1.727 9.76 9.76 0 0 0-2.394-1.44 4.85 4.85 0 0 1 .927 2.86 4.85 4.85 0 0 1-1.517 3.531ZM9.548 8.514A3.31 3.31 0 0 1 12 7.43a3.335 3.335 0 0 1 3.327 3.344c0 .975-.416 1.853-1.078 2.465l-4.7-4.725Zm-.756 1.372 4.092 4.113a3.31 3.31 0 0 1-.884.12 3.335 3.335 0 0 1-3.327-3.345c0-.308.042-.605.119-.888Z" clip-rule="evenodd"/>
</svg>
