<svg xmlns="http://www.w3.org/2000/svg" width="16" height="16" fill="currentColor" viewBox="0 0 16 16">
  <path fill="#000" fill-rule="evenodd" d="M1.813.932a.623.623 0 1 0-.88.881l2.343 2.343c-.29.21-.559.43-.803.654A8.106 8.106 0 0 0 1.04 6.533c-.164.27-.294.53-.385.765A2.02 2.02 0 0 0 .5 8c0 .232.07.479.156.703.091.236.222.495.386.765.33.54.811 1.15 1.437 1.723 1.254 1.149 3.118 2.182 5.526 2.182a7.94 7.94 0 0 0 3.624-.863l2.558 2.557a.623.623 0 1 0 .88-.88l-2.342-2.343c.29-.21.558-.43.802-.654a8.107 8.107 0 0 0 1.433-1.723c.164-.27.294-.53.385-.765A2.02 2.02 0 0 0 15.5 8c0-.231-.07-.479-.156-.703a4.909 4.909 0 0 0-.386-.765 8.135 8.135 0 0 0-1.437-1.723c-1.254-1.149-3.118-2.182-5.526-2.182a7.94 7.94 0 0 0-3.624.863L1.813.932Zm2.36 4.122.347.347a3.696 3.696 0 0 0 4.728 4.728l1.443 1.443a6.707 6.707 0 0 1-2.686.551c-2.029 0-3.604-.866-4.682-1.853A6.877 6.877 0 0 1 2.11 8.818a3.672 3.672 0 0 1-.288-.567 1.458 1.458 0 0 1-.06-.185A.424.424 0 0 1 1.75 8c0-.003.001-.024.011-.066.011-.047.03-.11.06-.186.06-.153.154-.346.287-.566a6.86 6.86 0 0 1 1.21-1.452c.257-.236.542-.465.855-.676Zm7.654 5.892c.313-.211.598-.44.855-.676a6.863 6.863 0 0 0 1.21-1.452 3.68 3.68 0 0 0 .287-.566c.03-.077.049-.139.06-.186A.427.427 0 0 0 14.25 8a.423.423 0 0 0-.011-.066 1.456 1.456 0 0 0-.06-.185 3.675 3.675 0 0 0-.288-.567 6.872 6.872 0 0 0-1.214-1.452 7.264 7.264 0 0 0-1.587-1.109c.383.582.605 1.28.605 2.028a3.69 3.69 0 0 1-1.327 2.838l1.46 1.46ZM9.48 8.598A2.446 2.446 0 1 0 6.05 5.17l3.428 3.428Zm-1.273.489L5.562 6.443a2.446 2.446 0 0 0 2.644 2.644Z" clip-rule="evenodd"/>
</svg>
