<svg xmlns="http://www.w3.org/2000/svg" width="16" height="16" fill="currentColor" viewBox="0 0 16 16">
  <path fill="#000" fill-rule="evenodd" d="M11.12 3.614a3.118 3.118 0 0 0-6.238 0c0 1.512 1.08 2.77 2.508 3.054v1.516H3.869a1.876 1.876 0 0 0-1.874 1.876v1.314a2.11 2.11 0 0 0 .613 4.127 2.109 2.109 0 0 0 .637-4.12V10.06c0-.345.28-.625.624-.625l3.52-.001v1.939A2.11 2.11 0 0 0 8 15.5a2.109 2.109 0 0 0 .64-4.12V9.434h3.519c.345 0 .625.28.625.625v1.315a2.11 2.11 0 0 0 .609 4.128 2.109 2.109 0 0 0 .64-4.119v-1.324a1.875 1.875 0 0 0-1.874-1.875H8.64v-1.52a3.118 3.118 0 0 0 2.48-3.05ZM8 1.749c1.032 0 1.87.836 1.87 1.865a1.868 1.868 0 0 1-3.738 0c0-1.029.837-1.865 1.869-1.865Zm0 10.784a.859.859 0 1 1-.001 1.718.859.859 0 0 1 0-1.718Zm-4.534.86a.859.859 0 1 0-1.718-.001.859.859 0 0 0 1.718 0Zm9.926-.86a.859.859 0 1 1-.001 1.718.859.859 0 0 1 .001-1.718Z" clip-rule="evenodd"/>
</svg>
