<svg xmlns="http://www.w3.org/2000/svg" width="24" height="24" fill="currentColor" viewBox="0 0 24 24">
  <path fill="#000" fill-rule="evenodd" d="M16.015 6.257a4.014 4.014 0 0 0-4.014-4.009 4.014 4.014 0 0 0-4.015 4.01 4.014 4.014 0 0 0 3.282 3.942v2.11H6.956a2.75 2.75 0 0 0-2.75 2.751v1.406a2.695 2.695 0 0 0 .735 5.285 2.693 2.693 0 0 0 .766-5.276v-1.415c0-.69.559-1.25 1.25-1.25l4.311-.002v2.658A2.695 2.695 0 0 0 12 21.752a2.693 2.693 0 0 0 .768-5.275V13.81h4.312c.69 0 1.25.56 1.25 1.25v1.407a2.695 2.695 0 0 0 .73 5.286 2.693 2.693 0 0 0 .77-5.274v-1.42a2.75 2.75 0 0 0-2.75-2.75l-4.312.001v-2.116a4.014 4.014 0 0 0 3.247-3.936Zm-4.014-2.509a2.514 2.514 0 0 1 2.514 2.51 2.514 2.514 0 0 1-2.514 2.509 2.514 2.514 0 0 1-2.515-2.51 2.514 2.514 0 0 1 2.515-2.509ZM12 17.866a1.193 1.193 0 1 1-.002 2.385A1.193 1.193 0 0 1 12 17.866Zm-5.867 1.193a1.193 1.193 0 1 0-2.386 0 1.193 1.193 0 0 0 2.386 0Zm12.927-1.193a1.193 1.193 0 1 1-.002 2.386 1.193 1.193 0 0 1 .002-2.386Z" clip-rule="evenodd"/>
</svg>
