<svg xmlns="http://www.w3.org/2000/svg" width="24" height="24" fill="currentColor" viewBox="0 0 24 24">
  <path fill="#000" fill-rule="evenodd" d="M12 4.626a7.36 7.36 0 0 0-5.825 2.852H8.15a.75.75 0 0 1 0 1.5H4.9c-.69 0-1.25-.56-1.25-1.25V4.477a.75.75 0 1 1 1.5 0v1.882A8.874 8.874 0 1 1 3.126 12v-.055a5.374 5.374 0 0 1 0-.22.75.75 0 1 1 1.5.045c-.002.042-.001.076 0 .121v.11A7.374 7.374 0 1 0 12 4.625Zm.743 3.205a.75.75 0 0 0-1.5 0v4.379c0 .33.213.61.508.71l3.655 1.837a.75.75 0 0 0 .674-1.34l-3.337-1.677V7.83Z" clip-rule="evenodd"/>
</svg>
