<svg xmlns="http://www.w3.org/2000/svg" width="16" height="16" fill="currentColor" viewBox="0 0 16 16">
  <path fill="#000" fill-rule="evenodd" d="M6.758 3.231a1.23 1.23 0 1 0 2.458 0 1.23 1.23 0 0 0-2.458 0Zm.605 2.4a2.48 2.48 0 1 1 1.25 0v1.517h2.921c1.036 0 1.875.84 1.875 1.875v.675a.625.625 0 1 1-1.25 0v-.675a.625.625 0 0 0-.625-.625H4.562a.625.625 0 0 0-.625.625l.001 1.323a2.486 2.486 0 1 1-1.25.024V9.024a1.874 1.874 0 0 1 1.874-1.876h2.8V5.63Zm-5.237 7.132a1.235 1.235 0 1 0 2.47 0 1.235 1.235 0 0 0-2.47 0Zm12.815-.943a.625.625 0 0 0-.884-.883l-1.175 1.175-1.175-1.175a.625.625 0 1 0-.884.884l1.175 1.175-1.175 1.175a.625.625 0 0 0 .884.884l1.175-1.175 1.175 1.175a.625.625 0 1 0 .884-.884l-1.175-1.175 1.175-1.176Z" clip-rule="evenodd"/>
</svg>
