<svg xmlns="http://www.w3.org/2000/svg" width="24" height="24" fill="currentColor" viewBox="0 0 24 24">
  <path fill="#000" fill-rule="evenodd" d="M10.544 4.537a2.25 2.25 0 0 1 2.912 0l5.768 4.896.007.006 1.754 1.49a.75.75 0 1 1-.97 1.143l-.523-.444v6.126a2.25 2.25 0 0 1-2.25 2.25H15.5a2.25 2.25 0 0 1-2.25-2.25V15.5a.25.25 0 0 0-.25-.25h-2a.25.25 0 0 0-.25.25v2.254a2.25 2.25 0 0 1-2.25 2.25H6.757a2.25 2.25 0 0 1-2.25-2.25v-6.125l-.522.443a.75.75 0 0 1-.97-1.144L4.768 9.44a.729.729 0 0 1 .008-.006l5.768-4.896Zm-4.537 5.818v7.399c0 .414.336.75.75.75H8.5a.75.75 0 0 0 .75-.75V15.5c0-.967.784-1.75 1.75-1.75h2c.966 0 1.75.783 1.75 1.75v2.254c0 .414.336.75.75.75h1.742a.75.75 0 0 0 .75-.75v-7.399L12.486 5.68a.75.75 0 0 0-.97 0l-5.508 4.675Z" clip-rule="evenodd"/>
</svg>
