<svg xmlns="http://www.w3.org/2000/svg" width="16" height="16" fill="currentColor" viewBox="0 0 16 16">
  <path fill="#000" fill-rule="evenodd" d="M6.948 2.01a1.627 1.627 0 0 1 2.104 0l4.604 3.903.006.006 1.367 1.158a.626.626 0 1 1-.81.955l-.339-.288v5.001c0 .899-.728 1.627-1.626 1.627H10.56a1.627 1.627 0 0 1-1.627-1.627v-2.073H7.067v2.073c0 .899-.728 1.627-1.627 1.627H3.746a1.627 1.627 0 0 1-1.627-1.627v-5l-.339.287a.626.626 0 1 1-.809-.955L2.338 5.92a.526.526 0 0 1 .006-.005L6.948 2.01ZM3.371 6.683v6.062c0 .208.168.376.375.376H5.44a.375.375 0 0 0 .376-.376V10.3c0-.485.393-.878.879-.878h2.61c.486 0 .88.393.88.878v2.446c0 .208.167.376.375.376h1.694a.375.375 0 0 0 .375-.376V6.683L8.243 2.964a.375.375 0 0 0-.486 0l-4.386 3.72Z" clip-rule="evenodd"/>
</svg>
