<svg xmlns="http://www.w3.org/2000/svg" width="16" height="16" fill="currentColor" viewBox="0 0 16 16">
  <path fill="#000" fill-rule="evenodd" d="M2.499 2.001a.875.875 0 0 0-.875.875v1.739c0 .483.391.875.875.875H13.5a.875.875 0 0 0 .875-.875V2.876a.875.875 0 0 0-.875-.875H2.499Zm.375 2.239v-.99h10.252v.989H2.874Zm-1.25 2.89c0-.482.391-.874.875-.874h8.521c.484 0 .875.392.875.875V8.87a.875.875 0 0 1-.875.875H2.5a.875.875 0 0 1-.875-.875V7.13Zm1.25.376v.989h7.771v-.99H2.874Zm-1.25 3.88c0-.483.391-.875.875-.875H7.28c.483 0 .875.392.875.875v1.739A.875.875 0 0 1 7.28 14H2.499a.875.875 0 0 1-.875-.875v-1.74Zm1.25.375v.989h4.032v-.99H2.874Z" clip-rule="evenodd"/>
</svg>
