<svg xmlns="http://www.w3.org/2000/svg" width="24" height="24" fill="currentColor" viewBox="0 0 24 24">
  <path fill="#000" fill-rule="evenodd" d="M5.252 3.749a1.75 1.75 0 0 0-1.75 1.75v.999c0 .966.783 1.75 1.75 1.75h13.496a1.75 1.75 0 0 0 1.75-1.75v-.999a1.75 1.75 0 0 0-1.75-1.75H5.252Zm-.25 1.75a.25.25 0 0 1 .25-.25h13.496a.25.25 0 0 1 .25.25v.999a.25.25 0 0 1-.25.25H5.252a.25.25 0 0 1-.25-.25v-.999Zm-1.5 5.994c0-.966.783-1.75 1.75-1.75H15.7c.966 0 1.75.784 1.75 1.75v.999a1.75 1.75 0 0 1-1.75 1.75H5.252a1.75 1.75 0 0 1-1.75-1.75v-.999Zm1.75-.25a.25.25 0 0 0-.25.25v.999c0 .138.112.25.25.25H15.7a.25.25 0 0 0 .25-.25v-.999a.25.25 0 0 0-.25-.25H5.252Zm-1.75 6.259c0-.966.783-1.75 1.75-1.75h5.116c.966 0 1.75.783 1.75 1.75v.999a1.75 1.75 0 0 1-1.75 1.75H5.252a1.75 1.75 0 0 1-1.75-1.75v-.999Zm1.75-.25a.25.25 0 0 0-.25.25v.999c0 .138.112.25.25.25h5.116a.25.25 0 0 0 .25-.25v-.999a.25.25 0 0 0-.25-.25H5.252Z" clip-rule="evenodd"/>
</svg>
