<svg xmlns="http://www.w3.org/2000/svg" width="24" height="24" fill="currentColor" viewBox="0 0 24 24">
  <path fill="#000" fill-rule="evenodd" d="M11.999 19.5a7.5 7.5 0 1 0-7.5-7.5 5.9 5.9 0 0 0 1.773 4.205l-1.04 1.066 1.04-1.066c.704.687.655 1.87-.173 2.477l-1.117.818H12Zm-7.89-1.22.487-.356.616-.452a.127.127 0 0 0 .013-.193A7.4 7.4 0 0 1 2.999 12a9 9 0 1 1 9 9H4.982c-1.45 0-2.056-1.853-.886-2.71l.01-.007.003-.002Zm7.893-9.752c-1.026 0-1.696.71-1.772 1.423a.75.75 0 1 1-1.492-.16c.162-1.517 1.515-2.763 3.264-2.763.83 0 1.62.235 2.227.721.619.496 1.002 1.223 1.034 2.095.025.69-.163 1.257-.494 1.725-.316.448-.74.772-1.13 1.03-.597.398-.89.861-.89 1.401a.75.75 0 0 1-1.5 0c0-1.202.699-2.077 1.56-2.65.34-.226.58-.427.736-.647.14-.199.232-.442.219-.804-.016-.437-.195-.757-.473-.98-.291-.233-.732-.39-1.29-.39ZM12.8 16.2a.8.8 0 1 0-1.6 0 .8.8 0 0 0 1.6 0Z" clip-rule="evenodd"/>
</svg>
