<svg xmlns="http://www.w3.org/2000/svg" width="24" height="24" fill="currentColor" viewBox="0 0 24 24">
  <path fill="#000" fill-rule="evenodd" d="M19.242 5.751H4.751a.75.75 0 0 0-.75.75L4.008 17.5c0 .35.24.644.564.727.025-1.156.457-2.46 1.24-3.499a4.993 4.993 0 0 1 1.711-1.462 3.326 3.326 0 1 1 3.92-.006 4.953 4.953 0 0 1 1.717 1.47c.782 1.046 1.207 2.361 1.226 3.52h4.863a.75.75 0 0 0 .75-.75l-.007-11a.75.75 0 0 0-.75-.75ZM12.886 18.25c-.02-.837-.339-1.834-.927-2.62-.598-.8-1.43-1.33-2.468-1.33-1.04 0-1.878.53-2.482 1.332-.594.787-.917 1.784-.937 2.618h6.814Zm-8.136-14h14.491a2.25 2.25 0 0 1 2.25 2.249l.007 10.997a2.25 2.25 0 0 1-2.25 2.252H4.758a2.25 2.25 0 0 1-2.25-2.249L2.5 6.503a2.25 2.25 0 0 1 2.25-2.252Zm9.5 5.006a.75.75 0 0 1 .75-.75h3a.75.75 0 1 1 0 1.5h-3a.75.75 0 0 1-.75-.75Zm.75 2.246a.75.75 0 0 0 0 1.5h3a.75.75 0 1 0 0-1.5h-3ZM9.478 8.75a1.826 1.826 0 1 0 0 3.651 1.826 1.826 0 0 0 0-3.651Z" clip-rule="evenodd"/>
</svg>
