<svg xmlns="http://www.w3.org/2000/svg" width="16" height="16" fill="currentColor" viewBox="0 0 16 16">
  <path fill="#000" fill-rule="evenodd" d="M13.87 3.123H2.124a.375.375 0 0 0-.375.375l.005 9.005c0 .206.167.373.374.374.023-.911.364-1.937.98-2.754a3.986 3.986 0 0 1 1.284-1.12 2.65 2.65 0 1 1 3.26-.005c.519.277.95.677 1.287 1.127.612.818.947 1.843.97 2.752h3.965a.375.375 0 0 0 .375-.375l-.006-9.004a.375.375 0 0 0-.375-.375Zm-5.21 9.754a3.717 3.717 0 0 0-.72-2.003c-.466-.622-1.11-1.03-1.911-1.03-.803 0-1.452.41-1.922 1.032a3.7 3.7 0 0 0-.728 2.001h5.28ZM2.125 1.873h11.744c.898 0 1.625.727 1.625 1.624l.006 9.004c0 .898-.727 1.626-1.625 1.626H2.13a1.625 1.625 0 0 1-1.625-1.624L.5 3.5c0-.898.727-1.626 1.625-1.626Zm7.609 3.971c0-.345.28-.625.625-.625h2.357a.625.625 0 1 1 0 1.25h-2.357a.625.625 0 0 1-.625-.625Zm.625 1.73a.625.625 0 1 0 0 1.25h2.357a.625.625 0 1 0 0-1.25h-2.357ZM6.019 5.51a1.4 1.4 0 1 0 .003 2.8 1.4 1.4 0 0 0-.002-2.8Z" clip-rule="evenodd"/>
</svg>
