<svg xmlns="http://www.w3.org/2000/svg" width="16" height="16" fill="currentColor" viewBox="0 0 16 16">
  <path fill="#000" fill-rule="evenodd" d="M5.918 3.612a2.31 2.31 0 1 0 0 4.621 2.31 2.31 0 0 0 0-4.621Zm-1.061 2.31a1.06 1.06 0 1 1 2.121 0 1.06 1.06 0 0 1-2.121 0Z" clip-rule="evenodd"/>
  <path fill="#000" fill-rule="evenodd" d="M3.001 14.873a1.875 1.875 0 0 1-1.875-1.875V3.002c0-1.036.84-1.875 1.875-1.875h9.998c1.035 0 1.875.84 1.875 1.875v9.996c0 1.035-.84 1.875-1.875 1.875H3Zm0-1.25a.625.625 0 0 1-.557-.34l2.293-2.67a.57.57 0 0 1 .865 0l.91 1.059a1.023 1.023 0 0 0 1.552 0l2.235-2.602a.57.57 0 0 1 .866 0l2.459 2.862v1.066c0 .345-.28.625-.625.625H3ZM13.624 3.002v7.012l-1.511-1.758a1.82 1.82 0 0 0-2.762 0l-2.063 2.401L6.55 9.8a1.82 1.82 0 0 0-2.761 0l-1.413 1.645V3.002c0-.345.28-.625.625-.625h9.998c.345 0 .625.28.625.625Z" clip-rule="evenodd"/>
</svg>
