<svg xmlns="http://www.w3.org/2000/svg" width="24" height="24" fill="currentColor" viewBox="0 0 24 24">
  <path fill="#000" fill-rule="evenodd" d="M9.376 6.506a2.875 2.875 0 1 0 0 5.749 2.875 2.875 0 0 0 0-5.75ZM8.001 9.38a1.375 1.375 0 1 1 2.75 0 1.375 1.375 0 0 1-2.75 0Z" clip-rule="evenodd"/>
  <path fill="#000" fill-rule="evenodd" d="M6.125 20.627a2.75 2.75 0 0 1-2.75-2.75V6.123a2.75 2.75 0 0 1 2.75-2.75h11.75a2.75 2.75 0 0 1 2.75 2.75v11.753a2.75 2.75 0 0 1-2.75 2.75H6.125Zm0-1.5a1.25 1.25 0 0 1-1.066-.598l2.805-3.265a.75.75 0 0 1 1.137 0l1.152 1.341a1.25 1.25 0 0 0 1.897 0l2.823-3.287a.75.75 0 0 1 1.138 0l3.114 3.625v.933c0 .69-.56 1.25-1.25 1.25H6.125Zm13-13.003v8.517l-1.976-2.3a2.25 2.25 0 0 0-3.414 0l-2.633 3.066-.963-1.12a2.25 2.25 0 0 0-3.413 0l-1.851 2.155V6.124c0-.69.56-1.25 1.25-1.25h11.75c.69 0 1.25.56 1.25 1.25Z" clip-rule="evenodd"/>
</svg>
