<svg xmlns="http://www.w3.org/2000/svg" width="16" height="16" fill="currentColor" viewBox="0 0 16 16">
  <path fill="#000" fill-rule="evenodd" d="m9.956 7.001-1.09 1 1.09.998c.796.683 1.5 1.204 2.253 1.204 1.154 0 2.12-.97 2.12-2.203 0-1.233-.966-2.202-2.12-2.202-.752 0-1.457.52-2.253 1.203ZM8 8.795 9.17 9.87l.008.007.007.006c.745.639 1.77 1.492 3.024 1.492 1.834 0 3.291-1.527 3.291-3.374 0-1.846-1.457-3.374-3.29-3.374-1.254 0-2.28.853-3.025 1.492l-.007.007-.007.006L8 7.205 6.83 6.131l-.008-.006-.007-.007C6.07 5.48 5.045 4.626 3.79 4.626 1.957 4.626.5 6.154.5 8c0 1.847 1.457 3.374 3.29 3.374 1.254 0 2.28-.853 3.025-1.492l.007-.006.007-.007L8 8.795ZM7.133 8 6.044 9c-.795.681-1.5 1.203-2.253 1.203-1.154 0-2.12-.97-2.12-2.203 0-1.233.966-2.202 2.12-2.202.752 0 1.458.52 2.253 1.203l1.09 1Z" clip-rule="evenodd"/>
</svg>
