<svg xmlns="http://www.w3.org/2000/svg" width="24" height="24" fill="currentColor" viewBox="0 0 24 24">
  <path fill="#000" fill-rule="evenodd" d="M14.561 10.697 13.118 12l1.443 1.304c1.048.885 1.986 1.57 2.994 1.57 1.546 0 2.82-1.276 2.82-2.874s-1.274-2.874-2.82-2.874c-1.008 0-1.946.686-2.994 1.57ZM12 13.01l1.565 1.414.009.008.01.008c.984.833 2.33 1.934 3.97 1.934 2.397 0 4.32-1.97 4.32-4.375 0-2.405-1.923-4.374-4.32-4.374-1.64 0-2.986 1.1-3.97 1.933l-.01.008-.01.008L12 10.99l-1.565-1.414-.01-.008-.009-.008c-.985-.833-2.331-1.933-3.971-1.933-2.397 0-4.32 1.969-4.32 4.374 0 2.405 1.923 4.375 4.32 4.375 1.64 0 2.986-1.101 3.971-1.934l.01-.008.009-.008L12 13.01ZM10.88 12l-1.443 1.303c-1.047.885-1.986 1.57-2.993 1.57-1.547 0-2.82-1.276-2.82-2.874s1.273-2.874 2.82-2.874c1.007 0 1.946.686 2.993 1.57L10.881 12Z" clip-rule="evenodd"/>
</svg>
