<svg xmlns="http://www.w3.org/2000/svg" width="16" height="16" fill="currentColor" viewBox="0 0 16 16">
  <path fill="#000" fill-rule="evenodd" d="M12.666 2.415a.917.917 0 1 1 1.834 0 .917.917 0 0 1-1.834 0Zm.917-2.167a2.167 2.167 0 0 0-.624 4.243v.913c0 .345-.28.625-.625.625H10.95V4.716c0-1.01-.818-1.75-1.734-2.2-.958-.469-2.238-.741-3.617-.741s-2.658.272-3.616.742c-.917.45-1.734 1.19-1.734 2.2v6.52c0 1.017.808 1.769 1.73 2.23.959.48 2.24.758 3.62.758 1.382 0 2.663-.279 3.622-.758.921-.461 1.729-1.213 1.729-2.23v-1.26h1.383c.345 0 .625.28.625.625v.906a2.168 2.168 0 1 0 1.25.001v-.907c0-1.036-.84-1.875-1.875-1.875H10.95V7.279h1.383c1.035 0 1.875-.84 1.875-1.875v-.913a2.168 2.168 0 0 0-.626-4.243Zm0 14.254a.917.917 0 1 1 0-1.835.917.917 0 0 1 0 1.835ZM1.5 4.717c0-.27.24-.688 1.034-1.078.753-.368 1.836-.614 3.066-.614 1.23 0 2.314.245 3.066.614.794.389 1.034.808 1.034 1.077 0 .27-.24.689-1.034 1.078-.752.369-1.835.615-3.066.615-1.23 0-2.313-.246-3.066-.615-.772-.379-1.021-.786-1.033-1.056v-.02H1.5v-.001Zm7.722 5.352c.164-.083.325-.174.479-.275v1.443c0 .288-.25.717-1.039 1.112-.75.375-1.832.626-3.061.626-1.23 0-2.31-.25-3.062-.626-.789-.395-1.038-.824-1.039-1.112V9.794c.154.1.315.192.48.275.959.48 2.24.758 3.62.758 1.382 0 2.663-.279 3.622-.758ZM2.539 8.95c-.784-.392-1.036-.819-1.038-1.107v-1.2c.155.1.317.191.483.273.958.47 2.237.742 3.616.742 1.38 0 2.659-.273 3.617-.743.166-.081.329-.172.484-.273V7.84c0 .288-.25.717-1.039 1.112-.75.375-1.832.626-3.061.626-1.23 0-2.31-.25-3.062-.626Z" clip-rule="evenodd"/>
</svg>
