<svg xmlns="http://www.w3.org/2000/svg" width="24" height="24" fill="currentColor" viewBox="0 0 24 24">
  <path fill="#000" fill-rule="evenodd" d="M17.995 4.751a1.251 1.251 0 1 1 2.503 0 1.251 1.251 0 0 1-2.503 0Zm1.252-2.753a2.753 2.753 0 0 0-.751 5.403v.851c0 .691-.56 1.251-1.252 1.251h-1.492V7.744c0-1.275-1.032-2.218-2.214-2.797-1.232-.604-2.881-.956-4.662-.956-1.78 0-3.43.352-4.662.956C3.032 5.527 2 6.471 2 7.745v8.451c0 1.283 1.02 2.243 2.21 2.837 1.232.617 2.883.977 4.666.977 1.783 0 3.434-.36 4.667-.977 1.189-.594 2.21-1.554 2.21-2.837v-1.69h1.491c.692 0 1.252.56 1.252 1.251v.844a2.754 2.754 0 1 0 1.501 0v-.844a2.753 2.753 0 0 0-2.753-2.753h-1.492v-1.999h1.492a2.753 2.753 0 0 0 2.753-2.753v-.851a2.754 2.754 0 0 0-.75-5.403Zm0 18.503a1.251 1.251 0 1 1 0-2.503 1.251 1.251 0 0 1 0 2.503ZM3.501 7.745c0-.384.34-.942 1.373-1.45.985-.483 2.399-.803 4.001-.803 1.602 0 3.016.32 4 .803 1.035.507 1.375 1.065 1.375 1.45v.003c-.003.384-.344.941-1.374 1.447-.985.483-2.399.803-4 .803-1.603 0-3.017-.32-4.002-.803-1.033-.507-1.373-1.065-1.373-1.45Zm10.041 6.884c.246-.123.484-.261.708-.415v1.982c0 .408-.35.98-1.38 1.494-.983.492-2.395.818-3.995.818s-3.012-.326-3.995-.818c-1.029-.514-1.38-1.086-1.38-1.494v-1.982c.224.154.463.292.708.415 1.233.617 2.884.976 4.667.976s3.434-.36 4.667-.976ZM4.88 13.286c-1.023-.512-1.375-1.08-1.38-1.488v-1.664c.226.152.466.289.713.41 1.232.604 2.881.956 4.662.956 1.781 0 3.43-.353 4.662-.957.247-.121.487-.258.713-.41v1.658c0 .409-.35.98-1.38 1.495-.983.492-2.395.818-3.995.818s-3.012-.326-3.995-.818Z" clip-rule="evenodd"/>
</svg>
