<svg xmlns="http://www.w3.org/2000/svg" width="24" height="24" fill="currentColor" viewBox="0 0 24 24">
  <path fill="#000" fill-rule="evenodd" d="M4.625 10.12a7.373 7.373 0 0 1 7.376-7.371c4.072 0 7.374 3.3 7.374 7.37 0 2.21-.973 4.192-2.512 5.542a.341.341 0 0 0-.118.187l-.266 1.428a1.75 1.75 0 0 1-1.237 1.362c-.284 1.505-1.649 2.613-3.241 2.613s-2.958-1.108-3.241-2.613a1.75 1.75 0 0 1-1.238-1.362l-.267-1.428a.341.341 0 0 0-.118-.187 7.353 7.353 0 0 1-2.512-5.542Zm9.033 8.585h-3.315c.266.604.893 1.046 1.658 1.046.764 0 1.391-.442 1.657-1.046Zm1.346-1.704a.25.25 0 0 1-.233.204h-2.017v-3.764c.731-.165 1.362-.552 1.852-.986.644-.57 1.129-1.293 1.324-1.906a.75.75 0 1 0-1.43-.455c-.097.307-.406.81-.888 1.238-.27.239-.568.43-.879.55a3.22 3.22 0 0 0-.774-1.702c-.508-.575-1.282-1.002-2.222-.888-1.134.138-1.94 1.266-1.573 2.407.326 1.013 1.416 1.652 3.09 1.796v3.71H9.23a.25.25 0 0 1-.234-.204l-.266-1.428a1.837 1.837 0 0 0-.604-1.04 5.853 5.853 0 0 1-2.001-4.414c0-3.241 2.63-5.87 5.876-5.87a5.873 5.873 0 0 1 5.874 5.87 5.853 5.853 0 0 1-2.001 4.414 1.837 1.837 0 0 0-.604 1.04L15.005 17ZM9.592 11.24c.047.144.356.611 1.64.748a1.734 1.734 0 0 0-.397-.814c-.259-.293-.573-.435-.917-.393-.26.032-.385.273-.326.459Z" clip-rule="evenodd"/>
</svg>
