<svg xmlns="http://www.w3.org/2000/svg" width="16" height="16" fill="currentColor" viewBox="0 0 16 16">
  <path fill="#000" fill-rule="evenodd" d="M2.125 6.498A5.875 5.875 0 0 1 8 .624a5.875 5.875 0 0 1 3.874 10.29.241.241 0 0 0-.084.132l-.21 1.132c-.1.53-.487.946-.982 1.097-.23 1.209-1.32 2.101-2.597 2.101s-2.368-.892-2.598-2.1a1.418 1.418 0 0 1-.982-1.098l-.211-1.133a.24.24 0 0 0-.084-.13 5.861 5.861 0 0 1-2.001-4.417ZM8 1.874a4.625 4.625 0 0 0-3.05 8.101c.237.207.424.496.488.841l.212 1.133c.014.08.084.137.164.137H7.38V9.201c-1.318-.12-2.186-.627-2.448-1.442-.297-.924.355-1.837 1.272-1.948.757-.092 1.38.253 1.788.714a2.6 2.6 0 0 1 .616 1.327c.229-.094.449-.238.65-.416.379-.336.62-.73.695-.968a.625.625 0 0 1 1.192.379c-.157.492-.545 1.07-1.058 1.525-.386.341-.882.648-1.458.783v2.931h1.557c.08 0 .15-.057.165-.137l.21-1.133a1.48 1.48 0 0 1 .489-.84A4.625 4.625 0 0 0 8 1.874Zm-1.268 11.47a1.39 1.39 0 0 0 1.269.782 1.39 1.39 0 0 0 1.268-.781H6.732Zm.323-5.99c.153.172.256.388.3.59-.978-.113-1.202-.471-1.233-.568-.041-.128.045-.301.233-.324.26-.032.5.075.7.301Z" clip-rule="evenodd"/>
</svg>
