<svg xmlns="http://www.w3.org/2000/svg" width="16" height="16" fill="currentColor" viewBox="0 0 16 16">
  <path fill="#000" fill-rule="evenodd" d="M8.51.751c.5 0 .98.2 1.331.555l1.88 1.895c.349.351.544.826.544 1.32v3.06a3.687 3.687 0 0 1 1.158 5.332l1.27 1.27a.625.625 0 0 1-.884.883l-1.273-1.272c-.6.421-1.33.669-2.119.669-.859 0-1.65-.294-2.276-.786H2.999a1.875 1.875 0 0 1-1.875-1.875V2.626c0-1.036.84-1.875 1.875-1.875H8.51ZM7.118 12.427a3.689 3.689 0 0 1 3.897-5.294V4.521a.625.625 0 0 0-.18-.44L8.953 2.186A.625.625 0 0 0 8.51 2H3a.625.625 0 0 0-.625.625v9.176c0 .345.28.625.625.625h4.12Zm3.299-4.092a2.439 2.439 0 1 0 0 4.878 2.439 2.439 0 0 0 0-4.878Z" clip-rule="evenodd"/>
</svg>
