<svg xmlns="http://www.w3.org/2000/svg" width="24" height="24" fill="currentColor" viewBox="0 0 24 24">
  <path fill="#000" fill-rule="evenodd" d="M15.454 3.887a2.75 2.75 0 0 0-1.952-.814H6.82a2.75 2.75 0 0 0-2.75 2.75v11.128a2.75 2.75 0 0 0 2.75 2.75h6.33c.766.535 1.697.85 2.703.85a4.698 4.698 0 0 0 2.752-.886l1.685 1.685a.75.75 0 0 0 1.06-1.061l-1.68-1.681c.567-.78.902-1.739.902-2.777 0-1.64-.836-3.084-2.105-3.93V8.055a2.75 2.75 0 0 0-.797-1.936l-2.215-2.232ZM11.133 15.83a4.7 4.7 0 0 0 .637 2.37H6.82c-.69 0-1.25-.56-1.25-1.25V5.823c0-.69.56-1.25 1.25-1.25h6.683c.333 0 .653.133.887.37l2.215 2.232c.232.234.362.55.362.88v3.189a4.72 4.72 0 0 0-5.834 4.587Zm4.72-3.22a3.22 3.22 0 1 0 0 6.44 3.22 3.22 0 0 0 0-6.44Z" clip-rule="evenodd"/>
</svg>
