<svg xmlns="http://www.w3.org/2000/svg" width="24" height="24" fill="currentColor" viewBox="0 0 24 24">
  <path fill="#000" d="m8.61 6.379-.733.162.733-.162Zm-2.578.343v-.75.75Zm.46 6.888h.75-.75Zm11.657 2.309.163-.732-.163.732Zm0-4.618-.162-.732.163.732Zm-2.343-4.58v.75-.75ZM13.23 6.38l.732.162-.732-.162Zm-3.925-.512c0-.892.723-1.615 1.615-1.615v-1.5a3.115 3.115 0 0 0-3.115 3.115h1.5Zm.038.35a1.624 1.624 0 0 1-.038-.35h-1.5c0 .23.025.456.073.674l1.465-.324Zm-.987 1.255c.73 0 1.11-.698.987-1.255l-1.465.324a.456.456 0 0 1 .076-.367.497.497 0 0 1 .402-.202v1.5Zm-2.323 0h2.323v-1.5H6.032v1.5Zm-1.25 1.25c0-.69.56-1.25 1.25-1.25v-1.5a2.75 2.75 0 0 0-2.75 2.75h1.5Zm0 2.43v-2.43h-1.5v2.43h1.5Zm-.656-.657c.344 0 .656.276.656.658h-1.5c0 .484.398.842.844.842v-1.5Zm3.115 3.115a3.115 3.115 0 0 0-3.115-3.115v1.5c.892 0 1.615.723 1.615 1.615h1.5Zm-3.115 3.115a3.115 3.115 0 0 0 3.115-3.115h-1.5c0 .892-.723 1.615-1.615 1.615v1.5Zm.656-.658a.657.657 0 0 1-.656.658v-1.5a.843.843 0 0 0-.844.842h1.5Zm0 2.431v-2.43h-1.5v2.43h1.5Zm1.25 1.25c-.69 0-1.25-.56-1.25-1.25h-1.5a2.75 2.75 0 0 0 2.75 2.75v-1.5Zm2.41 0h-2.41v1.5h2.41v-1.5Zm2.477-2.48a3.115 3.115 0 0 0-3.115 3.115h1.5c0-.892.723-1.615 1.615-1.615v-1.5Zm3.115 3.115a3.115 3.115 0 0 0-3.115-3.115v1.5c.892 0 1.615.723 1.615 1.615h1.5Zm1.772-.635h-2.41v1.5h2.41v-1.5Zm1.25-1.25c0 .69-.56 1.25-1.25 1.25v1.5a2.75 2.75 0 0 0 2.75-2.75h-1.5Zm0-2.325v2.325h1.5v-2.325h-1.5Zm1.256-.986c-.556-.124-1.256.255-1.256.986h1.5a.497.497 0 0 1-.202.402.456.456 0 0 1-.367.076l.326-1.464Zm.354.038c-.122 0-.24-.013-.354-.038l-.325 1.464c.219.049.446.074.679.074v-1.5Zm1.615-1.615c0 .892-.723 1.615-1.615 1.615v1.5a3.115 3.115 0 0 0 3.115-3.115h-1.5Zm-1.615-1.615c.892 0 1.615.723 1.615 1.615h1.5a3.115 3.115 0 0 0-3.115-3.115v1.5Zm-.354.038c.113-.025.232-.038.354-.038v-1.5c-.233 0-.46.026-.68.074l.326 1.464Zm-1.256-.986c0 .731.7 1.11 1.256.986l-.325-1.464a.456.456 0 0 1 .367.076.498.498 0 0 1 .202.402h-1.5Zm0-2.325v2.325h1.5V8.722h-1.5Zm-1.25-1.25c.69 0 1.25.56 1.25 1.25h1.5a2.75 2.75 0 0 0-2.75-2.75v1.5Zm-2.323 0h2.323v-1.5h-2.323v1.5Zm-.987-1.255c-.123.557.257 1.255.987 1.255v-1.5c.183 0 .325.096.402.202a.456.456 0 0 1 .076.367l-1.465-.324Zm.038-.35c0 .12-.013.238-.038.35l1.465.324c.048-.218.073-.444.073-.674h-1.5ZM10.92 4.252c.892 0 1.615.723 1.615 1.615h1.5a3.115 3.115 0 0 0-3.115-3.115v1.5Zm1.615 16.131c0 .454.363.865.863.865v-1.5c.374 0 .637.307.637.635h-1.5Zm-4.092.865c.5 0 .862-.411.862-.865h-1.5c0-.328.263-.635.638-.635v1.5Z"/>
</svg>
