<svg xmlns="http://www.w3.org/2000/svg" width="16" height="16" fill="currentColor" viewBox="0 0 16 16">
  <path fill="#000" fill-rule="evenodd" d="M6.696 1.752A1.288 1.288 0 0 0 5.44 3.319c.101.46-.212 1.037-.816 1.037h-1.88a.992.992 0 0 0-.992.992v1.417l.07-.001a2.538 2.538 0 1 1-.07 5.074v1.417c0 .548.445.992.993.992h1.47a2.539 2.539 0 0 1 4.964 0h1.47a.992.992 0 0 0 .993-.992v-1.88c0-.606.578-.919 1.038-.816a1.288 1.288 0 1 0 0-2.514c-.46.102-1.038-.211-1.038-.816v-1.88a.992.992 0 0 0-.993-.993H8.77c-.605 0-.918-.577-.816-1.037a1.288 1.288 0 0 0-1.257-1.567Zm0-1.25a2.538 2.538 0 0 1 2.537 2.604h1.415a2.242 2.242 0 0 1 2.243 2.242v1.417l.07-.001a2.538 2.538 0 1 1-.07 5.074v1.417a2.242 2.242 0 0 1-2.243 2.242H8.7a.717.717 0 0 1-.716-.718 1.288 1.288 0 1 0-2.575 0 .718.718 0 0 1-.717.718H2.744A2.242 2.242 0 0 1 .5 13.255v-1.88c0-.605.578-.92 1.039-.817a1.288 1.288 0 1 0 0-2.514C1.08 8.147.5 7.834.5 7.23V5.35a2.242 2.242 0 0 1 2.243-2.243h1.415V3.04A2.538 2.538 0 0 1 6.696.502Z" clip-rule="evenodd"/>
</svg>
