<svg xmlns="http://www.w3.org/2000/svg" width="16" height="16" fill="currentColor" viewBox="0 0 16 16">
  <path fill="#000" fill-rule="evenodd" d="M.84 2.751c0-.621.503-1.125 1.124-1.125h11.999c.621 0 1.125.504 1.125 1.125v1.926c0 .582-.443 1.061-1.01 1.119V12.5c0 1.035-.84 1.875-1.875 1.875h-8.48A1.875 1.875 0 0 1 1.848 12.5V5.796A1.125 1.125 0 0 1 .84 4.676V2.752Zm2.258 3.05h9.73V12.5c0 .345-.28.625-.625.625h-8.48a.625.625 0 0 1-.625-.625V5.802ZM2.09 2.877v1.676h11.749V2.876H2.089Zm4.3 4.377a.625.625 0 1 0 0 1.25h3.148a.625.625 0 1 0 0-1.25H6.39Z" clip-rule="evenodd"/>
</svg>
