<svg xmlns="http://www.w3.org/2000/svg" width="24" height="24" fill="currentColor" viewBox="0 0 24 24">
  <path fill="#000" fill-rule="evenodd" d="M2.875 6.268A2.259 2.259 0 0 1 5.134 4.01h13.732a2.259 2.259 0 0 1 2.259 2.258v.753c0 .904-.531 1.684-1.299 2.045v8.438a2.758 2.758 0 0 1-2.758 2.758H6.932a2.758 2.758 0 0 1-2.758-2.758V9.066A2.259 2.259 0 0 1 2.875 7.02v-.753Zm2.82 3.011h12.61v8.225c0 .683-.553 1.237-1.237 1.237H6.932a1.237 1.237 0 0 1-1.237-1.237V9.28Zm-.561-3.748a.738.738 0 0 0-.738.737v.753c0 .407.33.737.738.737h13.732c.408 0 .738-.33.738-.737v-.753a.738.738 0 0 0-.738-.737H5.134Zm4.84 5.69a.76.76 0 0 0 0 1.52h4.051a.76.76 0 0 0 0-1.52h-4.05Z" clip-rule="evenodd"/>
</svg>
