<svg xmlns="http://www.w3.org/2000/svg" width="16" height="16" fill="currentColor" viewBox="0 0 16 16">
  <path fill="#000" fill-rule="evenodd" d="M8.974 1.398a1.874 1.874 0 0 0-1.948 0L1.775 4.595c-.559.34-.9.946-.9 1.6v6.807c0 1.035.84 1.874 1.874 1.874h10.502a1.874 1.874 0 0 0 1.874-1.874V6.195c0-.654-.341-1.26-.9-1.6l-5.25-3.197ZM7.675 2.465c.2-.121.45-.121.65 0l5.25 3.197c.187.113.3.315.3.533v.194L8.318 9.66a.625.625 0 0 1-.634 0l-5.56-3.27v-.194c0-.218.114-.42.3-.533l5.251-3.197ZM2.125 7.84v5.163c0 .345.279.625.624.625h10.502c.345 0 .625-.28.625-.625V7.84L8.95 10.736a1.874 1.874 0 0 1-1.9 0L2.124 7.839Z" clip-rule="evenodd"/>
</svg>
