<svg xmlns="http://www.w3.org/2000/svg" width="24" height="24" fill="currentColor" viewBox="0 0 24 24">
  <path fill="#000" fill-rule="evenodd" d="M13.394 3.942a2.74 2.74 0 0 0-2.788 0l-6.25 3.692A2.764 2.764 0 0 0 3 10.014v7.785a2.756 2.756 0 0 0 2.75 2.762h12.5A2.756 2.756 0 0 0 21 17.799v-7.785c0-.979-.516-1.884-1.356-2.38l-6.25-3.692ZM11.366 5.24a1.246 1.246 0 0 1 1.268 0l6.25 3.692c.382.226.616.637.616 1.082v.018l-6.866 4.056a1.245 1.245 0 0 1-1.268 0L4.5 10.032v-.018c0-.445.234-.856.616-1.082l6.25-3.692ZM4.5 11.78v6.019c0 .693.56 1.255 1.25 1.255h12.5c.69 0 1.25-.562 1.25-1.255v-6.02l-6.106 3.607a2.74 2.74 0 0 1-2.788 0L4.5 11.779Z" clip-rule="evenodd"/>
</svg>
