<svg xmlns="http://www.w3.org/2000/svg" width="16" height="16" fill="currentColor" viewBox="0 0 16 16">
  <path fill="#000" fill-rule="evenodd" d="m8 2.252 5.999 4.157-6 4.156L2.002 6.41 8 2.252Zm-.712-1.027a1.25 1.25 0 0 1 1.424 0L14.71 5.38a1.25 1.25 0 0 1 0 2.055l-6 4.157a1.25 1.25 0 0 1-1.423 0L1.289 7.436a1.25 1.25 0 0 1 0-2.055l5.999-4.157Zm7.685 9.294a.625.625 0 0 0-.712-1.028l-6.049 4.191a.375.375 0 0 1-.427 0l-6.048-4.19a.625.625 0 1 0-.712 1.027l6.048 4.19a1.625 1.625 0 0 0 1.851 0l6.049-4.19Z" clip-rule="evenodd"/>
</svg>
