<svg xmlns="http://www.w3.org/2000/svg" width="24" height="24" fill="currentColor" viewBox="0 0 24 24">
  <path fill="#000" fill-rule="evenodd" d="m12.285 4.841 7 4.85a.5.5 0 0 1 0 .823l-7 4.85a.5.5 0 0 1-.57 0l-7-4.85a.5.5 0 0 1 0-.822l7-4.85a.5.5 0 0 1 .57 0Zm-1.424-1.233a2 2 0 0 1 2.278 0l7 4.85a2 2 0 0 1 0 3.289l-7 4.85a2 2 0 0 1-2.278 0l-7-4.85a2 2 0 0 1 0-3.288l7-4.85Zm-6.68 10.384a.75.75 0 0 0-.854 1.233l7.393 5.123a2.25 2.25 0 0 0 2.563 0l7.392-5.122a.75.75 0 0 0-.855-1.234l-7.392 5.123a.75.75 0 0 1-.854 0l-7.392-5.122Z" clip-rule="evenodd"/>
</svg>
