<svg xmlns="http://www.w3.org/2000/svg" width="24" height="24" fill="currentColor" viewBox="0 0 24 24">
  <path fill="#000" fill-rule="evenodd" d="M17.768 6.098a7.164 7.164 0 0 0-10.154.293.75.75 0 0 1-1.093-1.028 8.664 8.664 0 0 1 12.22-.409l-.043-.797a.75.75 0 0 1 1.497-.082l.131 2.384a1 1 0 0 1-.944 1.053l-2.384.13a.75.75 0 0 1-.082-1.497l.852-.047Zm1.945 3.191a.75.75 0 0 1 1.44-.42 8.664 8.664 0 0 1-5.803 10.713l.753.382a.75.75 0 0 1-.677 1.338l-2.13-1.079a1 1 0 0 1-.44-1.343l1.078-2.13a.75.75 0 1 1 1.338.677l-.366.723a7.164 7.164 0 0 0 4.807-8.86Zm-13.861.392.422.646a.75.75 0 0 0 1.256-.82l-1.306-2a1 1 0 0 0-1.384-.29L2.841 8.523a.75.75 0 0 0 .82 1.256l.74-.484a8.664 8.664 0 0 0 6.379 10.416.75.75 0 1 0 .355-1.458A7.164 7.164 0 0 1 5.851 9.68Z" clip-rule="evenodd"/>
</svg>
