<svg xmlns="http://www.w3.org/2000/svg" width="16" height="16" fill="currentColor" viewBox="0 0 16 16">
  <path fill="#000" fill-rule="evenodd" d="M7.375 3.126a.625.625 0 1 0 1.25 0V1.5a.625.625 0 1 0-1.25 0v1.626Zm5.663-.165a.625.625 0 0 1 0 .884L11.89 4.993a.625.625 0 0 1-.884-.884l1.148-1.148a.625.625 0 0 1 .884 0ZM7.102 7.103a1.269 1.269 0 1 0 1.794 1.794 1.269 1.269 0 0 0-1.794-1.794ZM6.218 9.78A2.519 2.519 0 1 1 9.78 6.22a2.519 2.519 0 0 1-3.562 3.56Zm-1.226 2.11a.625.625 0 0 0-.883-.885l-1.147 1.147a.625.625 0 0 0 .884.884l1.146-1.147Zm8.046 1.147a.625.625 0 0 1-.884 0l-1.15-1.15a.625.625 0 1 1 .884-.884l1.15 1.15a.625.625 0 0 1 0 .884ZM4.112 4.996a.625.625 0 1 0 .883-.884l-1.15-1.15a.625.625 0 1 0-.883.884l1.15 1.15Zm11.013 3.003c0 .345-.28.625-.625.625h-1.623a.625.625 0 1 1 0-1.25H14.5c.345 0 .625.28.625.625Zm-12.003.625a.625.625 0 1 0 0-1.25H1.5a.625.625 0 1 0 0 1.25h1.622ZM8 15.124a.625.625 0 0 1-.625-.624v-1.627a.625.625 0 0 1 1.25 0V14.5c0 .345-.28.625-.625.625Z" clip-rule="evenodd"/>
</svg>
