<svg xmlns="http://www.w3.org/2000/svg" width="24" height="24" fill="currentColor" viewBox="0 0 24 24">
  <path fill="#000" fill-rule="evenodd" d="M11.25 5.722a.75.75 0 1 0 1.5 0V3.626a.75.75 0 0 0-1.5 0v2.096ZM7.03 8.09a.75.75 0 1 0 1.06-1.06L6.61 5.548a.75.75 0 0 0-1.061 1.06L7.03 8.09Zm11.42-2.542a.75.75 0 0 1 0 1.06l-1.48 1.48a.75.75 0 0 1-1.06-1.06l1.48-1.48a.75.75 0 0 1 1.06 0Zm-7.686 5.218a1.745 1.745 0 1 0 2.468 2.468 1.745 1.745 0 0 0-2.468-2.468Zm-1.06 3.529a3.245 3.245 0 1 1 4.589-4.59 3.245 3.245 0 0 1-4.59 4.59Zm-1.619 2.679a.75.75 0 0 0-1.06-1.061l-1.479 1.478a.75.75 0 0 0 1.061 1.06l1.478-1.477Zm10.365 1.478a.75.75 0 0 1-1.06 0l-1.483-1.483a.75.75 0 1 1 1.06-1.06l1.483 1.482a.75.75 0 0 1 0 1.06ZM21.124 12a.75.75 0 0 1-.75.75h-2.092a.75.75 0 0 1 0-1.5h2.092a.75.75 0 0 1 .75.75Zm-15.409.75a.75.75 0 0 0 0-1.5h-2.09a.75.75 0 0 0 0 1.5h2.09ZM12 21.125a.75.75 0 0 1-.75-.75v-2.097a.75.75 0 1 1 1.5 0v2.097a.75.75 0 0 1-.75.75Z" clip-rule="evenodd"/>
</svg>
