<svg xmlns="http://www.w3.org/2000/svg" width="16" height="16" fill="currentColor" viewBox="0 0 16 16">
  <path fill="#000" fill-rule="evenodd" d="M1.813.932a.623.623 0 1 0-.88.881L7.117 8 5.642 9.475a.625.625 0 0 0 .883.884l1.477-1.477 6.185 6.185a.623.623 0 1 0 .88-.88L8.884 8.002l1.475-1.476a.625.625 0 1 0-.884-.883L8 7.118 1.813.932Zm1.458 6.854a3.495 3.495 0 0 0 4.943 4.943l.768-.768a.625.625 0 0 1 .883.884l-.768.767a4.744 4.744 0 1 1-6.71-6.71l.768-.767a.625.625 0 0 1 .884.883l-.768.768ZM6.135 4.04a.625.625 0 0 1 0-.884l.768-.767a4.744 4.744 0 1 1 6.71 6.71l-.768.767a.625.625 0 1 1-.884-.883l.768-.768A3.495 3.495 0 0 0 7.786 3.27l-.768.768a.625.625 0 0 1-.883 0Z" clip-rule="evenodd"/>
</svg>
