<svg xmlns="http://www.w3.org/2000/svg" width="24" height="24" fill="currentColor" viewBox="0 0 24 24">
  <path fill="#000" fill-rule="evenodd" d="M9.75 6.129a.75.75 0 0 0 1.062 1.062l.933-.933a4.255 4.255 0 0 1 6.018 6.017l-.933.933a.75.75 0 1 0 1.062 1.062l.933-.933a5.757 5.757 0 0 0-8.142-8.141l-.933.933ZM6.26 17.762a4.255 4.255 0 0 1 0-6.018l.933-.933A.751.751 0 0 0 6.13 9.75l-.933.933a5.757 5.757 0 0 0 8.141 8.142l.933-.933a.75.75 0 0 0-1.062-1.062l-.933.933a4.255 4.255 0 0 1-6.017 0Zm2.892-2.893a.751.751 0 0 1 0-1.062l1.798-1.798-7.185-7.184a.75.75 0 1 1 1.06-1.06l7.185 7.183 1.798-1.797a.75.75 0 1 1 1.062 1.062l-1.798 1.797 7.165 7.165a.75.75 0 0 1-1.06 1.06l-7.165-7.164-1.798 1.798a.751.751 0 0 1-1.062 0Z" clip-rule="evenodd"/>
</svg>
