<svg xmlns="http://www.w3.org/2000/svg" width="16" height="16" fill="currentColor" viewBox="0 0 16 16">
  <path fill="#000" fill-rule="evenodd" d="M3.271 12.729a3.495 3.495 0 0 1 0-4.943l.768-.768a.625.625 0 1 0-.884-.883l-.767.768a4.744 4.744 0 1 0 6.71 6.71l.767-.768a.625.625 0 1 0-.883-.884l-.768.768a3.495 3.495 0 0 1-4.943 0Zm2.864-9.574a.625.625 0 0 0 .883.884l.768-.768a3.495 3.495 0 0 1 4.943 4.943l-.768.768a.625.625 0 0 0 .884.883l.767-.768a4.744 4.744 0 1 0-6.71-6.71l-.767.768Zm-.493 6.32a.625.625 0 0 0 .883.884l3.833-3.833a.625.625 0 1 0-.884-.883L5.642 9.475Z" clip-rule="evenodd"/>
</svg>
