<svg xmlns="http://www.w3.org/2000/svg" width="24" height="24" fill="currentColor" viewBox="0 0 24 24">
  <path fill="#000" d="M6.259 17.762a4.255 4.255 0 0 1 0-6.017l.933-.933A.751.751 0 0 0 6.13 9.75l-.933.933a5.757 5.757 0 0 0 8.141 8.141l.933-.933a.75.75 0 0 0-1.062-1.062l-.933.933a4.255 4.255 0 0 1-6.017 0ZM9.75 6.13a.75.75 0 0 0 1.062 1.061l.933-.933a4.255 4.255 0 0 1 6.018 6.018l-.933.933a.75.75 0 1 0 1.062 1.062l.933-.933a5.757 5.757 0 0 0-8.142-8.142l-.933.933Z"/>
  <path fill="#000" d="M9.15 13.808a.751.751 0 0 0 1.063 1.062l4.656-4.657a.75.75 0 0 0-1.062-1.062l-4.656 4.657Z"/>
</svg>
