<svg xmlns="http://www.w3.org/2000/svg" width="16" height="16" fill="currentColor" viewBox="0 0 16 16">
  <path fill="#000" fill-rule="evenodd" d="M2.5 4.745a1.25 1.25 0 1 0 0-2.499 1.25 1.25 0 0 0 0 2.499Zm1.249 3.247a1.249 1.249 0 1 1-2.498 0 1.249 1.249 0 0 1 2.498 0Zm2.356-.602a.603.603 0 0 0 0 1.205h8.042a.603.603 0 1 0 0-1.205H6.105ZM3.75 12.503a1.25 1.25 0 1 1-2.498 0 1.25 1.25 0 0 1 2.498 0Zm1.753-9.007c0-.333.27-.603.603-.603h8.042a.603.603 0 0 1 0 1.206H6.105a.603.603 0 0 1-.603-.603Zm.603 8.404a.603.603 0 0 0 0 1.206h8.042a.603.603 0 0 0 0-1.206H6.105Z" clip-rule="evenodd"/>
</svg>
