<svg xmlns="http://www.w3.org/2000/svg" width="24" height="24" fill="currentColor" viewBox="0 0 24 24">
  <path fill="#000" fill-rule="evenodd" d="M6.72 6.422a1.547 1.547 0 1 1-3.094 0 1.547 1.547 0 0 1 3.095 0Zm0 5.571a1.547 1.547 0 1 1-3.094 0 1.547 1.547 0 0 1 3.095 0Zm-1.547 7.132a1.547 1.547 0 1 0 0-3.094 1.547 1.547 0 0 0 0 3.094ZM9.666 5.672a.75.75 0 1 0 0 1.5h9.96a.75.75 0 0 0 0-1.5h-9.96Zm-.751 6.321a.75.75 0 0 1 .75-.75h9.96a.75.75 0 0 1 0 1.5h-9.96a.75.75 0 0 1-.75-.75Zm.75 4.835a.75.75 0 0 0 0 1.5h9.96a.75.75 0 1 0 0-1.5h-9.96Z" clip-rule="evenodd"/>
</svg>
