<svg xmlns="http://www.w3.org/2000/svg" width="24" height="24" fill="currentColor" viewBox="0 0 24 24">
  <path fill="#000" fill-rule="evenodd" d="M5.96 18.367a2.245 2.245 0 0 0 3.175 0l.994-.994a6.016 6.016 0 1 0 7.244-7.244l.994-.994a2.246 2.246 0 0 0 0-3.175l-3.299-3.3a2.245 2.245 0 0 0-3.175 0l-1.245 1.245-.007.007-.007.007-2.213 2.214a.779.779 0 0 0-.036.035L6.183 8.37a.76.76 0 0 0-.036.036l-2.202 2.202a.848.848 0 0 0-.036.036l-1.248 1.249a2.245 2.245 0 0 0 0 3.175l3.298 3.299Zm9.423-8.37 1.923-1.923a.745.745 0 0 0 0-1.054l-3.299-3.299a.745.745 0 0 0-1.054 0l-.72.721 1.33 1.33a.75.75 0 0 1-1.061 1.061l-1.33-1.33-1.178 1.178 1.33 1.33a.75.75 0 0 1-1.06 1.06l-1.33-1.33L7.755 8.92l1.33 1.33a.75.75 0 0 1-1.06 1.06l-1.33-1.33-1.178 1.178 1.33 1.33a.75.75 0 1 1-1.06 1.06l-1.33-1.33-.737.736a.745.745 0 0 0 0 1.055l3.3 3.298a.745.745 0 0 0 1.053 0l1.923-1.923a6.018 6.018 0 0 1 5.386-5.385Zm.6 10.503a4.516 4.516 0 1 1 0-9.032 4.516 4.516 0 0 1 0 9.032Zm.657-6.74a.75.75 0 0 0-1.5 0v2.204a.748.748 0 0 0 .375.65l1.904 1.099a.75.75 0 0 0 .75-1.3l-1.529-.882V13.76Z" clip-rule="evenodd"/>
</svg>
