<svg xmlns="http://www.w3.org/2000/svg" width="16" height="16" fill="currentColor" viewBox="0 0 16 16">
  <path fill="#000" fill-rule="evenodd" d="M3.57 12.85a1.626 1.626 0 0 0 2.3 0l.658-.659a4.577 4.577 0 0 0 8.973-1.266 4.577 4.577 0 0 0-3.304-4.396l.664-.664a1.624 1.624 0 0 0 0-2.297L10.264.975a1.626 1.626 0 0 0-2.3 0L.976 7.96a1.624 1.624 0 0 0 0 2.297l2.596 2.593Zm7.026-6.488 1.38-1.38a.375.375 0 0 0 0-.53L9.381 1.858a.375.375 0 0 0-.531 0l-.641.64.893.893a.624.624 0 1 1-.885.884l-.892-.892-.711.71.892.892a.624.624 0 1 1-.884.883l-.893-.891-.709.708.892.892a.624.624 0 1 1-.884.883l-.892-.891-.711.71.893.893a.624.624 0 1 1-.884.884l-.893-.893-.681.68a.375.375 0 0 0 0 .53l2.595 2.594a.375.375 0 0 0 .53 0l1.378-1.378a4.576 4.576 0 0 1 4.233-4.227Zm.33 7.89a3.326 3.326 0 1 1 0-6.653 3.326 3.326 0 0 1 0 6.652Zm.555-4.996a.624.624 0 0 0-1.249 0v1.631a.624.624 0 0 0 .312.564l1.428.825a.624.624 0 1 0 .625-1.082l-1.116-.644V9.256Z" clip-rule="evenodd"/>
</svg>
