<svg xmlns="http://www.w3.org/2000/svg" width="24" height="24" fill="currentColor" viewBox="0 0 24 24">
  <path fill="#000" fill-rule="evenodd" d="M14.68 6.427a.75.75 0 0 1 1.061 0l4 4a2.225 2.225 0 0 1 0 3.147l-4 4a.75.75 0 0 1-1.06-1.061l3.762-3.763h-9.75a.75.75 0 0 1 0-1.5h9.75L14.68 7.487a.75.75 0 0 1 0-1.06Zm-9.43-.085c0-.672.546-1.217 1.218-1.217h4.537a.75.75 0 1 0 0-1.5H6.468a2.717 2.717 0 0 0-2.717 2.717v11.316c0 1.5 1.217 2.717 2.717 2.717h4.537a.75.75 0 1 0 0-1.5H6.468a1.217 1.217 0 0 1-1.217-1.217V6.342Z" clip-rule="evenodd"/>
</svg>
