<svg xmlns="http://www.w3.org/2000/svg" width="16" height="16" fill="currentColor" viewBox="0 0 16 16">
  <path fill="#000" d="M10.105 3.505a.615.615 0 0 1 .878 0l3.293 3.338c.63.64.63 1.675 0 2.314l-3.293 3.338a.615.615 0 0 1-.878 0 .635.635 0 0 1 0-.89l2.94-2.98H5.378a.625.625 0 1 1 0-1.25h7.667l-2.94-2.98a.635.635 0 0 1 0-.89Z"/>
  <path fill="#000" d="M2.5 3.126c0-.345.28-.625.625-.625H7.03a.625.625 0 0 0 0-1.25H3.125c-1.035 0-1.875.84-1.875 1.875v9.748c0 1.035.84 1.875 1.875 1.875H7.03a.625.625 0 1 0 0-1.25H3.125a.625.625 0 0 1-.625-.625V3.126Z"/>
</svg>
