<svg xmlns="http://www.w3.org/2000/svg" width="24" height="24" fill="currentColor" viewBox="0 0 24 24">
  <path fill="#000" fill-rule="evenodd" d="M9.832 5.339 9.83 17.182l4.337 1.479V6.817L9.832 5.34Zm5.835 1.478v11.844l4.163-1.42a.25.25 0 0 0 .169-.237l.002-11.315a.25.25 0 0 0-.33-.237l-4.004 1.365ZM8.33 17.183l.002-11.844L4.17 6.76a.25.25 0 0 0-.17.237l-.002 11.315a.25.25 0 0 0 .33.237l4.002-1.365Zm.026-13.437a2.26 2.26 0 0 1 1.453 0l4.866 1.66a.75.75 0 0 0 .484 0l4.027-1.374a1.75 1.75 0 0 1 2.315 1.657L21.5 17.004a1.75 1.75 0 0 1-1.185 1.656l-4.67 1.594a2.26 2.26 0 0 1-1.453 0l-4.869-1.66a.75.75 0 0 0-.484 0l-4.025 1.373a1.75 1.75 0 0 1-2.315-1.656L2.5 6.996A1.75 1.75 0 0 1 3.685 5.34l4.671-1.594Z" clip-rule="evenodd"/>
</svg>
