<svg xmlns="http://www.w3.org/2000/svg" width="16" height="16" fill="currentColor" viewBox="0 0 16 16">
  <path fill="#000" fill-rule="evenodd" d="m6.499 3.314-.002 8.36L9.5 12.686v-8.36l-3-1.012Zm4.25 1.013v8.36l3-1.013.001-8.36-3 1.013Zm-5.502 7.347.002-8.36L2.25 4.328l-.002 8.36 2.998-1.013Zm.108-9.715a1.625 1.625 0 0 1 1.04 0l3.61 1.219a.375.375 0 0 0 .24 0l3.6-1.215a.875.875 0 0 1 1.156.829l-.002 9.151c0 .376-.24.71-.596.83l-3.758 1.268a1.625 1.625 0 0 1-1.04 0l-3.612-1.218a.376.376 0 0 0-.24 0l-3.6 1.215A.875.875 0 0 1 1 13.208l.002-9.15c0-.376.24-.71.595-.83l3.76-1.269Z" clip-rule="evenodd"/>
</svg>
