<svg xmlns="http://www.w3.org/2000/svg" width="24" height="24" fill="currentColor" viewBox="0 0 24 24">
  <path fill="#000" fill-rule="evenodd" d="M5.953 18.35a2.245 2.245 0 0 0 3.175 0l.57-.57v1.06c0 .575.265 1.068.63 1.454.362.382.85.692 1.396.936 1.094.489 2.553.772 4.125.772 1.571 0 3.03-.283 4.124-.772.547-.244 1.035-.554 1.396-.936.366-.386.63-.879.63-1.454v-6.655c0-1.151-.997-1.945-2.022-2.409a8.321 8.321 0 0 0-1.73-.545l.105-.105a2.245 2.245 0 0 0 0-3.175l-3.295-3.295a2.245 2.245 0 0 0-3.175 0l-1.243 1.243-.007.007-.007.007-2.212 2.212a.752.752 0 0 0-.036.035l-2.2 2.2a.77.77 0 0 0-.036.036l-2.2 2.201a.647.647 0 0 0-.036.036L2.658 11.88a2.245 2.245 0 0 0 0 3.175l3.295 3.295Zm10.399-9.345.94-.94a.745.745 0 0 0 0-1.054l-3.296-3.295a.745.745 0 0 0-1.054 0l-.72.72 1.33 1.329a.75.75 0 1 1-1.061 1.06l-1.329-1.328-1.176 1.176L11.315 8a.75.75 0 1 1-1.06 1.06l-1.33-1.328L7.75 8.91l1.328 1.329a.75.75 0 1 1-1.06 1.06L6.689 9.97l-1.175 1.176 1.328 1.329a.75.75 0 1 1-1.06 1.06l-1.33-1.328-.734.734a.745.745 0 0 0 0 1.055l3.295 3.294a.745.745 0 0 0 1.054 0l1.631-1.63v-3.404H9.7l-.001-.07c0-1.151.997-1.945 2.023-2.409 1.095-.494 2.555-.78 4.127-.78.169 0 .337.003.503.01Zm-4.013 2.138c-.929.42-1.14.846-1.14 1.042 0 .196.211.622 1.14 1.041.86.389 2.1.648 3.51.648 1.41 0 2.65-.26 3.51-.648.93-.42 1.14-.845 1.14-1.041 0-.196-.21-.622-1.14-1.042-.86-.388-2.1-.648-3.51-.648-1.41 0-2.65.26-3.51.649Zm7.638 3.45c.176-.08.352-.17.522-.269v1.117c0 .09-.038.232-.219.423-.185.196-.487.405-.918.598-.86.384-2.102.641-3.513.641s-2.653-.257-3.513-.641c-.431-.192-.734-.402-.919-.598-.178-.188-.218-.328-.219-.419v-1.121c.17.1.347.19.524.27 1.095.494 2.555.78 4.127.78 1.573 0 3.033-.286 4.128-.78Zm.522 2.971a5.678 5.678 0 0 1-.526.268c-1.094.488-2.553.771-4.124.771-1.572 0-3.03-.283-4.125-.771a5.688 5.688 0 0 1-.526-.268v1.276c0 .09.038.232.22.423.184.195.487.405.918.597.86.385 2.102.642 3.513.642 1.41 0 2.652-.257 3.513-.642.43-.192.733-.402.918-.597.181-.191.22-.333.22-.423v-1.276Z" clip-rule="evenodd"/>
</svg>
