<svg xmlns="http://www.w3.org/2000/svg" width="16" height="16" fill="currentColor" viewBox="0 0 16 16">
  <path fill="#000" fill-rule="evenodd" d="M5.794 12.884a1.625 1.625 0 0 1-2.298 0L.852 10.24a1.625 1.625 0 0 1 0-2.298L1.87 6.924a.647.647 0 0 1 .033-.033l1.635-1.635a.632.632 0 0 1 .053-.054L5.22 3.574a.637.637 0 0 1 .045-.044l1.633-1.633a.636.636 0 0 1 .045-.045l1-1.001a1.625 1.625 0 0 1 2.298 0l.11.11.012.012 2.4 2.4.013.012.109.11a1.625 1.625 0 0 1 0 2.298l-.11.109-.012.012-.027.028c.493.1.946.241 1.338.418.77.348 1.55.958 1.55 1.86 0 .031 0 .063-.003.094h.003v4.881c0 .452-.208.835-.489 1.132-.278.294-.65.53-1.064.715-.828.37-1.929.582-3.11.582-1.183 0-2.283-.212-3.111-.582-.414-.185-.787-.421-1.065-.715-.28-.296-.488-.68-.488-1.132v-.814l-.382.381-.012.012-.11.11Zm.503-2.268-.002-.001-1.27 1.27a.547.547 0 0 1-.767-.007l-2.4-2.4a.547.547 0 0 1 0-.774l.47-.47.953.952a.623.623 0 0 0 .884 0 .625.625 0 0 0 0-.884l-.952-.953.794-.794.952.952a.623.623 0 0 0 .884 0 .625.625 0 0 0 0-.884l-.952-.952.793-.793.952.952a.623.623 0 0 0 .884 0 .625.625 0 0 0 0-.884l-.952-.952.793-.794.953.952a.623.623 0 0 0 .884 0 .625.625 0 0 0 0-.883l-.952-.953.46-.46a.547.547 0 0 1 .766-.006l2.414 2.414a.547.547 0 0 1 0 .76l-.748.748a9.709 9.709 0 0 0-.177-.001c-1.183 0-2.284.215-3.113.59-.771.347-1.55.957-1.55 1.859 0 .031 0 .063.002.094h-.003v2.302ZM8.362 7.5c-.69.312-.815.615-.815.72 0 .107.125.409.815.721.633.286 1.551.479 2.599.479 1.047 0 1.965-.193 2.598-.479.69-.312.815-.614.815-.72 0-.106-.124-.409-.815-.72-.633-.286-1.55-.48-2.598-.48-1.048 0-1.966.194-2.599.48Zm5.712 2.58a4.3 4.3 0 0 0 .3-.15v.767c0 .047-.019.138-.147.272-.13.138-.348.291-.666.433-.633.283-1.552.474-2.6.474-1.049 0-1.968-.191-2.601-.474-.318-.142-.536-.295-.667-.433-.125-.132-.145-.222-.146-.27V9.93c.1.055.2.105.3.15.83.374 1.93.59 3.114.59 1.183 0 2.284-.216 3.113-.59Zm.3 2.314a4.48 4.48 0 0 1-.303.15c-.828.369-1.929.582-3.11.582-1.183 0-2.283-.213-3.111-.583a4.494 4.494 0 0 1-.303-.149v.802c0 .047.019.138.146.273.13.138.35.29.667.432.633.283 1.552.474 2.6.474 1.049 0 1.967-.19 2.601-.474.318-.141.536-.294.666-.432.128-.135.147-.226.147-.273v-.802Z" clip-rule="evenodd"/>
</svg>
