<svg xmlns="http://www.w3.org/2000/svg" width="24" height="24" fill="currentColor" viewBox="0 0 24 24">
  <path fill="#000" fill-rule="evenodd" d="M18.001 18.868V5.126c0-.69-.56-1.25-1.25-1.25l-9.25.006c-.69 0-1.25.56-1.25 1.25v13.742c0 .69.56 1.25 1.25 1.25l9.25-.006c.69 0 1.25-.56 1.25-1.25Zm1.5-13.742v13.742a2.75 2.75 0 0 1-2.748 2.75l-9.25.006a2.75 2.75 0 0 1-2.752-2.75V5.131a2.75 2.75 0 0 1 2.748-2.75l9.25-.006a2.75 2.75 0 0 1 2.752 2.75ZM14.66 6a.75.75 0 0 1-.75.75h-3.568a.75.75 0 1 1 0-1.5h3.568a.75.75 0 0 1 .75.75Zm-2.534 10a1.272 1.272 0 1 0 0 2.544 1.272 1.272 0 0 0 0-2.544Z" clip-rule="evenodd"/>
</svg>
