<svg xmlns="http://www.w3.org/2000/svg" width="16" height="16" fill="currentColor" viewBox="0 0 16 16">
  <path fill="#000" fill-rule="evenodd" d="M12.124 13.122V2.874a.625.625 0 0 0-.625-.625L4.5 2.253a.625.625 0 0 0-.625.625v10.248c0 .345.28.625.626.625l6.999-.004c.345 0 .624-.28.624-.625Zm1.25-10.248v10.248a1.875 1.875 0 0 1-1.873 1.875L4.5 15a1.875 1.875 0 0 1-1.876-1.875V2.88c0-1.036.84-1.875 1.874-1.875l7-.005c1.035 0 1.875.839 1.875 1.875Zm-3.523.972c0 .345-.28.625-.625.625H6.774a.625.625 0 1 1 0-1.25h2.452c.346 0 .625.28.625.625ZM8.004 10.83a1 1 0 1 0 0 2.001 1 1 0 0 0 0-2Z" clip-rule="evenodd"/>
</svg>
