<svg xmlns="http://www.w3.org/2000/svg" width="24" height="24" fill="currentColor" viewBox="0 0 24 24">
  <path fill="#000" fill-rule="evenodd" d="M19.127 6.25A.25.25 0 0 0 18.85 6l-9.004.927a.25.25 0 0 0-.224.25v9.309a3.113 3.113 0 0 1-.915 2.1 3.125 3.125 0 1 1-.585-4.88v-6.53a1.75 1.75 0 0 1 1.57-1.74l9.004-.927a1.75 1.75 0 0 1 1.93 1.74v8.858a3.125 3.125 0 1 1-1.5-2.631V6.25ZM8.123 16.348a1.625 1.625 0 1 0 0 .056v-.056Zm11.004-1.207v-.023a1.625 1.625 0 1 0 0 .04v-.017Z" clip-rule="evenodd"/>
</svg>
