<svg xmlns="http://www.w3.org/2000/svg" width="16" height="16" fill="currentColor" viewBox="0 0 16 16">
  <path fill="#000" fill-rule="evenodd" d="M13.626 3.264v4.993a2.487 2.487 0 1 0 1.25 2.11v-7.24c0-.667-.576-1.187-1.239-1.12l-7.778.786a1.125 1.125 0 0 0-1.011 1.12v5.442a2.487 2.487 0 1 0 1.25 2.095V4.026l7.528-.762Zm-.362 6.277c.233.232.353.535.362.84v.03a1.232 1.232 0 0 1-.362.878 1.236 1.236 0 1 1 0-1.748ZM2.736 10.638a1.236 1.236 0 1 1 1.748 1.748 1.236 1.236 0 0 1-1.748-1.748Z" clip-rule="evenodd"/>
</svg>
