<svg xmlns="http://www.w3.org/2000/svg" width="16" height="16" fill="currentColor" viewBox="0 0 16 16">
  <path fill="#000" fill-rule="evenodd" d="M12.793 2.41a1.826 1.826 0 0 0-2.557-1.196 1.825 1.825 0 0 0-3.417.596 1.826 1.826 0 0 0-2.417 1.728v5.038a7.63 7.63 0 0 0-.873-.371c-1.06-.38-2.054-.13-2.531.639-.47.757-.256 1.739.511 2.391.642.547 1.17 1.067 1.67 1.558l.126.123c.53.522 1.046 1.02 1.618 1.444 1.187.876 2.567 1.39 4.84 1.39 1.934 0 3.333-.568 4.244-1.532.902-.956 1.243-2.214 1.243-3.438V4.12a1.823 1.823 0 0 0-2.457-1.71Zm-3.595-.334a.572.572 0 1 0-1.144 0v5.77a.627.627 0 1 1-1.254 0V3.537a.572.572 0 0 0-1.143 0v5.799c.249.173.519.372.816.602a.627.627 0 1 1-.767.992c-1.276-.988-1.949-1.313-2.6-1.546-.682-.244-.967-.002-1.043.12-.083.135-.127.447.259.775a31.632 31.632 0 0 1 1.733 1.616l.128.126c.536.526.994.966 1.486 1.33.942.695 2.051 1.144 4.093 1.144 1.687 0 2.718-.489 3.333-1.14.622-.658.901-1.571.901-2.576V4.12a.569.569 0 0 0-1.137 0v3.734a.627.627 0 0 1-.883.573.627.627 0 0 1-.38-.577V2.861a.572.572 0 0 0-1.144 0v4.99a.627.627 0 1 1-1.255-.006v-5.77Z" clip-rule="evenodd"/>
</svg>
