<svg xmlns="http://www.w3.org/2000/svg" width="24" height="24" fill="currentColor" viewBox="0 0 24 24">
  <path fill="#000" fill-rule="evenodd" d="M17.968 5.346v-.008a2.201 2.201 0 0 0-3.135-1.994 2.201 2.201 0 0 0-4.17.985v.225A2.201 2.201 0 0 0 7.76 6.641v5.688c-.398-.22-.755-.392-1.059-.538-.655-.313-1.3-.403-1.882-.27a2.15 2.15 0 0 0-1.343.937c-.59.918-.451 2.204.527 3.057.836.73 1.474 1.462 2.067 2.176l.266.321c.492.597.987 1.197 1.54 1.722.67.635 1.442 1.18 2.465 1.56 1.016.377 2.242.579 3.806.579 2.442 0 4.168-.804 5.266-2.127 1.078-1.298 1.462-2.989 1.462-4.61v-7.71a2.198 2.198 0 0 0-2.907-2.08Zm-4.403-1.017a.701.701 0 0 0-1.402 0v7.075a.75.75 0 0 1-1.5 0V6.641a.701.701 0 0 0-1.403 0v6.66c.372.28.76.605 1.156.985a.75.75 0 0 1-1.038 1.083c-1.292-1.238-2.473-1.817-3.324-2.224-.41-.197-.71-.206-.902-.162a.651.651 0 0 0-.414.285c-.173.27-.187.735.252 1.117.927.809 1.626 1.616 2.234 2.347l.281.34c.495.6.923 1.117 1.403 1.573.553.524 1.157.946 1.955 1.243.806.299 1.846.485 3.284.485 2.092 0 3.355-.673 4.112-1.585.778-.937 1.116-2.24 1.116-3.652v-7.71a.698.698 0 0 0-1.395 0v4.022a.75.75 0 0 1-1.477.187.751.751 0 0 1-.035-.226v-6.07a.701.701 0 0 0-1.402 0v5.48a.76.76 0 0 1-.001.033v.55a.75.75 0 1 1-1.5 0V4.33Z" clip-rule="evenodd"/>
</svg>
