<svg xmlns="http://www.w3.org/2000/svg" width="16" height="16" fill="currentColor" viewBox="0 0 16 16">
  <path fill="#000" fill-rule="evenodd" d="m2.665 7.89.224-2.575A5 5 0 0 1 7.87.75h.299a5 5 0 0 1 4.98 4.566l.227 2.587c.017.204.085.4.196.571l.606.937c.292.45.447.974.447 1.51 0 1.024-.83 1.853-1.852 1.853h-1.71C10.806 14.2 9.511 15.251 8 15.251c-1.511 0-2.806-1.051-3.063-2.477H3.214a1.839 1.839 0 0 1-1.839-1.838c0-.545.161-1.078.464-1.53l.62-.932a1.25 1.25 0 0 0 .206-.585Zm1.245.108.225-2.574A3.75 3.75 0 0 1 7.87 2h.299a3.75 3.75 0 0 1 3.736 3.424l.225 2.588c.036.407.17.8.393 1.142l.606.936c.16.248.246.537.246.832 0 .332-.27.602-.602.602h-9.56a.589.589 0 0 1-.588-.588c0-.298.088-.59.253-.837l.621-.931a2.5 2.5 0 0 0 .411-1.17ZM8 14.001c-.85 0-1.538-.526-1.773-1.22h3.546C9.538 13.474 8.85 14 8 14Z" clip-rule="evenodd"/>
</svg>
