<svg xmlns="http://www.w3.org/2000/svg" width="24" height="24" fill="currentColor" viewBox="0 0 24 24">
  <path fill="#1F2328" fill-rule="evenodd" d="M18.48 12.004c.029.325.137.64.315.914l.804 1.24A2.488 2.488 0 0 1 17.512 18h-1.838c-.366 1.522-1.996 2.5-3.674 2.5s-3.308-.978-3.674-2.5H6.474a2.474 2.474 0 0 1-2.057-3.849l.822-1.23a2 2 0 0 0 .33-.938l.243-2.79a6.235 6.235 0 0 1 12.423 0l.245 2.81Zm-11.417.11.244-2.791a4.735 4.735 0 0 1 9.434 0l.245 2.81a3.5 3.5 0 0 0 .55 1.602l.805 1.239a.988.988 0 0 1-.83 1.526H6.475a.974.974 0 0 1-.81-1.515l.823-1.232a3.5 3.5 0 0 0 .576-1.64ZM12 19c-1.012 0-1.732-.459-2.057-1h4.114c-.325.541-1.045 1-2.057 1Z" clip-rule="evenodd"/>
</svg>
