<svg xmlns="http://www.w3.org/2000/svg" width="16" height="16" fill="currentColor" viewBox="0 0 16 16">
  <path fill="#000" fill-rule="evenodd" d="M3.168 4.048c-.145.4-.24.824-.279 1.266l-.224 2.574a1.25 1.25 0 0 1-.206.585l-.62.931a2.758 2.758 0 0 0-.464 1.53 1.84 1.84 0 0 0 1.839 1.84h1.723C5.194 14.198 6.489 15.25 8 15.25c1.511 0 2.806-1.052 3.063-2.477h.83l2.294 2.294a.623.623 0 0 0 .88-.881l-1.563-1.563a1.853 1.853 0 0 0 1.121-1.702c0-.537-.155-1.061-.447-1.511l-.606-.937a1.25 1.25 0 0 1-.196-.57l-.226-2.588A5 5 0 0 0 8.169.749H7.87c-1.688 0-3.193.84-4.1 2.139L1.812.932a.623.623 0 1 0-.88.88l2.235 2.236Zm.967 1.375L3.91 7.997a2.5 2.5 0 0 1-.41 1.17l-.622.93a1.508 1.508 0 0 0-.253.838c0 .325.264.588.589.588h7.429l-6.46-6.46a3.784 3.784 0 0 0-.048.36Zm.537-1.633 7.733 7.733h.368c.332 0 .602-.27.602-.602 0-.295-.085-.584-.246-.832l-.606-.936a2.5 2.5 0 0 1-.393-1.142l-.225-2.588A3.75 3.75 0 0 0 8.169 2H7.87a3.75 3.75 0 0 0-3.198 1.79Zm1.555 8.99C6.462 13.473 7.15 14 8 14c.85 0 1.538-.526 1.773-1.22H6.227Z" clip-rule="evenodd"/>
</svg>
