<svg xmlns="http://www.w3.org/2000/svg" width="24" height="24" fill="currentColor" viewBox="0 0 24 24">
  <path fill="#000" fill-rule="evenodd" d="M14.25 20.248a.75.75 0 0 1-.69-.806l.248-3.23H9.543l-.257 3.346a.75.75 0 1 1-1.496-.116l.249-3.23H4.5a.75.75 0 0 1 0-1.5h3.654l.417-5.423H4.5a.75.75 0 0 1 0-1.5h4.187l.257-3.347a.75.75 0 0 1 1.496.116l-.249 3.23h4.265l.258-3.346a.75.75 0 1 1 1.495.116l-.248 3.23H19.5a.75.75 0 0 1 0 1.5h-3.655l-.417 5.423H19.5a.75.75 0 0 1 0 1.5h-4.187l-.258 3.347a.75.75 0 0 1-.805.69Zm-4.174-10.96-.417 5.423h4.265l.417-5.422h-4.265Z" clip-rule="evenodd"/>
</svg>
