<svg xmlns="http://www.w3.org/2000/svg" width="24" height="24" fill="currentColor" viewBox="0 0 24 24">
  <path fill="#000" fill-rule="evenodd" d="M6.125 20.626a2.75 2.75 0 0 1-2.75-2.75V6.123a2.75 2.75 0 0 1 2.75-2.75h11.75a2.75 2.75 0 0 1 2.75 2.75v11.753a2.75 2.75 0 0 1-2.75 2.75H6.125Zm-1.25-2.75c0 .69.56 1.25 1.25 1.25h8.627V4.873H6.125c-.69 0-1.25.56-1.25 1.25v11.753ZM16.252 4.873v14.253h1.623c.69 0 1.25-.56 1.25-1.25V6.123c0-.69-.56-1.25-1.25-1.25h-1.623Zm-4.259 3.932a.75.75 0 0 0-1.057-.08l-2.709 2.327a1.25 1.25 0 0 0 0 1.896l2.709 2.326a.75.75 0 1 0 .977-1.137L9.425 12l2.488-2.137a.75.75 0 0 0 .08-1.058Z" clip-rule="evenodd"/>
</svg>
