<svg xmlns="http://www.w3.org/2000/svg" width="16" height="16" fill="currentColor" viewBox="0 0 16 16">
  <path fill="#000" fill-rule="evenodd" d="M2.999 14.877a1.875 1.875 0 0 1-1.875-1.875V2.997c0-1.035.839-1.875 1.875-1.875H13c1.036 0 1.875.84 1.875 1.875v10.005c0 1.035-.84 1.875-1.875 1.875H2.999Zm-.625-1.875c0 .345.28.625.625.625h7.156V2.372H2.999a.625.625 0 0 0-.625.625v10.005Zm9.031-10.63v11.255h1.596c.345 0 .625-.28.625-.625V2.997a.625.625 0 0 0-.625-.625h-1.596ZM8.017 5.444a.625.625 0 0 0-.881-.067l-2.28 1.958a.875.875 0 0 0 0 1.328l2.28 1.958a.625.625 0 0 0 .814-.948L6.001 7.999 7.95 6.325a.625.625 0 0 0 .067-.881Z" clip-rule="evenodd"/>
</svg>
