<svg xmlns="http://www.w3.org/2000/svg" width="24" height="24" fill="currentColor" viewBox="0 0 24 24">
  <path fill="#000" d="M8.173 8.415c.415 0 .75-.334.75-.746a.748.748 0 0 0-.75-.746H6.641a.748.748 0 0 0-.75.746c0 .412.336.746.75.746h1.532Zm5.181-.746a.748.748 0 0 1-.75.746H11.07a.748.748 0 0 1-.75-.746c0-.412.336-.746.75-.746h1.533c.414 0 .75.334.75.746ZM8.173 11.43c.415 0 .75-.334.75-.746a.748.748 0 0 0-.75-.746H6.641a.748.748 0 0 0-.75.746c0 .412.336.746.75.746h1.532Zm5.181-.746a.748.748 0 0 1-.75.746H11.07a.748.748 0 0 1-.75-.746c0-.412.336-.746.75-.746h1.533c.414 0 .75.334.75.746Z"/>
  <path fill="#000" fill-rule="evenodd" d="m14.058 3.082-4.405-.006-4.406.006A2.244 2.244 0 0 0 3 5.32v13.765c0 .963.786 1.743 1.753 1.74l2.302-.003a1.745 1.745 0 0 0 1.747-1.741v-2.005h1.701v2.005c0 .96.782 1.739 1.747 1.74l2.301.005c.051 0 .102-.002.151-.006h4.048A2.244 2.244 0 0 0 21 18.582v-7.583c0-.906-.548-1.722-1.39-2.068l-3.305-1.36V5.32a2.244 2.244 0 0 0-2.247-2.238Zm2.247 6.103v9.9c0 .083-.006.164-.017.243h2.462c.415 0 .75-.334.75-.746v-7.583a.746.746 0 0 0-.463-.69l-2.732-1.124ZM14.61 19.328a.249.249 0 0 0 .195-.243V5.32a.748.748 0 0 0-.75-.746l-4.402-.006h-.002l-4.402.006a.748.748 0 0 0-.749.746v13.765a.25.25 0 0 0 .25.249l2.302-.004a.25.25 0 0 0 .25-.249v-2.253c0-.687.56-1.244 1.25-1.244h2.201c.69 0 1.25.557 1.25 1.244v2.253a.25.25 0 0 0 .25.249l1.65.003v-.005h.707Z" clip-rule="evenodd"/>
</svg>
