<svg xmlns="http://www.w3.org/2000/svg" width="16" height="16" fill="currentColor" viewBox="0 0 16 16">
  <path fill="#000" d="M8.357 5.322a.625.625 0 0 0 0-1.25H7.23a.625.625 0 1 0 0 1.25h1.127Zm-2.861-.625a.575.575 0 0 1-.575.574H3.794a.575.575 0 1 1 0-1.149h1.127c.318 0 .575.257.575.575Zm.05 2.278c0 .345-.28.625-.625.625H3.794a.625.625 0 0 1 0-1.25h1.127c.345 0 .625.28.625.625Zm3.436-.001c0 .346-.28.625-.625.625H7.23a.625.625 0 1 1 0-1.25h1.127c.345 0 .625.28.625.625Z"/>
  <path fill="#000" fill-rule="evenodd" d="m6.076 1 3.58.005a1.625 1.625 0 0 1 1.622 1.625v1.896l2.823 1.117c.62.246 1.026.845 1.026 1.511v6.218c0 .898-.728 1.626-1.626 1.625l-2.91-.002a.798.798 0 0 1-.09.005l-3.035-.006a.775.775 0 0 1-.774-.775v-2.16H5.46v2.16a.775.775 0 0 1-.773.775L1.65 15a.775.775 0 0 1-.777-.775V2.63c0-.897.726-1.624 1.623-1.625L6.076 1Zm5.202 12.745V5.87l2.362.935a.375.375 0 0 1 .237.35v6.217a.375.375 0 0 1-.375.375l-2.224-.002ZM10.028 2.63v11.114h-.655v.004l-1.43-.003v-2.162a.775.775 0 0 0-.776-.775H4.984a.775.775 0 0 0-.775.775v2.162l-2.086.004V2.629c0-.206.168-.374.375-.374l3.577-.005h.001l3.578.005c.207 0 .374.168.374.375Z" clip-rule="evenodd"/>
</svg>
