<svg xmlns="http://www.w3.org/2000/svg" width="24" height="24" fill="currentColor" viewBox="0 0 24 24">
  <path fill="#000" fill-rule="evenodd" d="M9.689 2.626a2.75 2.75 0 0 0-2.75 2.75V10c0 .45.108.875.3 1.25H5.376A2.75 2.75 0 0 0 2.626 14v4.624a2.75 2.75 0 0 0 2.75 2.75h4.626c.787 0 1.497-.33 1.999-.861.501.53 1.211.861 1.999.861h4.626a2.75 2.75 0 0 0 2.75-2.75V14a2.75 2.75 0 0 0-2.75-2.75h-1.861c.192-.375.3-.8.3-1.25V5.376a2.75 2.75 0 0 0-2.75-2.75H9.689ZM11.25 14v-.055a1.25 1.25 0 0 0-1.227-1.195H5.376c-.69 0-1.25.56-1.25 1.25v4.624c0 .69.56 1.25 1.25 1.25h4.626c.672 0 1.22-.53 1.248-1.195V14ZM14 11.25h.336A1.25 1.25 0 0 0 15.565 10V5.376c0-.69-.56-1.25-1.25-1.25H9.689c-.69 0-1.25.56-1.25 1.25V10a1.25 1.25 0 0 0 1.229 1.25H14Zm0 8.624a1.25 1.25 0 0 1-1.248-1.25v-4.679a1.25 1.25 0 0 1 1.227-1.195h4.647c.69 0 1.25.56 1.25 1.25v4.624c0 .69-.56 1.25-1.25 1.25H14ZM11 5.761a.75.75 0 0 0 0 1.5h2a.75.75 0 0 0 0-1.5h-2ZM6.001 15a.75.75 0 0 1 .75-.75h2a.75.75 0 0 1 0 1.5h-2a.75.75 0 0 1-.75-.75Zm9.25-.75a.75.75 0 0 0 0 1.5h2a.75.75 0 0 0 0-1.5h-2Z" clip-rule="evenodd"/>
</svg>
