<svg xmlns="http://www.w3.org/2000/svg" width="16" height="16" fill="currentColor" viewBox="0 0 16 16">
  <path fill="#000" fill-rule="evenodd" d="M5.938.751c-1.036 0-1.875.84-1.875 1.875V6.75c0 .22.037.43.107.626H2.625c-1.036 0-1.875.84-1.875 1.875v4.124c0 1.036.84 1.875 1.875 1.875H6.75c.48 0 .918-.18 1.25-.477.332.297.77.477 1.25.477h4.125c1.036 0 1.875-.84 1.875-1.875V9.251c0-1.036-.84-1.875-1.875-1.875h-1.544c.07-.196.107-.406.107-.626V2.626c0-1.036-.84-1.875-1.875-1.875H5.938Zm1.437 8.5v-.017a.625.625 0 0 0-.625-.608H2.625A.625.625 0 0 0 2 9.251v4.124c0 .345.28.625.625.625H6.75c.34 0 .616-.27.625-.608V9.25Zm1.875 4.75a.625.625 0 0 1-.625-.61V9.235a.625.625 0 0 1 .625-.608h4.125c.345 0 .625.28.625.625v4.124c0 .345-.28.625-.625.625H9.25ZM5.313 2.625c0-.345.28-.625.625-.625h4.125c.345 0 .625.28.625.625V6.75c0 .345-.28.625-.625.625H5.938a.625.625 0 0 1-.625-.625V2.626Zm1.919.534a.625.625 0 0 0 0 1.25h1.536a.625.625 0 1 0 0-1.25H7.232Zm-3.889 7.145c0-.346.28-.625.625-.625h1.537a.625.625 0 1 1 0 1.25H3.968a.625.625 0 0 1-.625-.625Zm7.154-.626a.625.625 0 1 0 0 1.25h1.537a.625.625 0 1 0 0-1.25h-1.537Z" clip-rule="evenodd"/>
</svg>
