<svg xmlns="http://www.w3.org/2000/svg" width="16" height="16" fill="currentColor" viewBox="0 0 16 16">
  <path fill="#000" fill-rule="evenodd" d="M2.625 4.896a2.271 2.271 0 1 1 4.543 0 2.271 2.271 0 0 1-4.543 0Zm2.272-1.021a1.021 1.021 0 1 0 0 2.043 1.021 1.021 0 0 0 0-2.043Z" clip-rule="evenodd"/>
  <path fill="#000" d="M3.057 13.203a.625.625 0 0 1-.023-.884l9.027-9.496a.625.625 0 0 1 .906.862L3.94 13.18a.625.625 0 0 1-.883.023Z"/>
  <path fill="#000" fill-rule="evenodd" d="M11.103 8.827a2.271 2.271 0 1 0 0 4.543 2.271 2.271 0 0 0 0-4.543Zm-1.021 2.271a1.021 1.021 0 1 1 2.042 0 1.021 1.021 0 0 1-2.042 0Z" clip-rule="evenodd"/>
</svg>
