<svg xmlns="http://www.w3.org/2000/svg" width="24" height="24" fill="currentColor" viewBox="0 0 24 24">
  <path fill="#000" fill-rule="evenodd" d="M7.916 6.501a1.416 1.416 0 1 0 0 2.833 1.416 1.416 0 0 0 0-2.833ZM5 7.918a2.916 2.916 0 1 1 5.833 0 2.916 2.916 0 0 1-5.833 0Zm.545 10.874a.75.75 0 0 1-.027-1.06L17.395 5.237a.75.75 0 1 1 1.087 1.034L6.605 18.765a.75.75 0 0 1-1.06.027Zm9.122-2.714a1.416 1.416 0 1 1 2.833 0 1.416 1.416 0 0 1-2.833 0Zm1.416-2.917a2.916 2.916 0 1 0 0 5.833 2.916 2.916 0 0 0 0-5.833Z" clip-rule="evenodd"/>
</svg>
