<svg xmlns="http://www.w3.org/2000/svg" width="16" height="16" fill="currentColor" viewBox="0 0 16 16">
  <path fill="#000" fill-rule="evenodd" d="M7.885.604a.768.768 0 0 0-1.105.403L5.51 4.511c-1.316.157-2.98.988-4.12 3.015a1.09 1.09 0 0 0 .417 1.477l3.61 2.078-2.014 3.478a.625.625 0 1 0 1.082.626l2.016-3.48 3.613 2.08a1.093 1.093 0 0 0 1.486-.378c1.19-1.997 1.082-3.85.561-5.066l2.408-2.847a.767.767 0 0 0-.203-1.16L7.885.604ZM6.654 4.988l1.099-3.032 5.506 3.169-2.082 2.463a1.163 1.163 0 0 0-.163 1.219c.363.83.51 2.223-.402 3.836L2.546 8c.946-1.591 2.23-2.162 3.133-2.263.404-.045.812-.3.975-.75Z" clip-rule="evenodd"/>
</svg>
