<svg xmlns="http://www.w3.org/2000/svg" width="16" height="16" fill="currentColor" viewBox="0 0 16 16">
  <path fill="#000" fill-rule="evenodd" d="M14.08.502c.345 0 .624.279.624.623V8.58a.623.623 0 0 1-1.247 0V1.125c0-.344.28-.623.624-.623ZM9.148 1.984a.623.623 0 0 0-1.247 0V6.11a4.966 4.966 0 0 0-1.533-.538V3.371a.623.623 0 0 0-1.246 0v2.14a5 5 0 1 0 5.316 5.79h4.44a.623.623 0 1 0 0-1.247h-4.395a4.982 4.982 0 0 0-1.337-2.98l.002-.039v-5.05Zm2.156.937c.344 0 .623.28.623.624V8.58a.623.623 0 1 1-1.247 0V3.545c0-.345.28-.624.624-.624ZM5.5 6.62a3.878 3.878 0 1 0 0 7.756 3.878 3.878 0 0 0 0-7.756Zm-.245 1.29c.344 0 .623.28.623.624v1.586l1.408.397a.623.623 0 1 1-.34 1.2l-1.81-.512a.624.624 0 0 1-.505-.611v-2.06c0-.344.28-.623.624-.623Z" clip-rule="evenodd"/>
</svg>
