<svg xmlns="http://www.w3.org/2000/svg" width="24" height="24" fill="currentColor" viewBox="0 0 24 24">
  <path fill="#000" fill-rule="evenodd" d="M20.192 2.245a.75.75 0 0 1 .75.75v10.032a.75.75 0 1 1-1.5 0V2.996a.75.75 0 0 1 .75-.75Zm-6.693 1.906a.75.75 0 1 0-1.501 0V10a6.464 6.464 0 0 0-2.22-.89V6.017a.75.75 0 1 0-1.502 0V8.99a6.504 6.504 0 1 0 6.645 7.608h6.335a.75.75 0 1 0 0-1.5h-6.253a6.475 6.475 0 0 0-1.504-3.782V4.151Zm2.97 1.349a.75.75 0 0 1 .751.75v6.777a.75.75 0 0 1-1.5 0V6.25a.75.75 0 0 1 .75-.75Zm-7.958 4.987a5.003 5.003 0 1 0 0 10.006 5.003 5.003 0 0 0 0-10.006Zm-.32 1.707a.75.75 0 0 1 .75.75v2.099l1.866.527a.75.75 0 0 1-.407 1.444l-2.351-.664a.75.75 0 0 1-.608-.737v-2.669a.75.75 0 0 1 .75-.75Z" clip-rule="evenodd"/>
</svg>
