<svg xmlns="http://www.w3.org/2000/svg" width="24" height="24" fill="currentColor" viewBox="0 0 24 24">
  <path fill="#000" d="M12.001 16.437a1.5 1.5 0 1 0 0-3 1.5 1.5 0 0 0 0 3Z"/>
  <path fill="#000" fill-rule="evenodd" d="M7.625 7.625v1.5H6.5a2.75 2.75 0 0 0-2.75 2.75V18a2.75 2.75 0 0 0 2.75 2.75h11A2.75 2.75 0 0 0 20.25 18v-6.125a2.75 2.75 0 0 0-2.75-2.75h-1.125v-1.5a4.376 4.376 0 0 0-8.75 0Zm1.5 0v1.5h5.75v-1.5a2.875 2.875 0 0 0-5.75 0Zm-2.625 3c-.69 0-1.25.56-1.25 1.25V18c0 .69.56 1.25 1.25 1.25h11c.69 0 1.25-.56 1.25-1.25v-6.125c0-.69-.56-1.25-1.25-1.25h-11Z" clip-rule="evenodd"/>
</svg>
