<svg xmlns="http://www.w3.org/2000/svg" width="16" height="16" fill="currentColor" viewBox="0 0 16 16">
  <path fill="#000" d="M8 11.895a1.326 1.326 0 1 0 0-2.653 1.326 1.326 0 0 0 0 2.653Z"/>
  <path fill="#000" fill-rule="evenodd" d="M4.413 4.216v1.472h-1.29c-1.036 0-1.875.84-1.875 1.875V13.5c0 1.036.839 1.875 1.875 1.875h9.754c1.036 0 1.875-.84 1.875-1.875V7.563c0-1.036-.84-1.875-1.875-1.875h-1.29V4.216a3.587 3.587 0 1 0-7.174 0Zm1.25 0v1.472h4.674V4.216a2.337 2.337 0 1 0-4.674 0Zm-2.54 2.722a.625.625 0 0 0-.625.625V13.5c0 .345.28.625.625.625h9.754c.345 0 .625-.28.625-.625V7.563a.625.625 0 0 0-.625-.625H3.123Z" clip-rule="evenodd"/>
</svg>
