<svg xmlns="http://www.w3.org/2000/svg" width="24" height="24" fill="currentColor" viewBox="0 0 24 24">
  <path fill="#000" fill-rule="evenodd" d="M13.16 7.287c-.419-1.047-1.902-1.047-2.32 0L10.313 8.6a1.25 1.25 0 0 1-.696.697l-1.313.525c-1.048.419-1.048 1.902 0 2.321l1.313.525c.317.127.57.379.696.696l.525 1.313c.42 1.048 1.902 1.048 2.322 0l.525-1.313a1.25 1.25 0 0 1 .696-.696l1.313-.525c1.047-.42 1.047-1.902 0-2.321l-1.313-.525a1.25 1.25 0 0 1-.696-.697l-.525-1.313Zm-1.453 1.87L12 8.425l.293.732a2.75 2.75 0 0 0 1.532 1.532l.732.293-.732.293a2.75 2.75 0 0 0-1.532 1.532L12 13.54l-.293-.733a2.75 2.75 0 0 0-1.532-1.532l-.733-.293.733-.293a2.75 2.75 0 0 0 1.532-1.532Z" clip-rule="evenodd"/>
  <path fill="#000" fill-rule="evenodd" d="M5.75 3.5A2.75 2.75 0 0 0 3 6.25v6.64a2.75 2.75 0 0 0 1.062 2.17l6.25 4.86a2.75 2.75 0 0 0 3.376 0l6.25-4.86A2.75 2.75 0 0 0 21 12.89V6.25a2.75 2.75 0 0 0-2.75-2.75H5.75ZM4.5 6.25C4.5 5.56 5.06 5 5.75 5h12.5c.69 0 1.25.56 1.25 1.25v6.64c0 .385-.178.75-.483.986l-6.25 4.86a1.25 1.25 0 0 1-1.534 0l-6.25-4.86a1.25 1.25 0 0 1-.483-.987V6.25Z" clip-rule="evenodd"/>
</svg>
