<svg xmlns="http://www.w3.org/2000/svg" width="24" height="24" fill="currentColor" viewBox="0 0 24 24">
  <path fill="#000" fill-rule="evenodd" d="M6.002 5.749c-.69 0-1.25.56-1.25 1.25L4.75 17c0 .69.56 1.25 1.25 1.25h12c.69 0 1.25-.56 1.25-1.25l.003-7.499c0-.69-.56-1.25-1.25-1.25H12.49a1.75 1.75 0 0 1-1.37-.66L9.73 5.843a.25.25 0 0 0-.196-.094H6.002Zm-2.75 1.25a2.75 2.75 0 0 1 2.75-2.75h3.532a1.75 1.75 0 0 1 1.37.66l1.391 1.748a.25.25 0 0 0 .196.095H18a2.75 2.75 0 0 1 2.75 2.75l-.002 7.5a2.75 2.75 0 0 1-2.75 2.75h-12A2.75 2.75 0 0 1 3.249 17l.003-10.002Z" clip-rule="evenodd"/>
</svg>
