<svg xmlns="http://www.w3.org/2000/svg" width="16" height="16" fill="currentColor" viewBox="0 0 16 16">
  <path fill="#000" fill-rule="evenodd" d="M2.877 3.126a.625.625 0 0 0-.625.625l-.003 8.497c0 .346.28.626.625.626h10.249c.345 0 .625-.28.625-.625l.003-6.594a.625.625 0 0 0-.625-.625H8.24c-.334 0-.65-.149-.864-.405l-1.25-1.499h-3.25Zm-1.875.624c0-1.035.84-1.874 1.875-1.874h3.308c.333 0 .65.148.864.404l1.25 1.5h4.827C14.16 3.78 15 4.62 15 5.655l-.003 6.594c0 1.036-.84 1.875-1.875 1.875H2.874a1.875 1.875 0 0 1-1.875-1.876l.003-8.498Z" clip-rule="evenodd"/>
</svg>
