<svg xmlns="http://www.w3.org/2000/svg" width="24" height="24" fill="currentColor" viewBox="0 0 24 24">
  <path fill="#000" fill-rule="evenodd" d="M3 6.748a2.75 2.75 0 0 1 2.75-2.75h12.5A2.75 2.75 0 0 1 21 6.748v8.508a2.75 2.75 0 0 1-2.75 2.75h-7.096a.25.25 0 0 0-.173.07L7.694 21.22c-.636.609-1.691.158-1.691-.722v-2.492H5.75A2.75 2.75 0 0 1 3 15.256V6.748Zm2.75-1.25c-.69 0-1.25.56-1.25 1.25v8.508c0 .69.56 1.25 1.25 1.25h.503c.69 0 1.25.56 1.25 1.25v1.572l2.441-2.336a1.75 1.75 0 0 1 1.21-.486h7.096c.69 0 1.25-.56 1.25-1.25V6.748c0-.69-.56-1.25-1.25-1.25H5.75Zm5.665 7.785a.75.75 0 0 1 .75-.75h3.496a.75.75 0 0 1 0 1.5h-3.495a.75.75 0 0 1-.75-.75ZM8.87 8.086a.75.75 0 0 0-1.06 1.06l1.803 1.804-1.803 1.803a.75.75 0 1 0 1.06 1.06l2.334-2.333a.75.75 0 0 0 0-1.06L8.869 8.085Z" clip-rule="evenodd"/>
</svg>
