<svg xmlns="http://www.w3.org/2000/svg" width="16" height="16" fill="currentColor" viewBox="0 0 16 16">
  <path fill="#000" fill-rule="evenodd" d="M.875 3c0-1.036.84-1.875 1.875-1.875h10.5c1.036 0 1.875.84 1.875 1.875v7.326c0 1.036-.84 1.875-1.875 1.875H7.268l-2.548 2.43a.875.875 0 0 1-1.48-.633v-1.797h-.49a1.875 1.875 0 0 1-1.875-1.875V3Zm1.875-.625A.625.625 0 0 0 2.125 3v7.326c0 .345.28.625.625.625h.882c.474 0 .859.384.859.859v1.312l2.022-1.93a.875.875 0 0 1 .604-.241h6.133c.345 0 .625-.28.625-.625V3a.625.625 0 0 0-.625-.625H2.75Zm4.84 5.994c0-.345.28-.625.624-.625h2.755a.625.625 0 1 1 0 1.25H8.213a.625.625 0 0 1-.625-.625ZM5.641 4.25a.625.625 0 0 0-.884.884L6.154 6.53 4.758 7.927a.625.625 0 1 0 .884.884L7.48 6.972a.625.625 0 0 0 0-.884L5.642 4.25Z" clip-rule="evenodd"/>
</svg>
