<svg xmlns="http://www.w3.org/2000/svg" width="24" height="24" fill="currentColor" viewBox="0 0 24 24">
  <path fill="#000" fill-rule="evenodd" d="M6.722 4.501a.75.75 0 0 0 0-1.5H3.47a.75.75 0 1 0 0 1.5h.883v15.003H3.47a.75.75 0 0 0 0 1.5h3.25a.75.75 0 0 0 0-1.5h-.867V4.5h.868Zm8.29 12.461.86-2.151a3.5 3.5 0 0 1 1.95-1.95l2.151-.86-2.151-.861a3.5 3.5 0 0 1-1.95-1.95l-.86-2.152-.861 2.152a3.5 3.5 0 0 1-1.95 1.95L10.05 12l2.151.86a3.5 3.5 0 0 1 1.95 1.95l.86 2.152Zm2.253-1.594-.86 2.151c-.504 1.257-2.283 1.257-2.786 0l-.86-2.151a2 2 0 0 0-1.115-1.114l-2.152-.861c-1.257-.503-1.257-2.283 0-2.786l2.152-.86a2 2 0 0 0 1.114-1.114l.86-2.152c.504-1.257 2.283-1.257 2.786 0l.86 2.152a2 2 0 0 0 1.115 1.114l2.151.86c1.258.503 1.258 2.283 0 2.786l-2.151.86a2 2 0 0 0-1.114 1.115Z" clip-rule="evenodd"/>
</svg>
