<svg xmlns="http://www.w3.org/2000/svg" width="16" height="16" fill="currentColor" viewBox="0 0 16 16">
  <path fill="#000" fill-rule="evenodd" d="M8 15.5a7.5 7.5 0 1 0 0-15 7.5 7.5 0 0 0 0 15Zm.06-1.25a6.252 6.252 0 0 0 6.12-5.312l-1.098.774a2.5 2.5 0 0 1-2.907-.018l-.66-.478a3.125 3.125 0 0 1-1.287-2.711l.012-.202a.781.781 0 0 0-.978-.8l-.537.14a2.031 2.031 0 0 1-2.542-1.85l-.04-.71A6.239 6.239 0 0 0 1.75 8c0 .688.111 1.35.316 1.969h1.328a.312.312 0 0 0 .26-.141l.543-.824a1.563 1.563 0 0 1 2.634.036l.698 1.128c.49.79.714 1.716.642 2.642l-.112 1.44Zm-1.246-.112.111-1.425a3.125 3.125 0 0 0-.458-1.887l-.699-1.128a.313.313 0 0 0-.526-.007l-.543.824c-.29.44-.78.704-1.305.704H2.64a6.257 6.257 0 0 0 4.173 2.919Zm5.547-5.447 1.859-1.31a6.25 6.25 0 0 0-8.868-5.044l.079 1.385a.78.78 0 0 0 .978.711l.537-.14a2.031 2.031 0 0 1 2.541 2.082l-.011.202a1.875 1.875 0 0 0 .772 1.626l.66.478a1.25 1.25 0 0 0 1.453.01Z" clip-rule="evenodd"/>
</svg>
