<svg xmlns="http://www.w3.org/2000/svg" width="24" height="24" fill="currentColor" viewBox="0 0 24 24">
  <path fill="#000" fill-rule="evenodd" d="M12 21a9 9 0 1 0 0-18 9 9 0 0 0 0 18Zm.07-1.5a7.502 7.502 0 0 0 7.346-6.374l-1.117.788a3.75 3.75 0 0 1-4.36-.028l-.371-.268a3.547 3.547 0 0 1-1.445-3.26c.084-.77-.66-1.407-1.436-1.188-1.676.473-3.39-.773-3.39-2.542v-.471A7.486 7.486 0 0 0 4.5 12c0 .825.133 1.62.38 2.363h1.39a.75.75 0 0 0 .627-.338l.217-.33c.904-1.373 2.927-1.345 3.792.053l.443.715a5.75 5.75 0 0 1 .844 3.473L12.07 19.5Zm-1.493-.135.12-1.546c.07-.9-.148-1.799-.623-2.566l-.443-.716a.75.75 0 0 0-1.264-.017l-.217.33a2.25 2.25 0 0 1-1.88 1.013h-.7a7.508 7.508 0 0 0 5.007 3.502Zm6.857-6.677 2.03-1.43A7.5 7.5 0 0 0 8.798 5.216v1.412c0 .748.736 1.309 1.482 1.098 1.769-.499 3.538.936 3.334 2.795-.08.732.238 1.45.834 1.882l.37.268a2.25 2.25 0 0 0 2.616.017Z" clip-rule="evenodd"/>
</svg>
