<svg xmlns="http://www.w3.org/2000/svg" width="16" height="16" fill="currentColor" viewBox="0 0 16 16">
  <path fill="#000" fill-rule="evenodd" d="M4.591 2.09c0-.602.488-1.09 1.09-1.09h4.637c.602 0 1.09.488 1.09 1.09v.044h1.317c1.116 0 2.02.904 2.021 2.02l.004 8.824a2.021 2.021 0 0 1-2.021 2.023H3.275a2.021 2.021 0 0 1-2.021-2.02L1.25 4.155a2.02 2.02 0 0 1 2.021-2.022h1.32V2.09Zm6.817 1.317v-.023h1.317c.425 0 .77.345.771.77l.004 8.825a.771.771 0 0 1-.771.772H3.275a.771.771 0 0 1-.771-.771L2.5 4.156c0-.427.345-.772.771-.772h1.32v.023c0 .602.488 1.09 1.09 1.09h4.637a1.09 1.09 0 0 0 1.09-1.09ZM5.841 2.25v.997h4.317V2.25H5.841Zm-.243 4.94a.388.388 0 1 1 .776 0 .388.388 0 0 1-.776 0Zm.388-1.638a1.638 1.638 0 1 0 0 3.276 1.638 1.638 0 0 0 0-3.276Zm-1.223 6.04a.625.625 0 1 0 .906.86l5.554-5.843a.625.625 0 1 0-.905-.861L4.763 11.59Zm5.25-.977a.388.388 0 1 0 0 .776.388.388 0 0 0 0-.776Zm-1.638.388a1.638 1.638 0 1 1 3.277 0 1.638 1.638 0 0 1-3.277 0Z" clip-rule="evenodd"/>
</svg>
