<svg xmlns="http://www.w3.org/2000/svg" width="16" height="16" fill="currentColor" viewBox="0 0 16 16">
  <path fill="#000" fill-rule="evenodd" d="M4.417 1.123v.8h4.81v-.8a.625.625 0 1 1 1.25 0v.8h.81c1.036 0 1.875.84 1.875 1.876v3.2a4.535 4.535 0 1 1-6.41 5.653H2.375A1.875 1.875 0 0 1 .5 10.777V3.799c0-1.036.84-1.875 1.875-1.875h.793v-.8a.625.625 0 1 1 1.25-.001Zm7.495 4.793v.615a4.535 4.535 0 0 0-5.462 4.871H2.374a.625.625 0 0 1-.625-.625V5.916h10.163Zm0-1.25v-.867a.625.625 0 0 0-.625-.625H2.374a.625.625 0 0 0-.625.625v.867h10.163Zm-.947 9.587a3.285 3.285 0 1 0 0-6.571 3.285 3.285 0 0 0 0 6.57Zm2.08-3.674a.625.625 0 0 0-.883-.884l-1.793 1.792-.789-.79a.625.625 0 1 0-.884.885l1.055 1.054a.875.875 0 0 0 1.237 0l2.058-2.057Z" clip-rule="evenodd"/>
</svg>
