<svg xmlns="http://www.w3.org/2000/svg" width="24" height="24" fill="currentColor" viewBox="0 0 24 24">
  <path fill="#000" fill-rule="evenodd" d="M6.001 5.968h1.641a1.75 1.75 0 0 0 1.723 1.44h5.27a1.75 1.75 0 0 0 1.723-1.44h1.635c.69 0 1.25.559 1.25 1.25l.006 11.031c0 .69-.56 1.251-1.25 1.251H6.007c-.69 0-1.25-.56-1.25-1.25L4.75 7.219c0-.69.56-1.25 1.25-1.25Zm11.992-1.5h-1.63A1.75 1.75 0 0 0 14.634 3h-5.27a1.75 1.75 0 0 0-1.727 1.467H6.001a2.75 2.75 0 0 0-2.75 2.751l.006 11.032A2.75 2.75 0 0 0 6.007 21h11.992a2.75 2.75 0 0 0 2.75-2.751l-.006-11.033a2.75 2.75 0 0 0-2.75-2.748ZM9.365 4.5a.25.25 0 0 0-.25.25v.908c0 .138.112.25.25.25h5.27a.25.25 0 0 0 .25-.25V4.75a.25.25 0 0 0-.25-.25h-5.27Zm-.496 6.558a.55.55 0 1 1 1.098 0 .55.55 0 0 1-1.098 0Zm.549-2.05a2.05 2.05 0 1 0 0 4.099 2.05 2.05 0 0 0 0-4.098Zm-1.531 7.73a.75.75 0 1 0 1.087 1.033l7.123-7.493a.75.75 0 1 0-1.087-1.034l-7.123 7.493Zm6.695-1.34a.549.549 0 1 0 0 1.099.549.549 0 0 0 0-1.098Zm-2.05.55a2.05 2.05 0 1 1 4.099 0 2.05 2.05 0 0 1-4.098 0Z" clip-rule="evenodd"/>
</svg>
