<svg xmlns="http://www.w3.org/2000/svg" width="24" height="24" fill="currentColor" viewBox="0 0 24 24">
  <path fill="#000" fill-rule="evenodd" d="M7.075 3.908V2.75a.75.75 0 0 0-1.5 0v1.158h-.823a2.75 2.75 0 0 0-2.75 2.75v8.689a2.75 2.75 0 0 0 2.75 2.75h5.7a5.956 5.956 0 0 0 11.545-2.05 5.953 5.953 0 0 0-3.216-5.289v-4.1a2.75 2.75 0 0 0-2.75-2.75h-.845V2.75a.75.75 0 0 0-1.5 0v1.158H7.075Zm10.206 6.314V9.079H3.502v6.268c0 .69.56 1.25 1.25 1.25h5.363a5.953 5.953 0 0 1 7.166-6.375Zm0-2.643H3.502v-.92c0-.691.56-1.25 1.25-1.25H16.03c.69 0 1.25.559 1.25 1.25v.92Zm1.614 7.946a.75.75 0 0 0-1.06-1.061l-2.448 2.447-1.111-1.11a.75.75 0 1 0-1.06 1.06l1.287 1.288a1.25 1.25 0 0 0 1.768 0l2.624-2.625Zm1.602.522a4.453 4.453 0 1 1-8.907 0 4.453 4.453 0 0 1 8.907 0Z" clip-rule="evenodd"/>
</svg>
