<svg xmlns="http://www.w3.org/2000/svg" width="16" height="16" fill="currentColor" viewBox="0 0 16 16">
  <path fill="#000" fill-rule="evenodd" d="M14.25 8a6.25 6.25 0 1 0-12.5 0 6.25 6.25 0 0 0 12.5 0Zm1.25 0a7.5 7.5 0 1 0-15 0 7.5 7.5 0 0 0 15 0ZM8.002 4.855c-.905 0-1.5.628-1.568 1.262a.625.625 0 1 1-1.243-.133c.14-1.305 1.303-2.379 2.81-2.379.717 0 1.4.203 1.92.621a2.37 2.37 0 0 1 .89 1.802 2.346 2.346 0 0 1-.425 1.483c-.272.385-.638.665-.975.89-.524.348-.786.759-.786 1.24a.625.625 0 0 1-1.25 0c0-1.034.6-1.787 1.344-2.282.297-.197.509-.374.647-.57.125-.178.207-.395.195-.716a1.12 1.12 0 0 0-.421-.872c-.259-.207-.648-.346-1.138-.346ZM8 10.985a.781.781 0 1 1 0 1.563.781.781 0 0 1 0-1.562Z" clip-rule="evenodd"/>
</svg>
