<svg xmlns="http://www.w3.org/2000/svg" width="24" height="24" fill="currentColor" viewBox="0 0 24 24">
  <path fill="#1F2328" d="M12.002 8.528c-1.025 0-1.696.71-1.772 1.423a.75.75 0 0 1-1.491-.16c.162-1.517 1.514-2.763 3.263-2.763.83 0 1.621.235 2.227.72.62.497 1.002 1.224 1.034 2.096.026.69-.162 1.257-.493 1.725-.317.447-.741.772-1.13 1.03-.597.397-.89.861-.89 1.401a.75.75 0 0 1-1.5 0c0-1.202.698-2.077 1.56-2.65.34-.226.58-.427.735-.647.14-.2.233-.442.22-.804-.017-.437-.196-.757-.474-.98-.29-.233-.731-.39-1.289-.39ZM12 15.4a.8.8 0 1 1 0 1.6.8.8 0 0 1 0-1.6Z"/>
  <path fill="#1F2328" fill-rule="evenodd" d="M21 12a9 9 0 1 1-18 0 9 9 0 0 1 18 0Zm-1.5 0a7.5 7.5 0 1 1-15 0 7.5 7.5 0 0 1 15 0Z" clip-rule="evenodd"/>
</svg>
