<svg xmlns="http://www.w3.org/2000/svg" width="24" height="24" fill="currentColor" viewBox="0 0 24 24">
  <path fill="#000" fill-rule="evenodd" d="M9.162 4.81a.751.751 0 1 1-1.303.752l-.823-1.425a.751.751 0 1 1 1.303-.752l.823 1.425Zm3.2 13.251c.336.84 1.525.84 1.861 0l1.488-3.717c.127-.317.378-.568.696-.695l3.72-1.487c.84-.336.84-1.526 0-1.862l-3.72-1.487a1.248 1.248 0 0 1-.696-.695L14.223 4.4c-.336-.84-1.525-.84-1.862 0l-1.488 3.718a1.248 1.248 0 0 1-.695.695L6.458 10.3c-.84.336-.84 1.526 0 1.862l3.457 1.382-5.939 5.932a.751.751 0 1 0 1.064 1.063l5.939-5.932 1.382 3.454Zm1.953-4.276-1.023 2.554-1.022-2.554a2.752 2.752 0 0 0-1.534-1.533l-2.555-1.021 2.555-1.022c.7-.28 1.254-.833 1.534-1.532l1.022-2.555 1.023 2.555a2.75 2.75 0 0 0 1.533 1.532l2.555 1.022-2.555 1.021c-.7.28-1.253.834-1.533 1.533ZM7.356 7.399a.751.751 0 0 0-.275-1.027L5.655 5.55a.753.753 0 0 0-.753 1.302l1.426.822c.36.208.82.085 1.028-.275Z" clip-rule="evenodd"/>
</svg>
