<svg xmlns="http://www.w3.org/2000/svg" width="16" height="16" fill="currentColor" viewBox="0 0 16 16">
  <path fill="#000" fill-rule="evenodd" d="M5.646 2.544a.624.624 0 1 1-1.082.624l-.64-1.106a.624.624 0 1 1 1.083-.624l.64 1.106ZM4.016 3.74a.624.624 0 1 1-.625 1.082l-1.106-.638A.624.624 0 1 1 2.91 3.1l1.107.639Zm5.423 9.119a.775.775 0 0 1-1.44 0l-1.063-2.657-4.493 4.49a.626.626 0 0 1-.885-.884l4.534-4.53-2.791-1.115a.775.775 0 0 1 0-1.44l3.107-1.242a.625.625 0 0 0 .348-.348L8 2.027a.775.775 0 0 1 1.439 0l1.243 3.106c.063.159.19.285.348.348l3.108 1.242c.65.26.65 1.18 0 1.44L11.03 9.405a.625.625 0 0 0-.348.348L9.439 12.86Zm-.72-1.566.802-2.004c.19-.477.568-.854 1.045-1.045l2.004-.8-2.004-.802a1.875 1.875 0 0 1-1.045-1.045L8.72 3.593l-.802 2.004c-.19.477-.568.854-1.045 1.045l-2.004.801 2.004.801c.477.19.854.568 1.045 1.045l.802 2.004Z" clip-rule="evenodd"/>
</svg>
