<svg xmlns="http://www.w3.org/2000/svg" width="16" height="16" fill="currentColor" viewBox="0 0 16 16">
  <path fill="#000" fill-rule="evenodd" d="M12.794 1.682a.625.625 0 0 1 .884 0l1.762 1.762a.625.625 0 0 1 0 .884L13.678 6.09a.625.625 0 0 1-.884-.883l.695-.696h-1.11a4.063 4.063 0 0 0-3.515 2.026L8.016 8l.848 1.463a4.064 4.064 0 0 0 3.516 2.026h1.109l-.695-.695a.625.625 0 1 1 .884-.884l1.762 1.762a.625.625 0 0 1 0 .884l-1.762 1.762a.625.625 0 1 1-.884-.884l.695-.695h-1.11a5.314 5.314 0 0 1-4.596-2.649l-.49-.844-.47.813a5.314 5.314 0 0 1-4.598 2.649H1.002a.625.625 0 0 1 0-1.25h1.223c1.45 0 2.789-.772 3.516-2.026L6.57 8l-.83-1.432a4.064 4.064 0 0 0-3.516-2.026H1.002a.625.625 0 1 1 0-1.25h1.223a5.314 5.314 0 0 1 4.597 2.649l.471.813.49-.844a5.314 5.314 0 0 1 4.597-2.649h1.11l-.696-.695a.625.625 0 0 1 0-.884Z" clip-rule="evenodd"/>
</svg>
