<svg xmlns="http://www.w3.org/2000/svg" width="24" height="24" fill="currentColor" viewBox="0 0 24 24">
  <path fill="#000" fill-rule="evenodd" d="M18.348 4.22a.75.75 0 0 1 1.061 0l2.121 2.122a.75.75 0 0 1 0 1.06l-2.12 2.123a.75.75 0 0 1-1.06-1.06l.835-.836h-1.689a5.25 5.25 0 0 0-4.518 2.576l-1.064 1.799 1.064 1.798a5.25 5.25 0 0 0 4.518 2.577h1.694l-.84-.841a.75.75 0 1 1 1.06-1.061l2.121 2.121a.75.75 0 0 1 0 1.06L19.41 19.78a.75.75 0 0 1-1.06-1.06l.84-.841h-1.694a6.75 6.75 0 0 1-5.81-3.313l-.644-1.09-.644 1.09a6.75 6.75 0 0 1-5.81 3.313H3a.75.75 0 0 1 0-1.5h1.588A5.25 5.25 0 0 0 9.106 13.8l1.064-1.798-1.064-1.799a5.25 5.25 0 0 0-4.518-2.576H3a.75.75 0 1 1 0-1.5h1.588a6.75 6.75 0 0 1 5.809 3.312l.644 1.09.645-1.09a6.75 6.75 0 0 1 5.81-3.312h1.699l-.847-.847a.75.75 0 0 1 0-1.06Z" clip-rule="evenodd"/>
</svg>
