<svg xmlns="http://www.w3.org/2000/svg" width="24" height="24" fill="currentColor" viewBox="0 0 24 24">
  <path fill="#000" d="M20.137 4.126a.75.75 0 0 0-1.502 0v2.36a8.61 8.61 0 0 0-6.625-3.1c-4.763 0-8.624 3.86-8.624 8.62s3.861 8.62 8.624 8.62 8.625-3.86 8.625-8.62v-.053c0-.06.002-.146 0-.215a.74.74 0 0 0-1.48.045c.002.04.001.073 0 .117v.106a7.143 7.143 0 0 1-7.145 7.14 7.143 7.143 0 0 1-7.145-7.14 7.143 7.143 0 0 1 7.145-7.14 7.133 7.133 0 0 1 5.621 2.731h-2.47a.75.75 0 1 0 0 1.501h3.724c.691 0 1.252-.56 1.252-1.25V4.126Z"/>
</svg>
