<svg xmlns="http://www.w3.org/2000/svg" width="24" height="24" fill="currentColor" viewBox="0 0 24 24">
  <path fill="#000" fill-rule="evenodd" d="M12 4.25A7.75 7.75 0 0 0 4.25 12a.75.75 0 0 1-1.5 0 9.25 9.25 0 0 1 16.86-5.26V5.346a.75.75 0 0 1 1.5 0v2.742c0 .69-.559 1.25-1.25 1.25h-2.74a.75.75 0 1 1 0-1.5h1.42A7.744 7.744 0 0 0 12 4.25Zm8.5 7a.75.75 0 0 1 .75.75 9.25 9.25 0 0 1-16.813 5.326v1.323a.75.75 0 0 1-1.5 0v-2.742c0-.69.56-1.25 1.25-1.25h2.742a.75.75 0 0 1 0 1.5H5.458A7.75 7.75 0 0 0 19.75 12a.75.75 0 0 1 .75-.75Z" clip-rule="evenodd"/>
</svg>
