<svg xmlns="http://www.w3.org/2000/svg" width="16" height="16" fill="currentColor" viewBox="0 0 16 16">
  <path fill="#000" fill-rule="evenodd" d="M8 2.502A5.498 5.498 0 0 0 2.502 8a.625.625 0 1 1-1.25 0 6.748 6.748 0 0 1 12.146-4.05v-.857a.625.625 0 1 1 1.25 0v2.2a.875.875 0 0 1-.875.875h-2.2a.625.625 0 1 1 0-1.25h.98A5.492 5.492 0 0 0 8 2.502Zm6.123 4.873c.345 0 .625.28.625.625a6.748 6.748 0 0 1-12.112 4.095v.809a.625.625 0 0 1-1.25 0v-2.198c0-.484.391-.876.875-.876h2.198a.625.625 0 0 1 0 1.25H3.445A5.498 5.498 0 0 0 13.498 8c0-.345.28-.625.625-.625Z" clip-rule="evenodd"/>
</svg>
