<svg xmlns="http://www.w3.org/2000/svg" width="16" height="16" fill="currentColor" viewBox="0 0 16 16">
  <path fill="#000" fill-rule="evenodd" d="M13.736 3.057a.625.625 0 0 0-.884.884l.52.52H1.127a.625.625 0 0 0 0 1.25h12.226l-.501.5a.625.625 0 1 0 .884.885l1.577-1.578a.625.625 0 0 0 0-.884l-1.577-1.577ZM1.559 13.122a1 1 0 0 1-1-1V9.721a1 1 0 0 1 1-1H3.96a1 1 0 0 1 1 1v2.401a1 1 0 0 1-1 1h-2.4Zm5.362.004A1.125 1.125 0 0 1 5.796 12V9.841c0-.621.504-1.125 1.125-1.125h2.158c.621 0 1.125.504 1.125 1.125V12c0 .62-.504 1.125-1.125 1.125H6.921Zm.125-1.25h1.908v-1.91H7.046v1.909Zm5.168 1.25A1.125 1.125 0 0 1 11.09 12V9.841c0-.621.504-1.125 1.125-1.125h2.159c.621 0 1.125.504 1.125 1.125V12c0 .62-.504 1.125-1.125 1.125h-2.159Zm.125-1.25h1.909v-1.91h-1.909v1.909Z" clip-rule="evenodd"/>
</svg>
