<svg xmlns="http://www.w3.org/2000/svg" width="24" height="24" fill="currentColor" viewBox="0 0 24 24">
  <path fill="#000" fill-rule="evenodd" d="M18.596 5.345a.75.75 0 0 1 1.06 0l2.122 2.121a.75.75 0 0 1 0 1.06l-2.121 2.122a.75.75 0 1 1-1.061-1.06l.829-.83H2.763a.75.75 0 1 1 0-1.5h16.686l-.853-.853a.75.75 0 0 1 0-1.06Zm-9.47 11.78c0 .966.784 1.75 1.75 1.75h2.248a1.75 1.75 0 0 0 1.75-1.75v-2.248a1.75 1.75 0 0 0-1.75-1.75h-2.248a1.75 1.75 0 0 0-1.75 1.75v2.248Zm1.75.25a.25.25 0 0 1-.25-.25v-2.248a.25.25 0 0 1 .25-.25h2.248a.25.25 0 0 1 .25.25v2.248a.25.25 0 0 1-.25.25h-2.248Zm5.376-.25c0 .967.784 1.75 1.75 1.75h2.248a1.75 1.75 0 0 0 1.75-1.75v-2.248a1.75 1.75 0 0 0-1.75-1.75h-2.248a1.75 1.75 0 0 0-1.75 1.75v2.248Zm1.75.25a.25.25 0 0 1-.25-.25v-2.248a.25.25 0 0 1 .25-.25h2.248a.25.25 0 0 1 .25.25v2.248a.25.25 0 0 1-.25.25h-2.248ZM3.5 18.875a1.5 1.5 0 0 1-1.5-1.5v-2.748a1.5 1.5 0 0 1 1.5-1.5h2.747a1.5 1.5 0 0 1 1.5 1.5v2.748a1.5 1.5 0 0 1-1.5 1.5H3.5Z" clip-rule="evenodd"/>
</svg>
