<svg xmlns="http://www.w3.org/2000/svg" width="24" height="24" fill="currentColor" viewBox="0 0 24 24">
  <path fill="#000" fill-rule="evenodd" d="M2.5 4.492c0-.967.784-1.75 1.75-1.75h4.49c.966 0 1.75.783 1.75 1.75v1.247a1.75 1.75 0 0 1-1.75 1.75H4.25a1.75 1.75 0 0 1-1.75-1.75V4.492Zm1.75-.25a.25.25 0 0 0-.25.25v1.247c0 .138.112.25.25.25h4.49a.25.25 0 0 0 .25-.25V4.492a.25.25 0 0 0-.25-.25H4.25ZM2.5 11.119c0-.966.784-1.75 1.75-1.75h4.49c.966 0 1.75.784 1.75 1.75v1.247a1.75 1.75 0 0 1-1.75 1.75H4.25a1.75 1.75 0 0 1-1.75-1.75V11.12Zm1.75-.25a.25.25 0 0 0-.25.25v1.247c0 .138.112.25.25.25h4.49a.25.25 0 0 0 .25-.25V11.12a.25.25 0 0 0-.25-.25H4.25Zm0 5.128a1.75 1.75 0 0 0-1.75 1.75v1.247c0 .967.784 1.75 1.75 1.75h4.49a1.75 1.75 0 0 0 1.75-1.75v-1.247a1.75 1.75 0 0 0-1.75-1.75H4.25ZM4 17.747a.25.25 0 0 1 .25-.25h4.49a.25.25 0 0 1 .25.25v1.247a.25.25 0 0 1-.25.25H4.25a.25.25 0 0 1-.25-.25v-1.247Zm10.292-.126.843-.844a.75.75 0 0 0-1.06-1.06l-1.769 1.769a1.25 1.25 0 0 0 0 1.768l1.769 1.77a.75.75 0 1 0 1.06-1.061l-.841-.842h4.361a2.845 2.845 0 0 0 2.846-2.846V7.211a2.845 2.845 0 0 0-2.846-2.846h-5.912a.75.75 0 0 0 0 1.5h5.912c.743 0 1.346.603 1.346 1.346v9.064c0 .744-.603 1.346-1.346 1.346h-4.363Z" clip-rule="evenodd"/>
</svg>
