<svg xmlns="http://www.w3.org/2000/svg" width="16" height="16" fill="currentColor" viewBox="0 0 16 16">
  <path fill="#000" fill-rule="evenodd" d="M.625 1.624c0-.483.391-.874.874-.874h4.508c.483 0 .874.391.874.874v2.032a.874.874 0 0 1-.874.873H1.5a.874.874 0 0 1-.874-.873V1.624ZM1.875 2v1.28h3.756V2H1.875ZM.625 6.787c0-.482.391-.874.874-.874h4.508c.483 0 .874.392.874.874V8.82a.874.874 0 0 1-.874.874H1.5a.874.874 0 0 1-.874-.874V6.787Zm1.25.376v1.28h3.756v-1.28H1.875Zm-.376 3.914a.874.874 0 0 0-.874.873v2.033c0 .482.391.873.874.873h4.508a.874.874 0 0 0 .874-.873V11.95a.874.874 0 0 0-.874-.873H1.5Zm.376 2.53v-1.28h3.756v1.28H1.875Zm8.136-1.265.57-.57a.625.625 0 0 0-.884-.884l-1.541 1.543a.775.775 0 0 0 0 1.095l1.54 1.542a.624.624 0 1 0 .885-.884l-.592-.592H13.5c1.036 0 1.875-.84 1.875-1.875V3.89A1.874 1.874 0 0 0 13.5 2.015H8.573a.625.625 0 1 0 0 1.25H13.5c.346 0 .625.28.625.625v7.827c0 .345-.28.625-.625.625h-3.489Z" clip-rule="evenodd"/>
</svg>
