<svg xmlns="http://www.w3.org/2000/svg" width="16" height="16" fill="currentColor" viewBox="0 0 16 16">
  <path fill="#000" d="M13.085.749c.345 0 .625.28.625.625v2.602c0 .43-.348.777-.777.777h-2.601a.625.625 0 0 1 0-1.25h1.395a5.737 5.737 0 0 0-6.733-.723 5.756 5.756 0 0 0-2.648 6.567.626.626 0 0 1-1.2.347A7.008 7.008 0 0 1 4.37 1.697a6.984 6.984 0 0 1 8.09.785V1.374c0-.345.28-.625.625-.625Zm.57 5.911a.626.626 0 0 1 1.2-.348 7.008 7.008 0 0 1-3.225 7.997 6.984 6.984 0 0 1-8.09-.785v1.102a.625.625 0 1 1-1.25 0V12.03c0-.429.348-.777.777-.777h2.601a.625.625 0 0 1 0 1.25H4.274a5.737 5.737 0 0 0 6.732.724 5.756 5.756 0 0 0 2.649-6.568Z"/>
</svg>
