<svg xmlns="http://www.w3.org/2000/svg" width="16" height="16" fill="currentColor" viewBox="0 0 16 16">
  <path fill="#000" fill-rule="evenodd" d="M1.125 13.001c0 1.036.839 1.875 1.875 1.875h10c1.036 0 1.875-.84 1.875-1.875V2.998c0-1.035-.84-1.875-1.875-1.875H3c-1.036 0-1.875.84-1.875 1.875v10.003ZM3 13.626a.625.625 0 0 1-.625-.625V2.998c0-.345.28-.625.625-.625h10c.345 0 .625.28.625.625v10.003c0 .345-.28.625-.625.625H3Zm8.587-9.751c.346 0 .625.28.625.625v6.999a.625.625 0 1 1-1.25 0V4.5c0-.345.28-.625.625-.625ZM6.805 6.087c.345 0 .625.28.625.625V11.5a.625.625 0 1 1-1.25 0V6.712c0-.345.28-.625.625-.625ZM4.413 8.853c.345 0 .625.28.625.625v2.021a.625.625 0 1 1-1.25 0v-2.02c0-.345.28-.625.625-.625Zm5.408-1.131a.625.625 0 1 0-1.25 0v3.777a.625.625 0 1 0 1.25 0V7.722Z" clip-rule="evenodd"/>
</svg>
