<svg xmlns="http://www.w3.org/2000/svg" width="24" height="24" fill="currentColor" viewBox="0 0 24 24">
  <path fill="#000" fill-rule="evenodd" d="M3.375 17.876a2.75 2.75 0 0 0 2.75 2.75h11.75a2.75 2.75 0 0 0 2.75-2.75V6.123a2.75 2.75 0 0 0-2.75-2.75H6.125a2.75 2.75 0 0 0-2.75 2.75v11.753Zm2.75 1.25c-.69 0-1.25-.56-1.25-1.25V6.123c0-.69.56-1.25 1.25-1.25h11.75c.69 0 1.25.56 1.25 1.25v11.753c0 .69-.56 1.25-1.25 1.25H6.125ZM16.5 6.752a.75.75 0 0 1 .75.75v8.995a.75.75 0 0 1-1.5 0V7.502a.75.75 0 0 1 .75-.75Zm-6 2.647a.75.75 0 0 1 .75.75v6.348a.75.75 0 0 1-1.5 0v-6.348a.75.75 0 0 1 .75-.75Zm-3 3.91a.75.75 0 0 1 .75.75v2.438a.75.75 0 0 1-1.5 0v-2.439a.75.75 0 0 1 .75-.75Zm6.75-1.992a.75.75 0 0 0-1.5 0v5.18a.75.75 0 0 0 1.5 0v-5.18Z" clip-rule="evenodd"/>
</svg>
