<svg xmlns="http://www.w3.org/2000/svg" width="24" height="24" fill="currentColor" viewBox="0 0 24 24">
  <path fill="#000" fill-rule="evenodd" d="M20.75 19.004a1.75 1.75 0 0 1-1.75 1.75H5a1.75 1.75 0 0 1-1.75-1.75V5c0-.967.784-1.75 1.75-1.75h3.333c.967 0 1.75.783 1.75 1.75v3.56h3.583c.967 0 1.75.783 1.75 1.75v3.61H19c.966 0 1.75.784 1.75 1.75v3.334ZM4.75 8.56h3.833V5a.25.25 0 0 0-.25-.25H5a.25.25 0 0 0-.25.25v3.56Zm5.333 1.5h3.583a.25.25 0 0 1 .25.25v3.584h-3.833V10.06Zm-1.5.026v3.808H4.75v-3.808h3.833ZM19 19.254a.25.25 0 0 0 .25-.25V15.67a.25.25 0 0 0-.25-.25h-3.584v3.834H19Zm-5.084 0V15.42h-3.833v3.834h3.833Zm-5.333 0V15.42H4.75v3.584c0 .138.112.25.25.25h3.583Z" clip-rule="evenodd"/>
</svg>
