<svg xmlns="http://www.w3.org/2000/svg" width="16" height="16" fill="currentColor" viewBox="0 0 16 16">
  <path fill="#000" fill-rule="evenodd" d="M15 14.125a.875.875 0 0 1-.875.875H1.875A.875.875 0 0 1 1 14.125l.001-7.624V1.875A.873.873 0 0 1 1.876 1h3.749c.483 0 .875.391.875.875v3.354h3.375c.483 0 .875.392.875.875V9.5h3.375c.483 0 .875.392.875.875v3.75ZM2.25 5.229h3V2.25h-3v2.98ZM6.5 6.48h3v3h-3v-3Zm-1.25.022V9.48H2.251V6.5H5.25ZM6.5 13.75h3v-3h-3v3Zm-1.25 0h-3v-3h3v3Zm5.5-3v3h3v-3h-3Z" clip-rule="evenodd"/>
</svg>
