<svg xmlns="http://www.w3.org/2000/svg" width="24" height="24" fill="currentColor" viewBox="0 0 24 24">
  <path fill="#000" fill-rule="evenodd" d="M4.874 4.501a.75.75 0 1 0-1.5 0V17.5a2.75 2.75 0 0 0 2.75 2.75h13.752a.75.75 0 0 0 0-1.5H6.124c-.69 0-1.25-.56-1.25-1.25v-13Zm3.212.4a.75.75 0 0 0-1.5 0c0 1.141.002 2.574.193 4.017.19 1.442.575 2.95 1.377 4.234 1.105 1.766 2.81 2.706 4.775 3.204 1.946.494 4.215.573 6.542.573a.75.75 0 0 0 0-1.5c-2.325 0-4.426-.083-6.173-.527-1.728-.438-3.037-1.21-3.872-2.545-.643-1.028-.986-2.3-1.162-3.635-.176-1.332-.18-2.671-.18-3.821Z" clip-rule="evenodd"/>
</svg>
