<svg xmlns="http://www.w3.org/2000/svg" width="16" height="16" fill="currentColor" viewBox="0 0 16 16">
  <path fill="#000" fill-rule="evenodd" d="M3.865 3h-.593a.772.772 0 0 0-.772.771v8.463c0 .426.346.772.772.772h3.166a4.404 4.404 0 0 1 4.904-6.325v-2.91A.772.772 0 0 0 10.57 3h-.592A1.402 1.402 0 0 1 8.6 4.14H5.24A1.402 1.402 0 0 1 3.866 3Zm6.11-1.25h.595a2.02 2.02 0 0 1 2.022 2.021v3.412a4.404 4.404 0 1 1-5.182 7.073H3.272a2.022 2.022 0 0 1-2.022-2.022V3.771c0-1.117.905-2.022 2.022-2.022h.596A1.402 1.402 0 0 1 5.242.624H8.6a1.4 1.4 0 0 1 1.374 1.125Zm-4.884.275a.15.15 0 0 1 .15-.151h3.36c.083 0 .151.068.151.151v.713a.151.151 0 0 1-.151.151H5.24a.151.151 0 0 1-.15-.15v-.714Zm2.1 8.947a3.154 3.154 0 1 0 6.309 0 3.154 3.154 0 0 0-6.309 0Zm3.686-1.52a.625.625 0 1 0-1.25 0v1.505a.625.625 0 0 0 .352.578l1.268.732a.625.625 0 1 0 .624-1.082l-.994-.574V9.45Z" clip-rule="evenodd"/>
</svg>
