<svg xmlns="http://www.w3.org/2000/svg" width="24" height="24" fill="currentColor" viewBox="0 0 24 24">
  <path fill="#000" fill-rule="evenodd" d="M7.393 5.499H6.75c-.69 0-1.25.56-1.25 1.25v10.996c0 .69.56 1.25 1.25 1.25h4.254a5.75 5.75 0 0 1 6.248-8.798V6.75c0-.69-.56-1.25-1.25-1.25h-.643A1.75 1.75 0 0 1 13.627 7H9.125a1.75 1.75 0 0 1-1.732-1.5Zm7.966-1.5h.643a2.75 2.75 0 0 1 2.75 2.75v4.095a5.75 5.75 0 1 1-6.25 9.651H6.75A2.75 2.75 0 0 1 4 17.745V6.749a2.75 2.75 0 0 1 2.75-2.75h.643A1.75 1.75 0 0 1 9.125 2.5h4.502c.881 0 1.61.651 1.732 1.499Zm-6.484.251a.25.25 0 0 1 .25-.25h4.502a.25.25 0 0 1 .25.25v.999a.25.25 0 0 1-.25.25H9.125a.25.25 0 0 1-.25-.25V4.25Zm2.626 11.5a4.25 4.25 0 1 0 8.5 0 4.25 4.25 0 0 0-8.5 0Zm4.877-2.002a.75.75 0 0 0-1.5 0v1.982a.754.754 0 0 0 .39.678l1.713.99a.75.75 0 1 0 .75-1.3l-1.353-.78v-1.57Z" clip-rule="evenodd"/>
</svg>
