<svg xmlns="http://www.w3.org/2000/svg" width="16" height="16" fill="currentColor" viewBox="0 0 16 16">
  <path fill="#000" fill-rule="evenodd" d="M11.368 8.958a1.125 1.125 0 0 0 0-1.916L7.15 4.448a1.125 1.125 0 0 0-1.714.958v5.188c0 .88.964 1.42 1.714.959l4.218-2.595ZM6.686 5.63 10.54 8l-3.854 2.37V5.63Z" clip-rule="evenodd"/>
  <path fill="#000" fill-rule="evenodd" d="M.55 8a7.5 7.5 0 1 0 15 0 7.5 7.5 0 0 0-15 0ZM1.8 8a6.25 6.25 0 1 0 12.5 0A6.25 6.25 0 0 0 1.8 8Z" clip-rule="evenodd"/>
</svg>
