<svg xmlns="http://www.w3.org/2000/svg" width="24" height="24" fill="currentColor" viewBox="0 0 24 24">
  <path fill="#000" fill-rule="evenodd" d="M15.668 13.49a1.75 1.75 0 0 0 0-2.98l-4.24-2.61c-1.167-.716-2.668.123-2.668 1.492v5.216c0 1.369 1.501 2.208 2.667 1.49l4.241-2.607Zm-.785-1.703a.25.25 0 0 1 0 .426L10.64 14.82a.25.25 0 0 1-.38-.213V9.392a.25.25 0 0 1 .38-.213l4.242 2.608Z" clip-rule="evenodd"/>
  <path fill="#000" fill-rule="evenodd" d="M3 12a9 9 0 1 0 18 0 9 9 0 0 0-18 0Zm1.5 0a7.5 7.5 0 1 0 15 0 7.5 7.5 0 0 0-15 0Z" clip-rule="evenodd"/>
</svg>
