<svg xmlns="http://www.w3.org/2000/svg" width="24" height="24" fill="currentColor" viewBox="0 0 24 24">
  <path fill="#000" fill-rule="evenodd" d="M13.442 3.018a2.607 2.607 0 0 0-2.884.013c-1.216.826-3.085 1.826-5.048 2.117-1.125.167-2.134 1.102-2.134 2.367v3.889c0 3.374 1.74 5.982 3.619 7.72.941.87 1.934 1.538 2.798 1.991.432.227.84.404 1.2.527.348.117.702.201 1.009.201.307 0 .66-.084 1.008-.201.36-.123.769-.3 1.2-.527a13.329 13.329 0 0 0 2.798-1.992c1.878-1.737 3.617-4.345 3.617-7.719v-3.9c0-1.265-1.014-2.183-2.117-2.37-1.976-.336-3.852-1.31-5.066-2.116Zm-2.04 1.253c.354-.24.849-.243 1.211-.003 1.31.87 3.385 1.96 5.644 2.345.53.09.868.5.868.891v3.9c0 2.823-1.45 5.06-3.136 6.618-.84.777-1.723 1.37-2.476 1.765a7.04 7.04 0 0 1-.985.434c-.288.098-.46.122-.526.122s-.239-.024-.527-.122a7.047 7.047 0 0 1-.985-.434 11.836 11.836 0 0 1-2.477-1.765c-1.686-1.558-3.137-3.795-3.137-6.618v-3.89c0-.403.341-.806.855-.882 2.278-.338 4.364-1.473 5.67-2.36ZM14 11.741a2 2 0 1 1-4 0 2 2 0 0 1 4 0Zm1.5 0a3.5 3.5 0 1 1-7 0 3.5 3.5 0 0 1 7 0Z" clip-rule="evenodd"/>
</svg>
