<svg xmlns="http://www.w3.org/2000/svg" width="16" height="16" fill="currentColor" viewBox="0 0 16 16">
  <path fill="#000" fill-rule="evenodd" d="M3 14.373a1.875 1.875 0 0 1-1.875-1.875V3.502c0-1.036.84-1.875 1.875-1.875h10c1.035 0 1.875.84 1.875 1.875v8.996c0 1.036-.84 1.875-1.875 1.875H3Zm-.625-1.875c0 .345.28.625.625.625h10c.345 0 .625-.28.625-.625v-1.956H2.375v1.956Zm0-3.206h11.25V6.709H2.375v2.583Zm11.25-5.79v1.957H2.375V3.502c0-.345.28-.625.625-.625h10c.345 0 .625.28.625.625Z" clip-rule="evenodd"/>
</svg>
