<svg xmlns="http://www.w3.org/2000/svg" width="24" height="24" fill="currentColor" viewBox="0 0 24 24">
  <path fill="#000" fill-rule="evenodd" d="M6.125 20.127a2.75 2.75 0 0 1-2.75-2.75V6.623a2.75 2.75 0 0 1 2.75-2.75h11.75a2.75 2.75 0 0 1 2.75 2.75v10.754a2.75 2.75 0 0 1-2.75 2.75H6.125Zm-1.25-2.75c0 .69.56 1.25 1.25 1.25h11.75c.69 0 1.25-.56 1.25-1.25V15.21H4.875v2.168Zm0-3.668h14.25v-3.418H4.875v3.418Zm0-4.918h14.25V6.623c0-.69-.56-1.25-1.25-1.25H6.125c-.69 0-1.25.56-1.25 1.25v2.168Z" clip-rule="evenodd"/>
</svg>
