<svg xmlns="http://www.w3.org/2000/svg" width="16" height="16" fill="currentColor" viewBox="0 0 16 16">
  <path fill="#000" fill-rule="evenodd" d="M3 14.876a1.874 1.874 0 0 1-1.875-1.873V2.998c0-1.035.84-1.874 1.874-1.874h7.053c.496 0 .973.197 1.324.548l2.95 2.947c.352.352.55.829.55 1.326v7.058a1.874 1.874 0 0 1-1.874 1.873H2.999Zm-.625-1.873c0 .345.28.624.624.624h.895V8.865c0-.619.502-1.12 1.12-1.12h5.957c.618 0 1.12.501 1.12 1.12v4.762h.91c.346 0 .625-.28.625-.624V5.945a.624.624 0 0 0-.183-.442l-2.95-2.947a.625.625 0 0 0-.441-.183h-.088V4.77a1.12 1.12 0 0 1-1.12 1.12h-3.83a1.12 1.12 0 0 1-1.12-1.12V2.373h-.895a.625.625 0 0 0-.624.625v10.005Zm8.467.624V8.994H5.143v4.633h5.699ZM5.143 2.373h3.572v2.269H5.143V2.373Z" clip-rule="evenodd"/>
</svg>
