<svg xmlns="http://www.w3.org/2000/svg" width="24" height="24" fill="currentColor" viewBox="0 0 24 24">
  <path fill="#000" fill-rule="evenodd" d="M6.375 20.376a2.75 2.75 0 0 1-2.75-2.75V6.374a2.75 2.75 0 0 1 2.75-2.75h7.93c.73 0 1.428.289 1.944.804l3.32 3.317a2.75 2.75 0 0 1 .806 1.945v7.936a2.75 2.75 0 0 1-2.75 2.75H6.375Zm-1.25-2.75c0 .69.56 1.25 1.25 1.25h.523V13.45c0-.967.783-1.75 1.75-1.75h6.715c.966 0 1.75.783 1.75 1.75v5.426h.512c.69 0 1.25-.56 1.25-1.25V9.69c0-.332-.132-.65-.366-.884l-3.32-3.317a1.25 1.25 0 0 0-.744-.358v2.245a1.75 1.75 0 0 1-1.75 1.75H8.648a1.75 1.75 0 0 1-1.75-1.75V5.124h-.523c-.69 0-1.25.56-1.25 1.25v11.252Zm10.488 1.25V13.45a.25.25 0 0 0-.25-.25H8.648a.25.25 0 0 0-.25.25v5.426h7.215ZM8.398 5.124h4.547v2.252a.25.25 0 0 1-.25.25H8.648a.25.25 0 0 1-.25-.25V5.124Z" clip-rule="evenodd"/>
</svg>
