<svg xmlns="http://www.w3.org/2000/svg" width="24" height="24" fill="currentColor" viewBox="0 0 24 24">
  <path fill="#000" fill-rule="evenodd" d="M10.684 4.336a2.75 2.75 0 0 1 2.631 0L20.72 8.37c.561.306.82.882.777 1.436v5.443a.75.75 0 1 1-1.5 0v-3.851l-1.706.93v4.394c0 .646-.282 1.336-.913 1.735A10.333 10.333 0 0 1 12 19.999c-2.368 0-4.307-.865-5.378-1.543-.63-.4-.913-1.089-.913-1.735v-4.395l-2.427-1.322c-1.044-.569-1.044-2.067 0-2.635l7.403-4.033Zm-3.476 8.807v3.578c0 .236.1.395.215.467A8.829 8.829 0 0 0 12 18.5c2.014 0 3.68-.742 4.577-1.31.116-.074.215-.232.215-.468v-3.578l-3.476 1.894a2.75 2.75 0 0 1-2.63 0l-3.477-1.894Zm5.39-7.49a1.25 1.25 0 0 0-1.196 0L3.998 9.686l7.404 4.033a1.25 1.25 0 0 0 1.196 0l7.404-4.033-7.404-4.033Z" clip-rule="evenodd"/>
</svg>
