<svg xmlns="http://www.w3.org/2000/svg" width="24" height="24" fill="currentColor" viewBox="0 0 24 24">
  <path fill="#000" fill-rule="evenodd" d="M5.877 5.749c0-.69.56-1.25 1.25-1.25h5.16v3.352a2.25 2.25 0 0 0 2.25 2.25h3.587v8.15c0 .69-.56 1.25-1.25 1.25H7.127c-.69 0-1.25-.56-1.25-1.25V5.749ZM17.68 8.601l-3.89-3.752-.003-.003v3.005c0 .414.336.75.75.75h3.143ZM7.127 3a2.75 2.75 0 0 0-2.75 2.75v12.502a2.75 2.75 0 0 0 2.75 2.75h9.747a2.75 2.75 0 0 0 2.75-2.75V9.559a2.75 2.75 0 0 0-.841-1.98l-3.95-3.81a2.75 2.75 0 0 0-1.91-.77H7.127Zm6.036 9.515a.789.789 0 0 1 1.083 0l2.092 2.006a.713.713 0 0 1 0 1.038l-2.092 2.006a.789.789 0 0 1-1.083 0 .713.713 0 0 1 0-1.038l1.55-1.487-1.55-1.487a.713.713 0 0 1 0-1.038Zm-3.408 0a.789.789 0 0 1 1.083 0 .713.713 0 0 1 0 1.038l-1.55 1.487 1.55 1.487a.713.713 0 0 1 0 1.038.789.789 0 0 1-1.083 0l-2.092-2.006a.713.713 0 0 1 0-1.038l2.092-2.006Z" clip-rule="evenodd"/>
</svg>
