<svg xmlns="http://www.w3.org/2000/svg" width="16" height="16" fill="currentColor" viewBox="0 0 16 16">
  <path fill="#000" fill-rule="evenodd" d="M7.407 2.77a5.618 5.618 0 1 0 5.823 5.824H9.032a1.625 1.625 0 0 1-1.625-1.625V2.77Zm7.077 5.614a6.868 6.868 0 1 1-6.868-6.867c.285-.505.835-.852 1.505-.752a7.289 7.289 0 0 1 6.114 6.114c.1.67-.247 1.22-.751 1.505ZM8.657 2.309c0-.106.043-.194.1-.248A.203.203 0 0 1 8.935 2 6.039 6.039 0 0 1 14 7.066a.203.203 0 0 1-.06.179.344.344 0 0 1-.248.1H9.03a.375.375 0 0 1-.374-.375V2.31Z" clip-rule="evenodd"/>
</svg>
