<svg xmlns="http://www.w3.org/2000/svg" width="24" height="24" fill="currentColor" viewBox="0 0 24 24">
  <path fill="#000" fill-rule="evenodd" d="M11.305 5.214a7.27 7.27 0 1 0 7.48 7.481h-5.23a2.25 2.25 0 0 1-2.25-2.25v-5.23Zm8.983 7.141.001.125a8.769 8.769 0 1 1-8.644-8.768c.407-.652 1.144-1.085 2.033-.929a9.312 9.312 0 0 1 7.54 7.54c.155.888-.278 1.626-.93 2.032Zm-7.483-7.463c0-.211.086-.392.206-.505a.455.455 0 0 1 .407-.127 7.812 7.812 0 0 1 6.322 6.322.455.455 0 0 1-.127.407.697.697 0 0 1-.505.206h-5.553a.75.75 0 0 1-.75-.75V4.892Z" clip-rule="evenodd"/>
</svg>
