<svg xmlns="http://www.w3.org/2000/svg" width="16" height="16" fill="currentColor" viewBox="0 0 16 16">
  <path fill="#000" fill-rule="evenodd" d="M13.32 1.078c.998-.363 1.966.604 1.602 1.601l-4.194 11.5c-.38 1.043-1.83 1.108-2.303.104L6.468 10.13a1.249 1.249 0 0 0-.597-.597L1.717 7.575C.713 7.102.778 5.652 1.82 5.272l11.5-4.194Zm-.058 2.506L9.555 13.751 7.598 9.597a2.497 2.497 0 0 0-.122-.226l5.786-5.787Zm-.85-.845L2.25 6.445l4.154 1.957c.077.037.153.077.225.121l5.785-5.784Z" clip-rule="evenodd"/>
</svg>
