<svg xmlns="http://www.w3.org/2000/svg" width="24" height="24" fill="currentColor" viewBox="0 0 24 24">
  <path fill="#000" fill-rule="evenodd" d="M17.716 3.709c1.608-.586 3.168.973 2.582 2.581l-4.73 12.97c-.613 1.68-2.95 1.786-3.713.167l-2.021-4.29c-.2-.424-.54-.764-.964-.964l-4.29-2.022c-1.62-.762-1.514-3.1.168-3.713l12.968-4.73Zm.92 2.729L14.15 18.742a.503.503 0 0 1-.929.042L11.2 14.493a3.52 3.52 0 0 0-.22-.398l7.657-7.657ZM17.57 5.37l-7.657 7.657a3.517 3.517 0 0 0-.398-.22l-4.291-2.022a.503.503 0 0 1 .042-.928L17.568 5.37Z" clip-rule="evenodd"/>
</svg>
