<svg xmlns="http://www.w3.org/2000/svg" width="24" height="24" fill="currentColor" viewBox="0 0 24 24">
  <path fill="#000" d="M3 12a9 9 0 0 1 15.866-5.819V4.999a.75.75 0 0 1 1.5 0v2.5c0 .69-.56 1.25-1.25 1.25h-2.5a.75.75 0 0 1 0-1.5h1.188A7.5 7.5 0 1 0 19.5 12v-.235a.75.75 0 0 1 1.5-.045c.002.072 0 .16 0 .224V12a9 9 0 1 1-18 0Z"/>
  <path fill="#000" fill-rule="evenodd" d="M8.76 9.392c0-1.37 1.501-2.208 2.667-1.491l4.241 2.608a1.75 1.75 0 0 1 0 2.982l-4.24 2.608c-1.167.717-2.668-.122-2.668-1.49V9.391Zm1.881-.213a.25.25 0 0 0-.38.213v5.216a.25.25 0 0 0 .38.213l4.242-2.608a.25.25 0 0 0 0-.426L10.64 9.179Z" clip-rule="evenodd"/>
</svg>
