<svg xmlns="http://www.w3.org/2000/svg" width="16" height="16" fill="currentColor" viewBox="0 0 16 16">
  <path fill="#000" d="M13.145 3.44v-.744a.625.625 0 1 1 1.249 0V4.82a.774.774 0 0 1-.775.774h-2.122a.625.625 0 1 1 0-1.249h.779A5.625 5.625 0 1 0 13.626 8v-.175a.625.625 0 0 1 1.248-.038c.002.056.001.125 0 .173V8a6.875 6.875 0 1 1-1.73-4.559Z"/>
  <path fill="#000" fill-rule="evenodd" d="M11.057 7.042a1.124 1.124 0 0 1 0 1.915L7.31 11.261a1.124 1.124 0 0 1-1.713-.958V5.696c0-.88.964-1.419 1.713-.958l3.746 2.304Zm-.828.957L6.848 5.92v4.16L10.229 8Z" clip-rule="evenodd"/>
</svg>
