<svg xmlns="http://www.w3.org/2000/svg" width="24" height="24" fill="currentColor" viewBox="0 0 24 24">
  <path fill="#1F2328" fill-rule="evenodd" d="M8.399 12a3.604 3.604 0 1 1 7.207 0A3.604 3.604 0 0 1 8.4 12Zm3.604-2.104a2.104 2.104 0 1 0 0 4.208 2.104 2.104 0 0 0 0-4.208Z" clip-rule="evenodd"/>
  <path fill="#1F2328" fill-rule="evenodd" d="M9.321 4.466a2.25 2.25 0 0 1 2.199-1.773h.878a2.25 2.25 0 0 1 2.199 1.773l.137.634a.75.75 0 0 0 .357.489l.91.528a.75.75 0 0 0 .605.066l.613-.196a2.25 2.25 0 0 1 2.635 1.019l.4.693a2.25 2.25 0 0 1-.436 2.79l-.481.436a.75.75 0 0 0-.246.553l-.002 1.053a.75.75 0 0 0 .246.556l.477.434a2.25 2.25 0 0 1 .436 2.79l-.394.683a2.25 2.25 0 0 1-2.635 1.02l-.613-.197a.75.75 0 0 0-.605.066l-.91.528a.75.75 0 0 0-.357.49l-.137.633a2.25 2.25 0 0 1-2.2 1.773h-.877a2.25 2.25 0 0 1-2.2-1.773l-.137-.633a.75.75 0 0 0-.356-.49l-.91-.528a.75.75 0 0 0-.605-.066l-.614.197a2.25 2.25 0 0 1-2.634-1.018l-.396-.685a2.25 2.25 0 0 1 .436-2.79l.477-.434a.75.75 0 0 0 .246-.556l-.003-1.053a.75.75 0 0 0-.245-.553l-.48-.436a2.25 2.25 0 0 1-.436-2.79l.4-.695a2.25 2.25 0 0 1 2.635-1.018l.614.197a.75.75 0 0 0 .605-.066l.91-.528a.75.75 0 0 0 .356-.49l.138-.633Zm2.199-.273a.75.75 0 0 0-.733.591l-.138.634a2.25 2.25 0 0 1-1.07 1.468l-.91.528c-.55.32-1.209.391-1.814.197l-.614-.196a.75.75 0 0 0-.878.34l-.401.693a.75.75 0 0 0 .145.93l.48.437a2.25 2.25 0 0 1 .737 1.66l.003 1.052a2.25 2.25 0 0 1-.737 1.67l-.477.434a.75.75 0 0 0-.146.93l.396.685a.75.75 0 0 0 .878.339l.614-.197a2.25 2.25 0 0 1 1.815.197l.91.529c.547.317.935.85 1.07 1.468l.137.634a.75.75 0 0 0 .733.59h.878a.75.75 0 0 0 .733-.59l.137-.634a2.25 2.25 0 0 1 1.07-1.468l.91-.529a2.25 2.25 0 0 1 1.815-.197l.613.197a.75.75 0 0 0 .879-.34l.394-.684a.75.75 0 0 0-.146-.93l-.477-.433a2.25 2.25 0 0 1-.737-1.67l.002-1.053a2.25 2.25 0 0 1 .737-1.66l.481-.437a.75.75 0 0 0 .145-.93l-.4-.693a.75.75 0 0 0-.878-.34l-.613.196a2.25 2.25 0 0 1-1.815-.197l-.91-.528a2.25 2.25 0 0 1-1.07-1.468l-.137-.634a.75.75 0 0 0-.733-.59h-.878Z" clip-rule="evenodd"/>
</svg>
