<svg xmlns="http://www.w3.org/2000/svg" width="16" height="16" fill="currentColor" viewBox="0 0 16 16">
  <path fill="#000" fill-rule="evenodd" d="M8 5.098a2.901 2.901 0 1 0 0 5.803 2.901 2.901 0 0 0 0-5.803ZM6.348 8a1.65 1.65 0 1 1 3.3 0 1.65 1.65 0 0 1-3.3 0Z" clip-rule="evenodd"/>
  <path fill="#000" fill-rule="evenodd" d="M7.508.612a1.63 1.63 0 0 0-1.593 1.285l-.157.72a.38.38 0 0 1-.18.248l-.857.498a.38.38 0 0 1-.307.033l-.7-.224a1.63 1.63 0 0 0-1.909.738l-.461.8a1.63 1.63 0 0 0 .315 2.022l.546.496a.38.38 0 0 1 .124.28l.003.991a.38.38 0 0 1-.125.282l-.543.494a1.63 1.63 0 0 0-.316 2.023l.457.792a1.63 1.63 0 0 0 1.91.738l.7-.224a.38.38 0 0 1 .306.033l.857.498a.38.38 0 0 1 .18.248l.157.72a1.63 1.63 0 0 0 1.593 1.285h.985a1.63 1.63 0 0 0 1.593-1.285l.157-.72a.38.38 0 0 1 .18-.248l.857-.498a.38.38 0 0 1 .307-.033l.7.224a1.63 1.63 0 0 0 1.909-.739l.457-.792a1.63 1.63 0 0 0-.317-2.021l-.543-.495a.38.38 0 0 1-.125-.282l.002-.99a.38.38 0 0 1 .125-.281l.546-.496a1.63 1.63 0 0 0 .316-2.022l-.461-.8a1.63 1.63 0 0 0-1.91-.738l-.699.224a.38.38 0 0 1-.306-.033l-.858-.498a.38.38 0 0 1-.18-.248l-.157-.72A1.63 1.63 0 0 0 8.493.612h-.985Zm-.371 1.55a.38.38 0 0 1 .371-.3h.985a.38.38 0 0 1 .371.3l.157.72c.097.449.378.835.775 1.065l.857.497a1.63 1.63 0 0 0 1.315.143l.7-.224a.38.38 0 0 1 .445.172l.46.8a.38.38 0 0 1-.073.471l-.546.496a1.63 1.63 0 0 0-.534 1.203l-.003.991c0 .461.193.901.535 1.211l.544.494a.38.38 0 0 1 .073.471l-.457.793a.38.38 0 0 1-.444.172l-.7-.224a1.63 1.63 0 0 0-1.315.143l-.857.497a1.63 1.63 0 0 0-.775 1.064l-.157.72a.38.38 0 0 1-.371.3h-.985a.38.38 0 0 1-.371-.3l-.156-.72a1.63 1.63 0 0 0-.775-1.064l-.858-.497a1.63 1.63 0 0 0-1.315-.143l-.7.224a.38.38 0 0 1-.445-.172l-.457-.793a.38.38 0 0 1 .073-.47l.544-.495c.341-.31.535-.75.534-1.21l-.002-.992a1.63 1.63 0 0 0-.534-1.203L2.5 5.806a.38.38 0 0 1-.073-.47l.461-.8a.38.38 0 0 1 .445-.173l.7.224c.439.14.917.089 1.315-.143l.858-.497a1.63 1.63 0 0 0 .775-1.064l.156-.72Z" clip-rule="evenodd"/>
</svg>
