<svg xmlns="http://www.w3.org/2000/svg" width="16" height="16" fill="currentColor" viewBox="0 0 16 16">
  <path fill="#000" fill-rule="evenodd" d="M7.878 2.147c0-.675.81-1.025 1.307-.566l6.191 5.717a.768.768 0 0 1 0 1.131l-6.191 5.715c-.498.459-1.307.108-1.307-.566V10.39c-1.127.07-2.01.34-2.863.862-.995.61-1.986 1.586-3.272 3.1-.467.55-1.392.221-1.367-.52.104-3.037 1.292-5.158 2.882-6.523a8.314 8.314 0 0 1 4.62-1.944V2.147Zm1.254 1.086v2.578a.777.777 0 0 1-.762.774c-1.316.031-2.961.524-4.292 1.666-1.062.912-1.946 2.256-2.295 4.167.89-.961 1.711-1.698 2.574-2.226 1.198-.735 2.44-1.045 3.988-1.065a.775.775 0 0 1 .787.772v2.593l5.015-4.629-5.015-4.63Z" clip-rule="evenodd"/>
</svg>
