<svg xmlns="http://www.w3.org/2000/svg" width="24" height="24" fill="currentColor" viewBox="0 0 24 24">
  <path fill="#000" fill-rule="evenodd" d="m12.416 8.276-.004-3.13c-.002-1.078 1.272-1.647 2.077-.928l6.642 5.927c.78.697.782 1.916.003 2.61l-6.624 5.894c-.803.715-2.078.142-2.08-.935l-.004-3.082c-1.458.075-2.674.385-3.845 1.014-1.255.675-2.5 1.738-3.946 3.36a1.24 1.24 0 0 1-1.381.337 1.195 1.195 0 0 1-.76-1.244c.673-6.893 6.13-9.526 9.922-9.823Zm-8.31 9.088c1.281-1.356 2.488-2.353 3.763-3.038 1.481-.796 3.01-1.148 4.78-1.202a1.241 1.241 0 0 1 1.275 1.242l.004 2.794 6.208-5.526a.25.25 0 0 0 0-.373L13.91 5.706l.005 2.791a1.266 1.266 0 0 1-1.201 1.26c-3.159.18-7.658 2.22-8.608 7.607Z" clip-rule="evenodd"/>
</svg>
