<svg xmlns="http://www.w3.org/2000/svg" width="24" height="24" fill="currentColor" viewBox="0 0 24 24">
  <path fill="#000" fill-rule="evenodd" d="M13.516 7.42a3.703 3.703 0 1 1 .544 1.418l-3.674 2.12a3.706 3.706 0 0 1-.001 2.091l3.674 2.121a3.703 3.703 0 1 1-.543 1.419l-3.838-2.216a3.704 3.704 0 1 1 .001-4.738l3.837-2.216Zm1.454-.59a2.203 2.203 0 1 0 4.406 0 2.203 2.203 0 0 0-4.406 0Zm-8.14 7.377a2.204 2.204 0 1 1 0-4.408 2.204 2.204 0 0 1 0 4.409Zm10.343 5.171a2.203 2.203 0 1 1 0-4.407 2.203 2.203 0 0 1 0 4.407Z" clip-rule="evenodd"/>
</svg>
