<svg xmlns="http://www.w3.org/2000/svg" width="16" height="16" fill="currentColor" viewBox="0 0 16 16">
  <path fill="#000" fill-rule="evenodd" d="M9.149 4.384a2.942 2.942 0 1 1 .455 1.18l-2.83 1.634a2.945 2.945 0 0 1 0 1.606l2.829 1.633a2.942 2.942 0 1 1-.454 1.18l-2.964-1.71a2.943 2.943 0 1 1 0-3.811L9.15 4.383Zm1.216-.443a1.693 1.693 0 1 0 3.385 0 1.693 1.693 0 0 0-3.385 0ZM3.942 9.694a1.694 1.694 0 1 1 0-3.387 1.694 1.694 0 0 1 0 3.387Zm8.116 4.058a1.693 1.693 0 1 1 0-3.386 1.693 1.693 0 0 1 0 3.386Z" clip-rule="evenodd"/>
</svg>
