<svg xmlns="http://www.w3.org/2000/svg" width="24" height="24" fill="currentColor" viewBox="0 0 24 24">
  <path fill="#000" fill-rule="evenodd" d="M12.051 5.871c-1.61-.71-3.138.234-3.654 1.305a.75.75 0 1 0 1.352.65c.23-.477.956-.91 1.697-.582.595.263 1.161 1.34.252 2.395-.128.148-.335.345-.624.618l-.06.058A19.42 19.42 0 0 0 10 11.333c-.666.732-1.412 1.733-1.493 2.867-.04.553.41.954.892.954h3.606a.75.75 0 0 0 0-1.5h-2.822c.189-.415.513-.857.927-1.313.306-.337.631-.65.935-.938l.083-.078c.261-.248.525-.498.705-.707 1.595-1.85.696-4.094-.783-4.747Zm-7.18 8.562V7.486l-.601.341a.75.75 0 0 1-.741-1.304l1.348-.766a1 1 0 0 1 1.494.87v7.806a.75.75 0 0 1-1.5 0Zm13.24-7.306c-.697 0-1.312.539-1.382 1.104a.75.75 0 0 1-1.489-.185c.177-1.42 1.527-2.42 2.87-2.42 1.53 0 2.74 1.248 2.74 2.765 0 .64-.28 1.262-.64 1.73a3.32 3.32 0 0 1-.268.309c.092.091.178.188.258.287.361.452.65 1.052.65 1.702 0 1.516-1.21 2.764-2.74 2.764-1.343 0-2.693-.998-2.87-2.42a.75.75 0 1 1 1.489-.184c.07.565.685 1.104 1.381 1.104.681 0 1.24-.556 1.24-1.264 0-.212-.102-.49-.322-.765-.218-.273-.489-.46-.703-.531a.75.75 0 0 1 .082-1.446c.145-.03.39-.177.614-.47.22-.286.33-.595.33-.816 0-.708-.56-1.264-1.24-1.264ZM3.75 18.375a.75.75 0 0 1 0-1.5h16.497a.75.75 0 0 1 0 1.5H3.75Z" clip-rule="evenodd"/>
</svg>
