<svg xmlns="http://www.w3.org/2000/svg" width="16" height="16" fill="currentColor" viewBox="0 0 16 16">
  <path fill="#000" fill-rule="evenodd" d="M2.251 9.946v-5.51l-.45.254a.625.625 0 1 1-.615-1.088l1.092-.618a.82.82 0 0 1 1.223.714v6.248a.625.625 0 0 1-1.25 0ZM8.05 3.08c-1.305-.573-2.543.187-2.963 1.054a.625.625 0 0 0 1.125.545c.18-.37.75-.711 1.335-.454.465.204.911 1.045.194 1.872a8.32 8.32 0 0 1-.5.493l-.048.046c-.245.232-.536.51-.816.815-.535.587-1.14 1.394-1.204 2.311a.736.736 0 0 0 .736.786h2.899a.625.625 0 0 0 0-1.25H6.579c.151-.316.401-.654.72-1.004.246-.269.507-.519.751-.75l.067-.062a9.2 9.2 0 0 0 .568-.566c1.294-1.494.563-3.309-.636-3.836Zm4.857 1.053c-.552 0-1.032.425-1.086.86a.625.625 0 1 1-1.24-.154c.143-1.153 1.24-1.956 2.326-1.956a2.225 2.225 0 0 1 2.223 2.235c0 .52-.228 1.022-.519 1.4-.06.078-.127.155-.199.229.068.068.131.14.19.213.293.364.528.849.528 1.377a2.225 2.225 0 0 1-2.223 2.234c-1.086 0-2.183-.803-2.327-1.955a.625.625 0 0 1 1.24-.155c.055.435.535.86 1.087.86a.976.976 0 0 0 .973-.984c0-.161-.079-.378-.252-.594-.173-.215-.387-.362-.555-.417a.625.625 0 0 1 .069-1.206c.11-.023.301-.135.48-.366.174-.226.258-.467.258-.636a.975.975 0 0 0-.973-.985Zm-11.53 8.99a.625.625 0 1 1 0-1.25h13.247a.625.625 0 0 1 0 1.25H1.376Z" clip-rule="evenodd"/>
</svg>
