<svg xmlns="http://www.w3.org/2000/svg" width="24" height="24" fill="currentColor" viewBox="0 0 24 24">
  <path fill="#000" d="M16.75 18.125a.75.75 0 0 0 1.5 0V5.875a.75.75 0 0 0-1.5 0v12.25Z"/>
  <path fill="#000" fill-rule="evenodd" d="M8.64 5.591c-1.135-.974-2.89-.168-2.89 1.328v10.103c0 1.496 1.755 2.302 2.89 1.327l5.881-5.051a1.75 1.75 0 0 0 0-2.655L8.641 5.59ZM7.25 6.92a.25.25 0 0 1 .413-.19l5.88 5.052a.25.25 0 0 1 0 .379l-5.88 5.051a.25.25 0 0 1-.413-.19V6.92Z" clip-rule="evenodd"/>
</svg>
