<svg xmlns="http://www.w3.org/2000/svg" width="24" height="24" fill="currentColor" viewBox="0 0 24 24">
  <path fill="#000" d="M7.507 18.125a.75.75 0 0 1-1.5 0V5.875a.75.75 0 1 1 1.5 0v12.25Z"/>
  <path fill="#000" fill-rule="evenodd" d="M15.617 5.591c1.134-.974 2.89-.168 2.89 1.328v10.103c0 1.496-1.756 2.302-2.89 1.327l-5.881-5.051a1.75 1.75 0 0 1 0-2.655l5.88-5.052Zm1.39 1.328a.25.25 0 0 0-.413-.19l-5.88 5.052a.25.25 0 0 0 0 .379l5.88 5.051a.25.25 0 0 0 .413-.19V6.92Z" clip-rule="evenodd"/>
</svg>
