<svg xmlns="http://www.w3.org/2000/svg" width="24" height="24" fill="currentColor" viewBox="0 0 24 24">
  <path fill="#000" d="M12.563 4.8c0-1.011.827-1.831 1.839-1.831 1.011 0 1.839.82 1.839 1.831v4.633a1.838 1.838 0 0 1-1.84 1.831 1.838 1.838 0 0 1-1.838-1.831V4.8Zm4.857 4.743a1.838 1.838 0 1 1 1.847 1.843h-1.846V9.543Zm-6.036 9.604a1.838 1.838 0 0 1-1.838 1.831 1.838 1.838 0 0 1-1.84-1.831v-4.633c0-1.011.828-1.831 1.84-1.831 1.011 0 1.838.82 1.838 1.831v4.633Zm-4.857-4.743A1.838 1.838 0 1 1 4.68 12.56h1.847v1.843Zm12.62-1.841a1.839 1.839 0 0 1 0 3.678h-4.632a1.838 1.838 0 0 1-1.832-1.839c0-1.011.82-1.839 1.832-1.839h4.632Zm-4.743 4.857a1.838 1.838 0 1 1-1.842 1.847V17.42h1.842ZM4.8 11.384a1.838 1.838 0 0 1-1.831-1.84c0-1.01.82-1.838 1.831-1.838h4.633c1.011 0 1.831.827 1.831 1.839 0 1.011-.82 1.839-1.831 1.839H4.8Zm4.743-4.858a1.838 1.838 0 1 1 1.843-1.846v1.846H9.543Z"/>
</svg>
