<svg xmlns="http://www.w3.org/2000/svg" width="16" height="16" fill="currentColor" viewBox="0 0 16 16">
  <path fill="#000" fill-rule="evenodd" d="M9.862 1a1.41 1.41 0 0 0-1.41 1.405v3.554a1.41 1.41 0 0 0 1.41 1.405 1.41 1.41 0 0 0 1.411-1.405V2.405A1.41 1.41 0 0 0 9.863 1ZM6.138 15a1.41 1.41 0 0 0 1.41-1.405v-3.554a1.41 1.41 0 0 0-1.41-1.405 1.41 1.41 0 0 0-1.411 1.405v3.554A1.41 1.41 0 0 0 6.137 15Zm7.457-6.547A1.41 1.41 0 0 1 15 9.864a1.41 1.41 0 0 1-1.405 1.41h-3.554a1.41 1.41 0 0 1-1.405-1.41c0-.776.63-1.41 1.405-1.41h3.554ZM1 6.137c0 .776.629 1.41 1.405 1.41h3.554a1.41 1.41 0 0 0 1.405-1.41 1.41 1.41 0 0 0-1.405-1.41H2.405A1.41 1.41 0 0 0 1 6.136ZM4.73 2.41c0 .776.63 1.411 1.406 1.411h1.413V2.405a1.409 1.409 0 0 0-2.818.006Zm8.86 2.32a1.41 1.41 0 0 0-1.412 1.405V7.55h1.417a1.409 1.409 0 0 0-.006-2.819ZM2.41 11.27a1.41 1.41 0 0 0 1.411-1.405V8.45H2.405a1.409 1.409 0 0 0 .006 2.819Zm7.454.909a1.41 1.41 0 1 1-1.413 1.416V12.18h1.413Z" clip-rule="evenodd"/>
</svg>
