<svg xmlns="http://www.w3.org/2000/svg" width="24" height="24" fill="currentColor" viewBox="0 0 24 24">
  <path fill="#000" fill-rule="evenodd" d="M15.842 3.43a.75.75 0 0 1 .974.418l.826 2.073c.063-.003.125-.005.189-.005h.647c.056 0 .112.002.168.005l.83-2.074a.75.75 0 0 1 1.393.558l-.797 1.99a2.897 2.897 0 0 1 .125 4.75l-.596.439c-.502.37-.848.913-.972 1.524l-.637 3.145a4.806 4.806 0 0 1-1.12 2.24l-.463.52a4.806 4.806 0 0 1-3.59 1.611h-7.83c-.762 0-1.495-.332-1.91-.9a1.633 1.633 0 0 1-.326-1.067c.025-.41.21-.785.507-1.094.539-.561 1.25-1.04 2.016-1.387a5.37 5.37 0 0 1-1.146-1.024c-.99-1.177-1.505-2.765-1.505-4.467 0-3.523 2.846-6.384 6.363-6.384 2.426 0 4.632 1.29 5.735 3.29a3.72 3.72 0 0 1 1.457-1.288l-.757-1.9a.75.75 0 0 1 .419-.974ZM4.125 10.684c0-2.7 2.18-4.884 4.863-4.884 2.736 0 4.978 2.054 4.978 4.703v.03c.03.714-.114 1.712-.606 2.573-.172.302-.388.59-.66.846.209-.733.24-1.485.133-2.182-.219-1.418-1.054-2.802-2.37-3.24-2.383-.795-4.024.795-4.237 2.224-.279 1.869 1.03 3.045 2.231 3.293a.75.75 0 0 0 .303-1.47c-.577-.118-1.19-.669-1.05-1.602.086-.578.847-1.5 2.28-1.023.59.197 1.192.952 1.36 2.046.16 1.044-.113 2.218-1.036 3.088-.147.12-.407.244-.774.339a4.877 4.877 0 0 1-1.183.143c-1.328 0-2.364-.533-3.08-1.383-.726-.863-1.152-2.091-1.152-3.501Zm5.789 6.193c.42-.107.851-.273 1.21-.523 1.762-.359 2.883-1.355 3.54-2.505.658-1.154.837-2.438.802-3.361 0-.299-.023-.591-.064-.876l.41-.898a2.219 2.219 0 0 1 2.019-1.299h.647a1.397 1.397 0 0 1 .829 2.52l-.597.44a4.013 4.013 0 0 0-1.551 2.434l-.637 3.145a3.306 3.306 0 0 1-.77 1.541l-.463.52a3.306 3.306 0 0 1-2.47 1.108h-7.83c-.36 0-.608-.16-.7-.286-.04-.055-.04-.084-.04-.09.001-.002.003-.053.092-.146.86-.894 2.366-1.534 3.527-1.534a.758.758 0 0 0 .122-.01 6.374 6.374 0 0 0 1.924-.18Z" clip-rule="evenodd"/>
</svg>
