<svg xmlns="http://www.w3.org/2000/svg" width="16" height="16" fill="currentColor" viewBox="0 0 16 16">
  <path fill="#000" fill-rule="evenodd" d="M11.052 1.169a.625.625 0 0 1 .812.348l.651 1.628c.044-.002.088-.003.133-.003h.524c.037 0 .072 0 .108.002l.654-1.628a.625.625 0 0 1 1.16.466l-.624 1.555a2.328 2.328 0 0 1 .08 3.81l-.476.349a1.966 1.966 0 0 0-.763 1.192l-.51 2.507a3.794 3.794 0 0 1-.889 1.771l-.397.444a3.794 3.794 0 0 1-2.829 1.266H2.378c-.605 0-1.19-.263-1.524-.718A1.32 1.32 0 0 1 .59 13.3c.018-.331.166-.633.402-.882.428-.45.995-.835 1.608-1.116a4.354 4.354 0 0 1-.881-.795C.916 9.557.499 8.275.499 6.903a5.152 5.152 0 0 1 5.153-5.15c1.933 0 3.696 1.008 4.603 2.582a2.997 2.997 0 0 1 1.042-.871l-.594-1.483a.625.625 0 0 1 .349-.812ZM1.748 6.903c0-2.154 1.747-3.9 3.903-3.9 2.2 0 3.996 1.643 3.996 3.755v.025c.024.57-.092 1.366-.485 2.054-.127.22-.283.432-.476.624.15-.569.17-1.15.086-1.69-.177-1.145-.854-2.265-1.925-2.62-1.932-.642-3.27.642-3.444 1.805-.227 1.518.841 2.47 1.816 2.67a.625.625 0 1 0 .251-1.224c-.459-.094-.94-.528-.83-1.261.067-.45.667-1.184 1.813-.804.468.155.949.753 1.084 1.626.128.831-.09 1.766-.828 2.459-.116.092-.323.192-.617.267a3.942 3.942 0 0 1-.95.115c-1.067 0-1.897-.426-2.47-1.104-.582-.689-.924-1.67-.924-2.797ZM6.403 11.9c.338-.086.688-.22.979-.421 1.425-.29 2.333-1.093 2.865-2.02.534-.933.68-1.969.65-2.714 0-.282-.024-.557-.07-.824l.234-.51a1.745 1.745 0 0 1 1.587-1.02h.524a1.078 1.078 0 0 1 .638 1.947l-.476.35a3.215 3.215 0 0 0-1.248 1.95l-.51 2.507c-.09.442-.296.852-.596 1.188l-.397.445a2.544 2.544 0 0 1-1.897.848H2.378c-.27 0-.452-.12-.517-.208a.147.147 0 0 1-.023-.046v-.005l.005-.013a.293.293 0 0 1 .055-.075c.677-.712 1.881-1.226 2.809-1.226a.63.63 0 0 0 .112-.01 5.181 5.181 0 0 0 1.584-.143Z" clip-rule="evenodd"/>
</svg>
