<svg xmlns="http://www.w3.org/2000/svg" width="16" height="16" fill="currentColor" viewBox="0 0 16 16">
  <path fill="#000" d="M12.043 2.604a.775.775 0 0 1 1.096 0l2.179 2.178a.625.625 0 1 1-.884.884l-1.218-1.218v8.55a.625.625 0 0 1-1.25 0V4.449L10.75 5.664a.625.625 0 1 1-.884-.883l2.176-2.177ZM1.124 4.335a.625.625 0 0 1 0-1.25H4.24a.625.625 0 0 1 0 1.25H1.124Zm0 3.128a.625.625 0 0 0 0 1.25h5.532a.625.625 0 1 0 0-1.25H1.124Zm-.625 5.004c0 .345.28.625.625.625H9.18a.625.625 0 0 0 0-1.25H1.124a.625.625 0 0 0-.625.625Z"/>
</svg>
