<svg xmlns="http://www.w3.org/2000/svg" width="16" height="16" fill="currentColor" viewBox="0 0 16 16">
  <path fill="#000" d="M12.043 13.396a.775.775 0 0 0 1.096 0l2.179-2.179a.625.625 0 0 0-.884-.884l-1.218 1.218v-8.55a.625.625 0 1 0-1.25.001v8.548l-1.215-1.215a.625.625 0 1 0-.884.884l2.176 2.177ZM1.124 11.665a.625.625 0 0 0 0 1.25H4.24a.625.625 0 1 0 0-1.25H1.124Zm0-3.128a.625.625 0 0 1 0-1.25h5.532a.625.625 0 1 1 0 1.25H1.124ZM.499 3.533c0-.345.28-.625.625-.625H9.18a.625.625 0 1 1 0 1.25H1.124a.625.625 0 0 1-.625-.625Z"/>
</svg>
