<svg xmlns="http://www.w3.org/2000/svg" width="24" height="24" fill="currentColor" viewBox="0 0 24 24">
  <path fill="#000" d="M17.234 16.511V6.159a.75.75 0 1 1 1.5 0V16.5l1.86-1.864a.749.749 0 0 1 1.062 0 .753.753 0 0 1 0 1.063l-2.44 2.444a1.747 1.747 0 0 1-2.474 0l-2.435-2.44a.753.753 0 0 1 0-1.063.749.749 0 0 1 1.061 0l1.866 1.87ZM2.875 5.974a.75.75 0 0 0 0 1.504h10.838a.75.75 0 0 0 0-1.504H2.876Zm-.75 6.077a.75.75 0 0 1 .75-.752h7.363a.75.75 0 0 1 0 1.504H2.875a.75.75 0 0 1-.75-.752Zm0 5.252a.75.75 0 0 1 .75-.752h3.752a.75.75 0 0 1 0 1.504H2.875a.75.75 0 0 1-.75-.752Z"/>
</svg>
