<svg xmlns="http://www.w3.org/2000/svg" width="24" height="24" fill="currentColor" viewBox="0 0 24 24">
  <path fill="#000" d="M16.742 5.911a1.747 1.747 0 0 1 2.475 0l2.439 2.444a.753.753 0 0 1 0 1.063.749.749 0 0 1-1.061 0l-1.86-1.864v10.342a.75.75 0 1 1-1.5 0V7.544l-1.867 1.87a.749.749 0 0 1-1.06 0 .753.753 0 0 1 0-1.063l2.434-2.44Zm-14.617.815a.75.75 0 0 0 .75.752h3.752a.75.75 0 0 0 0-1.504H2.875a.75.75 0 0 0-.75.752Zm0 5.252a.75.75 0 0 0 .75.752h7.363a.75.75 0 0 0 0-1.504H2.875a.75.75 0 0 0-.75.752Zm.75 6.077a.75.75 0 0 1 0-1.504h10.838a.75.75 0 0 1 0 1.504H2.876Z"/>
</svg>
