<svg xmlns="http://www.w3.org/2000/svg" width="24" height="24" fill="currentColor" viewBox="0 0 24 24">
  <path fill="#000" fill-rule="evenodd" d="M20.624 17.873a2.75 2.75 0 0 1-2.75 2.75H6.126a2.75 2.75 0 0 1-2.75-2.75v-2.112a.75.75 0 0 1 1.5 0v2.112c0 .69.56 1.25 1.25 1.25h11.748c.69 0 1.25-.56 1.25-1.25V6.128c0-.69-.56-1.25-1.25-1.25H6.126c-.69 0-1.25.56-1.25 1.25v2.15a.75.75 0 1 1-1.5 0v-2.15a2.75 2.75 0 0 1 2.75-2.75h11.748a2.75 2.75 0 0 1 2.75 2.75v11.745Zm-3.995-4.987a1.25 1.25 0 0 0 0-1.768l-3.36-3.36a.75.75 0 0 0-1.061 1.06l2.431 2.432H4.126a.75.75 0 0 0 0 1.5h10.517l-2.43 2.43a.75.75 0 1 0 1.06 1.061l3.356-3.355Z" clip-rule="evenodd"/>
</svg>
