<svg xmlns="http://www.w3.org/2000/svg" width="16" height="16" fill="currentColor" viewBox="0 0 16 16">
  <path fill="#000" fill-rule="evenodd" d="M14.877 13a1.875 1.875 0 0 1-1.875 1.876H2.998A1.875 1.875 0 0 1 1.123 13v-2.015a.625.625 0 0 1 1.25 0V13c0 .345.28.625.625.625h10.005c.345 0 .624-.28.624-.625V2.998a.625.625 0 0 0-.625-.625H2.998a.625.625 0 0 0-.625.625v2.046a.625.625 0 1 1-1.25 0V2.998c0-1.035.839-1.875 1.875-1.875h10.005c1.035 0 1.874.84 1.874 1.875v10.003ZM11.8 8.619a.875.875 0 0 0 0-1.237L9.028 4.609a.625.625 0 1 0-.884.883l1.881 1.882H1.748a.625.625 0 1 0 0 1.25h8.279l-1.88 1.879a.625.625 0 1 0 .885.884L11.8 8.618Z" clip-rule="evenodd"/>
</svg>
