<svg xmlns="http://www.w3.org/2000/svg" width="24" height="24" fill="currentColor" viewBox="0 0 24 24">
  <path fill="#000" fill-rule="evenodd" d="M19.927 5.04a.75.75 0 0 0-1.043-1.078L13.415 9.26a.25.25 0 0 1-.318.025L9.94 7.054a1.75 1.75 0 0 0-2.288.236l-4.438 4.753a.75.75 0 1 0 1.097 1.024l4.437-4.754a.25.25 0 0 1 .327-.034l3.158 2.23a1.75 1.75 0 0 0 2.227-.173l5.468-5.296ZM21 8.575c0-1.094-1.306-1.66-2.104-.912l-5.358 5.02a.25.25 0 0 1-.316.02l-3.099-2.207a1.75 1.75 0 0 0-2.308.246L3.457 15.52A1.75 1.75 0 0 0 3 16.7v1.8c0 .966.784 1.75 1.75 1.75h14.5A1.75 1.75 0 0 0 21 18.5V8.575Zm-6.437 5.202L19.5 9.152v9.347a.25.25 0 0 1-.25.25H4.75a.25.25 0 0 1-.25-.25v-1.8a.25.25 0 0 1 .065-.169l4.358-4.777a.25.25 0 0 1 .33-.035l3.098 2.207a1.75 1.75 0 0 0 2.212-.148Z" clip-rule="evenodd"/>
</svg>
