<svg xmlns="http://www.w3.org/2000/svg" width="16" height="16" fill="currentColor" viewBox="0 0 16 16">
  <path fill="#000" fill-rule="evenodd" d="M14.248 13.16c0 .601-.487 1.089-1.088 1.089h-1.454a1.089 1.089 0 0 1-1.088-1.089V2.84c0-.6.487-1.088 1.088-1.088h1.454c.601 0 1.088.487 1.088 1.088v10.32ZM11.869 13h1.13V6.537h-1.13v6.462Zm0-7.712V3.002h1.13v2.285h-1.13ZM4.295 14.25a1.09 1.09 0 0 0 1.089-1.089V6.66c0-.602-.488-1.089-1.089-1.089H2.84c-.6 0-1.088.487-1.088 1.089v6.501c0 .601.487 1.089 1.088 1.089h1.454ZM4.134 13H3.002v-2.653h1.13V13ZM3.002 6.82v2.276h1.13V6.82h-1.13Zm4.43 6.179V8.824h1.131v4.175h-1.13Zm1.131-7.713v2.288h-1.13V5.286h1.13Zm.162 8.963c.6 0 1.088-.488 1.088-1.089V5.124c0-.6-.487-1.088-1.088-1.088H7.27c-.601 0-1.089.487-1.089 1.088v8.036a1.09 1.09 0 0 0 1.089 1.089h1.454Z" clip-rule="evenodd"/>
</svg>
