<svg xmlns="http://www.w3.org/2000/svg" width="24" height="24" fill="currentColor" viewBox="0 0 24 24">
  <path fill="#000" fill-rule="evenodd" d="M20.125 18.375a1.75 1.75 0 0 1-1.75 1.75h-1.122a1.75 1.75 0 0 1-1.75-1.75V5.625c0-.966.783-1.75 1.75-1.75h1.122c.966 0 1.75.784 1.75 1.75v12.75Zm-1.75.25a.25.25 0 0 0 .25-.25V10.01h-1.622v8.364c0 .138.111.25.25.25h1.122ZM17.003 8.51V5.625a.25.25 0 0 1 .25-.25h1.122a.25.25 0 0 1 .25.25v2.886h-1.622ZM6.748 20.125a1.75 1.75 0 0 0 1.75-1.75v-7.743a1.75 1.75 0 0 0-1.75-1.75H5.626a1.75 1.75 0 0 0-1.75 1.75v7.743c0 .966.783 1.75 1.75 1.75h1.122Zm.25-1.75a.25.25 0 0 1-.25.25H5.626a.25.25 0 0 1-.25-.25v-3.369h1.622v3.369Zm0-4.869H5.376v-2.874a.25.25 0 0 1 .25-.25h1.122a.25.25 0 0 1 .25.25v2.874Zm4.188 4.869V13.01h1.622v5.364a.25.25 0 0 1-.25.25h-1.122a.25.25 0 0 1-.25-.25Zm1.622-9.754v2.89h-1.622v-2.89a.25.25 0 0 1 .25-.25h1.122a.25.25 0 0 1 .25.25Zm-.25 11.504a1.75 1.75 0 0 0 1.75-1.75V8.62a1.75 1.75 0 0 0-1.75-1.75h-1.122a1.75 1.75 0 0 0-1.75 1.75v9.754c0 .966.783 1.75 1.75 1.75h1.122Z" clip-rule="evenodd"/>
</svg>
