<svg xmlns="http://www.w3.org/2000/svg" width="16" height="16" fill="currentColor" viewBox="0 0 16 16">
  <path fill="#000" fill-rule="evenodd" d="M8.625 3.99a.625.625 0 0 1-1.25 0V1.125a.625.625 0 1 1 1.25 0V3.99Zm0 10.886a.625.625 0 1 1-1.25 0V12.01a.625.625 0 1 1 1.25 0v2.866ZM.5 8c0 .345.28.625.625.625H3.99a.625.625 0 1 0 0-1.25H1.125A.625.625 0 0 0 .5 8Zm11.51.625a.625.625 0 1 1 0-1.25h2.866a.625.625 0 1 1 0 1.25H12.01Zm-9.314 4.68c.244.244.64.244.884 0l2.026-2.027a.625.625 0 0 0-.884-.883L2.696 12.42a.625.625 0 0 0 0 .883Zm8.581-7.698a.625.625 0 0 1-.884-.884l2.026-2.026a.625.625 0 0 1 .884.884l-2.026 2.026Zm-8.581-2.91a.625.625 0 0 0 0 .884l2.026 2.026a.625.625 0 0 0 .884-.883L3.58 2.698a.625.625 0 0 0-.884 0Zm7.697 8.582a.625.625 0 1 1 .884-.884l2.026 2.026a.625.625 0 1 1-.884.884l-2.026-2.026Z" clip-rule="evenodd"/>
</svg>
