<svg xmlns="http://www.w3.org/2000/svg" width="24" height="24" fill="currentColor" viewBox="0 0 24 24">
  <path fill="#000" fill-rule="evenodd" d="M12.75 7.043a.75.75 0 0 1-1.5 0V3.502a.75.75 0 0 1 1.5 0v3.541Zm0 13.454a.75.75 0 0 1-1.5 0v-3.541a.75.75 0 0 1 1.5 0v3.541ZM2.752 12c0 .415.336.75.75.75h3.541a.75.75 0 0 0 0-1.5H3.502a.75.75 0 0 0-.75.75Zm14.204.75a.75.75 0 0 1 0-1.5h3.542a.75.75 0 1 1 0 1.5h-3.542ZM5.46 18.54a.75.75 0 0 0 1.061 0l2.504-2.504a.75.75 0 0 0-1.06-1.061L5.46 17.478a.75.75 0 0 0 0 1.06Zm10.575-9.515a.75.75 0 1 1-1.06-1.06l2.503-2.505a.75.75 0 0 1 1.06 1.061l-2.503 2.504ZM5.46 5.461a.75.75 0 0 0 0 1.06l2.505 2.505a.75.75 0 1 0 1.06-1.06L6.521 5.46a.75.75 0 0 0-1.06 0Zm9.514 10.573a.75.75 0 1 1 1.06-1.06l2.505 2.504a.75.75 0 1 1-1.06 1.06l-2.505-2.504Z" clip-rule="evenodd"/>
</svg>
