<svg xmlns="http://www.w3.org/2000/svg" width="24" height="24" fill="currentColor" viewBox="0 0 24 24">
  <path fill="#000" fill-rule="evenodd" d="M8.006 8.47c-.062-.885.28-1.664.948-2.239.677-.583 1.72-.979 3.056-.979 2.578 0 3.991 1.91 3.991 3.27a.75.75 0 0 0 1.5 0c0-2.252-2.15-4.77-5.49-4.77-1.625 0-3.037.482-4.036 1.343-1.009.87-1.562 2.1-1.465 3.48.088 1.256.721 2.093 1.557 2.675H3.25a.75.75 0 0 0 0 1.5h8.639c.119.036.237.07.353.106.978.292 1.847.551 2.534.94.742.42 1.16.928 1.218 1.735.062.885-.28 1.663-.948 2.238-.677.583-1.72.98-3.056.98-2.578 0-3.991-1.91-3.991-3.27a.75.75 0 0 0-1.5 0c0 2.25 2.15 4.77 5.49 4.77 1.625 0 3.037-.483 4.036-1.344 1.009-.87 1.562-2.1 1.465-3.48-.088-1.255-.724-2.093-1.561-2.675h4.821a.75.75 0 0 0 0-1.5h-8.64l-.372-.112c-.977-.291-1.84-.55-2.523-.937-.736-.417-1.152-.922-1.209-1.732Z" clip-rule="evenodd"/>
</svg>
