<svg xmlns="http://www.w3.org/2000/svg" width="16" height="16" fill="currentColor" viewBox="0 0 16 16">
  <path fill="#000" fill-rule="evenodd" d="M4.992 5.29c-.047-.662.209-1.244.708-1.675.508-.437 1.294-.738 2.307-.738 1.948 0 3.006 1.443 3.006 2.456a.625.625 0 1 0 1.25 0c0-1.755-1.67-3.706-4.256-3.706-1.253 0-2.347.373-3.123 1.042-.784.676-1.215 1.635-1.14 2.708.065.918.502 1.549 1.089 1.997H1.375a.625.625 0 1 0 0 1.25h6.53l.266.08c.75.224 1.408.42 1.93.716.558.316.865.692.907 1.29.046.662-.21 1.243-.709 1.674-.507.438-1.294.738-2.307.738-1.948 0-3.006-1.443-3.006-2.456a.625.625 0 1 0-1.25 0c0 1.755 1.67 3.706 4.256 3.706 1.253 0 2.348-.372 3.124-1.041.784-.677 1.214-1.636 1.139-2.709-.065-.918-.505-1.55-1.093-1.998h3.464a.625.625 0 1 0 0-1.25H8.09l-.278-.083c-.749-.224-1.404-.42-1.921-.714-.553-.314-.858-.688-.9-1.287Z" clip-rule="evenodd"/>
</svg>
