<svg xmlns="http://www.w3.org/2000/svg" width="24" height="24" fill="currentColor" viewBox="0 0 24 24">
  <path fill="#000" fill-rule="evenodd" d="M19.242 6.001H4.751a.75.75 0 0 0-.75.75l.006 10.498c0 .414.336.75.75.75H19.25a.75.75 0 0 0 .75-.75L19.992 6.75a.75.75 0 0 0-.75-.75Zm-14.491-1.5h14.491a2.25 2.25 0 0 1 2.25 2.25l.007 10.496a2.25 2.25 0 0 1-2.25 2.252H4.757a2.25 2.25 0 0 1-2.25-2.249L2.501 6.753A2.25 2.25 0 0 1 4.751 4.5Zm5.733 8.249a.75.75 0 0 1 .75-.75h6.5a.75.75 0 0 1 0 1.5h-6.5a.75.75 0 0 1-.75-.75ZM6.25 12a.75.75 0 0 0 0 1.5h1.998a.75.75 0 0 0 0-1.5H6.25Zm6.747 3.75a.75.75 0 0 1-.75.75H6.25a.75.75 0 0 1 0-1.5h5.997a.75.75 0 0 1 .75.75Zm4.737.75a.75.75 0 0 0 0-1.5H15.24a.75.75 0 0 0 0 1.5h2.495Z" clip-rule="evenodd"/>
</svg>
