<svg xmlns="http://www.w3.org/2000/svg" width="16" height="16" fill="currentColor" viewBox="0 0 16 16">
  <path fill="#000" fill-rule="evenodd" d="M13.496 3.627H2.499a.375.375 0 0 0-.375.375l.005 7.996c0 .207.168.375.375.375h10.997a.375.375 0 0 0 .375-.375l-.005-7.996a.375.375 0 0 0-.375-.375ZM2.499 2.377h10.997c.897 0 1.624.727 1.625 1.624l.005 7.996c0 .898-.727 1.626-1.625 1.626H2.504A1.625 1.625 0 0 1 .879 12L.874 4.003c0-.898.727-1.626 1.625-1.626Zm4.307 6.179c0-.346.28-.625.625-.625h4.83a.625.625 0 1 1 0 1.25H7.43a.625.625 0 0 1-.625-.625ZM3.727 7.93a.625.625 0 0 0 0 1.25h1.485a.625.625 0 1 0 0-1.25H3.727Zm5.082 2.846c0 .346-.28.625-.625.625H3.727a.625.625 0 1 1 0-1.25h4.457c.345 0 .625.28.625.625Zm3.452.625a.625.625 0 1 0 0-1.25h-1.855a.625.625 0 0 0 0 1.25h1.855Z" clip-rule="evenodd"/>
</svg>
