<svg xmlns="http://www.w3.org/2000/svg" width="24" height="24" fill="currentColor" viewBox="0 0 24 24">
  <path fill="#000" fill-rule="evenodd" d="M4.782 3.721a.75.75 0 0 0-1.08 1.04A2.25 2.25 0 0 0 2.5 6.753l.006 10.497a2.25 2.25 0 0 0 2.25 2.249h13.681l.78.78a.75.75 0 0 0 1.081-1.04 2.25 2.25 0 0 0 1.2-1.992L21.492 6.75a2.25 2.25 0 0 0-2.25-2.249H5.562l-.78-.78Zm.159 2.28h-.19a.75.75 0 0 0-.75.75l.006 10.498c0 .414.336.75.75.75h12.181L15.44 16.5h-.2a.75.75 0 0 1-.73-.929L12.44 13.5h-1.206a.75.75 0 0 1-.251-1.457L4.94 6.001ZM13.06 12 7.062 6.001h12.18a.75.75 0 0 1 .75.75L20 17.248a.75.75 0 0 1-.75.75h-.19L17.561 16.5h.173a.75.75 0 0 0 0-1.5h-1.673l-1.5-1.5h3.174a.75.75 0 0 0 0-1.5H13.06Zm-7.561.75a.75.75 0 0 1 .75-.75h1.998a.75.75 0 0 1 0 1.5H6.25a.75.75 0 0 1-.75-.75Zm6.747 3.75a.75.75 0 0 0 0-1.5H6.25a.75.75 0 0 0 0 1.5h5.997Z" clip-rule="evenodd"/>
</svg>
