<svg xmlns="http://www.w3.org/2000/svg" width="16" height="16" fill="currentColor" viewBox="0 0 16 16">
  <path fill="#000" fill-rule="evenodd" d="M1.813.932a.623.623 0 1 0-.88.881l.77.772c-.495.278-.83.81-.829 1.418l.005 7.996c0 .897.728 1.624 1.625 1.624h10.238l1.445 1.444a.623.623 0 1 0 .88-.88l-.77-.772c.495-.278.83-.809.829-1.418l-.005-7.996c0-.897-.728-1.624-1.625-1.624H3.258L1.813.932Zm.933 2.695h-.247a.375.375 0 0 0-.375.375l.005 7.996c0 .207.168.375.375.375h8.988l-.97-.97h-.116a.625.625 0 0 1-.616-.732L8.3 9.18h-.87a.625.625 0 0 1-.302-1.172L2.746 3.627Zm6.066 4.304L4.508 3.627h8.988c.207 0 .375.168.375.375l.005 7.996a.375.375 0 0 1-.375.375h-.247l-.971-.971a.625.625 0 0 0-.022-1.25h-1.228l-.971-.971h2.199a.625.625 0 1 0 0-1.25H8.81Zm-5.71.625c0-.346.28-.625.625-.625h1.485a.625.625 0 1 1 0 1.25H3.727a.625.625 0 0 1-.625-.625Zm5.082 2.846a.625.625 0 1 0 0-1.25H3.727a.625.625 0 0 0 0 1.25h4.457Z" clip-rule="evenodd"/>
</svg>
