<svg xmlns="http://www.w3.org/2000/svg" width="24" height="24" fill="currentColor" viewBox="0 0 24 24">
  <path fill="#000" fill-rule="evenodd" d="M6.125 20.626a2.75 2.75 0 0 1-2.75-2.75V6.123a2.75 2.75 0 0 1 2.75-2.75h11.75a2.75 2.75 0 0 1 2.75 2.75v11.753a2.75 2.75 0 0 1-2.75 2.75H6.125Zm13-6.349v-3.272h-3.634v3.272h3.634Zm-3.634 1.5h3.634v2.099c0 .69-.56 1.25-1.25 1.25h-2.384v-3.349Zm-1.5-1.5v-3.272h-3.987v3.272h3.987Zm-3.987 1.5h3.987v3.349h-3.987v-3.349Zm-1.5-1.5v-3.272H4.875v3.272h3.629Zm-3.629 1.5h3.629v3.349H6.125c-.69 0-1.25-.56-1.25-1.25v-2.099Zm14.25-9.654v3.382H4.875V6.123c0-.69.56-1.25 1.25-1.25h11.75c.69 0 1.25.56 1.25 1.25Z" clip-rule="evenodd"/>
</svg>
