<svg xmlns="http://www.w3.org/2000/svg" width="16" height="16" fill="currentColor" viewBox="0 0 16 16">
  <path fill="#000" fill-rule="evenodd" d="M3 14.876a1.875 1.875 0 0 1-1.875-1.875V2.998c0-1.035.839-1.875 1.875-1.875h10c1.036 0 1.875.84 1.875 1.875v10.003c0 1.036-.84 1.875-1.875 1.875H3Zm10.625-5.098V7.24h-2.824v2.538h2.824Zm-2.824 1.25h2.824V13c0 .345-.28.625-.625.625h-2.2v-2.598Zm-1.25-1.25V7.24H6.445v2.538h3.106Zm-3.106 1.25h3.106v2.598H6.445v-2.598Zm-1.25-1.25V7.24h-2.82v2.538h2.82Zm-2.82 1.25h2.82v2.598H3a.625.625 0 0 1-.625-.625v-1.973Zm4.07-5.038h7.18V2.998A.625.625 0 0 0 13 2.373H3a.625.625 0 0 0-.625.625V5.99h4.07Z" clip-rule="evenodd"/>
</svg>
