<svg xmlns="http://www.w3.org/2000/svg" width="16" height="16" fill="currentColor" viewBox="0 0 16 16">
  <path fill="#000" fill-rule="evenodd" d="M8.45 1.298A1.875 1.875 0 0 0 6.757.785l-3.75.749a1.875 1.875 0 0 0-1.473 1.472L.786 6.757c-.123.614.07 1.25.513 1.693L7.55 14.7c.732.732 1.92.732 2.652 0l4.5-4.5a1.875 1.875 0 0 0 0-2.651L8.45 1.298Zm-1.448.713a.625.625 0 0 1 .564.171l6.252 6.252a.625.625 0 0 1 0 .883l-4.5 4.5a.625.625 0 0 1-.884 0L2.183 7.566a.625.625 0 0 1-.171-.564L2.76 3.25a.625.625 0 0 1 .49-.49l3.752-.749ZM5.015 5.94a.655.655 0 1 0 .926-.926.655.655 0 0 0-.926.926Zm1.81.884A1.905 1.905 0 1 1 4.131 4.13a1.905 1.905 0 0 1 2.694 2.694Z" clip-rule="evenodd"/>
</svg>
