<svg xmlns="http://www.w3.org/2000/svg" width="24" height="24" fill="currentColor" viewBox="0 0 24 24">
  <path fill="#000" fill-rule="evenodd" d="M12.887 3.808a2.75 2.75 0 0 0-2.483-.752l-4.326.863a2.75 2.75 0 0 0-2.159 2.159l-.863 4.326a2.75 2.75 0 0 0 .752 2.482l7.562 7.562a2.75 2.75 0 0 0 3.89 0l5.188-5.189a2.75 2.75 0 0 0 0-3.889l-7.561-7.562Zm-2.19.719a1.25 1.25 0 0 1 1.13.342l7.56 7.562a1.25 1.25 0 0 1 0 1.767l-5.189 5.19a1.25 1.25 0 0 1-1.767 0l-7.562-7.562a1.25 1.25 0 0 1-.342-1.129l.863-4.325a1.25 1.25 0 0 1 .982-.982l4.326-.863Zm-2.355 5.07A.887.887 0 1 0 9.596 8.34a.887.887 0 0 0-1.254 1.255Zm2.315 1.06A2.387 2.387 0 1 1 7.281 7.28a2.387 2.387 0 0 1 3.376 3.376Z" clip-rule="evenodd"/>
</svg>
