<svg xmlns="http://www.w3.org/2000/svg" width="24" height="24" fill="currentColor" viewBox="0 0 24 24">
  <path fill="#000" fill-rule="evenodd" d="M12.75 3.252a.75.75 0 0 0-1.5 0V4.61a7.43 7.43 0 0 0-6.639 6.639H3.248a.75.75 0 0 0 0 1.5h1.363a7.429 7.429 0 0 0 6.634 6.639v1.363a.75.75 0 1 0 1.5 0V19.39a7.429 7.429 0 0 0 6.644-6.635h1.359a.75.75 0 0 0 0-1.5H19.39a7.43 7.43 0 0 0-6.64-6.644V3.252ZM6.074 12a5.927 5.927 0 1 0 11.853 0 5.927 5.927 0 0 0-11.853 0ZM12 14.386a2.387 2.387 0 1 0 0-4.774 2.387 2.387 0 0 0 0 4.774Z" clip-rule="evenodd"/>
</svg>
