<svg xmlns="http://www.w3.org/2000/svg" width="16" height="16" fill="currentColor" viewBox="0 0 16 16">
  <path fill="#000" fill-rule="evenodd" d="M8.627 1.123a.625.625 0 1 0-1.25 0v1.071a5.84 5.84 0 0 0-5.179 5.18H1.124a.625.625 0 0 0 0 1.25h1.074a5.84 5.84 0 0 0 5.175 5.178v1.075a.625.625 0 1 0 1.25 0v-1.075a5.839 5.839 0 0 0 5.182-5.175h1.072a.625.625 0 1 0 0-1.25h-1.07a5.839 5.839 0 0 0-5.18-5.183v-1.07ZM3.415 7.998a4.587 4.587 0 1 0 9.174 0 4.587 4.587 0 0 0-9.174 0Zm4.586 1.877a1.876 1.876 0 1 0 0-3.752 1.876 1.876 0 0 0 0 3.752Z" clip-rule="evenodd"/>
</svg>
