<svg xmlns="http://www.w3.org/2000/svg" width="24" height="24" fill="currentColor" viewBox="0 0 24 24">
  <path fill="#000" fill-rule="evenodd" d="M3.375 17.877a2.75 2.75 0 0 0 2.75 2.75h11.75a2.75 2.75 0 0 0 2.75-2.75V6.123a2.75 2.75 0 0 0-2.75-2.75H6.125a2.75 2.75 0 0 0-2.75 2.75v11.752Zm2.75 1.25c-.69 0-1.25-.56-1.25-1.25V12.75h5.63v6.377h-4.38Zm5.88 0h5.87c.69 0 1.25-.56 1.25-1.25V12.75h-7.12v6.377Zm7.12-7.877H4.875V6.124c0-.69.56-1.25 1.25-1.25h11.75c.69 0 1.25.56 1.25 1.25v5.126Z" clip-rule="evenodd"/>
</svg>
