<svg xmlns="http://www.w3.org/2000/svg" width="16" height="16" fill="currentColor" viewBox="0 0 16 16">
  <path fill="#000" fill-rule="evenodd" d="M9.035.373 3.514.375c-.981 0-1.77.8-1.77 1.777 0 .356.104.688.284.966a1.773 1.773 0 0 0-.29 2.346 1.772 1.772 0 0 0-.56 1.297c0 .424.148.814.397 1.12a1.776 1.776 0 0 0-.448 1.18c0 .978.789 1.777 1.77 1.778l4.638.003c.188 0 .295.083.34.151.038.059.063.152-.013.292l-.148.266c-.228.41-.48.864-.685 1.303-.252.54-.317 1.07-.177 1.546.141.477.47.826.864 1.026.77.389 1.822.224 2.462-.585a71.565 71.565 0 0 1 1.64-1.983l.347-.41c.581-.689 1.097-1.318 1.514-1.957.861-1.32 1.284-2.656 1.177-4.67-.099-1.876-.746-3.269-1.83-4.182C11.955.736 10.54.373 9.036.373ZM6.236 8.519a.626.626 0 0 0-.144-1.235H2.91a.525.525 0 0 1 .045-1.049h3.13a.626.626 0 0 0 .536-.303.626.626 0 0 0-.534-.953H3.202a.525.525 0 1 1 0-1.05h2.891a.626.626 0 1 0-.005-1.252H3.483a.523.523 0 0 1-.487-.525c0-.294.236-.526.518-.526l5.522-.001c1.318 0 2.41.319 3.184.971.762.642 1.301 1.678 1.386 3.291.093 1.753-.261 2.826-.975 3.92-.37.567-.84 1.144-1.423 1.834l-.34.4c-.497.588-1.06 1.25-1.671 2.024-.263.331-.664.37-.917.243a.424.424 0 0 1-.228-.263c-.034-.117-.044-.33.11-.661.185-.396.41-.8.637-1.209l.159-.286c.293-.532.264-1.122-.035-1.58-.294-.45-.808-.717-1.383-.719l-4.642-.003a.522.522 0 0 1-.519-.526.522.522 0 0 1 .575-.523h3.13a.627.627 0 0 0 .152-.02Z" clip-rule="evenodd"/>
</svg>
