<svg xmlns="http://www.w3.org/2000/svg" width="24" height="24" fill="currentColor" viewBox="0 0 24 24">
  <path fill="#000" fill-rule="evenodd" d="m13.35 2-7.183.002c-1.252 0-2.238 1.033-2.238 2.273 0 .478.147.926.4 1.295a2.267 2.267 0 0 0-.376 3.091 2.266 2.266 0 0 0-.762 1.698c0 .566.207 1.083.548 1.48a2.29 2.29 0 0 0-.612 1.563c0 1.239.986 2.272 2.238 2.272l6.031.004h.001c.259.001.417.116.49.23.066.103.1.26-.014.472l-.193.352a28.324 28.324 0 0 0-.888 1.715c-.321.7-.4 1.38-.225 1.982a2.132 2.132 0 0 0 1.088 1.31c.982.503 2.32.288 3.132-.754a92.17 92.17 0 0 1 2.134-2.622v-.001l.45-.54c.756-.91 1.425-1.739 1.964-2.578 1.258-1.958 1.655-3.477 1.518-6.118-.13-2.486-1.062-4.293-2.487-5.47C16.957 2.491 15.145 2.007 13.35 2Zm-3.82 9.13a.751.751 0 0 1-.01 1.502H5.366a.754.754 0 0 0-.737.77c0 .44.346.77.737.77l6.036.003c.733.003 1.382.35 1.748.92.373.58.41 1.324.043 2.001l-.205.377c-.295.54-.59 1.077-.83 1.602-.208.451-.2.755-.149.934a.63.63 0 0 0 .331.393c.35.179.9.125 1.262-.34a97.08 97.08 0 0 1 2.171-2.67l.443-.53c.756-.91 1.37-1.676 1.855-2.43 1.084-1.689 1.403-2.895 1.281-5.228-.11-2.126-.886-3.517-1.943-4.39-1.073-.887-2.518-1.304-4.064-1.312l-7.177.002a.754.754 0 0 0-.737.77c0 .425.32.746.693.769h3.388a.751.751 0 1 1 .007 1.504H6.168c-.026 0-.052 0-.078-.002h-.306a.77.77 0 0 0 0 1.54h3.73A.751.751 0 0 1 9.97 9.43a.748.748 0 0 1-.463.159H5.463a.77.77 0 1 0 0 1.539H9.53Z" clip-rule="evenodd"/>
</svg>
