<svg xmlns="http://www.w3.org/2000/svg" width="16" height="16" fill="currentColor" viewBox="0 0 16 16">
  <path fill="#000" fill-rule="evenodd" d="M1.625 1.625A.875.875 0 0 0 .75 2.5v1.8c0 .482.392.874.875.874h6.576a.875.875 0 0 0 .875-.875V2.5a.875.875 0 0 0-.875-.875H1.625ZM2 3.925v-1.05h5.826v1.05H2Zm3.002 3.17c0-.483.392-.874.875-.874h5.201V2.25a.585.585 0 1 1 1.17 0v3.97h2.126c.483 0 .875.392.875.876v1.799a.875.875 0 0 1-.875.875h-2.086v3.98a.625.625 0 1 1-1.25 0V9.77H5.877a.875.875 0 0 1-.875-.875v-1.8Zm1.25.376V8.52h7.747V7.47H6.252Zm-3.459 4.231c0-.483.392-.875.875-.875h4.956c.483 0 .875.392.875.875v1.8a.875.875 0 0 1-.875.874H3.668a.875.875 0 0 1-.875-.875v-1.799Zm1.25.375v1.05H8.25v-1.05H4.043Z" clip-rule="evenodd"/>
</svg>
