<svg xmlns="http://www.w3.org/2000/svg" width="24" height="24" fill="currentColor" viewBox="0 0 24 24">
  <path fill="#000" fill-rule="evenodd" d="M4.75 3.749A1.75 1.75 0 0 0 3 5.499v.999c0 .966.784 1.75 1.75 1.75h7.083a1.75 1.75 0 0 0 1.75-1.75v-.999a1.75 1.75 0 0 0-1.75-1.75H4.75Zm-.25 1.75a.25.25 0 0 1 .25-.25h7.083a.25.25 0 0 1 .25.25v.999a.25.25 0 0 1-.25.25H4.75a.25.25 0 0 1-.25-.25v-.999Zm3.448 5.994c0-.966.784-1.75 1.75-1.75h6.047V4.5a.75.75 0 0 1 1.5 0v5.244h2.006c.966 0 1.75.784 1.75 1.75v.999a1.75 1.75 0 0 1-1.75 1.75h-2.006v5.259a.75.75 0 0 1-1.5 0v-5.259H9.698a1.75 1.75 0 0 1-1.75-1.75v-.999Zm1.75-.25a.25.25 0 0 0-.25.25v.999c0 .138.112.25.25.25h9.553a.25.25 0 0 0 .25-.25v-.999a.25.25 0 0 0-.25-.25H9.698Zm-4.075 6.259c0-.966.783-1.75 1.75-1.75h5.003c.966 0 1.75.783 1.75 1.75v.999a1.75 1.75 0 0 1-1.75 1.75H7.373a1.75 1.75 0 0 1-1.75-1.75v-.999Zm1.75-.25a.25.25 0 0 0-.25.25v.999c0 .138.111.25.25.25h5.003a.25.25 0 0 0 .25-.25v-.999a.25.25 0 0 0-.25-.25H7.373Z" clip-rule="evenodd"/>
</svg>
