<svg xmlns="http://www.w3.org/2000/svg" width="16" height="16" fill="currentColor" viewBox="0 0 16 16">
  <path fill="#000" fill-rule="evenodd" d="M2.29 5.473a3.915 3.915 0 0 0 1.093 3.285 3.555 3.555 0 0 0 4.011.712.885.885 0 0 1 1.023.202l3.4 3.715a1.112 1.112 0 1 0 1.57-1.573L9.669 8.422a.886.886 0 0 1-.204-1.025 3.56 3.56 0 0 0-.711-4.013A3.914 3.914 0 0 0 5.47 2.291L7.457 4.28c.217.216.304.53.231.828l-.384 1.56a.875.875 0 0 1-.64.641l-1.56.384a.874.874 0 0 1-.827-.231L2.291 5.473ZM1.278 4.411c.232-.637 1.005-.714 1.415-.304l2.32 2.32 1.133-.279.28-1.135-2.32-2.32c-.41-.41-.333-1.184.304-1.416C6.158.64 8.269 1.131 9.637 2.5a4.808 4.808 0 0 1 1.068 5.175l3.524 3.215a2.364 2.364 0 0 1 .078 3.417 2.36 2.36 0 0 1-3.411-.075L7.672 10.71A4.802 4.802 0 0 1 2.5 9.642C1.131 8.273.64 6.16 1.277 4.41Z" clip-rule="evenodd"/>
</svg>
