<svg xmlns="http://www.w3.org/2000/svg" width="16" height="16" fill="currentColor" viewBox="0 0 16 16">
  <path fill="#000" fill-rule="evenodd" d="m3.087 6.824 4.897-4.528 4.925 4.528h-1.475a.858.858 0 0 0-.858.858v3.255H5.393V7.682a.858.858 0 0 0-.858-.858H3.087Zm5.658-5.526A1.125 1.125 0 0 0 7.22 1.3L1.535 6.557c-.585.54-.202 1.517.594 1.517h2.014v2.987c0 .622.504 1.126 1.125 1.126h5.433c.621 0 1.125-.504 1.125-1.125V8.074h2.045c.798 0 1.18-.98.593-1.519L8.745 1.298ZM4.784 13.75a.625.625 0 1 0 0 1.25h6.433a.625.625 0 1 0 0-1.25H4.784Z" clip-rule="evenodd"/>
</svg>
