<svg xmlns="http://www.w3.org/2000/svg" width="24" height="24" fill="currentColor" viewBox="0 0 24 24">
  <path fill="#000" fill-rule="evenodd" d="M11.81 4.692a.25.25 0 0 1 .339 0l6.457 5.936h-1.914c-.69 0-1.25.56-1.25 1.25v3.604a.25.25 0 0 1-.25.25H8.768a.25.25 0 0 1-.25-.25v-3.604c0-.69-.56-1.25-1.25-1.25H5.39l6.42-5.936Zm1.354-1.104a1.75 1.75 0 0 0-2.373.003l-6.888 6.37c-.835.772-.289 2.167.849 2.167h2.266v3.354c0 .967.783 1.75 1.75 1.75h6.424a1.75 1.75 0 0 0 1.75-1.75v-3.354h2.305c1.14 0 1.685-1.399.846-2.17l-6.929-6.37ZM7.77 19.374a.75.75 0 0 0 0 1.5h8.416a.75.75 0 0 0 0-1.5H7.77Z" clip-rule="evenodd"/>
</svg>
