<svg xmlns="http://www.w3.org/2000/svg" width="24" height="24" fill="currentColor" viewBox="0 0 24 24">
  <path fill="#000" d="M6.427 9.32a.75.75 0 0 1 0-1.061l4-4a2.225 2.225 0 0 1 3.147 0l4 4a.75.75 0 0 1-1.061 1.06L12.75 5.557v9.75a.75.75 0 0 1-1.5 0v-9.75L7.487 9.319a.75.75 0 0 1-1.06 0Z"/>
  <path fill="#000" d="M6.342 18.749a1.217 1.217 0 0 1-1.217-1.217v-4.537a.75.75 0 0 0-1.5 0v4.537c0 1.5 1.217 2.717 2.717 2.717h11.316c1.5 0 2.717-1.217 2.717-2.717v-4.537a.75.75 0 0 0-1.5 0v4.537c0 .672-.545 1.217-1.217 1.217H6.342Z"/>
</svg>
