<svg xmlns="http://www.w3.org/2000/svg" width="16" height="16" fill="currentColor" viewBox="0 0 16 16">
  <path fill="#000" fill-rule="evenodd" d="M3.505 5.644a.615.615 0 0 1 0-.878l3.338-3.293a1.652 1.652 0 0 1 2.314 0l3.338 3.293a.615.615 0 0 1 0 .878.635.635 0 0 1-.89 0l-2.98-2.94v7.667a.625.625 0 1 1-1.25 0V2.704l-2.98 2.94a.635.635 0 0 1-.89 0Zm-.379 7.607a.625.625 0 0 1-.625-.625V8.723a.625.625 0 0 0-1.25 0v3.903c0 1.036.84 1.875 1.875 1.875h9.748c1.035 0 1.875-.84 1.875-1.875V8.723a.625.625 0 1 0-1.25 0v3.903c0 .345-.28.625-.625.625H3.126Z" clip-rule="evenodd"/>
</svg>
