<svg xmlns="http://www.w3.org/2000/svg" width="24" height="24" fill="currentColor" viewBox="0 0 24 24">
  <path fill="#000" fill-rule="evenodd" d="M16.983 2.876c.966 0 1.75.784 1.75 1.75v1.495h2.266a.75.75 0 0 1 0 1.5h-2.266v1.494a1.75 1.75 0 0 1-1.75 1.75h-1.777a1.75 1.75 0 0 1-1.75-1.75V7.621h-1.422a.75.75 0 0 0-.75.75v2.13c0 .575-.216 1.1-.572 1.498.357.399.574.925.574 1.501v2.13c0 .414.335.75.75.75h1.42v-1.495c0-.966.784-1.75 1.75-1.75h1.777c.966 0 1.75.784 1.75 1.75v1.494h2.266a.75.75 0 0 1 0 1.5h-2.266v1.495a1.75 1.75 0 0 1-1.75 1.75h-1.777a1.75 1.75 0 0 1-1.75-1.75V17.88h-1.42a2.25 2.25 0 0 1-2.25-2.25V13.5a.75.75 0 0 0-.75-.75H7.528v1.889a1.75 1.75 0 0 1-1.75 1.75H4a1.75 1.75 0 0 1-1.75-1.75v-5.34c0-.966.783-1.75 1.75-1.75h1.777c.966 0 1.75.784 1.75 1.75v1.951h1.506a.75.75 0 0 0 .75-.75V8.37a2.25 2.25 0 0 1 2.25-2.25h1.422V4.627c0-.966.784-1.75 1.75-1.75h1.777Zm.25 14.253v-2.244a.25.25 0 0 0-.25-.25h-1.777a.25.25 0 0 0-.25.25v4.489c0 .138.112.25.25.25h1.777a.25.25 0 0 0 .25-.25v-2.245Zm0-12.503v4.489a.25.25 0 0 1-.25.25h-1.777a.25.25 0 0 1-.25-.25V4.626a.25.25 0 0 1 .25-.25h1.777a.25.25 0 0 1 .25.25ZM6.028 9.3a.25.25 0 0 0-.25-.25H4a.25.25 0 0 0-.25.25v5.338c0 .139.112.25.25.25h1.777a.25.25 0 0 0 .25-.25V9.3Z" clip-rule="evenodd"/>
</svg>
