<svg xmlns="http://www.w3.org/2000/svg" width="16" height="16" fill="currentColor" viewBox="0 0 16 16">
  <path fill="#000" fill-rule="evenodd" d="M12.395.623c.483 0 .875.392.875.875V3.15h1.603a.625.625 0 1 1 0 1.25H13.27v1.652a.875.875 0 0 1-.875.875H9.96a.875.875 0 0 1-.875-.875V4.4H7.858a.375.375 0 0 0-.375.375v2.228c0 .376-.129.723-.344.999.217.276.345.623.345 1v2.223c0 .207.168.375.375.375h1.227V9.947c0-.483.392-.875.875-.875h2.434c.483 0 .875.392.875.875V11.6h1.603a.625.625 0 1 1 0 1.25H13.27v1.65a.875.875 0 0 1-.875.875H9.96a.875.875 0 0 1-.875-.875v-1.65H7.86a1.625 1.625 0 0 1-1.625-1.625V9.003a.375.375 0 0 0-.375-.375H4.685v1.957a.875.875 0 0 1-.875.875H1.377a.875.875 0 0 1-.875-.875V5.37c0-.483.392-.875.875-.875H3.81c.483 0 .875.392.875.875v2.009h1.173a.375.375 0 0 0 .375-.375V4.775c0-.897.727-1.625 1.625-1.625h1.228V1.498c0-.483.392-.875.875-.875h2.434Zm-.375 9.7h-1.684v3.803h1.684v-3.804Zm0-8.45v3.804h-1.684V1.873h1.684ZM3.435 5.744H1.752v4.466h1.683V5.744Z" clip-rule="evenodd"/>
</svg>
