<svg xmlns="http://www.w3.org/2000/svg" width="16" height="16" fill="currentColor" viewBox="0 0 16 16">
  <path fill="#000" fill-rule="evenodd" d="M2.025 4.694a2.819 2.819 0 1 1 4.743 2.058c.831.486 1.46 1.278 1.882 2.123.163-.138.336-.264.519-.375a2.819 2.819 0 1 1 3.76-.006c.413.25.775.577 1.082.945.702.84 1.148 1.924 1.336 2.954.184 1.002-.658 1.731-1.52 1.731H8.262c-.852 0-1.685-.712-1.526-1.695H2.173c-.863 0-1.705-.73-1.52-1.732.19-1.031.638-2.117 1.342-2.958.29-.348.63-.659 1.015-.904a2.812 2.812 0 0 1-.985-2.141Zm2.818-1.569a1.569 1.569 0 1 0 0 3.137 1.569 1.569 0 0 0 0-3.137Zm2.242 8.054c.173-.451.396-.89.667-1.29l-.016.005C7.2 8.513 6.209 7.512 4.955 7.512c-.794 0-1.466.388-2.002 1.029-.541.648-.913 1.524-1.071 2.382a.172.172 0 0 0 .049.16c.05.052.135.096.242.096h4.912Zm3.96-6.351a1.568 1.568 0 1 0 0 3.137 1.568 1.568 0 0 0 0-3.137Zm-1.996 5.414c-.544.647-.918 1.52-1.077 2.377a.171.171 0 0 0 .049.159.328.328 0 0 0 .242.096h5.563a.333.333 0 0 0 .243-.096.174.174 0 0 0 .049-.16c-.157-.858-.527-1.732-1.066-2.377-.533-.638-1.203-1.026-1.997-1.026s-1.469.388-2.006 1.027Z" clip-rule="evenodd"/>
</svg>
