<svg xmlns="http://www.w3.org/2000/svg" width="24" height="24" fill="currentColor" viewBox="0 0 24 24">
  <path fill="#000" fill-rule="evenodd" d="M4.321 7.652a3.65 3.65 0 1 1 6.066 2.736c1.09.606 1.921 1.615 2.49 2.71a5.32 5.32 0 0 1 .653-.449 3.65 3.65 0 1 1 4.712-.008 5.655 5.655 0 0 1 1.437 1.211c.913 1.06 1.507 2.434 1.778 3.756.283 1.377-.882 2.39-2.076 2.39h-7c-1.137 0-2.25-.918-2.106-2.196H4.619c-1.194 0-2.36-1.012-2.076-2.39.274-1.324.87-2.7 1.786-3.762.388-.45.839-.848 1.349-1.158a3.643 3.643 0 0 1-1.357-2.84Zm3.65-2.15a2.15 2.15 0 1 0 0 4.3 2.15 2.15 0 0 0 0-4.3Zm2.71 10.8c.268-.72.631-1.42 1.09-2.04-.734-1.717-2.021-2.96-3.652-2.96-1.053 0-1.943.504-2.654 1.328-.718.833-1.22 1.962-1.453 3.085a.417.417 0 0 0 .111.385.679.679 0 0 0 .496.202h6.063Zm5.2-8.595a2.15 2.15 0 1 0 0 4.3 2.15 2.15 0 0 0 0-4.3Zm-2.647 7.126c-.72.831-1.226 1.958-1.46 3.079a.416.416 0 0 0 .111.384.679.679 0 0 0 .495.202h7a.68.68 0 0 0 .497-.202.417.417 0 0 0 .11-.386c-.23-1.122-.729-2.249-1.444-3.079-.708-.821-1.595-1.324-2.648-1.324-1.054 0-1.947.504-2.66 1.326Z" clip-rule="evenodd"/>
</svg>
