<svg xmlns="http://www.w3.org/2000/svg" width="24" height="24" fill="currentColor" viewBox="0 0 24 24">
  <path fill="#000" fill-rule="evenodd" d="M13.758 2.762a2.748 2.748 0 0 0-3.498-.014L8.975 3.801a1.25 1.25 0 0 1-.68.278l-1.583.145a2.748 2.748 0 0 0-2.484 2.464l-.164 1.654a1.252 1.252 0 0 1-.284.676l-1.018 1.223a2.748 2.748 0 0 0-.013 3.498L3.8 15.025c.159.194.256.43.279.68l.145 1.583a2.748 2.748 0 0 0 2.464 2.484l1.655.164c.248.025.483.123.675.283l1.232 1.02a2.748 2.748 0 0 0 3.498.01l1.278-1.051c.193-.159.43-.256.679-.28l1.59-.148a2.748 2.748 0 0 0 2.48-2.467l.162-1.645a1.25 1.25 0 0 1 .283-.679l1.017-1.221a2.747 2.747 0 0 0 .014-3.498l-1.054-1.287a1.253 1.253 0 0 1-.278-.678l-.149-1.592a2.748 2.748 0 0 0-2.468-2.48l-1.644-.16a1.252 1.252 0 0 1-.68-.285l-1.22-1.016Zm-2.55 1.143a1.253 1.253 0 0 1 1.594.006l1.222 1.017c.423.352.941.568 1.489.622l1.645.161a1.252 1.252 0 0 1 1.124 1.13l.149 1.593c.05.545.263 1.062.61 1.486l1.054 1.287c.38.464.377 1.133-.007 1.595l-1.016 1.221a2.747 2.747 0 0 0-.622 1.49l-.162 1.644a1.252 1.252 0 0 1-1.13 1.125l-1.591.148a2.747 2.747 0 0 0-1.49.613l-1.278 1.05a1.253 1.253 0 0 1-1.594-.004l-1.231-1.021a2.747 2.747 0 0 0-1.482-.62l-1.655-.164a1.252 1.252 0 0 1-1.123-1.132l-.145-1.584a2.748 2.748 0 0 0-.61-1.49l-1.054-1.286a1.252 1.252 0 0 1 .007-1.594l1.017-1.223c.351-.422.568-.94.622-1.485l.165-1.654a1.252 1.252 0 0 1 1.132-1.123l1.584-.145a2.748 2.748 0 0 0 1.49-.61l1.286-1.053Zm5.432 6.571a.748.748 0 1 0-1.057-1.057l-4.719 4.719-2.447-2.447a.748.748 0 0 0-1.057 1.057l2.623 2.623a1.246 1.246 0 0 0 1.762 0l4.895-4.895Z" clip-rule="evenodd"/>
</svg>
