<svg xmlns="http://www.w3.org/2000/svg" width="16" height="16" fill="currentColor" viewBox="0 0 16 16">
  <path fill="#000" fill-rule="evenodd" d="M9.201.935a1.875 1.875 0 0 0-2.387-.01l-1.17.958a.625.625 0 0 1-.338.139l-1.452.133a1.875 1.875 0 0 0-1.695 1.681l-.15 1.504a.625.625 0 0 1-.141.338l-.933 1.12a1.875 1.875 0 0 0-.01 2.388l.958 1.17a.627.627 0 0 1 .139.338l.133 1.453a1.875 1.875 0 0 0 1.681 1.694l1.505.15a.625.625 0 0 1 .337.141l1.128.935a1.875 1.875 0 0 0 2.387.006l1.164-.956a.625.625 0 0 1 .338-.14l1.458-.135a1.875 1.875 0 0 0 1.692-1.684l.147-1.498a.624.624 0 0 1 .141-.338l.933-1.12a1.879 1.879 0 0 0 .01-2.388l-.96-1.17a.624.624 0 0 1-.138-.338l-.136-1.459a1.875 1.875 0 0 0-1.684-1.692l-1.498-.147a.625.625 0 0 1-.338-.141L9.202.935Zm-1.595.957a.625.625 0 0 1 .796.004l1.12.932c.289.24.643.388 1.017.424l1.497.147c.298.03.534.266.561.564l.136 1.459c.035.372.18.725.417 1.014l.958 1.17a.625.625 0 0 1-.003.796l-.933 1.12c-.24.289-.388.643-.424 1.016l-.147 1.498a.625.625 0 0 1-.564.561l-1.458.136c-.373.035-.727.18-1.016.418l-1.164.956a.625.625 0 0 1-.795-.002l-1.128-.935a1.874 1.874 0 0 0-1.011-.423l-1.505-.15a.625.625 0 0 1-.56-.564l-.134-1.453a1.875 1.875 0 0 0-.416-1.016l-.958-1.17a.625.625 0 0 1 .004-.796l.932-1.12c.24-.289.388-.642.425-1.014l.15-1.504a.625.625 0 0 1 .565-.56l1.452-.134a1.876 1.876 0 0 0 1.017-.416l1.17-.958Zm3.9 5.02a.625.625 0 0 0-.883-.884l-3.47 3.47L5.377 7.72a.625.625 0 0 0-.884.884l2.041 2.042a.875.875 0 0 0 1.238 0l3.735-3.736Z" clip-rule="evenodd"/>
</svg>
