<svg xmlns="http://www.w3.org/2000/svg" width="24" height="24" fill="currentColor" viewBox="0 0 24 24">
  <path fill="#000" fill-rule="evenodd" d="M11.822 5.81a.25.25 0 0 1 .421.181v11.992a.25.25 0 0 1-.421.182l-2.485-2.343a2.75 2.75 0 0 0-1.886-.75H4.75a1.25 1.25 0 0 1-1.25-1.25v-3.666c0-.69.56-1.25 1.25-1.25h2.7a2.75 2.75 0 0 0 1.888-.75l2.484-2.347Zm1.921.181c0-1.535-1.835-2.326-2.951-1.272L8.308 7.065a1.25 1.25 0 0 1-.858.341h-2.7A2.75 2.75 0 0 0 2 10.156v3.667a2.75 2.75 0 0 0 2.75 2.75h2.7c.32 0 .626.122.858.34l2.485 2.343c1.116 1.053 2.95.261 2.95-1.273V5.99Zm8.037 2.98a.75.75 0 0 1 0 1.06l-1.968 1.968 1.968 1.968a.75.75 0 1 1-1.06 1.06l-1.968-1.967-1.968 1.967a.75.75 0 0 1-1.061-1.06l1.968-1.968-1.968-1.968a.75.75 0 0 1 1.06-1.06l1.969 1.967L20.72 8.97a.75.75 0 0 1 1.06 0Z" clip-rule="evenodd"/>
</svg>
