<svg xmlns="http://www.w3.org/2000/svg" width="24" height="24" fill="currentColor" viewBox="0 0 24 24">
  <path fill="#000" fill-rule="evenodd" d="M16.064 4.58a.75.75 0 0 1 .986-.394C19.973 5.439 22 8.483 22 12c0 3.517-2.027 6.561-4.95 7.814a.75.75 0 1 1-.591-1.38C18.805 17.43 20.5 14.944 20.5 12c0-2.945-1.695-5.43-4.041-6.435a.75.75 0 0 1-.395-.985Zm-.752 4.11a.75.75 0 0 1 .987-.388c1.387.604 2.322 2.053 2.322 3.698s-.935 3.095-2.322 3.698a.75.75 0 1 1-.599-1.376c.806-.35 1.42-1.236 1.42-2.322 0-1.085-.614-1.972-1.42-2.322a.75.75 0 0 1-.388-.988ZM11.82 5.81a.25.25 0 0 1 .421.18v11.993a.25.25 0 0 1-.421.181l-2.485-2.342a2.75 2.75 0 0 0-1.886-.75h-2.7c-.69 0-1.25-.56-1.25-1.25v-3.666c0-.69.56-1.25 1.25-1.25h2.7a2.75 2.75 0 0 0 1.888-.751l2.484-2.346Zm1.921.18c0-1.534-1.835-2.325-2.951-1.271L8.307 7.065a1.25 1.25 0 0 1-.858.34h-2.7a2.75 2.75 0 0 0-2.75 2.75v3.668a2.75 2.75 0 0 0 2.75 2.75h2.7c.32 0 .626.121.858.34l2.485 2.343c1.116 1.052 2.95.261 2.95-1.273V5.99Z" clip-rule="evenodd"/>
</svg>
