<svg xmlns="http://www.w3.org/2000/svg" width="16" height="16" fill="currentColor" viewBox="0 0 16 16">
  <path fill="#000" fill-rule="evenodd" d="M5.986 5.207 8.105 3.26v9.425l-2.119-1.947a1.875 1.875 0 0 0-1.268-.494H2.376a.625.625 0 0 1-.625-.625V6.326c0-.345.28-.625.625-.625h2.342c.47 0 .923-.177 1.268-.494Zm3.369-2.231c0-.98-1.165-1.491-1.886-.829L5.14 4.286a.625.625 0 0 1-.423.165H2.376A1.874 1.874 0 0 0 .501 6.326v3.293c0 1.036.84 1.875 1.875 1.875h2.342c.157 0 .307.059.423.165l2.328 2.138c.721.663 1.886.151 1.886-.828V2.976Zm5.961 2.715a.625.625 0 0 1 0 .884l-1.425 1.426 1.425 1.425a.625.625 0 0 1-.883.884l-1.426-1.425-1.425 1.425a.625.625 0 1 1-.884-.884l1.425-1.425-1.425-1.425a.625.625 0 1 1 .884-.884l1.425 1.425 1.426-1.426a.625.625 0 0 1 .883 0Z" clip-rule="evenodd"/>
</svg>
