<svg xmlns="http://www.w3.org/2000/svg" width="16" height="16" fill="currentColor" viewBox="0 0 16 16">
  <path fill="#000" fill-rule="evenodd" d="m5.986 5.206 2.119-1.947v9.425l-2.119-1.947a1.875 1.875 0 0 0-1.268-.494H2.376a.625.625 0 0 1-.625-.625V6.325c0-.345.28-.625.625-.625h2.342c.47 0 .923-.177 1.268-.494Zm3.369-2.231c0-.98-1.165-1.491-1.886-.829L5.14 4.285a.625.625 0 0 1-.423.165H2.376C1.34 4.45.501 5.29.501 6.325v3.293c0 1.036.84 1.875 1.875 1.875h2.342c.157 0 .307.059.423.165l2.328 2.139c.721.662 1.886.15 1.886-.829V2.975Zm1.538-.66a.625.625 0 0 1 .832-.3c2.134 1.003 3.776 3.13 3.776 5.98 0 2.85-1.642 4.978-3.776 5.98a.625.625 0 0 1-.532-1.131c1.738-.817 3.058-2.529 3.058-4.849 0-2.32-1.32-4.032-3.058-4.849a.625.625 0 0 1-.3-.831Zm-.521 3.178a.625.625 0 0 1 .822-.324c1.065.463 1.779 1.574 1.779 2.83 0 1.257-.714 2.368-1.779 2.831a.625.625 0 0 1-.498-1.146c.58-.252 1.027-.893 1.027-1.684 0-.791-.448-1.432-1.027-1.685a.625.625 0 0 1-.324-.822Z" clip-rule="evenodd"/>
</svg>
