<svg xmlns="http://www.w3.org/2000/svg" width="16" height="16" fill="currentColor" viewBox="0 0 16 16">
  <path fill="#000" d="m10.885 4.32-.046.132a4.134 4.134 0 0 1-2.432 2.489c-.236.09-.497.09-.733 0A4.128 4.128 0 0 1 5.25 4.456l-.048-.136a.37.37 0 0 1 .349-.493h4.986a.37.37 0 0 1 .348.493Z"/>
  <path fill="#000" fill-rule="evenodd" d="M2.249 1.499a.625.625 0 0 0 0 1.25h.248v.535c0 1.695.716 3.31 1.971 4.449a.362.362 0 0 1 0 .535 6.026 6.026 0 0 0-1.98 4.443l-.001.54H2.25a.625.625 0 1 0 0 1.25h11.5a.625.625 0 0 0 0-1.25h-.238l-.002-.54a6.026 6.026 0 0 0-1.979-4.443.362.362 0 0 1 0-.535 6.004 6.004 0 0 0 1.971-4.449v-.535h.248a.625.625 0 1 0 0-1.25H2.248Zm10.014 11.752H3.737l.002-.536a4.776 4.776 0 0 1 1.568-3.52 1.612 1.612 0 0 0 .001-2.389 4.754 4.754 0 0 1-1.561-3.522v-.535h8.506v.535a4.754 4.754 0 0 1-1.561 3.522 1.612 1.612 0 0 0 0 2.389c.995.9 1.565 2.18 1.57 3.52l.001.537Z" clip-rule="evenodd"/>
</svg>
