<svg xmlns="http://www.w3.org/2000/svg" width="24" height="24" fill="currentColor" viewBox="0 0 24 24">
  <path fill="#000" fill-rule="evenodd" d="M4.75 3.634a.75.75 0 0 0 0 1.502h.366v1.212c0 1.888.79 3.69 2.177 4.97l.15.136a.751.751 0 0 1 0 1.105l-.158.145a6.758 6.758 0 0 0-2.178 4.947l-.004 1.232H4.75a.75.75 0 0 0 0 1.501h14.5a.75.75 0 0 0 0-1.5h-.34l-.003-1.233a6.758 6.758 0 0 0-2.178-4.947l-.157-.145a.751.751 0 0 1 0-1.105l.148-.137a6.758 6.758 0 0 0 2.178-4.97v-1.21h.352a.75.75 0 0 0 0-1.502H4.75Zm12.66 15.25H6.604l.004-1.228a5.256 5.256 0 0 1 1.694-3.848l.157-.145a2.253 2.253 0 0 0 0-3.313l-.149-.137a5.256 5.256 0 0 1-1.693-3.865V5.136h10.782v1.212c0 1.468-.614 2.87-1.694 3.865l-.149.137a2.253 2.253 0 0 0 0 3.313l.158.145a5.256 5.256 0 0 1 1.694 3.848l.004 1.227Zm-6.021-8.327L9.926 9.44A6.21 6.21 0 0 1 8.32 7.61a.69.69 0 0 1 .597-1.035h6.167a.69.69 0 0 1 .596 1.034 6.198 6.198 0 0 1-1.61 1.83l-1.468 1.12a1 1 0 0 1-1.213 0Z" clip-rule="evenodd"/>
</svg>
