<svg xmlns="http://www.w3.org/2000/svg" width="24" height="24" fill="currentColor" viewBox="0 0 24 24">
  <path fill="#000" fill-rule="evenodd" d="M19.594 17.741 12.433 5.338a.5.5 0 0 0-.866 0L4.406 17.741a.5.5 0 0 0 .433.75H19.16a.5.5 0 0 0 .433-.75ZM13.732 4.588c-.77-1.333-2.694-1.333-3.464 0L3.107 16.991c-.77 1.334.192 3 1.732 3H19.16c1.54 0 2.502-1.666 1.732-3l-7.16-12.403Z" clip-rule="evenodd"/>
  <path fill="#000" d="M11.125 15.99a.875.875 0 1 1 1.75 0 .875.875 0 0 1-1.75 0Z"/>
  <path fill="#000" fill-rule="evenodd" d="M12 8.87a.75.75 0 0 1 .75.75v3.496a.75.75 0 0 1-1.5 0V9.62a.75.75 0 0 1 .75-.75Z" clip-rule="evenodd"/>
</svg>
