<svg xmlns="http://www.w3.org/2000/svg" width="24" height="24" fill="currentColor" viewBox="0 0 24 24">
  <path fill="#000" fill-rule="evenodd" d="M12 19.087c.953-1.106 2.293-3.338 2.49-6.337H9.51c.197 2.999 1.537 5.23 2.49 6.337Zm1.732.212a7.506 7.506 0 0 0 5.731-6.549h-3.47a12.725 12.725 0 0 1-2.261 6.549Zm2.261-8.049h3.47a7.506 7.506 0 0 0-5.73-6.549 12.725 12.725 0 0 1 2.26 6.549Zm-1.503 0H9.51c.197-3 1.537-5.231 2.49-6.337.953 1.106 2.293 3.338 2.49 6.337Zm-6.483 1.5a12.725 12.725 0 0 0 2.262 6.55 7.506 7.506 0 0 1-5.732-6.55h3.47Zm0-1.5a12.725 12.725 0 0 1 2.261-6.55 7.506 7.506 0 0 0-5.731 6.55h3.47ZM21 12a9 9 0 1 1-18 0 9 9 0 0 1 18 0Z" clip-rule="evenodd"/>
</svg>
