<svg xmlns="http://www.w3.org/2000/svg" width="16" height="16" fill="currentColor" viewBox="0 0 16 16">
  <path fill="#000" fill-rule="evenodd" d="M2.379 7.294a5.413 5.413 0 1 1 10.826 0 5.413 5.413 0 0 1-10.826 0ZM7.792.627a6.667 6.667 0 1 0 3.678 12.228l2.335 2.334a.627.627 0 0 0 .886-.886l-2.24-2.24A6.667 6.667 0 0 0 7.791.627Zm0 2.625c.345 0 .625.28.625.625v2.875h2.875a.625.625 0 1 1 0 1.25H8.417v2.875a.625.625 0 0 1-1.25 0V8.002H4.292a.625.625 0 1 1 0-1.25h2.875V3.877c0-.345.28-.625.625-.625Z" clip-rule="evenodd"/>
</svg>
