<svg xmlns="http://www.w3.org/2000/svg" width="24" height="24" fill="currentColor" viewBox="0 0 24 24">
  <path fill="#000" d="M11.25 6.5a.75.75 0 0 1 .75.75v3.249h3.25a.75.75 0 0 1 0 1.5H12v3.25a.75.75 0 0 1-1.5 0V12H7.25a.75.75 0 0 1 0-1.5h3.25V7.25a.75.75 0 0 1 .75-.75Z"/>
  <path fill="#000" fill-rule="evenodd" d="M11.25 3.25a8 8 0 1 0 4.53 14.594l2.938 2.938a.75.75 0 0 0 1.061-1.06l-2.844-2.845A8 8 0 0 0 11.25 3.25Zm-6.5 8a6.5 6.5 0 1 1 13 0 6.5 6.5 0 0 1-13 0Z" clip-rule="evenodd"/>
</svg>
